<?xml version="1.0" encoding="utf-8"?>
<!-- Generator: Adobe Illustrator 21.0.0, SVG Export Plug-In . SVG Version: 6.00 Build 0)  -->
<svg version="1.1" id="Layer_1" xmlns="http://www.w3.org/2000/svg" xmlns:xlink="http://www.w3.org/1999/xlink" x="0px" y="0px"
	 viewBox="0 0 1366 768" style="enable-background:new 0 0 1366 768;" xml:space="preserve">
<style type="text/css">
	.st0{fill:none;stroke:#FFFFFF;stroke-width:0.75;stroke-miterlimit:10;}
	.st1{fill:none;}
	.st2{fill:#FFFFFF;}
	.st3{font-family:'Helvetica-Bold';}
	.st4{font-size:15px;}
	.st5{fill:none;stroke:#FFFFFF;}
	.st6{fill:none;stroke:#000000;stroke-miterlimit:10;}
	.st7{fill:none;stroke:#000000;stroke-miterlimit:10;stroke-dasharray:20.6087,20.6087;}
	.st8{fill:none;stroke:#000000;stroke-miterlimit:10;stroke-dasharray:10.3333,10.3333;}
	.st9{font-size:20px;}
	.st10{fill:none;stroke:#000000;stroke-miterlimit:10;stroke-dasharray:19.2,19.2;}
	.st11{fill:none;stroke:#000000;stroke-miterlimit:10;stroke-dasharray:20.36,20.36;}
	.st12{fill:none;stroke:#000000;stroke-miterlimit:10;stroke-dasharray:19.6552,19.6552;}
	.st13{fill:none;stroke:#000000;stroke-miterlimit:10;stroke-dasharray:19.8966,19.8966;}
	.st14{fill:none;stroke:#000000;stroke-miterlimit:10;stroke-dasharray:20,20;}
</style>
<g>
	<g>
		<line class="st0" x1="124.5" y1="130" x2="124.5" y2="708.5"/>
	</g>
	<g>
		<line class="st0" x1="150" y1="130.5" x2="150" y2="709"/>
	</g>
	<g>
		<line class="st0" x1="175" y1="130.5" x2="175" y2="709"/>
	</g>
	<g>
		<line class="st0" x1="200" y1="130.5" x2="200" y2="709"/>
	</g>
	<g>
		<line class="st0" x1="225" y1="130.5" x2="225" y2="709"/>
	</g>
	<g>
		<line class="st0" x1="250" y1="130.5" x2="250" y2="709"/>
	</g>
	<g>
		<line class="st0" x1="275" y1="130.5" x2="275" y2="709"/>
	</g>
	<g>
		<line class="st0" x1="300" y1="130.5" x2="300" y2="709"/>
	</g>
	<g>
		<line class="st0" x1="325" y1="130.5" x2="325" y2="709"/>
	</g>
	<g>
		<line class="st0" x1="349.5" y1="130" x2="349.5" y2="708.5"/>
	</g>
	<g>
		<line class="st0" x1="375" y1="130.5" x2="375" y2="709"/>
	</g>
	<g>
		<line class="st0" x1="400" y1="130.5" x2="400" y2="709"/>
	</g>
	<g>
		<line class="st0" x1="425" y1="130.5" x2="425" y2="709"/>
	</g>
	<g>
		<line class="st0" x1="450" y1="130.5" x2="450" y2="709"/>
	</g>
	<g>
		<line class="st0" x1="475" y1="130.5" x2="475" y2="709"/>
	</g>
	<g>
		<line class="st0" x1="500" y1="130.5" x2="500" y2="709"/>
	</g>
	<g>
		<line class="st0" x1="525" y1="130.5" x2="525" y2="709"/>
	</g>
	<g>
		<line class="st0" x1="550" y1="130.5" x2="550" y2="709"/>
	</g>
	<g>
		<line class="st0" x1="574.5" y1="130" x2="574.5" y2="708.5"/>
	</g>
	<g>
		<line class="st0" x1="600" y1="130.5" x2="600" y2="709"/>
	</g>
	<g>
		<line class="st0" x1="625" y1="130.5" x2="625" y2="709"/>
	</g>
	<g>
		<line class="st0" x1="650" y1="130.5" x2="650" y2="709"/>
	</g>
	<g>
		<line class="st0" x1="675" y1="130.5" x2="675" y2="709"/>
	</g>
	<g>
		<line class="st0" x1="700" y1="130.5" x2="700" y2="709"/>
	</g>
	<g>
		<line class="st0" x1="725" y1="130.5" x2="725" y2="709"/>
	</g>
	<g>
		<line class="st0" x1="750" y1="130.5" x2="750" y2="709"/>
	</g>
	<g>
		<line class="st0" x1="775" y1="130.5" x2="775" y2="709"/>
	</g>
	<g>
		<line class="st0" x1="799.5" y1="130" x2="799.5" y2="708.5"/>
	</g>
	<g>
		<line class="st0" x1="825" y1="130.5" x2="825" y2="709"/>
	</g>
	<g>
		<line class="st0" x1="850" y1="130.5" x2="850" y2="709"/>
	</g>
	<g>
		<line class="st0" x1="875" y1="130.5" x2="875" y2="709"/>
	</g>
	<g>
		<line class="st0" x1="900" y1="130.5" x2="900" y2="709"/>
	</g>
	<g>
		<line class="st0" x1="925" y1="130.5" x2="925" y2="709"/>
	</g>
	<g>
		<line class="st0" x1="950" y1="130.5" x2="950" y2="709"/>
	</g>
	<g>
		<line class="st0" x1="975" y1="130.5" x2="975" y2="709"/>
	</g>
	<g>
		<line class="st0" x1="1000" y1="130.5" x2="1000" y2="709"/>
	</g>
	<g>
		<line class="st0" x1="1025" y1="130.5" x2="1025" y2="709"/>
	</g>
	<g>
		<path class="st0" d="M1052,709"/>
	</g>
	<g>
		<path class="st0" d="M1052,130.5"/>
	</g>
	<g>
		<line class="st0" x1="99.8" y1="680" x2="1046" y2="680"/>
	</g>
	<g>
		<line class="st0" x1="99.8" y1="655" x2="1046" y2="655"/>
	</g>
	<g>
		<line class="st0" x1="99.8" y1="630" x2="1046" y2="630"/>
	</g>
	<g>
		<line class="st0" x1="99.8" y1="605" x2="1046" y2="605"/>
	</g>
	<g>
		<line class="st0" x1="99" y1="580.5" x2="1045.2" y2="580.5"/>
	</g>
	<g>
		<line class="st0" x1="99.8" y1="555" x2="1046" y2="555"/>
	</g>
	<g>
		<line class="st0" x1="99.8" y1="530" x2="1046" y2="530"/>
	</g>
	<g>
		<line class="st0" x1="99.8" y1="505" x2="1046" y2="505"/>
	</g>
	<g>
		<line class="st0" x1="99.8" y1="480" x2="1046" y2="480"/>
	</g>
	<g>
		<line class="st0" x1="99.8" y1="455" x2="1046" y2="455"/>
	</g>
	<g>
		<line class="st0" x1="99.8" y1="430" x2="1046" y2="430"/>
	</g>
	<g>
		<line class="st0" x1="99.8" y1="405" x2="1046" y2="405"/>
	</g>
	<g>
		<line class="st0" x1="99.8" y1="380" x2="1046" y2="380"/>
	</g>
	<g>
		<line class="st0" x1="99" y1="355.5" x2="1045.2" y2="355.5"/>
	</g>
	<g>
		<line class="st0" x1="99.8" y1="330" x2="1046" y2="330"/>
	</g>
	<g>
		<line class="st0" x1="99.8" y1="305" x2="1046" y2="305"/>
	</g>
	<g>
		<line class="st0" x1="99.8" y1="280" x2="1046" y2="280"/>
	</g>
	<g>
		<line class="st0" x1="99.8" y1="255" x2="1046" y2="255"/>
	</g>
	<g>
		<line class="st0" x1="99.8" y1="230" x2="1046" y2="230"/>
	</g>
	<g>
		<line class="st0" x1="99.8" y1="205" x2="1046" y2="205"/>
	</g>
	<g>
		<line class="st0" x1="99.8" y1="180" x2="1046" y2="180"/>
	</g>
	<g>
		<line class="st0" x1="99.8" y1="155" x2="1046" y2="155"/>
	</g>
</g>
<g id="units">
	<rect x="124.6" y="105" class="st1" width="47.4" height="31"/>
	<text transform="matrix(1 0 0 1 124.6021 115.7461)" class="st2 st3 st4">0</text>
	<rect x="224.6" y="105" class="st1" width="47.4" height="31"/>
	<text transform="matrix(1 0 0 1 224.6021 115.7461)" class="st2 st3 st4">10</text>
	<rect x="324.6" y="105" class="st1" width="47.4" height="31"/>
	<text transform="matrix(1 0 0 1 324.6021 115.7461)" class="st2 st3 st4">20</text>
	<rect x="424.6" y="105" class="st1" width="47.4" height="31"/>
	<text transform="matrix(1 0 0 1 424.6021 115.7461)" class="st2 st3 st4">30</text>
	<rect x="524.6" y="105" class="st1" width="47.4" height="31"/>
	<text transform="matrix(1 0 0 1 524.6021 115.7461)" class="st2 st3 st4">40</text>
	<rect x="624.6" y="105" class="st1" width="47.4" height="31"/>
	<text transform="matrix(1 0 0 1 624.6021 115.7461)" class="st2 st3 st4">50</text>
	<rect x="725.6" y="105" class="st1" width="47.4" height="31"/>
	<text transform="matrix(1 0 0 1 725.6021 115.7461)" class="st2 st3 st4">60</text>
	<rect x="824.6" y="105" class="st1" width="47.4" height="31"/>
	<text transform="matrix(1 0 0 1 824.6021 115.7461)" class="st2 st3 st4">70</text>
	<rect x="924.6" y="105" class="st1" width="47.4" height="31"/>
	<text transform="matrix(1 0 0 1 924.6016 115.7461)" class="st2 st3 st4">80</text>
	<rect x="1024.6" y="105" class="st1" width="47.4" height="31"/>
	<text transform="matrix(1 0 0 1 1024.6016 115.7461)" class="st2 st3 st4">90</text>
	<rect x="49.6" y="629" class="st1" width="47.4" height="31"/>
	<text transform="matrix(1 0 0 1 49.6021 639.7461)" class="st2 st3 st4">2017</text>
	<rect x="49.6" y="580" class="st1" width="47.4" height="31"/>
	<text transform="matrix(1 0 0 1 49.6021 590.7461)" class="st2 st3 st4">2016</text>
	<rect x="49.6" y="529" class="st1" width="47.4" height="31"/>
	<text transform="matrix(1 0 0 1 49.6021 539.7461)" class="st2 st3 st4">2015</text>
	<rect x="49.6" y="479" class="st1" width="47.4" height="31"/>
	<text transform="matrix(1 0 0 1 49.6021 489.7461)" class="st2 st3 st4">2014</text>
	<rect x="49.6" y="429" class="st1" width="47.4" height="31"/>
	<text transform="matrix(1 0 0 1 49.6021 439.7461)" class="st2 st3 st4">2013</text>
	<rect x="49.6" y="379" class="st1" width="47.4" height="31"/>
	<text transform="matrix(1 0 0 1 49.6021 389.7461)" class="st2 st3 st4">2012</text>
	<rect x="49.6" y="329" class="st1" width="47.4" height="31"/>
	<text transform="matrix(1 0 0 1 49.6021 339.7461)" class="st2 st3 st4">2011</text>
	<rect x="49.6" y="279" class="st1" width="47.4" height="31"/>
	<text transform="matrix(1 0 0 1 49.6021 289.7461)" class="st2 st3 st4">2010</text>
	<rect x="49.6" y="229" class="st1" width="47.4" height="31"/>
	<text transform="matrix(1 0 0 1 49.6021 239.7461)" class="st2 st3 st4">2009</text>
	<rect x="51.6" y="179" class="st1" width="47.4" height="31"/>
	<text transform="matrix(1 0 0 1 51.6021 189.7461)" class="st2 st3 st4">2008</text>
</g>
<g id="title">
	<g>
		<path class="st5" d="M1316.6,161.9c-0.9,2-2.2,3.7-3.8,5.2c-1.4,1.2-2.9,2.1-4.6,2.8s-3.6,1-5.8,1c-2.6,0-5.2-0.7-7.7-2
			s-4.3-3.5-5.4-6.5c-1,2.5-2.5,4.3-4.3,5.4c-1.9,1.1-4.7,1.6-8.6,1.6h-3.7c-2.5,0-4.2,0.1-5.1,0.3c-1.4,0.3-2.5,1-3.1,2.1h-1.4V159
			c1.2-0.3,2.2-0.6,2.9-0.7c1.5-0.3,3.1-0.5,4.7-0.5l5.1-0.1c3.5,0,5.8-0.7,7-1.8c1.2-1.2,1.8-3.3,1.8-6.6v-11.2H1263v-11.2h55v26.3
			C1317.9,156.9,1317.4,159.8,1316.6,161.9z M1308.4,138.1h-14.8v12.4c0,2.5,0.3,4.3,0.9,5.5c1,2.2,3.1,3.3,6.2,3.3
			c3.3,0,5.6-1.1,6.7-3.2c0.6-1.2,1-3,1-5.3L1308.4,138.1L1308.4,138.1z"/>
		<path class="st5" d="M1308.5,191.9v-10.8h9.8v10.8H1308.5z M1303.7,181.1v10.8H1263v-10.8H1303.7z"/>
		<path class="st5" d="M1303,223.8c-1.1,1.9-2.6,3.5-4.5,4.7h19.4v10.8H1263V229h5.6c-2.4-1.5-4.2-3.2-5.3-5.2s-1.6-4.4-1.6-7.2
			c0-4.8,1.9-8.8,5.8-12s8.8-4.9,14.8-4.9c6.9,0,12.4,1.6,16.4,4.8s6,7.5,6,12.8C1304.6,219.7,1304.1,221.8,1303,223.8z M1274,226.4
			c2.2,1.6,5.1,2.4,8.7,2.4c5,0,8.5-1.3,10.7-3.8c1.3-1.5,1.9-3.3,1.9-5.4c0-3.1-1.2-5.4-3.5-6.8c-2.4-1.5-5.3-2.2-8.8-2.2
			c-3.8,0-6.8,0.7-9,2.2c-2.3,1.5-3.4,3.7-3.4,6.7C1270.7,222.5,1271.8,224.8,1274,226.4z"/>
		<path class="st5" d="M1302.8,275.4c-1.3,2.8-3.3,5.2-6,7c-2.4,1.7-5.2,2.7-8.4,3.2c-1.9,0.3-4.6,0.4-8.1,0.4v-29.6
			c-4.1,0.2-6.9,1.6-8.6,4.3c-1,1.6-1.5,3.6-1.5,5.9c0,2.4,0.6,4.4,1.9,5.9c0.7,0.8,1.6,1.6,2.8,2.2v10.9c-2.4-0.3-4.9-1.6-7.4-3.9
			c-4-3.6-5.9-8.7-5.9-15.3c0-5.4,1.7-10.2,5-14.3c3.3-4.1,8.8-6.2,16.3-6.2c7,0,12.5,1.9,16.2,5.6c3.8,3.7,5.6,8.6,5.6,14.6
			C1304.7,269.4,1304.1,272.6,1302.8,275.4z M1293.6,259.5c-1.6-1.5-3.6-2.4-6.3-2.8V275c2.8-0.2,5-1.1,6.4-2.8
			c1.5-1.7,2.2-3.8,2.2-6.3C1296,263.1,1295.2,261,1293.6,259.5z"/>
		<path class="st5" d="M1304.6,314c0,0.1,0,0.4-0.1,0.9h-10.9c0.1-0.7,0.1-1.3,0.1-1.8s0-0.9,0-1.3c0-4.3-1.4-7.2-4.2-8.6
			c-1.6-0.8-4-1.2-7.2-1.2H1263v-10.7h40.7v10.2h-7.1c2.7,1.6,4.6,3.1,5.6,4.3c1.7,2,2.5,4.6,2.5,7.8
			C1304.6,313.7,1304.6,313.9,1304.6,314z"/>
		<path class="st5" d="M1276,329.4c-1.9,0.2-3.2,0.7-4,1.5c-1.4,1.3-2.1,3.8-2.1,7.4c0,2.1,0.3,3.8,0.9,5s1.6,1.9,2.8,1.9
			c1.2,0,2.1-0.5,2.7-1.5s1.7-4.7,3.2-11.1c1.1-4.6,2.6-7.9,4.3-9.8c1.7-1.9,4.1-2.8,7.3-2.8c3.8,0,7,1.5,9.7,4.4
			c2.7,3,4.1,7.1,4.1,12.5c0,5.1-1,9.2-3,12.4c-2,3.2-5.5,5-10.5,5.5v-10.6c1.4-0.2,2.5-0.5,3.2-1.2c1.4-1.2,2.2-3.2,2.2-6
			c0-2.3-0.4-4-1.1-5s-1.6-1.5-2.5-1.5c-1.2,0-2.1,0.5-2.7,1.6c-0.6,1-1.6,4.8-2.9,11.1c-1,4.2-2.5,7.4-4.5,9.5s-4.6,3.1-7.7,3.1
			c-4,0-7.3-1.5-9.9-4.5s-3.8-7.6-3.8-13.9c0-6.4,1.4-11.1,4.1-14.2s6.1-4.6,10.3-4.6L1276,329.4L1276,329.4z"/>
		<path class="st5" d="M1308.5,395.8V385h9.8v10.8H1308.5z M1303.7,385.1v10.8H1263v-10.8H1303.7z"/>
		<path class="st5" d="M1301.3,439c-2.2,2.7-5.9,4-11,4H1263v-10.9h24.7c2.1,0,3.8-0.3,4.9-0.9c2.1-1,3.1-3,3.1-5.9
			c0-3.6-1.5-6-4.6-7.4c-1.6-0.7-3.7-1-6.2-1h-22v-10.6h40.6v10.3h-5.9c2.1,1.4,3.6,2.7,4.5,3.9c1.6,2.2,2.5,4.9,2.5,8.3
			C1304.6,432.9,1303.5,436.3,1301.3,439z"/>
		<path class="st5" d="M1295.7,469.9h7.6v5.7h11.3v10.5h-11.3v6.6h-7.6v-6.6h-21.5c-1.7,0-2.7,0.2-3.1,0.6s-0.6,1.7-0.6,3.9
			c0,0.3,0,0.7,0,1c0,0.4,0,0.7,0.1,1.1h-8l-0.2-5c-0.2-5,0.7-8.5,2.6-10.3c1.2-1.2,3.1-1.8,5.6-1.8h25L1295.7,469.9L1295.7,469.9z"
			/>
		<path class="st5" d="M1303.4,528.8c-0.9,2-2.2,3.7-4,5c-1.5,1.1-3.1,1.8-4.7,2s-4.2,0.4-7.9,0.4H1263v-10.9h24.8
			c2.2,0,4-0.4,5.3-1.1c1.9-1,2.8-2.8,2.8-5.5c0-2.8-0.9-4.9-2.8-6.4c-1.9-1.4-4.6-2.2-8.1-2.2h-22v-10.6h54.8v10.6h-19.4
			c2.4,1.5,4,3.3,4.9,5.3s1.4,4.1,1.4,6.4C1304.7,524.5,1304.3,526.7,1303.4,528.8z"/>
		<path class="st5" d="M1302.8,572.8c-1.3,2.8-3.3,5.2-6,7c-2.4,1.7-5.2,2.7-8.4,3.2c-1.9,0.3-4.6,0.4-8.1,0.4v-29.6
			c-4.1,0.2-6.9,1.6-8.6,4.3c-1,1.6-1.5,3.6-1.5,5.9c0,2.4,0.6,4.4,1.9,5.9c0.7,0.8,1.6,1.6,2.8,2.2V583c-2.4-0.3-4.9-1.6-7.4-3.9
			c-4-3.6-5.9-8.7-5.9-15.3c0-5.4,1.7-10.2,5-14.3s8.8-6.2,16.3-6.2c7,0,12.5,1.9,16.2,5.6c3.8,3.7,5.6,8.6,5.6,14.6
			C1304.7,566.7,1304.1,569.9,1302.8,572.8z M1293.6,556.8c-1.6-1.5-3.6-2.4-6.3-2.8v18.3c2.8-0.2,5-1.1,6.4-2.8
			c1.5-1.7,2.2-3.8,2.2-6.3C1296,560.5,1295.2,558.3,1293.6,556.8z"/>
		<path class="st5" d="M1318,610.9v11.7h-33.8c-3.8,0-6.5,0.4-8.3,1.3c-3.1,1.4-4.6,4.4-4.6,9.1c0,4.6,1.5,7.6,4.6,9
			c1.7,0.9,4.5,1.3,8.3,1.3h33.8V655h-33.8c-5.8,0-10.4-0.9-13.7-2.7c-6-3.4-9-9.8-9-19.3s3-16,9-19.4c3.3-1.8,7.8-2.7,13.7-2.7
			L1318,610.9L1318,610.9z"/>
		<path class="st5" d="M1279.9,674.4c-2.5,0.4-4.4,1.1-5.6,2.1c-2.3,1.9-3.4,5.2-3.4,9.8c0,2.8,0.3,5,0.9,6.7
			c1.1,3.3,3.3,4.9,6.4,4.9c1.8,0,3.2-0.8,4.2-2.4c1-1.6,1.8-4.2,2.6-7.6l1.3-6c1.3-5.9,2.7-9.9,4.2-12.1c2.5-3.7,6.5-5.6,11.9-5.6
			c4.9,0,9,1.8,12.3,5.4c3.3,3.6,4.9,9,4.9,16c0,5.9-1.5,10.9-4.6,15s-7.5,6.3-13.4,6.5v-11c3.3-0.2,5.7-1.7,7.1-4.4
			c0.9-1.8,1.4-4.1,1.4-6.8c0-3-0.6-5.5-1.8-7.3c-1.2-1.8-2.9-2.7-5-2.7c-2,0-3.4,0.9-4.4,2.7c-0.6,1.1-1.4,3.6-2.3,7.3l-2.3,9.7
			c-1,4.2-2.3,7.4-4,9.5c-2.6,3.3-6.3,4.9-11.2,4.9c-5,0-9.2-1.9-12.5-5.8c-3.3-3.9-5-9.4-5-16.5c0-7.2,1.6-12.9,4.9-17.1
			c3.3-4.2,7.8-6.2,13.5-6.2L1279.9,674.4L1279.9,674.4z"/>
		<path class="st5" d="M1216.8,136.7v-10.8h9.8v10.8H1216.8z M1211.9,125.9v10.8h-40.7v-10.8
			C1171.2,125.9,1211.9,125.9,1211.9,125.9z"/>
		<path class="st5" d="M1209.6,179.8c-2.2,2.7-5.9,4-11,4h-27.4v-10.9h24.7c2.1,0,3.8-0.3,4.9-0.9c2.1-1,3.1-3,3.1-5.9
			c0-3.6-1.5-6-4.6-7.4c-1.6-0.7-3.7-1-6.2-1h-22V147h40.6v10.3h-5.9c2.1,1.4,3.6,2.7,4.5,3.9c1.6,2.2,2.5,4.9,2.5,8.3
			C1212.9,173.7,1211.8,177.1,1209.6,179.8z"/>
		<path class="st5" d="M1211.8,265.7c-0.7,1.7-1.9,3.3-3.7,4.7c-1.4,1.1-3.2,1.9-5.2,2.3c-1.4,0.2-3.4,0.4-6,0.4l-25.6-0.1v-10.9
			h25.9c1.5,0,2.8-0.2,3.8-0.7c1.9-0.9,2.8-2.7,2.8-5.2c0-2.9-1.2-5-3.7-6.1c-1.3-0.6-2.9-0.9-4.7-0.9h-24.2v-10.7h24.2
			c2.4,0,4.2-0.2,5.3-0.7c2-0.9,2.9-2.7,2.9-5.3c0-3-1-5.1-2.9-6.1c-1.1-0.6-2.8-0.9-5-0.9h-24.5v-10.8h40.6V225h-5.9
			c2.1,1.3,3.6,2.6,4.5,3.7c1.6,2.1,2.4,4.7,2.4,8c0,3.1-0.7,5.6-2.1,7.5c-1.3,1.5-2.9,2.7-4.9,3.5c2.4,1.4,4.1,3.1,5.3,5.2
			c1.1,2.2,1.7,4.6,1.7,7.3C1212.8,262.2,1212.5,263.9,1211.8,265.7z"/>
		<path class="st5" d="M1216.8,293.8V283h9.8v10.8H1216.8z M1211.9,283v10.8h-40.7V283H1211.9z"/>
		<path class="st5" d="M1171.2,315v-10.6h55V315H1171.2z"/>
		<path class="st5" d="M1171.2,336.2v-10.6h55v10.6H1171.2z"/>
		<path class="st5" d="M1216.8,357.5v-10.8h9.8v10.8H1216.8z M1211.9,346.8v10.8h-40.7v-10.8H1211.9z"/>
		<path class="st5" d="M1176.2,401.8c-4.2-3.4-6.4-8.6-6.4-15.6s2.1-12.2,6.4-15.6c4.2-3.4,9.3-5.2,15.3-5.2c5.9,0,11,1.7,15.3,5.2
			c4.3,3.4,6.5,8.6,6.5,15.6s-2.2,12.2-6.5,15.6s-9.4,5.2-15.3,5.2C1185.5,406.9,1180.4,405.2,1176.2,401.8z M1182.1,393.3
			c2.2,1.7,5.4,2.5,9.4,2.5c4.1,0,7.2-0.8,9.4-2.5c2.2-1.7,3.3-4.1,3.3-7.2s-1.1-5.5-3.3-7.2c-2.2-1.7-5.3-2.5-9.4-2.5
			s-7.2,0.8-9.4,2.5c-2.2,1.7-3.3,4.1-3.3,7.2C1178.8,389.2,1179.9,391.6,1182.1,393.3z"/>
		<path class="st5" d="M1209.6,447.4c-2.2,2.7-5.9,4-11,4h-27.4v-10.9h24.7c2.1,0,3.8-0.3,4.9-0.9c2.1-1,3.1-3,3.1-5.9
			c0-3.6-1.5-6-4.6-7.4c-1.6-0.7-3.7-1-6.2-1h-22v-10.6h40.6V425h-5.9c2.1,1.4,3.6,2.7,4.5,3.9c1.6,2.2,2.5,4.9,2.5,8.3
			C1212.9,441.3,1211.8,444.7,1209.6,447.4z"/>
		<path class="st5" d="M1184.2,469.5c-1.9,0.2-3.2,0.7-4,1.5c-1.4,1.3-2.1,3.8-2.1,7.4c0,2.1,0.3,3.8,0.9,5s1.6,1.9,2.8,1.9
			c1.2,0,2.1-0.5,2.7-1.5s1.7-4.7,3.2-11.1c1.1-4.6,2.6-7.9,4.3-9.8c1.7-1.9,4.1-2.8,7.3-2.8c3.8,0,7,1.5,9.7,4.4
			c2.7,3,4.1,7.1,4.1,12.5c0,5.1-1,9.2-3,12.4c-2,3.2-5.5,5-10.5,5.5v-10.6c1.4-0.2,2.5-0.5,3.2-1.2c1.4-1.2,2.2-3.2,2.2-6
			c0-2.3-0.4-4-1.1-5s-1.6-1.5-2.5-1.5c-1.2,0-2.1,0.5-2.7,1.6c-0.6,1-1.6,4.8-2.9,11.1c-1,4.2-2.5,7.4-4.5,9.5s-4.6,3.1-7.7,3.1
			c-4,0-7.3-1.5-9.9-4.5s-3.8-7.6-3.8-13.9c0-6.4,1.4-11.1,4.1-14.2s6.1-4.6,10.3-4.6L1184.2,469.5L1184.2,469.5z"/>
		<path class="st5" d="M1210.3,507.5v11.3h-11.2v-11.3H1210.3z M1182.4,507.5v11.3h-11.2v-11.3H1182.4z"/>
	</g>
</g>
<g id="_x32_008">
	<g>
		<rect x="124" y="179" class="st2" width="494" height="51"/>
		<g>
			<polyline class="st6" points="618,220 618,230 608,230 			"/>
			<line class="st7" x1="587.4" y1="230" x2="144.3" y2="230"/>
			<polyline class="st6" points="134,230 124,230 124,220 			"/>
			<line class="st8" x1="124" y1="209.7" x2="124" y2="194.2"/>
			<polyline class="st6" points="124,189 124,179 134,179 			"/>
			<line class="st7" x1="154.6" y1="179" x2="597.7" y2="179"/>
			<polyline class="st6" points="608,179 618,179 618,189 			"/>
			<line class="st8" x1="618" y1="199.3" x2="618" y2="214.8"/>
		</g>
	</g>
	<rect x="586.6" y="209.8" class="st1" width="138.8" height="25.6"/>
	<text transform="matrix(1 0 0 1 586.6094 224.1709)" class="st3 st9">47</text>
</g>
<g id="_x32_009">
	<g>
		<rect x="124.5" y="229.5" class="st2" width="500" height="51"/>
		<g>
			<polyline class="st6" points="624.5,270.5 624.5,280.5 614.5,280.5 			"/>
			<line class="st10" x1="595.3" y1="280.5" x2="144.1" y2="280.5"/>
			<polyline class="st6" points="134.5,280.5 124.5,280.5 124.5,270.5 			"/>
			<line class="st8" x1="124.5" y1="260.2" x2="124.5" y2="244.7"/>
			<polyline class="st6" points="124.5,239.5 124.5,229.5 134.5,229.5 			"/>
			<line class="st10" x1="153.7" y1="229.5" x2="604.9" y2="229.5"/>
			<polyline class="st6" points="614.5,229.5 624.5,229.5 624.5,239.5 			"/>
			<line class="st8" x1="624.5" y1="249.8" x2="624.5" y2="265.3"/>
		</g>
	</g>
	<rect x="595.6" y="258.8" class="st1" width="138.8" height="25.6"/>
	<text transform="matrix(1 0 0 1 595.6094 273.1709)" class="st3 st9">49</text>
</g>
<g id="_x32_010">
	<g>
		<rect x="124.5" y="279.5" class="st2" width="494" height="51"/>
		<g>
			<polyline class="st6" points="618.5,320.5 618.5,330.5 608.5,330.5 			"/>
			<line class="st7" x1="587.9" y1="330.5" x2="144.8" y2="330.5"/>
			<polyline class="st6" points="134.5,330.5 124.5,330.5 124.5,320.5 			"/>
			<line class="st8" x1="124.5" y1="310.2" x2="124.5" y2="294.7"/>
			<polyline class="st6" points="124.5,289.5 124.5,279.5 134.5,279.5 			"/>
			<line class="st7" x1="155.1" y1="279.5" x2="598.2" y2="279.5"/>
			<polyline class="st6" points="608.5,279.5 618.5,279.5 618.5,289.5 			"/>
			<line class="st8" x1="618.5" y1="299.8" x2="618.5" y2="315.3"/>
		</g>
	</g>
	<rect x="587.1" y="310.3" class="st1" width="138.8" height="25.6"/>
	<text transform="matrix(1 0 0 1 587.1094 324.6709)" class="st3 st9">47</text>
</g>
<g id="_x32_011">
	<g>
		<rect x="124.5" y="329.5" class="st2" width="500" height="51"/>
		<g>
			<polyline class="st6" points="624.5,370.5 624.5,380.5 614.5,380.5 			"/>
			<line class="st10" x1="595.3" y1="380.5" x2="144.1" y2="380.5"/>
			<polyline class="st6" points="134.5,380.5 124.5,380.5 124.5,370.5 			"/>
			<line class="st8" x1="124.5" y1="360.2" x2="124.5" y2="344.7"/>
			<polyline class="st6" points="124.5,339.5 124.5,329.5 134.5,329.5 			"/>
			<line class="st10" x1="153.7" y1="329.5" x2="604.9" y2="329.5"/>
			<polyline class="st6" points="614.5,329.5 624.5,329.5 624.5,339.5 			"/>
			<line class="st8" x1="624.5" y1="349.8" x2="624.5" y2="365.3"/>
		</g>
	</g>
	<rect x="595.1" y="360.3" class="st1" width="138.8" height="25.6"/>
	<text transform="matrix(1 0 0 1 595.1094 374.6709)" class="st3 st9">50</text>
</g>
<g id="_x32_012">
	<g>
		<rect x="124.5" y="379.5" class="st2" width="529" height="51"/>
		<g>
			<polyline class="st6" points="653.5,420.5 653.5,430.5 643.5,430.5 			"/>
			<line class="st11" x1="623.1" y1="430.5" x2="144.7" y2="430.5"/>
			<polyline class="st6" points="134.5,430.5 124.5,430.5 124.5,420.5 			"/>
			<line class="st8" x1="124.5" y1="410.2" x2="124.5" y2="394.7"/>
			<polyline class="st6" points="124.5,389.5 124.5,379.5 134.5,379.5 			"/>
			<line class="st11" x1="154.9" y1="379.5" x2="633.3" y2="379.5"/>
			<polyline class="st6" points="643.5,379.5 653.5,379.5 653.5,389.5 			"/>
			<line class="st8" x1="653.5" y1="399.8" x2="653.5" y2="415.3"/>
		</g>
	</g>
	<rect x="624.1" y="410.3" class="st1" width="138.8" height="25.6"/>
	<text transform="matrix(1 0 0 1 624.1094 424.6709)" class="st3 st9">53</text>
</g>
<g id="_x32_013">
	<g>
		<rect x="124.5" y="430.5" class="st2" width="590" height="51"/>
		<g>
			<polyline class="st6" points="714.5,471.5 714.5,481.5 704.5,481.5 			"/>
			<line class="st12" x1="684.8" y1="481.5" x2="144.3" y2="481.5"/>
			<polyline class="st6" points="134.5,481.5 124.5,481.5 124.5,471.5 			"/>
			<line class="st8" x1="124.5" y1="461.2" x2="124.5" y2="445.7"/>
			<polyline class="st6" points="124.5,440.5 124.5,430.5 134.5,430.5 			"/>
			<line class="st12" x1="154.2" y1="430.5" x2="694.7" y2="430.5"/>
			<polyline class="st6" points="704.5,430.5 714.5,430.5 714.5,440.5 			"/>
			<line class="st8" x1="714.5" y1="450.8" x2="714.5" y2="466.3"/>
		</g>
	</g>
	<rect x="684.1" y="461.3" class="st1" width="138.8" height="25.6"/>
	<text transform="matrix(1 0 0 1 684.1094 475.6709)" class="st3 st9">57</text>
</g>
<g id="_x32_014">
	<g>
		<rect x="124.5" y="480.5" class="st2" width="597" height="51"/>
		<g>
			<polyline class="st6" points="721.5,521.5 721.5,531.5 711.5,531.5 			"/>
			<line class="st13" x1="691.6" y1="531.5" x2="144.4" y2="531.5"/>
			<polyline class="st6" points="134.5,531.5 124.5,531.5 124.5,521.5 			"/>
			<line class="st8" x1="124.5" y1="511.2" x2="124.5" y2="495.7"/>
			<polyline class="st6" points="124.5,490.5 124.5,480.5 134.5,480.5 			"/>
			<line class="st13" x1="154.4" y1="480.5" x2="701.6" y2="480.5"/>
			<polyline class="st6" points="711.5,480.5 721.5,480.5 721.5,490.5 			"/>
			<line class="st8" x1="721.5" y1="500.8" x2="721.5" y2="516.3"/>
		</g>
	</g>
	<rect x="692.1" y="511.3" class="st1" width="138.8" height="25.6"/>
	<text transform="matrix(1 0 0 1 692.1094 525.6709)" class="st3 st9">59</text>
</g>
<g id="_x32_015">
	<g>
		<rect x="122.5" y="530.5" class="st2" width="640" height="51"/>
		<g>
			<polyline class="st6" points="762.5,571.5 762.5,581.5 752.5,581.5 			"/>
			<line class="st14" x1="732.5" y1="581.5" x2="142.5" y2="581.5"/>
			<polyline class="st6" points="132.5,581.5 122.5,581.5 122.5,571.5 			"/>
			<line class="st8" x1="122.5" y1="561.2" x2="122.5" y2="545.7"/>
			<polyline class="st6" points="122.5,540.5 122.5,530.5 132.5,530.5 			"/>
			<line class="st14" x1="152.5" y1="530.5" x2="742.5" y2="530.5"/>
			<polyline class="st6" points="752.5,530.5 762.5,530.5 762.5,540.5 			"/>
			<line class="st8" x1="762.5" y1="550.8" x2="762.5" y2="566.3"/>
		</g>
	</g>
	<rect x="727.1" y="563.3" class="st1" width="138.8" height="25.6"/>
	<text transform="matrix(1 0 0 1 727.1094 577.6709)" class="st3 st9">64</text>
</g>
<g id="_x32_016">
	<g>
		<rect x="124.5" y="580.5" class="st2" width="680" height="51"/>
		<g>
			<polyline class="st6" points="804.5,621.5 804.5,631.5 794.5,631.5 			"/>
			<line class="st14" x1="774.5" y1="631.5" x2="144.5" y2="631.5"/>
			<polyline class="st6" points="134.5,631.5 124.5,631.5 124.5,621.5 			"/>
			<line class="st8" x1="124.5" y1="611.2" x2="124.5" y2="595.7"/>
			<polyline class="st6" points="124.5,590.5 124.5,580.5 134.5,580.5 			"/>
			<line class="st14" x1="154.5" y1="580.5" x2="784.5" y2="580.5"/>
			<polyline class="st6" points="794.5,580.5 804.5,580.5 804.5,590.5 			"/>
			<line class="st8" x1="804.5" y1="600.8" x2="804.5" y2="616.3"/>
		</g>
	</g>
	<rect x="774.1" y="613.3" class="st1" width="138.8" height="25.6"/>
	<text transform="matrix(1 0 0 1 774.1094 627.6709)" class="st3 st9">67</text>
</g>
</svg>
