<?xml version="1.0" encoding="utf-8"?>
<!-- Generator: Adobe Illustrator 21.0.0, SVG Export Plug-In . SVG Version: 6.00 Build 0)  -->
<svg version="1.1" xmlns="http://www.w3.org/2000/svg" xmlns:xlink="http://www.w3.org/1999/xlink" x="0px" y="0px"
	 viewBox="0 0 1366 768" style="enable-background:new 0 0 1366 768;" xml:space="preserve">
<style type="text/css">
	.st0{fill-rule:evenodd;clip-rule:evenodd;}
	.st1{fill:none;stroke:#FFFFFF;stroke-width:0.75;stroke-miterlimit:10;}
	.st2{fill:#FFFFFF;}
	.st3{fill:none;stroke:#FFFFFF;}
</style>
<g id="grid">
	<rect class="st0" width="1366" height="768"/>
	<g>
		<g>
			<line class="st1" x1="124.5" y1="130" x2="124.5" y2="708.5"/>
		</g>
		<g>
			<line class="st1" x1="150" y1="130.5" x2="150" y2="709"/>
		</g>
		<g>
			<line class="st1" x1="175" y1="130.5" x2="175" y2="709"/>
		</g>
		<g>
			<line class="st1" x1="200" y1="130.5" x2="200" y2="709"/>
		</g>
		<g>
			<line class="st1" x1="225" y1="130.5" x2="225" y2="709"/>
		</g>
		<g>
			<line class="st1" x1="250" y1="130.5" x2="250" y2="709"/>
		</g>
		<g>
			<line class="st1" x1="275" y1="130.5" x2="275" y2="709"/>
		</g>
		<g>
			<line class="st1" x1="300" y1="130.5" x2="300" y2="709"/>
		</g>
		<g>
			<line class="st1" x1="325" y1="130.5" x2="325" y2="709"/>
		</g>
		<g>
			<line class="st1" x1="349.5" y1="130" x2="349.5" y2="708.5"/>
		</g>
		<g>
			<line class="st1" x1="375" y1="130.5" x2="375" y2="709"/>
		</g>
		<g>
			<line class="st1" x1="400" y1="130.5" x2="400" y2="709"/>
		</g>
		<g>
			<line class="st1" x1="425" y1="130.5" x2="425" y2="709"/>
		</g>
		<g>
			<line class="st1" x1="450" y1="130.5" x2="450" y2="709"/>
		</g>
		<g>
			<line class="st1" x1="475" y1="130.5" x2="475" y2="709"/>
		</g>
		<g>
			<line class="st1" x1="500" y1="130.5" x2="500" y2="709"/>
		</g>
		<g>
			<line class="st1" x1="525" y1="130.5" x2="525" y2="709"/>
		</g>
		<g>
			<line class="st1" x1="550" y1="130.5" x2="550" y2="709"/>
		</g>
		<g>
			<line class="st1" x1="574.5" y1="130" x2="574.5" y2="708.5"/>
		</g>
		<g>
			<line class="st1" x1="600" y1="130.5" x2="600" y2="709"/>
		</g>
		<g>
			<line class="st1" x1="625" y1="130.5" x2="625" y2="709"/>
		</g>
		<g>
			<line class="st1" x1="650" y1="130.5" x2="650" y2="709"/>
		</g>
		<g>
			<line class="st1" x1="675" y1="130.5" x2="675" y2="709"/>
		</g>
		<g>
			<line class="st1" x1="700" y1="130.5" x2="700" y2="709"/>
		</g>
		<g>
			<line class="st1" x1="725" y1="130.5" x2="725" y2="709"/>
		</g>
		<g>
			<line class="st1" x1="750" y1="130.5" x2="750" y2="709"/>
		</g>
		<g>
			<line class="st1" x1="775" y1="130.5" x2="775" y2="709"/>
		</g>
		<g>
			<line class="st1" x1="799.5" y1="130" x2="799.5" y2="708.5"/>
		</g>
		<g>
			<line class="st1" x1="825" y1="130.5" x2="825" y2="709"/>
		</g>
		<g>
			<line class="st1" x1="850" y1="130.5" x2="850" y2="709"/>
		</g>
		<g>
			<line class="st1" x1="875" y1="130.5" x2="875" y2="709"/>
		</g>
		<g>
			<line class="st1" x1="900" y1="130.5" x2="900" y2="709"/>
		</g>
		<g>
			<line class="st1" x1="925" y1="130.5" x2="925" y2="709"/>
		</g>
		<g>
			<line class="st1" x1="950" y1="130.5" x2="950" y2="709"/>
		</g>
		<g>
			<line class="st1" x1="975" y1="130.5" x2="975" y2="709"/>
		</g>
		<g>
			<line class="st1" x1="1000" y1="130.5" x2="1000" y2="709"/>
		</g>
		<g>
			<line class="st1" x1="1025" y1="130.5" x2="1025" y2="709"/>
		</g>
		<g>
			<path class="st1" d="M1052,709"/>
		</g>
		<g>
			<path class="st1" d="M1052,130.5"/>
		</g>
		<g>
			<line class="st1" x1="99.8" y1="680" x2="1046" y2="680"/>
		</g>
		<g>
			<line class="st1" x1="99.8" y1="655" x2="1046" y2="655"/>
		</g>
		<g>
			<line class="st1" x1="99.8" y1="630" x2="1046" y2="630"/>
		</g>
		<g>
			<line class="st1" x1="99.8" y1="605" x2="1046" y2="605"/>
		</g>
		<g>
			<line class="st1" x1="99" y1="580.5" x2="1045.2" y2="580.5"/>
		</g>
		<g>
			<line class="st1" x1="99.8" y1="555" x2="1046" y2="555"/>
		</g>
		<g>
			<line class="st1" x1="99.8" y1="530" x2="1046" y2="530"/>
		</g>
		<g>
			<line class="st1" x1="99.8" y1="505" x2="1046" y2="505"/>
		</g>
		<g>
			<line class="st1" x1="99.8" y1="480" x2="1046" y2="480"/>
		</g>
		<g>
			<line class="st1" x1="99.8" y1="455" x2="1046" y2="455"/>
		</g>
		<g>
			<line class="st1" x1="99.8" y1="430" x2="1046" y2="430"/>
		</g>
		<g>
			<line class="st1" x1="99.8" y1="405" x2="1046" y2="405"/>
		</g>
		<g>
			<line class="st1" x1="99.8" y1="380" x2="1046" y2="380"/>
		</g>
		<g>
			<line class="st1" x1="99" y1="355.5" x2="1045.2" y2="355.5"/>
		</g>
		<g>
			<line class="st1" x1="99.8" y1="330" x2="1046" y2="330"/>
		</g>
		<g>
			<line class="st1" x1="99.8" y1="305" x2="1046" y2="305"/>
		</g>
		<g>
			<line class="st1" x1="99.8" y1="280" x2="1046" y2="280"/>
		</g>
		<g>
			<line class="st1" x1="99.8" y1="255" x2="1046" y2="255"/>
		</g>
		<g>
			<line class="st1" x1="99.8" y1="230" x2="1046" y2="230"/>
		</g>
		<g>
			<line class="st1" x1="99.8" y1="205" x2="1046" y2="205"/>
		</g>
		<g>
			<line class="st1" x1="99.8" y1="180" x2="1046" y2="180"/>
		</g>
		<g>
			<line class="st1" x1="99.8" y1="155" x2="1046" y2="155"/>
		</g>
	</g>
</g>
<g id="type">
	<g>
		<path class="st2" d="M126.6,109.4V108c0.7,0,1.1-0.1,1.4-0.1c0.4-0.1,0.8-0.3,1-0.6c0.2-0.2,0.3-0.4,0.4-0.8
			c0.1-0.2,0.1-0.3,0.1-0.4h1.7v10.6h-2.1v-7.3H126.6z"/>
		<path class="st2" d="M140.9,107.5c0.5,1,0.8,2.3,0.8,4.1s-0.3,3.1-0.8,4.1c-0.5,0.9-1.5,1.4-2.8,1.4s-2.3-0.5-2.8-1.4
			s-0.8-2.3-0.8-4.1s0.3-3.1,0.8-4.1s1.5-1.4,2.8-1.4S140.4,106.5,140.9,107.5z M136.8,114.3c0.2,0.6,0.6,1,1.2,1s1-0.3,1.2-1
			c0.2-0.6,0.3-1.6,0.3-2.8c0-1.3-0.1-2.2-0.3-2.8c-0.2-0.6-0.6-0.9-1.2-0.9s-1,0.3-1.2,0.9s-0.3,1.6-0.3,2.8
			C136.5,112.8,136.6,113.7,136.8,114.3z"/>
	</g>
	<g>
		<path class="st2" d="M326.6,109.4V108c0.7,0,1.1-0.1,1.4-0.1c0.4-0.1,0.8-0.3,1-0.6c0.2-0.2,0.3-0.4,0.4-0.8
			c0.1-0.2,0.1-0.3,0.1-0.4h1.7v10.6h-2.1v-7.3H326.6z"/>
		<path class="st2" d="M334.2,109.4V108c0.7,0,1.1-0.1,1.4-0.1c0.4-0.1,0.8-0.3,1-0.6c0.2-0.2,0.3-0.4,0.4-0.8
			c0.1-0.2,0.1-0.3,0.1-0.4h1.7v10.6h-2.1v-7.3H334.2z"/>
	</g>
	<g>
		<path class="st2" d="M526.6,109.4V108c0.7,0,1.1-0.1,1.4-0.1c0.4-0.1,0.8-0.3,1-0.6c0.2-0.2,0.3-0.4,0.4-0.8
			c0.1-0.2,0.1-0.3,0.1-0.4h1.7v10.6h-2.1v-7.3H526.6z"/>
		<path class="st2" d="M534.9,114.7c0.3-0.7,1-1.5,2.1-2.2c1-0.7,1.6-1.2,1.9-1.5c0.4-0.5,0.7-1,0.7-1.5c0-0.4-0.1-0.8-0.4-1.1
			s-0.6-0.4-1.1-0.4c-0.6,0-1.1,0.2-1.3,0.7c-0.1,0.3-0.2,0.7-0.2,1.3h-2c0-0.9,0.2-1.6,0.5-2.2c0.6-1.1,1.5-1.6,3-1.6
			c1.1,0,2,0.3,2.7,0.9c0.7,0.6,1,1.4,1,2.5c0,0.8-0.2,1.5-0.7,2.1c-0.3,0.4-0.8,0.9-1.5,1.4l-0.8,0.6c-0.5,0.4-0.9,0.6-1.1,0.8
			c-0.2,0.2-0.4,0.4-0.5,0.6h4.6v1.8h-7.3C534.4,116,534.6,115.3,534.9,114.7z"/>
	</g>
	<g>
		<path class="st2" d="M727.6,109.4V108c0.7,0,1.1-0.1,1.4-0.1c0.4-0.1,0.8-0.3,1-0.6c0.2-0.2,0.3-0.4,0.4-0.8
			c0.1-0.2,0.1-0.3,0.1-0.4h1.7v10.6h-2.1v-7.3H727.6z"/>
		<path class="st2" d="M737.4,113.5c0,0.4,0.1,0.8,0.2,1.1c0.3,0.5,0.7,0.8,1.4,0.8c0.4,0,0.8-0.1,1.1-0.4s0.5-0.7,0.5-1.2
			c0-0.7-0.3-1.2-0.8-1.4c-0.3-0.1-0.8-0.2-1.5-0.2v-1.5c0.7,0,1.1-0.1,1.4-0.2c0.5-0.2,0.7-0.6,0.7-1.2c0-0.4-0.1-0.7-0.4-1
			s-0.6-0.4-1-0.4c-0.5,0-0.9,0.2-1.1,0.5c-0.2,0.3-0.3,0.7-0.3,1.3h-1.9c0-0.5,0.1-1,0.3-1.5c0.2-0.4,0.4-0.8,0.8-1.1
			c0.3-0.2,0.6-0.4,1-0.6c0.4-0.1,0.8-0.2,1.4-0.2c1,0,1.8,0.3,2.5,0.8c0.6,0.5,0.9,1.2,0.9,2.1c0,0.6-0.2,1.2-0.6,1.6
			c-0.2,0.3-0.5,0.5-0.7,0.5c0.2,0,0.5,0.2,0.8,0.5c0.5,0.5,0.8,1.2,0.8,2c0,0.9-0.3,1.7-0.9,2.4c-0.6,0.7-1.5,1-2.8,1
			c-1.5,0-2.5-0.5-3.1-1.5c-0.3-0.5-0.5-1.2-0.5-2.1H737.4z"/>
	</g>
	<g>
		<path class="st2" d="M926.6,109.4V108c0.7,0,1.1-0.1,1.4-0.1c0.4-0.1,0.8-0.3,1-0.6c0.2-0.2,0.3-0.4,0.4-0.8
			c0.1-0.2,0.1-0.3,0.1-0.4h1.7v10.6h-2.1v-7.3H926.6z"/>
		<path class="st2" d="M941.8,114.5h-1.2v2.3h-2v-2.3h-4.2v-1.8l3.9-6.4h2.3v6.6h1.2V114.5z M938.5,112.8v-4.6l-2.7,4.6H938.5z"/>
	</g>
	<g>
		<path class="st2" d="M84.6,681.5c0.5,1,0.8,2.3,0.8,4.1c0,1.8-0.3,3.1-0.8,4c-0.5,0.9-1.5,1.4-2.8,1.4s-2.3-0.5-2.8-1.4
			s-0.8-2.3-0.8-4c0-1.8,0.3-3.1,0.8-4.1c0.5-1,1.5-1.4,2.8-1.4S84,680.5,84.6,681.5z M80.5,688.3c0.2,0.6,0.6,1,1.2,1s1-0.3,1.2-1
			c0.2-0.6,0.3-1.6,0.3-2.8c0-1.3-0.1-2.2-0.3-2.8c-0.2-0.6-0.6-0.9-1.2-0.9s-1,0.3-1.2,0.9s-0.3,1.6-0.3,2.8
			C80.2,686.8,80.3,687.7,80.5,688.3z"/>
	</g>
	<g>
		<path class="st2" d="M61.6,589.7c0.3-0.7,1-1.5,2.1-2.2c1-0.7,1.6-1.2,1.9-1.5c0.4-0.5,0.7-1,0.7-1.5c0-0.4-0.1-0.8-0.4-1.1
			c-0.2-0.3-0.6-0.4-1.1-0.4c-0.6,0-1.1,0.2-1.3,0.7c-0.1,0.3-0.2,0.7-0.2,1.3h-2c0-0.9,0.2-1.6,0.5-2.2c0.6-1.1,1.5-1.6,3-1.6
			c1.1,0,2,0.3,2.7,0.9c0.7,0.6,1,1.4,1,2.5c0,0.8-0.2,1.5-0.7,2.1c-0.3,0.4-0.8,0.9-1.5,1.4l-0.8,0.6c-0.5,0.4-0.9,0.6-1.1,0.8
			c-0.2,0.2-0.4,0.4-0.5,0.6h4.6v1.8h-7.3C61.1,591,61.3,590.3,61.6,589.7z"/>
		<path class="st2" d="M75.9,582.5c0.5,1,0.8,2.3,0.8,4.1c0,1.8-0.3,3.1-0.8,4c-0.5,0.9-1.5,1.4-2.8,1.4s-2.3-0.5-2.8-1.4
			s-0.8-2.3-0.8-4c0-1.8,0.3-3.1,0.8-4.1c0.5-1,1.5-1.4,2.8-1.4S75.4,581.5,75.9,582.5z M71.8,589.3c0.2,0.6,0.6,1,1.2,1
			s1-0.3,1.2-1c0.2-0.6,0.3-1.6,0.3-2.8c0-1.3-0.1-2.2-0.3-2.8c-0.2-0.6-0.6-0.9-1.2-0.9s-1,0.3-1.2,0.9s-0.3,1.6-0.3,2.8
			C71.5,587.8,71.6,588.7,71.8,589.3z"/>
	</g>
	<g>
		<path class="st2" d="M68.4,488.5h-1.2v2.3h-2v-2.3H61v-1.8l3.9-6.4h2.3v6.6h1.2V488.5z M65.2,486.8v-4.6l-2.7,4.6H65.2z"/>
		<path class="st2" d="M75.9,481.5c0.5,1,0.8,2.3,0.8,4.1c0,1.8-0.3,3.1-0.8,4c-0.5,0.9-1.5,1.4-2.8,1.4s-2.3-0.5-2.8-1.4
			s-0.8-2.3-0.8-4c0-1.8,0.3-3.1,0.8-4.1c0.5-1,1.5-1.4,2.8-1.4S75.4,480.5,75.9,481.5z M71.8,488.3c0.2,0.6,0.6,1,1.2,1
			s1-0.3,1.2-1c0.2-0.6,0.3-1.6,0.3-2.8c0-1.3-0.1-2.2-0.3-2.8c-0.2-0.6-0.6-0.9-1.2-0.9s-1,0.3-1.2,0.9s-0.3,1.6-0.3,2.8
			C71.5,486.8,71.6,487.7,71.8,488.3z"/>
	</g>
	<g>
		<path class="st2" d="M66.1,382.8c0-0.2-0.1-0.4-0.2-0.6c-0.2-0.3-0.6-0.5-1-0.5c-0.7,0-1.2,0.4-1.5,1.1c-0.2,0.4-0.3,1-0.3,1.9
			c0.3-0.3,0.6-0.5,0.9-0.7s0.7-0.2,1.2-0.2c0.9,0,1.7,0.3,2.3,1c0.6,0.6,0.9,1.5,0.9,2.5c0,1-0.3,1.9-0.9,2.6
			c-0.6,0.8-1.5,1.1-2.8,1.1c-1.3,0-2.3-0.6-3-1.7c-0.5-0.9-0.7-2-0.7-3.4c0-0.8,0-1.5,0.1-2c0.1-0.9,0.4-1.7,0.7-2.3
			c0.3-0.5,0.7-0.9,1.2-1.2c0.5-0.3,1.1-0.5,1.8-0.5c1,0,1.8,0.3,2.4,0.8c0.6,0.5,0.9,1.2,1,2H66.1z M63.6,388.8
			c0.3,0.4,0.7,0.5,1.2,0.5c0.5,0,0.8-0.2,1.1-0.5c0.3-0.3,0.4-0.8,0.4-1.4c0-0.6-0.2-1.1-0.5-1.4c-0.3-0.3-0.7-0.5-1.1-0.5
			c-0.4,0-0.7,0.1-0.9,0.3c-0.4,0.3-0.6,0.8-0.6,1.5C63.2,388,63.3,388.4,63.6,388.8z"/>
		<path class="st2" d="M75.9,381.5c0.5,1,0.8,2.3,0.8,4.1c0,1.8-0.3,3.1-0.8,4c-0.5,0.9-1.5,1.4-2.8,1.4s-2.3-0.5-2.8-1.4
			s-0.8-2.3-0.8-4c0-1.8,0.3-3.1,0.8-4.1s1.5-1.4,2.8-1.4S75.4,380.5,75.9,381.5z M71.8,388.3c0.2,0.6,0.6,1,1.2,1s1-0.3,1.2-1
			c0.2-0.6,0.3-1.6,0.3-2.8c0-1.3-0.1-2.2-0.3-2.8c-0.2-0.6-0.6-0.9-1.2-0.9s-1,0.3-1.2,0.9s-0.3,1.6-0.3,2.8
			C71.5,386.8,71.6,387.7,71.8,388.3z"/>
	</g>
	<g>
		<path class="st2" d="M61.4,286.2c0.3-0.5,0.7-0.8,1.2-1.1c-0.5-0.3-0.8-0.7-1-1.1s-0.2-0.8-0.2-1.1c0-0.8,0.3-1.4,0.9-2
			c0.6-0.5,1.4-0.8,2.5-0.8s1.9,0.3,2.5,0.8c0.6,0.5,0.9,1.2,0.9,2c0,0.3-0.1,0.7-0.2,1.1c-0.2,0.4-0.5,0.7-1,1
			c0.5,0.3,0.9,0.7,1.2,1.2c0.3,0.5,0.4,1,0.4,1.6c0,0.9-0.3,1.7-1,2.3c-0.7,0.6-1.6,0.9-2.8,0.9c-1.2,0-2.1-0.3-2.7-0.9
			c-0.6-0.6-0.9-1.4-0.9-2.3C61,287.2,61.1,286.7,61.4,286.2z M63.6,288.9c0.3,0.3,0.6,0.4,1.1,0.4s0.9-0.1,1.1-0.4
			c0.3-0.3,0.4-0.7,0.4-1.2c0-0.5-0.1-1-0.4-1.2s-0.6-0.4-1.1-0.4s-0.8,0.1-1.1,0.4c-0.3,0.3-0.4,0.7-0.4,1.2
			C63.2,288.2,63.3,288.6,63.6,288.9z M63.7,284c0.2,0.2,0.6,0.4,1,0.4c0.4,0,0.8-0.1,1-0.4c0.2-0.2,0.3-0.6,0.3-0.9
			c0-0.4-0.1-0.7-0.3-1c-0.2-0.2-0.6-0.4-1-0.4c-0.4,0-0.8,0.1-1,0.4c-0.2,0.2-0.4,0.6-0.4,1C63.3,283.5,63.5,283.8,63.7,284z"/>
		<path class="st2" d="M75.9,281.5c0.5,1,0.8,2.3,0.8,4.1s-0.3,3.1-0.8,4.1c-0.5,0.9-1.5,1.4-2.8,1.4s-2.3-0.5-2.8-1.4
			s-0.8-2.3-0.8-4.1s0.3-3.1,0.8-4.1s1.5-1.4,2.8-1.4S75.4,280.5,75.9,281.5z M71.8,288.3c0.2,0.6,0.6,1,1.2,1s1-0.3,1.2-1
			c0.2-0.6,0.3-1.6,0.3-2.8c0-1.3-0.1-2.2-0.3-2.8c-0.2-0.6-0.6-0.9-1.2-0.9s-1,0.3-1.2,0.9s-0.3,1.6-0.3,2.8
			C71.5,286.8,71.6,287.7,71.8,288.3z"/>
	</g>
	<g>
		<path class="st2" d="M53.6,183.4V182c0.7,0,1.1-0.1,1.4-0.1c0.4-0.1,0.8-0.3,1-0.6c0.2-0.2,0.3-0.4,0.4-0.8
			c0.1-0.2,0.1-0.3,0.1-0.4h1.7v10.6h-2.1v-7.3H53.6z"/>
		<path class="st2" d="M67.9,181.5c0.5,1,0.8,2.3,0.8,4.1s-0.3,3.1-0.8,4.1c-0.5,0.9-1.5,1.4-2.8,1.4s-2.3-0.5-2.8-1.4
			s-0.8-2.3-0.8-4.1s0.3-3.1,0.8-4.1s1.5-1.4,2.8-1.4S67.4,180.5,67.9,181.5z M63.8,188.3c0.2,0.6,0.6,1,1.2,1s1-0.3,1.2-1
			c0.2-0.6,0.3-1.6,0.3-2.8c0-1.3-0.1-2.2-0.3-2.8c-0.2-0.6-0.6-0.9-1.2-0.9s-1,0.3-1.2,0.9s-0.3,1.6-0.3,2.8
			C63.5,186.8,63.6,187.7,63.8,188.3z"/>
		<path class="st2" d="M76.3,181.5c0.5,1,0.8,2.3,0.8,4.1s-0.3,3.1-0.8,4.1c-0.5,0.9-1.5,1.4-2.8,1.4s-2.3-0.5-2.8-1.4
			s-0.8-2.3-0.8-4.1s0.3-3.1,0.8-4.1s1.5-1.4,2.8-1.4S75.7,180.5,76.3,181.5z M72.2,188.3c0.2,0.6,0.6,1,1.2,1s1-0.3,1.2-1
			c0.2-0.6,0.3-1.6,0.3-2.8c0-1.3-0.1-2.2-0.3-2.8c-0.2-0.6-0.6-0.9-1.2-0.9s-1,0.3-1.2,0.9s-0.3,1.6-0.3,2.8
			C71.9,186.8,72,187.7,72.2,188.3z"/>
	</g>
</g>
<g id="florida">
	<g>
		<polygon class="st2" points="126.5,276.3 121.5,267.7 324.8,149.9 525.6,160 724.9,199.9 924.6,149.9 1025.5,160 1024.5,170 
			925.4,160.1 725.1,210.1 524.4,170 327.2,160.1 		"/>
	</g>
	<g>
		<path class="st2" d="M1067.7,164.9c0.4-0.9,0.9-1.9,1.7-2.9h1.6l-0.4,0.8c-0.6,1.1-1,2.3-1.3,3.5c-0.2,0.8-0.2,1.7-0.2,2.7
			c0,1.5,0.2,2.9,0.7,4.1c0.3,0.7,0.7,1.7,1.3,2.9h-1.5l-0.5-0.7c-0.3-0.4-0.7-1.1-1.1-1.9c-0.7-1.5-1-3-1-4.5
			C1066.8,167.6,1067.1,166.3,1067.7,164.9z"/>
		<path class="st2" d="M1072.3,162.2h7.7v1.9h-5.5v2.5h4.8v1.9h-4.8v4.5h-2.2V162.2z"/>
		<path class="st2" d="M1081.5,162.2h2.3v8.9h5.4v1.9h-7.6V162.2z"/>
		<path class="st2" d="M1093.7,162.2h2.6l3.8,10.8h-2.4l-0.7-2.2h-4l-0.7,2.2h-2.4L1093.7,162.2z M1093.6,168.9h2.8l-1.4-4.2
			L1093.6,168.9z"/>
		<path class="st2" d="M1103.8,164.9c0.6,1.3,0.9,2.6,0.9,4c0,1.5-0.3,3-1,4.5c-0.4,0.8-0.7,1.5-1.1,1.9l-0.5,0.7h-1.5
			c0.6-1.2,1.1-2.1,1.3-2.9c0.4-1.3,0.7-2.6,0.7-4.1c0-1-0.1-1.8-0.2-2.7c-0.2-1.2-0.7-2.4-1.3-3.5l-0.4-0.8h1.6
			C1102.8,163.1,1103.4,164.1,1103.8,164.9z"/>
	</g>
</g>
<g id="california">
	<g>
		<polygon class="st2" points="924.7,227.1 724.1,181.9 525,156 325.4,180 325.1,180 124.1,186 123.9,176 324.6,170 525,146 
			525.6,146 725.9,172.1 726.1,172.1 925.3,216.9 1024.5,207 1025.5,217 		"/>
	</g>
	<g>
		<path class="st2" d="M1067.7,212.9c0.4-0.9,0.9-1.9,1.7-2.9h1.6l-0.4,0.8c-0.6,1.1-1,2.3-1.3,3.5c-0.2,0.8-0.2,1.7-0.2,2.7
			c0,1.5,0.2,2.9,0.7,4.1c0.3,0.7,0.7,1.7,1.3,2.9h-1.5l-0.5-0.7c-0.3-0.4-0.7-1.1-1.1-1.9c-0.7-1.5-1-3-1-4.5
			C1066.8,215.6,1067.1,214.3,1067.7,212.9z"/>
		<path class="st2" d="M1073.3,211.4c0.9-0.9,2-1.3,3.3-1.3c1.8,0,3.1,0.6,3.9,1.8c0.5,0.7,0.7,1.3,0.7,2h-2.3
			c-0.1-0.5-0.3-0.9-0.6-1.2c-0.4-0.5-1-0.7-1.8-0.7c-0.8,0-1.4,0.3-1.9,1s-0.7,1.6-0.7,2.8s0.2,2.1,0.7,2.7
			c0.5,0.6,1.1,0.9,1.9,0.9c0.8,0,1.4-0.3,1.8-0.8c0.2-0.3,0.4-0.7,0.6-1.3h2.2c-0.2,1.2-0.7,2.1-1.5,2.9c-0.8,0.7-1.8,1.1-3.1,1.1
			c-1.5,0-2.7-0.5-3.6-1.5c-0.9-1-1.3-2.4-1.3-4.1C1071.8,213.8,1072.3,212.4,1073.3,211.4z"/>
		<path class="st2" d="M1086.2,210.2h2.6l3.8,10.8h-2.4l-0.7-2.2h-4l-0.7,2.2h-2.4L1086.2,210.2z M1086.1,216.9h2.8l-1.4-4.2
			L1086.1,216.9z"/>
		<path class="st2" d="M1096.3,212.9c0.6,1.3,0.9,2.6,0.9,4c0,1.5-0.3,3-1,4.5c-0.4,0.8-0.7,1.5-1.1,1.9l-0.5,0.7h-1.5
			c0.6-1.2,1.1-2.1,1.3-2.9c0.4-1.3,0.7-2.6,0.7-4.1c0-1-0.1-1.8-0.2-2.7c-0.2-1.2-0.7-2.4-1.3-3.5l-0.4-0.8h1.6
			C1095.3,211.1,1095.9,212.1,1096.3,212.9z"/>
	</g>
</g>
<g id="newyork">
	<g>
		<polygon class="st2" points="126.9,523.1 121.1,514.9 298.1,388.5 499.1,450.8 698.7,398.9 900,424 998.4,413 999.6,423 900,434 
			899.4,434 699.3,409.1 498.9,461.2 299.9,399.5 		"/>
	</g>
	<g>
		<path class="st2" d="M1067.7,417.9c0.4-0.9,0.9-1.9,1.7-2.9h1.6l-0.4,0.8c-0.6,1.1-1,2.3-1.3,3.5c-0.2,0.8-0.2,1.7-0.2,2.7
			c0,1.5,0.2,2.9,0.7,4.1c0.3,0.7,0.7,1.7,1.3,2.9h-1.5l-0.5-0.7c-0.3-0.4-0.7-1.1-1.1-1.9c-0.7-1.5-1-3-1-4.5
			C1066.8,420.6,1067.1,419.3,1067.7,417.9z"/>
		<path class="st2" d="M1072.3,415.2h2.4l4.3,7.5v-7.5h2.1V426h-2.3l-4.4-7.7v7.7h-2.1V415.2z"/>
		<path class="st2" d="M1089.3,415.2h2.6l-3.6,6.7v4h-2.3v-4l-3.7-6.7h2.7l2.2,4.7L1089.3,415.2z"/>
		<path class="st2" d="M1095.5,417.9c0.6,1.3,0.9,2.6,0.9,4c0,1.5-0.3,3-1,4.5c-0.4,0.8-0.7,1.5-1.1,1.9l-0.5,0.7h-1.5
			c0.6-1.2,1.1-2.1,1.3-2.9c0.4-1.3,0.7-2.6,0.7-4.1c0-1-0.1-1.8-0.2-2.7c-0.2-1.2-0.7-2.4-1.3-3.5l-0.4-0.8h1.6
			C1094.5,416.1,1095.1,417.1,1095.5,417.9z"/>
	</g>
</g>
<g id="texas">
	<g>
		<polygon class="st2" points="124.5,495 123.5,485 323.8,466.1 523.9,389.1 524.7,389 699.7,379 926.2,368 926.6,368 1025.6,379 
			1024.4,389 925.8,378 700.2,389 526.1,398.9 326.2,475.9 325.5,476 		"/>
	</g>
	<g>
		<path class="st2" d="M1067.7,382.9c0.4-0.9,0.9-1.9,1.7-2.9h1.6l-0.4,0.8c-0.6,1.1-1,2.3-1.3,3.5c-0.2,0.8-0.2,1.7-0.2,2.7
			c0,1.5,0.2,2.9,0.7,4.1c0.3,0.7,0.7,1.7,1.3,2.9h-1.5l-0.5-0.7c-0.3-0.4-0.7-1.1-1.1-1.9c-0.7-1.5-1-3-1-4.5
			C1066.8,385.6,1067.1,384.3,1067.7,382.9z"/>
		<path class="st2" d="M1080.1,380.2v1.9h-3.2v8.9h-2.3v-8.9h-3.2v-1.9H1080.1z"/>
		<path class="st2" d="M1083.2,391h-2.6l3.5-5.5l-3.3-5.3h2.7l1.9,3.5l2-3.5h2.6l-3.3,5.2l3.5,5.6h-2.7l-2.1-3.7L1083.2,391z"/>
		<path class="st2" d="M1093.8,382.9c0.6,1.3,0.9,2.6,0.9,4c0,1.5-0.3,3-1,4.5c-0.4,0.8-0.7,1.5-1.1,1.9l-0.5,0.7h-1.5
			c0.6-1.2,1.1-2.1,1.3-2.9c0.4-1.3,0.7-2.6,0.7-4.1c0-1-0.1-1.8-0.2-2.7c-0.2-1.2-0.7-2.4-1.3-3.5l-0.4-0.8h1.6
			C1092.8,381.1,1093.4,382.1,1093.8,382.9z"/>
	</g>
</g>
<g id="penn">
	<g>
		<polygon class="st2" points="925.6,651 924.9,651 724.4,645 724,644.9 525.8,605.1 325.7,629.1 324.8,628.9 124.8,580.9 
			127.2,571.1 326.3,618.9 526.2,594.9 527,595.1 725.6,635 924.4,641 1024.7,613.2 1027.3,622.8 		"/>
	</g>
	<g>
		<path class="st2" d="M1067.7,616.9c0.4-0.9,0.9-1.9,1.7-2.9h1.6l-0.4,0.8c-0.6,1.1-1,2.3-1.3,3.5c-0.2,0.8-0.2,1.7-0.2,2.7
			c0,1.5,0.2,2.9,0.7,4.1c0.3,0.7,0.7,1.7,1.3,2.9h-1.5l-0.5-0.7c-0.3-0.4-0.7-1.1-1.1-1.9c-0.7-1.5-1-3-1-4.5
			C1066.8,619.6,1067.1,618.3,1067.7,616.9z"/>
		<path class="st2" d="M1079.6,620.3c-0.6,0.5-1.5,0.8-2.7,0.8h-2.2v3.9h-2.2v-10.8h4.6c1.1,0,1.9,0.3,2.6,0.8c0.6,0.6,1,1.4,1,2.6
			C1080.5,618.9,1080.2,619.8,1079.6,620.3z M1077.8,616.5c-0.3-0.2-0.7-0.4-1.2-0.4h-2v3.2h2c0.5,0,0.9-0.1,1.2-0.4
			c0.3-0.3,0.4-0.7,0.4-1.2C1078.3,617.1,1078.1,616.7,1077.8,616.5z"/>
		<path class="st2" d="M1084.3,614.2h2.6l3.8,10.8h-2.4l-0.7-2.2h-4l-0.7,2.2h-2.4L1084.3,614.2z M1084.1,620.9h2.8l-1.4-4.2
			L1084.1,620.9z"/>
		<path class="st2" d="M1094.3,616.9c0.6,1.3,0.9,2.6,0.9,4c0,1.5-0.3,3-1,4.5c-0.4,0.8-0.7,1.5-1.1,1.9l-0.5,0.7h-1.5
			c0.6-1.2,1.1-2.1,1.3-2.9c0.4-1.3,0.7-2.6,0.7-4.1c0-1-0.1-1.8-0.2-2.7c-0.2-1.2-0.7-2.4-1.3-3.5l-0.4-0.8h1.6
			C1093.4,615.1,1094,616.1,1094.3,616.9z"/>
	</g>
</g>
<g id="rhode">
	<g>
		<polygon class="st2" points="325,685 324.8,685 123.8,677 124.2,667 325,675 525,667 525.1,667 725,671 925,667 1026.2,671 
			1025.8,681 925,677 725,681 724.9,681 525,677 		"/>
	</g>
	<g>
		<path class="st2" d="M1067.7,667.9c0.4-0.9,0.9-1.9,1.7-2.9h1.6l-0.4,0.8c-0.6,1.1-1,2.3-1.3,3.5c-0.2,0.8-0.2,1.7-0.2,2.7
			c0,1.5,0.2,2.9,0.7,4.1c0.3,0.7,0.7,1.7,1.3,2.9h-1.5l-0.5-0.7c-0.3-0.4-0.7-1.1-1.1-1.9c-0.7-1.5-1-3-1-4.5
			C1066.8,670.6,1067.1,669.3,1067.7,667.9z"/>
		<path class="st2" d="M1079.2,665.5c0.4,0.2,0.7,0.4,1,0.8c0.2,0.3,0.4,0.6,0.5,0.9c0.1,0.3,0.2,0.7,0.2,1.1c0,0.5-0.1,1-0.4,1.5
			s-0.7,0.8-1.3,1.1c0.5,0.2,0.9,0.5,1.1,0.9c0.2,0.4,0.3,0.9,0.3,1.7v0.7c0,0.5,0,0.8,0.1,1c0.1,0.3,0.2,0.5,0.4,0.6v0.3h-2.5
			c-0.1-0.2-0.1-0.4-0.1-0.6c-0.1-0.3-0.1-0.6-0.1-0.9l0-1c0-0.7-0.1-1.1-0.4-1.4c-0.2-0.2-0.7-0.3-1.3-0.3h-2.2v4.2h-2.2v-10.8h5.2
			C1078.3,665.2,1078.8,665.3,1079.2,665.5z M1074.6,667.1v2.9h2.4c0.5,0,0.8-0.1,1.1-0.2c0.4-0.2,0.6-0.6,0.6-1.2
			c0-0.7-0.2-1.1-0.6-1.3c-0.2-0.1-0.6-0.2-1-0.2H1074.6z"/>
		<path class="st2" d="M1085.2,676h-2.2v-10.8h2.2V676z"/>
		<path class="st2" d="M1089.6,667.9c0.6,1.3,0.9,2.6,0.9,4c0,1.5-0.3,3-1,4.5c-0.4,0.8-0.7,1.5-1.1,1.9l-0.5,0.7h-1.5
			c0.6-1.2,1.1-2.1,1.3-2.9c0.4-1.3,0.7-2.6,0.7-4.1c0-1-0.1-1.8-0.2-2.7c-0.2-1.2-0.7-2.4-1.3-3.5l-0.4-0.8h1.6
			C1088.7,666.1,1089.2,667.1,1089.6,667.9z"/>
	</g>
</g>
<g id="title">
	<g>
		<path class="st3" d="M1301.5,159.1c-1.2,3.7-3.5,6.7-6.7,9c-2.6,1.8-5.5,3.1-8.6,3.8c-3.1,0.7-6,1-8.8,1c-7.1,0-13-1.4-17.9-4.2
			c-6.6-3.8-9.9-9.8-9.9-17.8V128h53v22.9C1302.6,154.2,1302.2,156.9,1301.5,159.1z M1293.4,138.8h-34.6V149c0,5.2,2.6,8.9,7.7,11
			c2.8,1.1,6.2,1.7,10.1,1.7c5.4,0,9.5-0.8,12.4-2.5c2.9-1.7,4.3-5.1,4.3-10.1V138.8z"/>
		<path class="st3" d="M1288,205.9c-1.2,2.7-3.2,5-5.8,6.8c-2.3,1.6-5,2.6-8.1,3.1c-1.8,0.3-4.4,0.4-7.8,0.3v-28.6
			c-3.9,0.2-6.7,1.5-8.3,4.1c-1,1.6-1.5,3.5-1.5,5.7c0,2.3,0.6,4.2,1.8,5.7c0.6,0.8,1.5,1.5,2.7,2.1v10.5c-2.3-0.3-4.7-1.5-7.1-3.8
			c-3.8-3.5-5.7-8.4-5.7-14.8c0-5.2,1.6-9.8,4.8-13.8s8.5-6,15.7-6c6.8,0,12,1.8,15.6,5.4c3.6,3.6,5.4,8.3,5.4,14
			C1289.8,200.1,1289.2,203.2,1288,205.9z M1279.1,190.6c-1.5-1.4-3.5-2.4-6.1-2.7v17.7c2.7-0.2,4.8-1.1,6.2-2.7
			c1.4-1.6,2.1-3.7,2.1-6.1C1281.4,194.1,1280.6,192.1,1279.1,190.6z"/>
		<path class="st3" d="M1273.4,236.9c0.2,1.9,0.5,3.3,0.9,4.1c0.6,1.5,1.6,2.2,2.9,2.2c1.6,0,2.7-0.6,3.3-1.7s0.9-2.8,0.9-5
			c0-2.5-0.6-4.2-1.8-5.2c-0.9-0.7-2.1-1.2-3.6-1.5V220c3.4,0.2,6.2,1.2,8.5,2.9c3.5,2.7,5.2,7.4,5.2,14c0,4.3-0.9,8.1-2.6,11.5
			c-1.7,3.3-4.9,5-9.6,5h-18c-1.2,0-2.8,0-4.5,0.1c-1.3,0.1-2.3,0.3-2.7,0.6c-0.5,0.3-0.9,0.8-1.2,1.5h-1.5v-11.2
			c0.8-0.3,1.5-0.5,2.2-0.6c0.7-0.1,1.5-0.2,2.4-0.3c-1.5-1.4-2.8-3.1-3.9-4.9c-1.3-2.2-1.9-4.7-1.9-7.5c0-3.6,1-6.5,3-8.8
			c2-2.3,4.9-3.5,8.6-3.5c4.8,0,8.3,1.9,10.5,5.6c1.2,2.1,2,5.1,2.5,9.1L1273.4,236.9z M1268.6,243.2c-0.4-0.7-0.7-1.3-1-2
			c-0.3-0.7-0.5-1.6-0.7-2.8l-0.4-2.3c-0.4-2.2-0.9-3.8-1.4-4.7c-0.9-1.6-2.4-2.4-4.4-2.4c-1.8,0-3,0.5-3.8,1.5
			c-0.8,1-1.2,2.2-1.2,3.6c0,2.2,0.6,4.3,1.9,6.2c1.3,1.9,3.7,2.9,7.1,2.9H1268.6z"/>
		<path class="st3" d="M1281.1,258.3h7.3v5.5h10.9v10.1h-10.9v6.4h-7.3v-6.4h-20.7c-1.6,0-2.6,0.2-3,0.6c-0.4,0.4-0.6,1.7-0.6,3.7
			c0,0.3,0,0.6,0,1c0,0.3,0,0.7,0.1,1h-7.7l-0.2-4.9c-0.2-4.8,0.7-8.2,2.5-9.9c1.2-1.2,3-1.7,5.4-1.7h24.1V258.3z"/>
		<path class="st3" d="M1288.6,315.1c-0.8,2-2.1,3.6-3.9,4.9c-1.5,1.1-3,1.7-4.5,2c-1.5,0.2-4.1,0.4-7.6,0.4h-23v-10.5h23.9
			c2.1,0,3.8-0.4,5.1-1.1c1.8-0.9,2.7-2.7,2.7-5.3c0-2.7-0.9-4.7-2.7-6.1c-1.8-1.4-4.4-2.1-7.8-2.1h-21.3V287h52.9v10.3h-18.7
			c2.3,1.5,3.9,3.2,4.8,5.1s1.3,4,1.3,6.1C1289.8,310.9,1289.4,313.1,1288.6,315.1z"/>
		<path class="st3" d="M1262.1,339.9c-1.8,0.2-3.1,0.7-3.9,1.4c-1.4,1.3-2.1,3.6-2.1,7.1c0,2,0.3,3.6,0.9,4.8
			c0.6,1.2,1.5,1.8,2.7,1.8c1.2,0,2-0.5,2.6-1.4c0.6-1,1.6-4.5,3.1-10.7c1.1-4.5,2.5-7.6,4.1-9.4c1.6-1.8,4-2.7,7.1-2.7
			c3.6,0,6.7,1.4,9.3,4.3c2.6,2.8,3.9,6.9,3.9,12c0,4.9-1,8.9-2.9,12c-2,3.1-5.3,4.9-10.1,5.3V354c1.3-0.1,2.4-0.5,3.1-1.1
			c1.4-1.1,2.1-3.1,2.1-5.8c0-2.2-0.3-3.8-1-4.8c-0.7-1-1.5-1.4-2.4-1.4c-1.2,0-2,0.5-2.6,1.5c-0.6,1-1.5,4.6-2.8,10.7
			c-1,4.1-2.4,7.1-4.4,9.2c-2,2-4.4,3-7.4,3c-3.9,0-7.1-1.4-9.5-4.3c-2.5-2.9-3.7-7.4-3.7-13.4c0-6.2,1.3-10.7,3.9-13.7
			c2.6-2.9,5.9-4.4,9.9-4.4V339.9z"/>
		<path class="st3" d="M1284.6,426.3c-3.4,3.2-8.3,4.8-14.9,4.8c-6.9,0-12.2-1.6-15.8-4.7c-3.6-3.1-5.4-7.2-5.4-12.1
			c0-3.1,0.8-5.7,2.3-7.8c0.9-1.1,2.1-2.2,3.8-3.3h-20.4v-10.1h54.7v9.8h-5.8c1.7,1.1,3,2.3,4,3.5c1.8,2.3,2.6,5,2.6,8.2
			C1289.7,419.2,1288,423.1,1284.6,426.3z M1277.2,418.5c2.3-1.4,3.5-3.7,3.5-6.8c0-3.8-1.8-6.3-5.3-7.7c-1.9-0.7-4.2-1.1-7.1-1.1
			c-4.6,0-7.8,1.2-9.6,3.7c-1.1,1.5-1.6,3.2-1.6,5.2c0,2.9,1.1,5.1,3.3,6.6c2.2,1.5,5.1,2.3,8.8,2.3
			C1272.2,420.6,1274.9,419.9,1277.2,418.5z"/>
		<path class="st3" d="M1288,463.9c-1.2,2.7-3.2,5-5.8,6.8c-2.3,1.6-5,2.6-8.1,3.1c-1.8,0.3-4.4,0.4-7.8,0.3v-28.6
			c-3.9,0.2-6.7,1.5-8.3,4.1c-1,1.6-1.5,3.5-1.5,5.7c0,2.3,0.6,4.2,1.8,5.7c0.6,0.8,1.5,1.5,2.7,2.1v10.5c-2.3-0.3-4.7-1.5-7.1-3.8
			c-3.8-3.5-5.7-8.4-5.7-14.8c0-5.2,1.6-9.8,4.8-13.8c3.2-4,8.5-6,15.7-6c6.8,0,12,1.8,15.6,5.4c3.6,3.6,5.4,8.3,5.4,14
			C1289.8,458.1,1289.2,461.2,1288,463.9z M1279.1,448.6c-1.5-1.4-3.5-2.4-6.1-2.7v17.7c2.7-0.2,4.8-1.1,6.2-2.7
			c1.4-1.6,2.1-3.7,2.1-6.1C1281.4,452.1,1280.6,450,1279.1,448.6z"/>
		<path class="st3" d="M1289.7,501.1c0,0.1,0,0.4-0.1,0.9h-10.5c0.1-0.6,0.1-1.2,0.1-1.7c0-0.5,0-0.9,0-1.2c0-4.1-1.3-6.9-4-8.3
			c-1.5-0.8-3.8-1.2-7-1.2h-18.7v-10.3h39.2v9.8h-6.8c2.6,1.6,4.4,3,5.4,4.1c1.6,1.9,2.4,4.4,2.4,7.5
			C1289.7,500.9,1289.7,501,1289.7,501.1z"/>
		<path class="st3" d="M1262.1,536.5c-1.8,0.2-3.1,0.7-3.9,1.4c-1.4,1.3-2.1,3.6-2.1,7.1c0,2,0.3,3.6,0.9,4.8
			c0.6,1.2,1.5,1.8,2.7,1.8c1.2,0,2-0.5,2.6-1.4c0.6-1,1.6-4.5,3.1-10.7c1.1-4.5,2.5-7.6,4.1-9.4c1.6-1.8,4-2.7,7.1-2.7
			c3.6,0,6.7,1.4,9.3,4.3c2.6,2.8,3.9,6.9,3.9,12c0,4.9-1,8.9-2.9,12c-2,3.1-5.3,4.9-10.1,5.3v-10.3c1.3-0.1,2.4-0.5,3.1-1.1
			c1.4-1.1,2.1-3.1,2.1-5.8c0-2.2-0.3-3.8-1-4.8c-0.7-1-1.5-1.4-2.4-1.4c-1.2,0-2,0.5-2.6,1.5c-0.6,1-1.5,4.6-2.8,10.7
			c-1,4.1-2.4,7.1-4.4,9.2c-2,2-4.4,3-7.4,3c-3.9,0-7.1-1.4-9.5-4.3c-2.5-2.9-3.7-7.4-3.7-13.4c0-6.2,1.3-10.7,3.9-13.7
			c2.6-2.9,5.9-4.4,9.9-4.4V536.5z"/>
		<path class="st3" d="M1281.1,565.5h7.3v5.5h10.9v10.1h-10.9v6.4h-7.3v-6.4h-20.7c-1.6,0-2.6,0.2-3,0.6c-0.4,0.4-0.6,1.7-0.6,3.7
			c0,0.3,0,0.6,0,1c0,0.3,0,0.7,0.1,1h-7.7l-0.2-4.9c-0.2-4.8,0.7-8.2,2.5-9.9c1.2-1.2,3-1.7,5.4-1.7h24.1V565.5z"/>
		<path class="st3" d="M1273.4,609.6c0.2,1.9,0.5,3.3,0.9,4.1c0.6,1.5,1.6,2.2,2.9,2.2c1.6,0,2.7-0.6,3.3-1.7c0.6-1.1,0.9-2.8,0.9-5
			c0-2.5-0.6-4.2-1.8-5.2c-0.9-0.7-2.1-1.2-3.6-1.5v-9.9c3.4,0.2,6.2,1.2,8.5,2.9c3.5,2.7,5.2,7.4,5.2,14c0,4.3-0.9,8.1-2.6,11.5
			c-1.7,3.3-4.9,5-9.6,5h-18c-1.2,0-2.8,0-4.5,0.1c-1.3,0.1-2.3,0.3-2.7,0.6c-0.5,0.3-0.9,0.8-1.2,1.5h-1.5v-11.2
			c0.8-0.3,1.5-0.5,2.2-0.6c0.7-0.1,1.5-0.2,2.4-0.3c-1.5-1.4-2.8-3.1-3.9-4.9c-1.3-2.2-1.9-4.7-1.9-7.5c0-3.6,1-6.5,3-8.8
			s4.9-3.5,8.6-3.5c4.8,0,8.3,1.9,10.5,5.6c1.2,2.1,2,5.1,2.5,9.1L1273.4,609.6z M1268.6,615.8c-0.4-0.7-0.7-1.3-1-2
			c-0.3-0.7-0.5-1.6-0.7-2.8l-0.4-2.3c-0.4-2.2-0.9-3.8-1.4-4.7c-0.9-1.6-2.4-2.4-4.4-2.4c-1.8,0-3,0.5-3.8,1.5
			c-0.8,1-1.2,2.2-1.2,3.6c0,2.2,0.6,4.3,1.9,6.2c1.3,1.9,3.7,2.9,7.1,2.9H1268.6z"/>
		<path class="st3" d="M1281.1,631h7.3v5.5h10.9v10.1h-10.9v6.4h-7.3v-6.4h-20.7c-1.6,0-2.6,0.2-3,0.6c-0.4,0.4-0.6,1.7-0.6,3.7
			c0,0.3,0,0.6,0,1c0,0.3,0,0.7,0.1,1h-7.7l-0.2-4.9c-0.2-4.8,0.7-8.2,2.5-9.9c1.2-1.2,3-1.7,5.4-1.7h24.1V631z"/>
		<path class="st3" d="M1288,685.1c-1.2,2.7-3.2,5-5.8,6.8c-2.3,1.6-5,2.6-8.1,3.1c-1.8,0.3-4.4,0.4-7.8,0.3v-28.6
			c-3.9,0.2-6.7,1.5-8.3,4.1c-1,1.6-1.5,3.5-1.5,5.7c0,2.3,0.6,4.2,1.8,5.7c0.6,0.8,1.5,1.5,2.7,2.1v10.5c-2.3-0.3-4.7-1.5-7.1-3.8
			c-3.8-3.5-5.7-8.4-5.7-14.8c0-5.2,1.6-9.8,4.8-13.8s8.5-6,15.7-6c6.8,0,12,1.8,15.6,5.4c3.6,3.6,5.4,8.3,5.4,14
			C1289.8,679.3,1289.2,682.4,1288,685.1z M1279.1,669.8c-1.5-1.4-3.5-2.4-6.1-2.7v17.7c2.7-0.2,4.8-1.1,6.2-2.7
			c1.4-1.6,2.1-3.7,2.1-6.1C1281.4,673.3,1280.6,671.2,1279.1,669.8z"/>
		<path class="st3" d="M1287.3,704.1V715h-10.8v-10.9H1287.3z M1260.3,704.1V715h-10.8v-10.9H1260.3z"/>
	</g>
</g>
</svg>
