<svg id="Layer_1" data-name="Layer 1" xmlns="http://www.w3.org/2000/svg" viewBox="0 0 515.37 336.5"><defs><style>.cls-1{fill:#262626;}.cls-2{fill:lime;}.cls-3{fill:#fff;}.cls-4,.cls-5,.cls-6,.cls-7{fill:none;stroke-miterlimit:10;}.cls-4,.cls-6{stroke:lime;}.cls-5,.cls-7{stroke:#fff;}.cls-6,.cls-7{stroke-width:4px;}</style></defs><title>Artboard 5 copy 2</title><rect class="cls-1" x="-175.94" y="-431.68" width="868.63" height="1001.99"/><path class="cls-2" d="M2.92,28.43V26.84H5.8V7.15L3.46,8.81a1.34,1.34,0,0,1-.65.29c-.43,0-.68-.25-.68-.58A.84.84,0,0,1,2.38,8L5.8,4.38a1.08,1.08,0,0,1,.68-.29h.32a.65.65,0,0,1,.72.68V26.84h2.88v1.58Z"/><path class="cls-2" d="M26.29,28.43H21a3.64,3.64,0,0,1-3.64-3.6V22.49h1.73v2a2.37,2.37,0,0,0,2.38,2.34h4.32a2.4,2.4,0,0,0,2.38-2.37V19.39A2.4,2.4,0,0,0,25.78,17H21.1V15.43h4.32a2.4,2.4,0,0,0,2.48-2.38V8a2.35,2.35,0,0,0-2.41-2.34H19.88v3H18.15V4.92c0-.54.29-.83.9-.83h7a3.61,3.61,0,0,1,3.6,3.6v5.83a2.62,2.62,0,0,1-1.73,2.56,2.64,2.64,0,0,1,2,2.81v6A3.65,3.65,0,0,1,26.29,28.43Z"/><path class="cls-2" d="M37.05,29.87l-1.26,1.94c-.14.22-.25.29-.43.29s-.47-.25-.32-.61l.79-1.84a2.7,2.7,0,0,0,.25-.79c0-.61-.9-.25-.9-1.3V25.29a.69.69,0,0,1,.72-.65h1a.7.7,0,0,1,.65.65v2.52A3.56,3.56,0,0,1,37.05,29.87Z"/><path class="cls-2" d="M51.2,28.43H46.12a3.64,3.64,0,0,1-3.64-3.6V22.49h1.73v2a2.37,2.37,0,0,0,2.38,2.34h4.14a2.33,2.33,0,0,0,2.34-2.34V19.36A2.37,2.37,0,0,0,50.69,17H42.88V4.78a.78.78,0,0,1,.76-.68H53a.65.65,0,0,1,.68.61v.4c0,.29-.25.58-.72.58H44.61v9.75h6.55A3.66,3.66,0,0,1,54.8,19v5.83A3.61,3.61,0,0,1,51.2,28.43Z"/><path class="cls-2" d="M68.69,28.43H61a.71.71,0,0,1-.68-.68v-.22a.68.68,0,0,1,.68-.68h7.24A2.36,2.36,0,0,0,70.6,24.5V15.9A2.85,2.85,0,0,1,68.33,17H63a3.61,3.61,0,0,1-3.6-3.6V7.69A3.61,3.61,0,0,1,63,4.09h5.72a3.64,3.64,0,0,1,3.64,3.6V24.83A3.64,3.64,0,0,1,68.69,28.43ZM70.6,8a2.34,2.34,0,0,0-2.34-2.34H63.44A2.34,2.34,0,0,0,61.1,8v5.08a2.34,2.34,0,0,0,2.34,2.34h4.82a2.34,2.34,0,0,0,2.34-2.34Z"/><path class="cls-2" d="M87.27,20.79v6h2.88v1.58H82.66V26.84h2.88v-6H77.15A1.07,1.07,0,0,1,76,19.71a2,2,0,0,1,.25-.86l8-14.11a1.15,1.15,0,0,1,1.08-.65h.94a.9.9,0,0,1,1,.86V19.21h4.36v1.58Zm-1.73-15L77.87,19.21h7.67Z"/><path class="cls-2" d="M10.67,216.37H3a.71.71,0,0,1-.68-.68v-.22a.68.68,0,0,1,.68-.68h7.24a2.37,2.37,0,0,0,2.38-2.34v-8.6A2.85,2.85,0,0,1,10.31,205H4.95a3.61,3.61,0,0,1-3.6-3.6v-5.72a3.61,3.61,0,0,1,3.6-3.6h5.72a3.64,3.64,0,0,1,3.64,3.6v17.13A3.64,3.64,0,0,1,10.67,216.37ZM12.58,196a2.33,2.33,0,0,0-2.34-2.34H5.42A2.33,2.33,0,0,0,3.08,196V201a2.33,2.33,0,0,0,2.34,2.34h4.82A2.33,2.33,0,0,0,12.58,201Z"/><path class="cls-2" d="M18.05,207.27v-1.55H36v1.55Z"/><path class="cls-2" d="M42.28,216.37v-1.58h2.88V195.1l-2.34,1.66a1.34,1.34,0,0,1-.65.29c-.43,0-.68-.25-.68-.58a.84.84,0,0,1,.25-.54l3.42-3.6a1.09,1.09,0,0,1,.68-.29h.32a.65.65,0,0,1,.72.68v22.06h2.88v1.58Z"/><path class="cls-2" d="M66.29,216.37H60.64a3.64,3.64,0,0,1-3.63-3.6V195.64a3.64,3.64,0,0,1,3.63-3.6h5.65a3.61,3.61,0,0,1,3.6,3.6v17.13A3.61,3.61,0,0,1,66.29,216.37ZM68.16,196a2.33,2.33,0,0,0-2.34-2.34H61.11A2.37,2.37,0,0,0,58.73,196v16.49a2.37,2.37,0,0,0,2.38,2.34h4.71a2.33,2.33,0,0,0,2.34-2.34Z"/><path class="cls-2" d="M106.18,193.63l-4.79,21.81a1.17,1.17,0,0,1-1.08.94h-.4c-.43,0-.9-.32-1.19-1.33l-4.25-13.86L90.23,215c-.29,1-.76,1.33-1.19,1.33h-.4a1.17,1.17,0,0,1-1.08-.94l-4.79-21.81H79.9V192H87v1.58H84.47l3.78,17.24c.32,1.51.65,3.56.65,3.56H89s.29-1.4.68-2.74l3.49-11.41a.93.93,0,0,1,.94-.68h.72a.9.9,0,0,1,.94.68l3.49,11.41c.4,1.33.68,2.74.68,2.74h.11s.32-2.05.65-3.56l3.78-17.24H102V192h7.09v1.58Z"/><path class="cls-2" d="M120.22,208.71h-9.39v3.71a2.35,2.35,0,0,0,2.38,2.38h5.51a.66.66,0,0,1,.68.65v.29a.65.65,0,0,1-.68.65h-6a3.61,3.61,0,0,1-3.6-3.6v-9.9a3.61,3.61,0,0,1,3.63-3.56h5.54a3.58,3.58,0,0,1,3.56,3.6v4.32A1.42,1.42,0,0,1,120.22,208.71Zm-.11-5.47a2.29,2.29,0,0,0-2.34-2.34H113.2a2.39,2.39,0,0,0-2.38,2.34v3.92h9.29Z"/><path class="cls-2" d="M137.43,208.71H128v3.71a2.35,2.35,0,0,0,2.38,2.38h5.51a.65.65,0,0,1,.68.65v.29a.65.65,0,0,1-.68.65h-6a3.61,3.61,0,0,1-3.6-3.6v-9.9a3.61,3.61,0,0,1,3.64-3.56h5.54a3.58,3.58,0,0,1,3.56,3.6v4.32A1.42,1.42,0,0,1,137.43,208.71Zm-.11-5.47A2.29,2.29,0,0,0,135,200.9h-4.57a2.39,2.39,0,0,0-2.37,2.34v3.92h9.29Z"/><path class="cls-2" d="M156.08,216.37a1.4,1.4,0,0,1-1.19-.65l-5.94-8.35-2.27,2.34v5.07h2.48v1.58h-7.09v-1.58H145V193.63h-2.88V192H146a.7.7,0,0,1,.68.68v14.61l7.38-7.63a1.29,1.29,0,0,1,1-.4h2.74v1.58h-2.59l-5.08,5.29,6.12,8.6h2.59v1.58Z"/><path class="cls-2" d="M170.08,216.37h-5.15a3.61,3.61,0,0,1-3.6-3.6v-.83h1.73v.5a2.36,2.36,0,0,0,2.34,2.34h4.18a2.34,2.34,0,0,0,2.34-2.37V211a2.34,2.34,0,0,0-2.34-2.34h-4.46a3.62,3.62,0,0,1-3.6-3.53v-2.3a3.6,3.6,0,0,1,3.6-3.56h6.37a.76.76,0,0,1,.79.68v3.63h-1.73V200.9h-5a2.36,2.36,0,0,0-2.34,2.34v1.58a2.36,2.36,0,0,0,2.34,2.34H170a3.63,3.63,0,0,1,3.6,3.56v2.09A3.57,3.57,0,0,1,170.08,216.37Z"/><path class="cls-2" d="M14.2,262.15l-6.69,22.5a.62.62,0,0,1-.83.47L6.39,285a.68.68,0,0,1-.47-.83L12.4,262.3H2.93v3H1.21v-3.89a.7.7,0,0,1,.76-.65H13.63a.68.68,0,0,1,.68.65v.29A2.53,2.53,0,0,1,14.2,262.15Z"/><path class="cls-2" d="M20.93,285H20a.72.72,0,0,1-.72-.72V282a.72.72,0,0,1,.72-.72h.94a.72.72,0,0,1,.72.72v2.34A.72.72,0,0,1,20.93,285Z"/><path class="cls-2" d="M35.66,285H29.82a3.64,3.64,0,0,1-3.63-3.6v-5.87a3.12,3.12,0,0,1,2.12-2.77,3,3,0,0,1-1.76-2.7v-5.8a3.64,3.64,0,0,1,3.64-3.6H35.3a3.64,3.64,0,0,1,3.64,3.6v5.8a3,3,0,0,1-1.76,2.7,3.12,3.12,0,0,1,2.12,2.77v5.87A3.64,3.64,0,0,1,35.66,285ZM37.56,276a2.37,2.37,0,0,0-2.38-2.34H30.29A2.37,2.37,0,0,0,27.92,276v5.15a2.37,2.37,0,0,0,2.38,2.34h4.89a2.37,2.37,0,0,0,2.38-2.34Zm-.36-11.34a2.33,2.33,0,0,0-2.34-2.34H30.65a2.37,2.37,0,0,0-2.37,2.34v5.08a2.36,2.36,0,0,0,2.34,2.34h4.25a2.33,2.33,0,0,0,2.34-2.34Z"/><path class="cls-2" d="M63.55,273.64h-7.2v9.83h2.88V285H51.75v-1.58h2.88V262.3H51.75v-1.58H55.1a1.08,1.08,0,0,1,.87.36l.25.29c.21.25.32.43.68.43a15.34,15.34,0,0,0,2.34-.79,8.69,8.69,0,0,1,3.17-.4h.9c2.77,0,4.28,1.48,4.28,3.67v5.47A3.94,3.94,0,0,1,63.55,273.64Zm2.3-8.93a2.38,2.38,0,0,0-2.38-2.41H58.77a2.41,2.41,0,0,0-2.41,2.41v7.34H63a2.86,2.86,0,0,0,2.84-2.88Z"/><path class="cls-2" d="M81.52,285a1.46,1.46,0,0,1-.9-.36l-.29-.32a1,1,0,0,0-.68-.32c-1,0-1.73,1.12-4.9,1.12H73.53c-2.77,0-4.1-1.76-4.1-3.85v-2.88c0-2.12,1.33-3.85,4.1-3.85h1.22c3.17,0,3.92,1.19,4.9,1.19.25,0,.54-.22.54-.68v-3.2a2.32,2.32,0,0,0-2.34-2.3H72.09a.68.68,0,0,1-.68-.65v-.29a.68.68,0,0,1,.68-.65h6.23a3.63,3.63,0,0,1,3.6,3.67v11.81h2.7V285Zm-1.33-6.37a2.41,2.41,0,0,0-2.41-2.41H73.56a2.41,2.41,0,0,0-2.41,2.41v2.38a2.41,2.41,0,0,0,2.41,2.41h4.21a2.41,2.41,0,0,0,2.41-2.41Z"/><path class="cls-2" d="M93,285.15a3,3,0,0,1-3.13-3.24V269.57H87.86a.68.68,0,0,1-.68-.65v-.29a.68.68,0,0,1,.68-.65h2.05V261.4a.71.71,0,0,1,.68-.68H91a.71.71,0,0,1,.68.68V268h4.25v1.58H91.64v12c0,1.55.83,1.94,1.8,1.94a7,7,0,0,0,2.84-.9v1.51A6.52,6.52,0,0,1,93,285.15Z"/><path class="cls-2" d="M109.89,285h-5.58a3.61,3.61,0,0,1-3.6-3.6v-9.86a3.61,3.61,0,0,1,3.6-3.6h8.46v4.32H111v-2.74h-6.23a2.37,2.37,0,0,0-2.38,2.34v9.21a2.36,2.36,0,0,0,2.34,2.34h4.64a2.36,2.36,0,0,0,2.34-2.34v-.5h1.73v.83A3.61,3.61,0,0,1,109.89,285Z"/><path class="cls-2" d="M127.46,285v-1.58h2.48V272a2.41,2.41,0,0,0-2.41-2.41h-4.21A2.41,2.41,0,0,0,120.9,272v11.48h2.48V285H116.3v-1.58h2.88V262.3H116.3v-1.58h3.85a.79.79,0,0,1,.76.76v6.91c0,.47.29.68.54.68,1,0,1.73-1.19,4.9-1.19h1.22c2.77,0,4.1,1.73,4.1,3.85v11.73h2.88V285Z"/><path class="cls-2" d="M149.34,277.38h-9.39v3.71a2.35,2.35,0,0,0,2.38,2.38h5.51a.65.65,0,0,1,.68.65v.29a.65.65,0,0,1-.68.65h-6a3.61,3.61,0,0,1-3.6-3.6v-9.9a3.61,3.61,0,0,1,3.64-3.56h5.54a3.58,3.58,0,0,1,3.56,3.6v4.32A1.42,1.42,0,0,1,149.34,277.38Zm-.11-5.47a2.29,2.29,0,0,0-2.34-2.34h-4.57a2.39,2.39,0,0,0-2.38,2.34v3.92h9.29Z"/><path class="cls-2" d="M163.63,285h-5.15a3.61,3.61,0,0,1-3.6-3.6v-.83h1.73v.5a2.36,2.36,0,0,0,2.34,2.34h4.18a2.34,2.34,0,0,0,2.34-2.37v-1.37a2.34,2.34,0,0,0-2.34-2.34h-4.46a3.62,3.62,0,0,1-3.6-3.53v-2.3a3.6,3.6,0,0,1,3.6-3.56H165a.76.76,0,0,1,.79.68v3.64H164.1v-2.74h-5a2.36,2.36,0,0,0-2.34,2.34v1.58a2.36,2.36,0,0,0,2.34,2.34h4.46a3.63,3.63,0,0,1,3.6,3.56v2.09A3.57,3.57,0,0,1,163.63,285Z"/><path class="cls-2" d="M124,28.43V26.84h2.88V7.15l-2.34,1.66a1.34,1.34,0,0,1-.65.29c-.43,0-.68-.25-.68-.58a.84.84,0,0,1,.25-.54l3.42-3.6a1.08,1.08,0,0,1,.68-.29h.32a.65.65,0,0,1,.72.68V26.84h2.88v1.58Z"/><path class="cls-2" d="M140.59,29.87l-1.26,1.94c-.14.22-.25.29-.43.29s-.47-.25-.32-.61l.79-1.84a2.7,2.7,0,0,0,.25-.79c0-.61-.9-.25-.9-1.3V25.29a.69.69,0,0,1,.72-.65h1a.7.7,0,0,1,.65.65v2.52A3.56,3.56,0,0,1,140.59,29.87Z"/><path class="cls-2" d="M154.38,28.43h-5.29a3.64,3.64,0,0,1-3.64-3.6V22.49h1.73v2a2.37,2.37,0,0,0,2.38,2.34h4.32a2.39,2.39,0,0,0,2.38-2.37V19.39A2.4,2.4,0,0,0,153.88,17H149.2V15.43h4.32A2.4,2.4,0,0,0,156,13.06V8a2.35,2.35,0,0,0-2.41-2.34H148v3h-1.73V4.92c0-.54.29-.83.9-.83h7a3.61,3.61,0,0,1,3.6,3.6v5.83A2.62,2.62,0,0,1,156,16.08a2.64,2.64,0,0,1,2,2.81v6A3.65,3.65,0,0,1,154.38,28.43Z"/><path class="cls-2" d="M173.24,20.79v6h2.88v1.58h-7.49V26.84h2.88v-6h-8.39a1.07,1.07,0,0,1-1.19-1.08,2,2,0,0,1,.25-.86l8-14.11a1.15,1.15,0,0,1,1.08-.65h.94a.9.9,0,0,1,1,.86V19.21h4.36v1.58Zm-1.73-15-7.67,13.46h7.67Z"/><path class="cls-2" d="M190.16,28.43h-5.65a3.64,3.64,0,0,1-3.64-3.6V7.69a3.64,3.64,0,0,1,3.64-3.6h5.65a3.61,3.61,0,0,1,3.6,3.6V24.83A3.61,3.61,0,0,1,190.16,28.43ZM192,8a2.34,2.34,0,0,0-2.34-2.34H185A2.37,2.37,0,0,0,182.6,8V24.5A2.37,2.37,0,0,0,185,26.84h4.72A2.33,2.33,0,0,0,192,24.5Z"/><path class="cls-3" d="M391.09,21h-2.68a1.81,1.81,0,0,1-1.8-1.8V14.29a1.81,1.81,0,0,1,1.8-1.8h2.68a1.79,1.79,0,0,1,1.8,1.8v4.93A1.79,1.79,0,0,1,391.09,21Zm.94-6.57a1.16,1.16,0,0,0-1.15-1.17h-2.21a1.18,1.18,0,0,0-1.19,1.17v4.61a1.18,1.18,0,0,0,1.17,1.17h2.21A1.17,1.17,0,0,0,392,19.06Z"/><path class="cls-3" d="M399.12,9.84a2.41,2.41,0,0,0-.83-.2.84.84,0,0,0-.9,1v1.87h1.8v.79h-1.8v7h1.44V21h-3.75v-.79h1.44v-7h-1a.34.34,0,0,1-.34-.32v-.14a.34.34,0,0,1,.34-.32h1V10.42A1.51,1.51,0,0,1,398.1,8.8a2.29,2.29,0,0,1,1,.23l.61.31v.74Z"/><path class="cls-3" d="M408,21.08a1.51,1.51,0,0,1-1.57-1.62V13.28h-1A.34.34,0,0,1,405,13v-.14a.34.34,0,0,1,.34-.32h1V9.19a.35.35,0,0,1,.34-.34h.18a.35.35,0,0,1,.34.34v3.29h2.12v.79h-2.12v6c0,.77.41,1,.9,1a3.52,3.52,0,0,0,1.42-.45v.76A3.26,3.26,0,0,1,408,21.08Z"/><path class="cls-3" d="M416.65,21v-.79h1.24V14.49a1.21,1.21,0,0,0-1.21-1.21h-2.11a1.21,1.21,0,0,0-1.21,1.21v5.74h1.24V21h-3.55v-.79h1.44V9.64h-1.44V8.85H413a.39.39,0,0,1,.38.38v3.46c0,.23.14.34.27.34.49,0,.86-.59,2.45-.59h.61a1.85,1.85,0,0,1,2.05,1.93v5.87h1.44V21Z"/><path class="cls-3" d="M427.6,17.19h-4.7V19a1.17,1.17,0,0,0,1.19,1.19h2.75a.33.33,0,0,1,.34.32v.14a.33.33,0,0,1-.34.32h-3a1.8,1.8,0,0,1-1.8-1.8v-5a1.81,1.81,0,0,1,1.82-1.78h2.77a1.79,1.79,0,0,1,1.78,1.8v2.16A.71.71,0,0,1,427.6,17.19Zm-.05-2.74a1.15,1.15,0,0,0-1.17-1.17h-2.29a1.2,1.2,0,0,0-1.19,1.17v2h4.65Z"/><path class="cls-3" d="M437.12,21.08a1.51,1.51,0,0,1-1.57-1.62V13.28h-1a.34.34,0,0,1-.34-.32v-.14a.34.34,0,0,1,.34-.32h1V9.19a.35.35,0,0,1,.34-.34h.18a.35.35,0,0,1,.34.34v3.29h2.13v.79h-2.12v6c0,.77.41,1,.9,1a3.52,3.52,0,0,0,1.42-.45v.76A3.26,3.26,0,0,1,437.12,21.08Z"/><path class="cls-3" d="M445.44,21h-2.68a1.81,1.81,0,0,1-1.8-1.8V14.29a1.81,1.81,0,0,1,1.8-1.8h2.68a1.79,1.79,0,0,1,1.8,1.8v4.93A1.79,1.79,0,0,1,445.44,21Zm.94-6.57a1.16,1.16,0,0,0-1.15-1.17H443a1.18,1.18,0,0,0-1.19,1.17v4.61A1.18,1.18,0,0,0,443,20.23h2.21a1.17,1.17,0,0,0,1.17-1.17Z"/><path class="cls-3" d="M454.71,21.08h-.61c-1.55,0-2-.58-2.48-.58-.18,0-.23.18-.23.4v3.66a.42.42,0,0,1-.47.43h-1.84v-.79h1.44V13.28h-1.44v-.79h1.67a.56.56,0,0,1,.43.18l.13.16a.54.54,0,0,0,.34.2c.49,0,.86-.59,2.45-.59h.61a1.86,1.86,0,0,1,2.05,1.93v4.79A1.86,1.86,0,0,1,454.71,21.08Zm1.19-6.59a1.21,1.21,0,0,0-1.21-1.21h-2.11a1.21,1.21,0,0,0-1.21,1.21V19a1.21,1.21,0,0,0,1.21,1.21h2.11A1.21,1.21,0,0,0,455.89,19Z"/><path class="cls-3" d="M464.82,21v-.79h1.44V10.38l-1.17.83a.67.67,0,0,1-.32.14c-.22,0-.34-.13-.34-.29a.42.42,0,0,1,.13-.27L466.26,9a.54.54,0,0,1,.34-.14h.16a.33.33,0,0,1,.36.34v11h1.44V21Z"/><path class="cls-3" d="M479.55,21v-.79h1.24V10.38l-2.9,4.34a.53.53,0,0,1-.32.23h-.11a.53.53,0,0,1-.32-.23l-2.9-4.34v9.85h1.24V21h-3.55v-.79h1.44V9.64h-1.44V8.85h1.94a.46.46,0,0,1,.47.23l3.17,4.75,3.17-4.75a.46.46,0,0,1,.47-.23h1.94v.79h-1.44V20.23h1.44V21Z"/><path class="cls-3" d="M395.81,33.28l-1.62,7.18a.63.63,0,0,1-.58.56h-.22c-.29,0-.45-.27-.56-.54l-1.67-4.57-1.67,4.57c-.11.27-.27.54-.56.54h-.22a.63.63,0,0,1-.58-.56l-1.62-7.18h-1.21v-.79h3.13v.79h-1.08l1.06,4.7c.22,1,.42,2.21.42,2.21h0s.25-.94.59-1.84l1.08-2.86a.49.49,0,0,1,.47-.38h.29a.49.49,0,0,1,.47.38l1.08,2.86c.34.9.59,1.84.59,1.84h0s.2-1.24.41-2.21l1.06-4.7h-1.08v-.79H397v.79Z"/><path class="cls-3" d="M403.84,37.19h-4.7V39a1.17,1.17,0,0,0,1.19,1.19h2.75a.33.33,0,0,1,.34.32v.14a.33.33,0,0,1-.34.32h-3a1.8,1.8,0,0,1-1.8-1.8v-5a1.81,1.81,0,0,1,1.82-1.78h2.77a1.79,1.79,0,0,1,1.78,1.8v2.16A.71.71,0,0,1,403.84,37.19Zm-.05-2.74a1.15,1.15,0,0,0-1.17-1.17h-2.29a1.2,1.2,0,0,0-1.19,1.17v2h4.65Z"/><path class="cls-3" d="M411.79,41.08h-.61c-1.58,0-2-.56-2.45-.56a.55.55,0,0,0-.34.16l-.14.14a.69.69,0,0,1-.45.2h-1.64v-.79h1.44V29.64h-1.44v-.79h1.93a.39.39,0,0,1,.38.38v3.46c0,.23.14.34.27.34.49,0,.86-.59,2.45-.59h.61a1.85,1.85,0,0,1,2.05,1.93v4.79A1.86,1.86,0,0,1,411.79,41.08ZM413,34.49a1.21,1.21,0,0,0-1.21-1.21h-2.11a1.21,1.21,0,0,0-1.21,1.21V39a1.21,1.21,0,0,0,1.21,1.21h2.11A1.21,1.21,0,0,0,413,39Z"/><path class="cls-3" d="M426.64,41a.73.73,0,0,1-.45-.18l-.14-.16a.51.51,0,0,0-.34-.16c-.49,0-.86.56-2.45.56h-.61a1.86,1.86,0,0,1-2.05-1.93V34.36a1.85,1.85,0,0,1,2.05-1.93h.61c1.58,0,2,.59,2.45.59.13,0,.27-.11.27-.34v-3h-1.44v-.79h1.93a.39.39,0,0,1,.38.38v11h1.44V41ZM426,34.49a1.21,1.21,0,0,0-1.21-1.21h-2.11a1.21,1.21,0,0,0-1.21,1.21V39a1.21,1.21,0,0,0,1.21,1.21h2.11A1.21,1.21,0,0,0,426,39Z"/><path class="cls-3" d="M434.6,41h-2.68a1.81,1.81,0,0,1-1.8-1.8V34.29a1.81,1.81,0,0,1,1.8-1.8h2.68a1.79,1.79,0,0,1,1.8,1.8v4.93A1.79,1.79,0,0,1,434.6,41Zm.94-6.57a1.16,1.16,0,0,0-1.15-1.17h-2.21A1.18,1.18,0,0,0,431,34.45v4.61a1.18,1.18,0,0,0,1.17,1.17h2.21a1.17,1.17,0,0,0,1.17-1.17Z"/><path class="cls-3" d="M448.52,41v-.79h1V34.45a1.17,1.17,0,0,0-1.17-1.17h-1.64a1.17,1.17,0,0,0-1.17,1.17v5.78h1V41h-2.92v-.79h1V34.45a1.17,1.17,0,0,0-1.17-1.17h-1.64a1.17,1.17,0,0,0-1.17,1.17v5.78h1V41h-3.33v-.79h1.44v-7h-1.44v-.79h1.67a.65.65,0,0,1,.43.2l.13.14a.6.6,0,0,0,.34.2c.49,0,.9-.59,2.27-.59h.13c1.22,0,1.42.59,2.3.59s1-.59,2.41-.59h.13a2,2,0,0,1,2.18,1.94v5.85h1.44V41Z"/><path class="cls-3" d="M459.39,41a.73.73,0,0,1-.45-.18l-.14-.16a.52.52,0,0,0-.34-.16c-.49,0-.86.56-2.45.56h-.61a1.86,1.86,0,0,1-2.05-1.93V37.71a1.85,1.85,0,0,1,2.05-1.93H456c1.58,0,2,.59,2.45.59.13,0,.27-.11.27-.34v-1.6a1.16,1.16,0,0,0-1.17-1.15h-2.88a.34.34,0,0,1-.34-.32v-.14a.34.34,0,0,1,.34-.32h3.12a1.81,1.81,0,0,1,1.8,1.84v5.91h1.35V41Zm-.67-3.19a1.21,1.21,0,0,0-1.21-1.21h-2.11a1.21,1.21,0,0,0-1.21,1.21V39a1.21,1.21,0,0,0,1.21,1.21h2.11A1.21,1.21,0,0,0,458.72,39Z"/><path class="cls-3" d="M462.5,41v-.79h1.44v-7H462.5v-.79h1.94a.37.37,0,0,1,.36.36v7.38h1.44V41Zm2-10.51h-.18a.35.35,0,0,1-.34-.34v-1a.35.35,0,0,1,.34-.34h.18a.35.35,0,0,1,.34.34v1A.36.36,0,0,1,464.46,30.51Z"/><path class="cls-3" d="M473.3,41v-.79h1.24V34.47a1.21,1.21,0,0,0-1.21-1.19h-2.11A1.21,1.21,0,0,0,470,34.47v5.76h1.24V41h-3.55v-.79h1.44v-7h-1.44v-.79h1.67a.55.55,0,0,1,.43.2l.13.14a.6.6,0,0,0,.34.2c.49,0,.85-.59,2.41-.59h.61a1.87,1.87,0,0,1,2.09,1.93v5.87h1.44V41Z"/><path class="cls-3" d="M482.79,41h-2.58a1.81,1.81,0,0,1-1.8-1.8v-.41h.86v.25a1.18,1.18,0,0,0,1.17,1.17h2.09A1.17,1.17,0,0,0,483.7,39v-.68a1.17,1.17,0,0,0-1.17-1.17H480.3a1.81,1.81,0,0,1-1.8-1.76V34.27a1.8,1.8,0,0,1,1.8-1.78h3.19a.38.38,0,0,1,.4.34v1.82H483V33.28h-2.48a1.18,1.18,0,0,0-1.17,1.17v.79a1.18,1.18,0,0,0,1.17,1.17h2.23a1.81,1.81,0,0,1,1.8,1.78v1A1.79,1.79,0,0,1,482.79,41Z"/><path class="cls-3" d="M392.39,53.28h-2.81a1.21,1.21,0,0,0-1.21,1.21v5.74h1.44V61h-3.75v-.79h1.44v-7h-1.44v-.79h1.66a.53.53,0,0,1,.45.2l.13.14a.6.6,0,0,0,.34.2c.49,0,.77-.54,2.32-.54h1.42a.34.34,0,0,1,.34.32V53A.34.34,0,0,1,392.39,53.28Z"/><path class="cls-3" d="M400.87,61a.62.62,0,0,1-.49-.18l-.18-.18a.49.49,0,0,0-.32-.14c-.49,0-.9.56-2.45.56h-.61a1.84,1.84,0,0,1-2.05-1.93V53.28h-1.44v-.79h2a.35.35,0,0,1,.31.32V59a1.21,1.21,0,0,0,1.21,1.19h2.11A1.21,1.21,0,0,0,400.15,59V53.28h-1.44v-.79h2a.35.35,0,0,1,.31.32v7.42h1.44V61Z"/><path class="cls-3" d="M409.33,61v-.79h1.24V54.47a1.21,1.21,0,0,0-1.21-1.19h-2.11a1.21,1.21,0,0,0-1.21,1.19v5.76h1.24V61h-3.55v-.79h1.44v-7h-1.44v-.79h1.67a.55.55,0,0,1,.43.2l.13.14a.6.6,0,0,0,.34.2c.49,0,.85-.59,2.41-.59h.61a1.87,1.87,0,0,1,2.09,1.93v5.87h1.44V61Z"/><path class="cls-3" d="M423.39,61H420.7a1.81,1.81,0,0,1-1.8-1.8V54.29a1.81,1.81,0,0,1,1.8-1.8h2.68a1.79,1.79,0,0,1,1.8,1.8v4.93A1.79,1.79,0,0,1,423.39,61Zm.94-6.57a1.16,1.16,0,0,0-1.15-1.17H421a1.18,1.18,0,0,0-1.19,1.17v4.61a1.18,1.18,0,0,0,1.17,1.17h2.21a1.17,1.17,0,0,0,1.17-1.17Z"/><path class="cls-3" d="M432.78,61v-.79H434V54.47a1.21,1.21,0,0,0-1.21-1.19h-2.11a1.21,1.21,0,0,0-1.21,1.19v5.76h1.24V61H427.2v-.79h1.44v-7H427.2v-.79h1.67a.55.55,0,0,1,.43.2l.13.14a.6.6,0,0,0,.34.2c.49,0,.85-.59,2.41-.59h.61a1.87,1.87,0,0,1,2.09,1.93v5.87h1.44V61Z"/><path class="cls-3" d="M449.11,61H442v-.79h1.44V49.64H442v-.79h3.75v.79H444.3V60.23h4.43V58.66h.86v1.94C449.59,60.82,449.49,61,449.11,61Z"/><path class="cls-3" d="M450.46,61v-.79h1.44v-7h-1.44v-.79h1.94a.37.37,0,0,1,.36.36v7.38h1.44V61Zm2-10.51h-.18a.35.35,0,0,1-.34-.34v-1a.35.35,0,0,1,.34-.34h.18a.35.35,0,0,1,.34.34v1A.36.36,0,0,1,452.42,50.51Z"/><path class="cls-3" d="M461.26,61v-.79h1.24V54.47a1.21,1.21,0,0,0-1.21-1.19h-2.11A1.21,1.21,0,0,0,458,54.47v5.76h1.24V61h-3.55v-.79h1.44v-7h-1.44v-.79h1.67a.55.55,0,0,1,.43.2l.13.14a.6.6,0,0,0,.34.2c.49,0,.85-.59,2.41-.59h.61a1.87,1.87,0,0,1,2.09,1.93v5.87h1.44V61Z"/><path class="cls-3" d="M473.46,61a.62.62,0,0,1-.49-.18l-.18-.18a.49.49,0,0,0-.32-.14c-.49,0-.9.56-2.45.56h-.61a1.84,1.84,0,0,1-2.05-1.93V53.28h-1.44v-.79h2a.35.35,0,0,1,.31.32V59a1.21,1.21,0,0,0,1.21,1.19h2.11A1.21,1.21,0,0,0,472.74,59V53.28H471.3v-.79h2a.35.35,0,0,1,.31.32v7.42H475V61Z"/><path class="cls-3" d="M481.47,61v-.79h1l-2.27-3-2.27,3h1V61h-3.2v-.79H477l2.75-3.62-2.54-3.33H476v-.79h3.17v.79h-1l2,2.68,2-2.68h-1v-.79h3.17v.79h-1.19l-2.54,3.33,2.75,3.62h1.21V61Z"/><path class="cls-2" d="M8,50.46a.46.46,0,0,1-.4-.27l-.16-.31a.32.32,0,0,0-.29-.16c-.41,0-1.48.79-2.84.79H4a2.08,2.08,0,0,1-2.32-2.12V44A2.08,2.08,0,0,1,4,41.87h.27c1.37,0,2.2.83,2.79.83a.29.29,0,0,0,.25-.32V39.5H5.84V38.29H8.17a.5.5,0,0,1,.52.5V49.25H10.2v1.21Zm-.65-6.25a1.08,1.08,0,0,0-1.08-1.08H4.13a1.08,1.08,0,0,0-1.08,1.08v4a1.08,1.08,0,0,0,1.08,1.08H6.28a1.08,1.08,0,0,0,1.08-1.08Z"/><path class="cls-2" d="M17.8,46.74H13.2v1.42a1,1,0,0,0,1.17,1.1h2.49a.5.5,0,0,1,.54.5V50a.5.5,0,0,1-.54.5h-3a2,2,0,0,1-2-2.05v-4.5a2,2,0,0,1,2.07-2h2.83a2,2,0,0,1,2.07,2v1.75A1,1,0,0,1,17.8,46.74Zm-.29-2.63a1,1,0,0,0-1-1H14.18a1,1,0,0,0-1,1v1.51h4.3Z"/><path class="cls-2" d="M27.88,43.13l-2.56,6.63a1.08,1.08,0,0,1-.83.7H24a1.08,1.08,0,0,1-.83-.7l-2.56-6.63H19.4V41.93h3.69v1.21h-1l1.53,4.18c.4,1.1.63,2,.63,2h0s.23-.88.63-2l1.53-4.18h-1V41.93h3.69v1.21Z"/><path class="cls-2" d="M36.21,46.74H31.62v1.42a1,1,0,0,0,1.17,1.1h2.49a.5.5,0,0,1,.54.5V50a.5.5,0,0,1-.54.5h-3a2,2,0,0,1-2-2.05v-4.5a2,2,0,0,1,2.07-2h2.83a2,2,0,0,1,2.07,2v1.75A1,1,0,0,1,36.21,46.74Zm-.29-2.63a1,1,0,0,0-1-1H32.59a1,1,0,0,0-1,1v1.51h4.3Z"/><path class="cls-2" d="M38.49,50.46V49.25H40V39.5H38.49V38.29h2.3a.54.54,0,0,1,.54.54V49.25h1.51v1.21Z"/><path class="cls-2" d="M49.64,50.46H46.7a2,2,0,0,1-2-2V43.91a2,2,0,0,1,2.07-2h2.79a2,2,0,0,1,2.07,2v4.54A2,2,0,0,1,49.64,50.46Zm.67-6.34a1,1,0,0,0-1-1H47a1,1,0,0,0-1,1v4.14a1,1,0,0,0,1,1h2.3a1,1,0,0,0,1-1Z"/><path class="cls-2" d="M59.47,50.52H59.2c-1.37,0-2.2-.79-2.79-.79-.14,0-.25.18-.25.34v3.8a.54.54,0,0,1-.52.56H53.31V53.22h1.51V43.13H53.31V41.93h2.2a.5.5,0,0,1,.4.23l.2.38a.35.35,0,0,0,.31.16c.59,0,1.42-.83,2.79-.83h.27A2.08,2.08,0,0,1,61.79,44v4.39A2.07,2.07,0,0,1,59.47,50.52Zm1-6.3a1.07,1.07,0,0,0-1.08-1.08H57.23a1.07,1.07,0,0,0-1.08,1.08v4a1.08,1.08,0,0,0,1.08,1.08h2.14a1.08,1.08,0,0,0,1.08-1.08Z"/><path class="cls-2" d="M70.09,46.74H65.49v1.42a1,1,0,0,0,1.17,1.1h2.49a.5.5,0,0,1,.54.5V50a.5.5,0,0,1-.54.5h-3a2,2,0,0,1-2-2.05v-4.5a2,2,0,0,1,2.07-2h2.83a2,2,0,0,1,2.07,2v1.75A1,1,0,0,1,70.09,46.74Zm-.29-2.63a1,1,0,0,0-1-1H66.47a1,1,0,0,0-1,1v1.51h4.3Z"/><path class="cls-2" d="M79.3,43.13H76.55a1.08,1.08,0,0,0-1.15,1.15v5h1.51v1.21H72.55V49.25h1.51V43.13H72.55V41.93h2.18a.46.46,0,0,1,.41.25l.18.32a.31.31,0,0,0,.31.2c.49,0,.85-.78,2-.78H79.3a.5.5,0,0,1,.54.5v.2A.5.5,0,0,1,79.3,43.13Z"/><path class="cls-2" d="M85.6,50.46h-3a2,2,0,0,1-2-2v-.52h1.33v.32a1,1,0,0,0,1,1h2.43c.61,0,.77-.63.77-1v-.72a.72.72,0,0,0-.77-.77H82.47a1.8,1.8,0,0,1-1.76-1.82V43.8a2,2,0,0,1,2.05-1.87h3.51a.5.5,0,0,1,.52.5v1.73H85.46v-1H83.06a.9.9,0,0,0-1,.92v.67a.94.94,0,0,0,1,.9h2.83a1.53,1.53,0,0,1,1.6,1.62v1.21A1.81,1.81,0,0,1,85.6,50.46Z"/><path class="cls-3" d="M6.67,79.84V79H7.91V73.3A1.21,1.21,0,0,0,6.71,72.1H4.6A1.21,1.21,0,0,0,3.39,73.3V79H4.64v.79H1.09V79H2.53V68.46H1.09v-.79H3a.39.39,0,0,1,.38.38V71.5c0,.23.14.34.27.34.49,0,.86-.59,2.45-.59h.61a1.85,1.85,0,0,1,2.05,1.93V79h1.44v.79Z"/><path class="cls-3" d="M17.76,79.84a.72.72,0,0,1-.45-.18l-.14-.16a.52.52,0,0,0-.34-.16c-.49,0-.86.56-2.45.56h-.61A1.86,1.86,0,0,1,11.71,78V76.53a1.85,1.85,0,0,1,2.05-1.93h.61c1.58,0,2,.59,2.45.59.13,0,.27-.11.27-.34v-1.6a1.16,1.16,0,0,0-1.17-1.15H13a.34.34,0,0,1-.34-.32v-.14A.34.34,0,0,1,13,71.3h3.12A1.81,1.81,0,0,1,18,73.14V79h1.35v.79Zm-.67-3.19a1.21,1.21,0,0,0-1.21-1.21H13.78a1.21,1.21,0,0,0-1.21,1.21v1.19A1.21,1.21,0,0,0,13.78,79h2.11a1.21,1.21,0,0,0,1.21-1.21Z"/><path class="cls-3" d="M27.77,72.1l-2.59,7.2a.73.73,0,0,1-.61.54h-.22a.75.75,0,0,1-.61-.54l-2.59-7.2H19.93V71.3h3.13v.79h-1l1.62,4.61c.31.88.76,2.29.76,2.29h0s.45-1.4.76-2.29l1.62-4.61h-1V71.3H29v.79Z"/><path class="cls-3" d="M35.79,76H31.1v1.86A1.17,1.17,0,0,0,32.28,79H35a.33.33,0,0,1,.34.32v.14a.33.33,0,0,1-.34.32H32a1.8,1.8,0,0,1-1.8-1.8v-5A1.81,1.81,0,0,1,32,71.3h2.77a1.79,1.79,0,0,1,1.78,1.8v2.16A.71.71,0,0,1,35.79,76Zm-.05-2.74a1.14,1.14,0,0,0-1.17-1.17H32.28a1.19,1.19,0,0,0-1.19,1.17v2h4.65Z"/><path class="cls-3" d="M47.62,79.84H44.83A1.81,1.81,0,0,1,43,78V73.1a1.81,1.81,0,0,1,1.8-1.8h4.23v2.16H48.2V72.1H45.08a1.18,1.18,0,0,0-1.19,1.17v4.61A1.18,1.18,0,0,0,45.06,79h2.32a1.18,1.18,0,0,0,1.17-1.17v-.25h.86V78A1.81,1.81,0,0,1,47.62,79.84Z"/><path class="cls-3" d="M56,79.84H53.34a1.81,1.81,0,0,1-1.8-1.8V73.1a1.81,1.81,0,0,1,1.8-1.8H56a1.79,1.79,0,0,1,1.8,1.8V78A1.79,1.79,0,0,1,56,79.84ZM57,73.27a1.16,1.16,0,0,0-1.15-1.17H53.6a1.18,1.18,0,0,0-1.19,1.17v4.61A1.18,1.18,0,0,0,53.58,79h2.21A1.17,1.17,0,0,0,57,77.88Z"/><path class="cls-3" d="M65.42,79.84V79h1.24V73.28a1.21,1.21,0,0,0-1.21-1.19H63.35a1.21,1.21,0,0,0-1.21,1.19V79h1.24v.79H59.84V79h1.44V72.1H59.84V71.3h1.67a.55.55,0,0,1,.43.2l.13.14a.6.6,0,0,0,.34.2c.49,0,.85-.59,2.41-.59h.61a1.87,1.87,0,0,1,2.09,1.93V79H69v.79Z"/><path class="cls-3" d="M73.09,79.89a1.51,1.51,0,0,1-1.57-1.62V72.1h-1a.34.34,0,0,1-.34-.32v-.14a.34.34,0,0,1,.34-.32h1V68a.35.35,0,0,1,.34-.34H72a.35.35,0,0,1,.34.34V71.3h2.13v.79H72.39v6c0,.78.41,1,.9,1a3.54,3.54,0,0,0,1.42-.45v.76A3.26,3.26,0,0,1,73.09,79.89Z"/><path class="cls-3" d="M82.7,72.1H79.89a1.21,1.21,0,0,0-1.21,1.21V79h1.44v.79H76.38V79h1.44V72.1H76.38V71.3H78a.53.53,0,0,1,.45.2l.13.14a.6.6,0,0,0,.34.2c.49,0,.77-.54,2.32-.54H82.7a.34.34,0,0,1,.34.32v.14A.34.34,0,0,1,82.7,72.1Z"/><path class="cls-3" d="M84,79.84V79h1.44V72.1H84V71.3h1.94a.37.37,0,0,1,.36.36V79h1.44v.79Zm2-10.52h-.18a.35.35,0,0,1-.34-.34V68a.35.35,0,0,1,.34-.34H86a.35.35,0,0,1,.34.34v1A.36.36,0,0,1,86,69.32Z"/><path class="cls-3" d="M94.67,79.89h-.61c-1.58,0-2-.56-2.45-.56a.56.56,0,0,0-.34.16l-.14.14a.69.69,0,0,1-.45.2H89V79h1.44V68.46H89v-.79H91a.39.39,0,0,1,.38.38V71.5c0,.23.14.34.27.34.49,0,.86-.59,2.45-.59h.61a1.85,1.85,0,0,1,2.05,1.93V78A1.86,1.86,0,0,1,94.67,79.89Zm1.19-6.59a1.21,1.21,0,0,0-1.21-1.21H92.55a1.21,1.21,0,0,0-1.21,1.21v4.54A1.21,1.21,0,0,0,92.55,79h2.11a1.21,1.21,0,0,0,1.21-1.21Z"/><path class="cls-3" d="M106.1,79.84a.63.63,0,0,1-.49-.18l-.18-.18a.5.5,0,0,0-.32-.14c-.49,0-.9.56-2.45.56h-.61A1.84,1.84,0,0,1,100,78V72.1H98.56V71.3h2a.35.35,0,0,1,.31.32v6.23A1.21,1.21,0,0,0,102.07,79h2.11a1.21,1.21,0,0,0,1.21-1.19V72.1h-1.44V71.3h2a.35.35,0,0,1,.31.32V79h1.44v.79Z"/><path class="cls-3" d="M111.81,79.89a1.51,1.51,0,0,1-1.57-1.62V72.1h-1a.34.34,0,0,1-.34-.32v-.14a.34.34,0,0,1,.34-.32h1V68a.35.35,0,0,1,.34-.34h.18a.35.35,0,0,1,.34.34V71.3h2.13v.79H111.1v6c0,.78.41,1,.9,1a3.54,3.54,0,0,0,1.42-.45v.76A3.26,3.26,0,0,1,111.81,79.89Z"/><path class="cls-3" d="M121.2,76h-4.7v1.86A1.17,1.17,0,0,0,117.69,79h2.75a.33.33,0,0,1,.34.32v.14a.33.33,0,0,1-.34.32h-3a1.8,1.8,0,0,1-1.8-1.8v-5a1.81,1.81,0,0,1,1.82-1.78h2.77A1.79,1.79,0,0,1,122,73.1v2.16A.71.71,0,0,1,121.2,76Zm-.05-2.74A1.14,1.14,0,0,0,120,72.1h-2.29a1.19,1.19,0,0,0-1.19,1.17v2h4.65Z"/><path class="cls-3" d="M130.29,79.84a.73.73,0,0,1-.45-.18l-.14-.16a.52.52,0,0,0-.34-.16c-.49,0-.86.56-2.45.56h-.61A1.86,1.86,0,0,1,124.24,78V73.18a1.85,1.85,0,0,1,2.05-1.93h.61c1.58,0,2,.59,2.45.59.13,0,.27-.11.27-.34v-3h-1.44v-.79h1.93a.39.39,0,0,1,.38.38V79h1.44v.79Zm-.67-6.54a1.21,1.21,0,0,0-1.21-1.21h-2.11a1.21,1.21,0,0,0-1.21,1.21v4.54A1.21,1.21,0,0,0,126.32,79h2.11a1.21,1.21,0,0,0,1.21-1.21Z"/><path class="cls-3" d="M140.25,79.89a1.51,1.51,0,0,1-1.57-1.62V72.1h-1a.34.34,0,0,1-.34-.32v-.14a.34.34,0,0,1,.34-.32h1V68a.35.35,0,0,1,.34-.34h.18a.35.35,0,0,1,.34.34V71.3h2.12v.79h-2.12v6c0,.78.41,1,.9,1a3.53,3.53,0,0,0,1.42-.45v.76A3.26,3.26,0,0,1,140.25,79.89Z"/><path class="cls-3" d="M148.56,79.84h-2.68a1.81,1.81,0,0,1-1.8-1.8V73.1a1.81,1.81,0,0,1,1.8-1.8h2.68a1.79,1.79,0,0,1,1.8,1.8V78A1.79,1.79,0,0,1,148.56,79.84Zm.94-6.57a1.16,1.16,0,0,0-1.15-1.17h-2.21a1.18,1.18,0,0,0-1.19,1.17v4.61A1.18,1.18,0,0,0,146.12,79h2.21a1.17,1.17,0,0,0,1.17-1.17Z"/><path class="cls-3" d="M163.86,79.84h-7.11V79h1.44V68.46h-1.44v-.79h3.75v.79h-1.44V79h4.43V77.48h.86v1.95C164.35,79.64,164.24,79.84,163.86,79.84Z"/><path class="cls-3" d="M165.21,79.84V79h1.44V72.1h-1.44V71.3h1.94a.37.37,0,0,1,.36.36V79H169v.79Zm2-10.52H167a.35.35,0,0,1-.34-.34V68a.35.35,0,0,1,.34-.34h.18a.35.35,0,0,1,.34.34v1A.36.36,0,0,1,167.17,69.32Z"/><path class="cls-3" d="M176,79.84V79h1.24V73.28A1.21,1.21,0,0,0,176,72.1h-2.11a1.21,1.21,0,0,0-1.21,1.19V79H174v.79h-3.55V79h1.44V72.1h-1.44V71.3h1.67a.55.55,0,0,1,.43.2l.13.14a.6.6,0,0,0,.34.2c.49,0,.85-.59,2.41-.59H176a1.88,1.88,0,0,1,2.09,1.93V79h1.44v.79Z"/><path class="cls-3" d="M188.22,79.84a.63.63,0,0,1-.49-.18l-.18-.18a.5.5,0,0,0-.32-.14c-.49,0-.9.56-2.45.56h-.61A1.84,1.84,0,0,1,182.11,78V72.1h-1.44V71.3h2a.35.35,0,0,1,.31.32v6.23A1.21,1.21,0,0,0,184.18,79h2.11a1.21,1.21,0,0,0,1.21-1.19V72.1h-1.44V71.3h2a.35.35,0,0,1,.31.32V79h1.44v.79Z"/><path class="cls-3" d="M196.23,79.84V79h1l-2.27-3-2.27,3h1v.79h-3.21V79h1.21l2.75-3.62L192,72.1h-1.19V71.3h3.17v.79h-1l2,2.68,2-2.68h-1V71.3h3.17v.79H198l-2.54,3.33L198.23,79h1.21v.79Z"/><path class="cls-3" d="M8.09,101.44a.7.7,0,0,1-.59-.32l-3-4.18L3.39,98.11v2.54H4.64v.79H1.09v-.79H2.53V90.06H1.09v-.79h2a.35.35,0,0,1,.34.34v7.31L7.08,93.1a.65.65,0,0,1,.49-.2H8.94v.79H7.64L5.1,96.34l3.06,4.3h1.3v.79Z"/><path class="cls-3" d="M16.55,97.6h-4.7v1.85A1.17,1.17,0,0,0,13,100.65H15.8a.33.33,0,0,1,.34.32v.14a.33.33,0,0,1-.34.32h-3a1.8,1.8,0,0,1-1.8-1.8v-5a1.81,1.81,0,0,1,1.82-1.78h2.77a1.79,1.79,0,0,1,1.78,1.8v2.16A.71.71,0,0,1,16.55,97.6Zm-.05-2.74a1.15,1.15,0,0,0-1.17-1.17H13a1.19,1.19,0,0,0-1.19,1.17v2H16.5Z"/><path class="cls-3" d="M25.37,93.7H22.56a1.21,1.21,0,0,0-1.21,1.21v5.74H22.8v.79H19.05v-.79h1.44V93.7H19.05V92.9h1.66a.53.53,0,0,1,.45.2l.13.14a.6.6,0,0,0,.34.2c.49,0,.77-.54,2.32-.54h1.42a.34.34,0,0,1,.34.32v.14A.34.34,0,0,1,25.37,93.7Z"/><path class="cls-3" d="M32.07,101.44v-.79h1.24V94.88a1.21,1.21,0,0,0-1.21-1.19H30a1.21,1.21,0,0,0-1.21,1.19v5.76H30v.79H26.49v-.79h1.44V93.7H26.49V92.9h1.67a.54.54,0,0,1,.43.2l.13.14a.61.61,0,0,0,.34.2c.49,0,.85-.59,2.41-.59h.61a1.87,1.87,0,0,1,2.09,1.93v5.87h1.44v.79Z"/><path class="cls-3" d="M43,97.6h-4.7v1.85a1.17,1.17,0,0,0,1.19,1.19h2.75a.33.33,0,0,1,.34.32v.14a.33.33,0,0,1-.34.32h-3a1.8,1.8,0,0,1-1.8-1.8v-5a1.81,1.81,0,0,1,1.82-1.78H42a1.79,1.79,0,0,1,1.78,1.8v2.16A.71.71,0,0,1,43,97.6ZM43,94.87a1.15,1.15,0,0,0-1.17-1.17H39.5a1.19,1.19,0,0,0-1.19,1.17v2H43Z"/><path class="cls-3" d="M45.51,101.44v-.79H47V90.06H45.51v-.79h2a.36.36,0,0,1,.34.36v11h1.44v.79Z"/><path class="cls-3" d="M59.57,101.44H57a1.81,1.81,0,0,1-1.8-1.8v-.41h.86v.25a1.18,1.18,0,0,0,1.17,1.17h2.09a1.17,1.17,0,0,0,1.17-1.19v-.68a1.17,1.17,0,0,0-1.17-1.17H57.09a1.81,1.81,0,0,1-1.8-1.76V94.69a1.8,1.8,0,0,1,1.8-1.78h3.19a.38.38,0,0,1,.4.34v1.82h-.86V93.7H57.32a1.18,1.18,0,0,0-1.17,1.17v.79a1.18,1.18,0,0,0,1.17,1.17h2.23a1.81,1.81,0,0,1,1.8,1.78v1A1.79,1.79,0,0,1,59.57,101.44Z"/><path class="cls-3" d="M63.33,101.44v-.79h1.44V93.7H63.33V92.9h1.94a.37.37,0,0,1,.36.36v7.38h1.44v.79Zm2-10.52h-.18a.35.35,0,0,1-.34-.34v-1a.35.35,0,0,1,.34-.34h.18a.35.35,0,0,1,.34.34v1A.36.36,0,0,1,65.29,90.92Z"/><path class="cls-3" d="M74.13,101.44v-.79h1.24V94.88a1.21,1.21,0,0,0-1.21-1.19H72.06a1.21,1.21,0,0,0-1.21,1.19v5.76H72.1v.79H68.55v-.79H70V93.7H68.55V92.9h1.67a.55.55,0,0,1,.43.2l.13.14a.6.6,0,0,0,.34.2c.49,0,.85-.59,2.41-.59h.61a1.87,1.87,0,0,1,2.09,1.93v5.87h1.44v.79Z"/><path class="cls-3" d="M84.11,101.44H81.32a1.81,1.81,0,0,1-1.8-1.8V94.7a1.81,1.81,0,0,1,1.8-1.8h4.23v2.16h-.86V93.7H81.57a1.18,1.18,0,0,0-1.19,1.17v4.61a1.18,1.18,0,0,0,1.17,1.17h2.32A1.18,1.18,0,0,0,85,99.48v-.25h.86v.41A1.81,1.81,0,0,1,84.11,101.44Z"/><path class="cls-3" d="M93.59,97.6h-4.7v1.85a1.17,1.17,0,0,0,1.19,1.19h2.75a.33.33,0,0,1,.34.32v.14a.33.33,0,0,1-.34.32h-3a1.8,1.8,0,0,1-1.8-1.8v-5a1.81,1.81,0,0,1,1.82-1.78h2.77a1.79,1.79,0,0,1,1.78,1.8v2.16A.71.71,0,0,1,93.59,97.6Zm-.05-2.74a1.15,1.15,0,0,0-1.17-1.17H90.08a1.19,1.19,0,0,0-1.19,1.17v2h4.65Z"/><path class="cls-3" d="M106.52,101.44h-5.67V97.71a2.45,2.45,0,0,1,1.46-2.07l2.81-1.69a1.79,1.79,0,0,0,.77-1.69v-1a1.18,1.18,0,0,0-1.19-1.17h-2.75v1.48h-.86V89.72c0-.32.18-.45.47-.45h3.39a1.81,1.81,0,0,1,1.82,1.8v1.55a2.13,2.13,0,0,1-1,2l-3,1.78a1.86,1.86,0,0,0-1,1.57v2.72h4.47V99.08H107v1.86A.47.47,0,0,1,106.52,101.44Z"/><path class="cls-3" d="M114.15,101.44h-2.83a1.82,1.82,0,0,1-1.82-1.8V91.07a1.82,1.82,0,0,1,1.82-1.8h2.83a1.81,1.81,0,0,1,1.8,1.8v8.57A1.81,1.81,0,0,1,114.15,101.44Zm.94-10.21a1.17,1.17,0,0,0-1.17-1.17h-2.36a1.18,1.18,0,0,0-1.19,1.17v8.25a1.18,1.18,0,0,0,1.19,1.17h2.36a1.17,1.17,0,0,0,1.17-1.17Z"/><path class="cls-3" d="M122.93,101.44H120.1a1.82,1.82,0,0,1-1.82-1.8V91.07a1.82,1.82,0,0,1,1.82-1.8h2.83a1.81,1.81,0,0,1,1.8,1.8v8.57A1.81,1.81,0,0,1,122.93,101.44Zm.94-10.21a1.17,1.17,0,0,0-1.17-1.17h-2.36a1.18,1.18,0,0,0-1.19,1.17v8.25a1.18,1.18,0,0,0,1.19,1.17h2.36a1.17,1.17,0,0,0,1.17-1.17Z"/><path class="cls-3" d="M131.57,101.44H129a1.82,1.82,0,0,1-1.82-1.8V98.47h.86v1a1.18,1.18,0,0,0,1.19,1.17h2.07a1.17,1.17,0,0,0,1.17-1.17V96.9a1.18,1.18,0,0,0-1.19-1.17h-3.91V89.61a.39.39,0,0,1,.38-.34h4.66a.32.32,0,0,1,.34.31v.2c0,.14-.13.29-.36.29h-4.16v4.88h3.28a1.83,1.83,0,0,1,1.82,1.78v2.92A1.81,1.81,0,0,1,131.57,101.44Z"/><path class="cls-3" d="M7.45,153.31v-.79H8.62l-.88-3H3.34l-.88,3H3.63v.79H.32v-.79H1.59l3.1-10.59H3.25v-.79H5.77a.43.43,0,0,1,.47.31l3.24,11.07h1.28v.79Zm-1.12-8.57C6,143.43,5.55,142,5.55,142h0s-.4,1.46-.77,2.77l-1.17,4H7.5Z"/><path class="cls-3" d="M21.05,153.31v-.79h1.24v-5.76a1.21,1.21,0,0,0-1.21-1.19H19a1.21,1.21,0,0,0-1.21,1.19v5.76H19v.79H15.47v-.79h1.44v-6.95H15.47v-.79h1.67a.55.55,0,0,1,.43.2l.13.14a.6.6,0,0,0,.34.2c.49,0,.85-.59,2.41-.59h.61a1.87,1.87,0,0,1,2.09,1.93v5.87H24.6v.79Z"/><path class="cls-3" d="M32,149.48H27.3v1.85a1.17,1.17,0,0,0,1.19,1.19h2.75a.33.33,0,0,1,.34.32V153a.33.33,0,0,1-.34.32h-3a1.8,1.8,0,0,1-1.8-1.8v-5a1.81,1.81,0,0,1,1.82-1.78H31a1.79,1.79,0,0,1,1.78,1.8v2.16A.71.71,0,0,1,32,149.48Zm-.05-2.74a1.14,1.14,0,0,0-1.17-1.17H28.49a1.19,1.19,0,0,0-1.19,1.17v2h4.65Z"/><path class="cls-3" d="M44.24,145.57l-1.62,7.18a.63.63,0,0,1-.58.56h-.22c-.29,0-.45-.27-.56-.54l-1.67-4.57-1.67,4.57c-.11.27-.27.54-.56.54h-.22a.63.63,0,0,1-.58-.56l-1.62-7.18H33.74v-.79h3.13v.79H35.79l1.06,4.7c.22,1,.42,2.21.42,2.21h0s.25-.94.59-1.84L39,147.78a.49.49,0,0,1,.47-.38h.29a.49.49,0,0,1,.47.38l1.08,2.86c.34.9.59,1.84.59,1.84h0s.2-1.24.41-2.21l1.06-4.7H42.31v-.79h3.13v.79Z"/><path class="cls-3" d="M60.46,153.31v-.79h1v-5.78a1.17,1.17,0,0,0-1.17-1.17H58.67a1.17,1.17,0,0,0-1.17,1.17v5.78h1v.79H55.61v-.79h1v-5.78a1.17,1.17,0,0,0-1.17-1.17H53.83a1.17,1.17,0,0,0-1.17,1.17v5.78h1v.79H50.36v-.79H51.8v-6.95H50.36v-.79H52a.65.65,0,0,1,.43.2l.13.14a.6.6,0,0,0,.34.2c.49,0,.9-.59,2.27-.59h.13c1.22,0,1.42.59,2.3.59s1-.59,2.41-.59h.13a2,2,0,0,1,2.18,1.94v5.85h1.44v.79Z"/><path class="cls-3" d="M71.33,153.31a.72.72,0,0,1-.45-.18l-.14-.16a.52.52,0,0,0-.34-.16c-.49,0-.86.56-2.45.56h-.61a1.86,1.86,0,0,1-2.05-1.93V150a1.85,1.85,0,0,1,2.05-1.93h.61c1.58,0,2,.59,2.45.59.13,0,.27-.11.27-.34v-1.6a1.16,1.16,0,0,0-1.17-1.15H66.61a.34.34,0,0,1-.34-.32v-.14a.34.34,0,0,1,.34-.32h3.12a1.81,1.81,0,0,1,1.8,1.84v5.91h1.35v.79Zm-.67-3.19a1.21,1.21,0,0,0-1.21-1.21H67.35a1.21,1.21,0,0,0-1.21,1.21v1.19a1.21,1.21,0,0,0,1.21,1.21h2.11a1.21,1.21,0,0,0,1.21-1.21Z"/><path class="cls-3" d="M75,157.33a2.28,2.28,0,0,1-1-.23l-.61-.31V156l.59.23a2.41,2.41,0,0,0,.83.2c.49,0,.9-.2.9-1v-9.94H74.26v-.79H76.2a.37.37,0,0,1,.36.36v10.57A1.51,1.51,0,0,1,75,157.33Zm1.22-14.53H76a.35.35,0,0,1-.34-.34v-1a.35.35,0,0,1,.34-.34h.18a.35.35,0,0,1,.34.34v1A.36.36,0,0,1,76.22,142.8Z"/><path class="cls-3" d="M84.32,153.31H81.64a1.81,1.81,0,0,1-1.8-1.8v-4.93a1.81,1.81,0,0,1,1.8-1.8h2.68a1.79,1.79,0,0,1,1.8,1.8v4.93A1.79,1.79,0,0,1,84.32,153.31Zm.94-6.57a1.16,1.16,0,0,0-1.15-1.17H81.89a1.18,1.18,0,0,0-1.19,1.17v4.61a1.18,1.18,0,0,0,1.17,1.17h2.21a1.17,1.17,0,0,0,1.17-1.17Z"/><path class="cls-3" d="M94.46,145.57H91.65a1.21,1.21,0,0,0-1.21,1.21v5.74h1.44v.79H88.14v-.79h1.44v-6.95H88.14v-.79h1.66a.53.53,0,0,1,.45.2l.13.14a.6.6,0,0,0,.34.2c.49,0,.77-.54,2.32-.54h1.42a.34.34,0,0,1,.34.32v.14A.34.34,0,0,1,94.46,145.57Z"/><path class="cls-3" d="M106.59,153.31A.7.7,0,0,1,106,153l-3-4.18L101.89,150v2.54h1.24v.79H99.58v-.79H101V141.93H99.58v-.79h2a.35.35,0,0,1,.34.34v7.31l3.69-3.82a.65.65,0,0,1,.49-.2h1.37v.79h-1.3l-2.54,2.65,3.06,4.3H108v.79Z"/><path class="cls-3" d="M115,149.48h-4.7v1.85a1.17,1.17,0,0,0,1.19,1.19h2.75a.33.33,0,0,1,.34.32V153a.33.33,0,0,1-.34.32h-3a1.8,1.8,0,0,1-1.8-1.8v-5a1.81,1.81,0,0,1,1.82-1.78h2.77a1.79,1.79,0,0,1,1.78,1.8v2.16A.71.71,0,0,1,115,149.48Zm-.05-2.74a1.14,1.14,0,0,0-1.17-1.17h-2.29a1.19,1.19,0,0,0-1.19,1.17v2H115Z"/><path class="cls-3" d="M123.87,145.57h-2.81a1.21,1.21,0,0,0-1.21,1.21v5.74h1.44v.79h-3.75v-.79H119v-6.95h-1.44v-.79h1.66a.53.53,0,0,1,.45.2l.13.14a.6.6,0,0,0,.34.2c.49,0,.77-.54,2.32-.54h1.42a.34.34,0,0,1,.34.32v.14A.34.34,0,0,1,123.87,145.57Z"/><path class="cls-3" d="M130.56,153.31v-.79h1.24v-5.76a1.21,1.21,0,0,0-1.21-1.19h-2.11a1.21,1.21,0,0,0-1.21,1.19v5.76h1.24v.79H125v-.79h1.44v-6.95H125v-.79h1.67a.55.55,0,0,1,.43.2l.13.14a.6.6,0,0,0,.34.2c.49,0,.85-.59,2.41-.59h.61a1.88,1.88,0,0,1,2.09,1.93v5.87h1.44v.79Z"/><path class="cls-3" d="M141.51,149.48h-4.7v1.85a1.17,1.17,0,0,0,1.19,1.19h2.75a.33.33,0,0,1,.34.32V153a.33.33,0,0,1-.34.32h-3a1.8,1.8,0,0,1-1.8-1.8v-5a1.81,1.81,0,0,1,1.82-1.78h2.77a1.79,1.79,0,0,1,1.78,1.8v2.16A.71.71,0,0,1,141.51,149.48Zm-.05-2.74a1.14,1.14,0,0,0-1.17-1.17H138a1.19,1.19,0,0,0-1.19,1.17v2h4.65Z"/><path class="cls-3" d="M144,153.31v-.79h1.44V141.93H144v-.79h2a.36.36,0,0,1,.34.36v11h1.44v.79Z"/><path class="cls-3" d="M160.79,153.31a.63.63,0,0,1-.49-.18l-.18-.18a.49.49,0,0,0-.32-.14c-.49,0-.9.56-2.45.56h-.61a1.84,1.84,0,0,1-2.05-1.93v-5.87h-1.44v-.79h2a.35.35,0,0,1,.31.32v6.23a1.21,1.21,0,0,0,1.21,1.19h2.11a1.21,1.21,0,0,0,1.21-1.19v-5.76h-1.44v-.79h2a.35.35,0,0,1,.31.32v7.42h1.44v.79Z"/><path class="cls-3" d="M169.12,153.37h-.61c-1.55,0-2-.58-2.48-.58-.18,0-.23.18-.23.4v3.65a.42.42,0,0,1-.47.43h-1.84v-.79h1.44V145.57h-1.44v-.79h1.67a.56.56,0,0,1,.43.18l.13.16a.55.55,0,0,0,.34.2c.49,0,.86-.59,2.45-.59h.61a1.86,1.86,0,0,1,2.05,1.93v4.79A1.86,1.86,0,0,1,169.12,153.37Zm1.19-6.59a1.21,1.21,0,0,0-1.21-1.21H167a1.21,1.21,0,0,0-1.21,1.21v4.54a1.21,1.21,0,0,0,1.21,1.21h2.11a1.21,1.21,0,0,0,1.21-1.21Z"/><path class="cls-3" d="M179.78,153.31a.73.73,0,0,1-.45-.18l-.14-.16a.52.52,0,0,0-.34-.16c-.49,0-.86.56-2.45.56h-.61a1.86,1.86,0,0,1-2.05-1.93v-4.79a1.85,1.85,0,0,1,2.05-1.93h.61c1.58,0,2,.59,2.45.59.13,0,.27-.11.27-.34v-3h-1.44v-.79h1.93a.39.39,0,0,1,.38.38v11h1.44v.79Zm-.67-6.54a1.21,1.21,0,0,0-1.21-1.21H175.8a1.21,1.21,0,0,0-1.21,1.21v4.54a1.21,1.21,0,0,0,1.21,1.21h2.11a1.21,1.21,0,0,0,1.21-1.21Z"/><path class="cls-3" d="M189,153.31a.72.72,0,0,1-.45-.18l-.14-.16a.52.52,0,0,0-.34-.16c-.49,0-.86.56-2.45.56H185a1.86,1.86,0,0,1-2.05-1.93V150a1.85,1.85,0,0,1,2.05-1.93h.61c1.58,0,2,.59,2.45.59.13,0,.27-.11.27-.34v-1.6a1.16,1.16,0,0,0-1.17-1.15h-2.88a.34.34,0,0,1-.34-.32v-.14a.34.34,0,0,1,.34-.32h3.12a1.81,1.81,0,0,1,1.8,1.84v5.91h1.35v.79Zm-.67-3.19a1.21,1.21,0,0,0-1.21-1.21H185a1.21,1.21,0,0,0-1.21,1.21v1.19a1.21,1.21,0,0,0,1.21,1.21h2.11a1.21,1.21,0,0,0,1.21-1.21Z"/><path class="cls-3" d="M194.71,153.37a1.51,1.51,0,0,1-1.57-1.62v-6.18h-1a.34.34,0,0,1-.34-.32v-.14a.34.34,0,0,1,.34-.32h1v-3.29a.35.35,0,0,1,.34-.34h.18a.35.35,0,0,1,.34.34v3.29h2.13v.79H194v6c0,.77.41,1,.9,1a3.54,3.54,0,0,0,1.42-.45v.76A3.26,3.26,0,0,1,194.71,153.37Z"/><path class="cls-3" d="M204.11,149.48h-4.7v1.85a1.17,1.17,0,0,0,1.19,1.19h2.75a.33.33,0,0,1,.34.32V153a.33.33,0,0,1-.34.32h-3a1.8,1.8,0,0,1-1.8-1.8v-5a1.81,1.81,0,0,1,1.82-1.78h2.77a1.79,1.79,0,0,1,1.78,1.8v2.16A.71.71,0,0,1,204.11,149.48Zm-.05-2.74a1.14,1.14,0,0,0-1.17-1.17H200.6a1.19,1.19,0,0,0-1.19,1.17v2h4.65Z"/><path class="cls-3" d="M7.59,167.17H4.78a1.21,1.21,0,0,0-1.21,1.21v5.74H5v.79H1.27v-.79H2.71v-7H1.27v-.79H2.93a.53.53,0,0,1,.45.2l.13.14a.6.6,0,0,0,.34.2c.49,0,.77-.54,2.32-.54H7.59a.34.34,0,0,1,.34.32v.14A.34.34,0,0,1,7.59,167.17Z"/><path class="cls-3" d="M14.81,171.08h-4.7v1.85a1.17,1.17,0,0,0,1.19,1.19h2.75a.33.33,0,0,1,.34.32v.14a.33.33,0,0,1-.34.32H11a1.8,1.8,0,0,1-1.8-1.8v-5a1.81,1.81,0,0,1,1.82-1.78h2.77a1.79,1.79,0,0,1,1.78,1.8v2.16A.71.71,0,0,1,14.81,171.08Zm-.05-2.74a1.15,1.15,0,0,0-1.17-1.17H11.3a1.2,1.2,0,0,0-1.19,1.17v2h4.65Z"/><path class="cls-3" d="M17.31,174.91v-.79h1.44V163.53H17.31v-.79h2a.36.36,0,0,1,.34.36v11h1.44v.79Z"/><path class="cls-3" d="M28.63,171.08h-4.7v1.85a1.17,1.17,0,0,0,1.19,1.19h2.75a.33.33,0,0,1,.34.32v.14a.33.33,0,0,1-.34.32h-3a1.8,1.8,0,0,1-1.8-1.8v-5a1.81,1.81,0,0,1,1.82-1.78h2.77a1.79,1.79,0,0,1,1.78,1.8v2.16A.71.71,0,0,1,28.63,171.08Zm-.05-2.74a1.15,1.15,0,0,0-1.17-1.17H25.12a1.2,1.2,0,0,0-1.19,1.17v2h4.65Z"/><path class="cls-3" d="M37.38,174.91a.73.73,0,0,1-.45-.18l-.14-.16a.51.51,0,0,0-.34-.16c-.49,0-.86.56-2.45.56h-.61A1.86,1.86,0,0,1,31.33,173V171.6a1.85,1.85,0,0,1,2.05-1.93H34c1.58,0,2,.59,2.45.59.13,0,.27-.11.27-.34v-1.6a1.16,1.16,0,0,0-1.17-1.15H32.66a.34.34,0,0,1-.34-.32v-.14a.34.34,0,0,1,.34-.32h3.12a1.81,1.81,0,0,1,1.8,1.84v5.91h1.35v.79Zm-.67-3.19a1.21,1.21,0,0,0-1.21-1.21H33.4a1.21,1.21,0,0,0-1.21,1.21v1.19a1.21,1.21,0,0,0,1.21,1.21h2.11a1.21,1.21,0,0,0,1.21-1.21Z"/><path class="cls-3" d="M45,174.91H42.38a1.81,1.81,0,0,1-1.8-1.8v-.41h.86V173a1.18,1.18,0,0,0,1.17,1.17H44.7a1.17,1.17,0,0,0,1.17-1.19v-.68a1.17,1.17,0,0,0-1.17-1.17H42.47a1.81,1.81,0,0,1-1.8-1.76v-1.15a1.8,1.8,0,0,1,1.8-1.78h3.19a.38.38,0,0,1,.4.34v1.82h-.86v-1.37H42.71a1.18,1.18,0,0,0-1.17,1.17v.79a1.18,1.18,0,0,0,1.17,1.17h2.23a1.81,1.81,0,0,1,1.8,1.78v1A1.79,1.79,0,0,1,45,174.91Z"/><path class="cls-3" d="M54.64,171.08h-4.7v1.85a1.17,1.17,0,0,0,1.19,1.19h2.75a.33.33,0,0,1,.34.32v.14a.33.33,0,0,1-.34.32h-3a1.8,1.8,0,0,1-1.8-1.8v-5a1.81,1.81,0,0,1,1.82-1.78h2.77a1.79,1.79,0,0,1,1.78,1.8v2.16A.71.71,0,0,1,54.64,171.08Zm-.05-2.74a1.15,1.15,0,0,0-1.17-1.17H51.13a1.2,1.2,0,0,0-1.19,1.17v2h4.65Z"/><path class="cls-3" d="M66.36,174.91H63.68a1.81,1.81,0,0,1-1.8-1.8v-4.93a1.81,1.81,0,0,1,1.8-1.8h2.68a1.79,1.79,0,0,1,1.8,1.8v4.93A1.79,1.79,0,0,1,66.36,174.91Zm.94-6.57a1.16,1.16,0,0,0-1.15-1.17H63.93a1.18,1.18,0,0,0-1.19,1.17V173a1.18,1.18,0,0,0,1.17,1.17h2.21A1.17,1.17,0,0,0,67.29,173Z"/><path class="cls-3" d="M75.3,174.91H72.51a1.81,1.81,0,0,1-1.8-1.8v-4.93a1.81,1.81,0,0,1,1.8-1.8h4.23v2.16h-.86v-1.37H72.77a1.18,1.18,0,0,0-1.19,1.17V173a1.18,1.18,0,0,0,1.17,1.17h2.32A1.18,1.18,0,0,0,76.24,173v-.25h.86v.41A1.81,1.81,0,0,1,75.3,174.91Z"/><path class="cls-3" d="M83.82,174.91H81a1.81,1.81,0,0,1-1.8-1.8v-4.93a1.81,1.81,0,0,1,1.8-1.8h4.23v2.16h-.86v-1.37H81.28a1.18,1.18,0,0,0-1.19,1.17V173a1.18,1.18,0,0,0,1.17,1.17h2.32A1.18,1.18,0,0,0,84.75,173v-.25h.86v.41A1.81,1.81,0,0,1,83.82,174.91Z"/><path class="cls-3" d="M94.56,174.91a.62.62,0,0,1-.49-.18l-.18-.18a.49.49,0,0,0-.32-.14c-.49,0-.9.56-2.45.56h-.61A1.84,1.84,0,0,1,88.46,173v-5.87H87v-.79h2a.35.35,0,0,1,.31.32v6.23a1.21,1.21,0,0,0,1.21,1.19h2.11a1.21,1.21,0,0,0,1.21-1.19v-5.76H92.4v-.79h2a.35.35,0,0,1,.31.32v7.42h1.44v.79Z"/><path class="cls-3" d="M103.76,167.17H101a1.21,1.21,0,0,0-1.21,1.21v5.74h1.44v.79H97.44v-.79h1.44v-7H97.44v-.79H99.1a.53.53,0,0,1,.45.2l.13.14a.6.6,0,0,0,.34.2c.49,0,.77-.54,2.32-.54h1.42a.34.34,0,0,1,.34.32v.14A.34.34,0,0,1,103.76,167.17Z"/><path class="cls-3" d="M109.52,174.91h-2.58a1.81,1.81,0,0,1-1.8-1.8v-.41H106V173a1.18,1.18,0,0,0,1.17,1.17h2.09a1.17,1.17,0,0,0,1.17-1.19v-.68a1.17,1.17,0,0,0-1.17-1.17H107a1.81,1.81,0,0,1-1.8-1.76v-1.15a1.8,1.8,0,0,1,1.8-1.78h3.19a.38.38,0,0,1,.4.34v1.82h-.86v-1.37h-2.48a1.18,1.18,0,0,0-1.17,1.17v.79a1.18,1.18,0,0,0,1.17,1.17h2.23a1.81,1.81,0,0,1,1.8,1.78v1A1.79,1.79,0,0,1,109.52,174.91Z"/><path class="cls-3" d="M123.4,171.08h-4.7v1.85a1.17,1.17,0,0,0,1.19,1.19h2.75a.33.33,0,0,1,.34.32v.14a.33.33,0,0,1-.34.32h-3a1.8,1.8,0,0,1-1.8-1.8v-5a1.81,1.81,0,0,1,1.82-1.78h2.77a1.79,1.79,0,0,1,1.78,1.8v2.16A.71.71,0,0,1,123.4,171.08Zm-.05-2.74a1.15,1.15,0,0,0-1.17-1.17h-2.29a1.2,1.2,0,0,0-1.19,1.17v2h4.65Z"/><path class="cls-3" d="M133,167.17l-2.59,7.2a.73.73,0,0,1-.61.54h-.22a.75.75,0,0,1-.61-.54l-2.59-7.2h-1.21v-.79h3.13v.79h-1l1.62,4.61c.31.88.76,2.29.76,2.29h0s.45-1.4.76-2.29l1.62-4.61h-1v-.79h3.13v.79Z"/><path class="cls-3" d="M141,171.08h-4.7v1.85a1.17,1.17,0,0,0,1.19,1.19h2.75a.33.33,0,0,1,.34.32v.14a.33.33,0,0,1-.34.32h-3a1.8,1.8,0,0,1-1.8-1.8v-5a1.81,1.81,0,0,1,1.82-1.78H140a1.79,1.79,0,0,1,1.78,1.8v2.16A.71.71,0,0,1,141,171.08Zm-.05-2.74a1.15,1.15,0,0,0-1.17-1.17h-2.29a1.2,1.2,0,0,0-1.19,1.17v2h4.65Z"/><path class="cls-3" d="M149.82,167.17H147a1.21,1.21,0,0,0-1.21,1.21v5.74h1.44v.79H143.5v-.79h1.44v-7H143.5v-.79h1.66a.53.53,0,0,1,.45.2l.13.14a.6.6,0,0,0,.34.2c.49,0,.77-.54,2.32-.54h1.42a.34.34,0,0,1,.34.32v.14A.34.34,0,0,1,149.82,167.17Z"/><path class="cls-3" d="M158.73,167.17l-4.39,10.89a1.49,1.49,0,0,1-1.39.86,2.87,2.87,0,0,1-1.57-.52v-.79a3.11,3.11,0,0,0,1.35.47.93.93,0,0,0,1-.61l1-2.56a.71.71,0,0,1-.38-.4l-3-7.35h-1.21v-.79h3.13v.79h-1l2.79,6.9,2.79-6.9h-1v-.79h3.13v.79Z"/><path class="cls-3" d="M7.52,310.74a.73.73,0,0,1-.45-.18l-.14-.16a.52.52,0,0,0-.34-.16c-.49,0-.86.56-2.45.56H3.52a1.86,1.86,0,0,1-2.05-1.93v-1.44a1.85,1.85,0,0,1,2.05-1.93h.61c1.58,0,2,.59,2.45.59.13,0,.27-.11.27-.34v-1.6A1.16,1.16,0,0,0,5.68,303H2.8a.34.34,0,0,1-.34-.32v-.14a.34.34,0,0,1,.34-.32H5.92A1.81,1.81,0,0,1,7.72,304v5.9H9.07v.79Zm-.67-3.19a1.21,1.21,0,0,0-1.21-1.21H3.54a1.21,1.21,0,0,0-1.21,1.21v1.19a1.21,1.21,0,0,0,1.21,1.21H5.64a1.21,1.21,0,0,0,1.21-1.21Z"/><path class="cls-3" d="M16.77,303H14a1.21,1.21,0,0,0-1.21,1.21v5.74h1.44v.79H10.45v-.79h1.44V303H10.45v-.79h1.66a.53.53,0,0,1,.45.2l.13.14a.61.61,0,0,0,.34.2c.49,0,.77-.54,2.32-.54h1.42a.34.34,0,0,1,.34.32v.14A.34.34,0,0,1,16.77,303Z"/><path class="cls-3" d="M24,306.9h-4.7v1.85a1.17,1.17,0,0,0,1.19,1.19h2.75a.33.33,0,0,1,.34.32v.14a.33.33,0,0,1-.34.32h-3a1.8,1.8,0,0,1-1.8-1.8v-5a1.81,1.81,0,0,1,1.82-1.78H23A1.79,1.79,0,0,1,24.8,304v2.16A.71.71,0,0,1,24,306.9Zm-.05-2.74A1.15,1.15,0,0,0,22.76,303H20.48a1.19,1.19,0,0,0-1.19,1.17v2h4.65Z"/><path class="cls-3" d="M40.78,310.74v-.79h1v-5.78A1.17,1.17,0,0,0,40.64,303H39a1.17,1.17,0,0,0-1.17,1.17v5.78h1v.79H35.94v-.79h1v-5.78A1.17,1.17,0,0,0,35.79,303H34.16A1.17,1.17,0,0,0,33,304.16v5.78h1v.79H30.68v-.79h1.44V303H30.68v-.79h1.67a.65.65,0,0,1,.43.2l.13.14a.6.6,0,0,0,.34.2c.49,0,.9-.59,2.27-.59h.13c1.22,0,1.42.59,2.3.59s1-.59,2.41-.59h.13a2,2,0,0,1,2.18,1.94v5.85h1.44v.79Z"/><path class="cls-3" d="M51.65,310.74a.73.73,0,0,1-.45-.18l-.14-.16a.52.52,0,0,0-.34-.16c-.49,0-.86.56-2.45.56h-.61a1.86,1.86,0,0,1-2.05-1.93v-1.44a1.85,1.85,0,0,1,2.05-1.93h.61c1.58,0,2,.59,2.45.59.13,0,.27-.11.27-.34v-1.6A1.16,1.16,0,0,0,49.82,303H46.94a.34.34,0,0,1-.34-.32v-.14a.34.34,0,0,1,.34-.32h3.12a1.81,1.81,0,0,1,1.8,1.84v5.9H53.2v.79ZM51,307.55a1.21,1.21,0,0,0-1.21-1.21H47.67a1.21,1.21,0,0,0-1.21,1.21v1.19a1.21,1.21,0,0,0,1.21,1.21h2.11A1.21,1.21,0,0,0,51,308.74Z"/><path class="cls-3" d="M61.17,310.74a.73.73,0,0,1-.45-.18l-.14-.16a.51.51,0,0,0-.34-.16c-.49,0-.86.56-2.45.56h-.61a1.86,1.86,0,0,1-2.05-1.93v-4.79a1.85,1.85,0,0,1,2.05-1.93h.61c1.58,0,2,.59,2.45.59.13,0,.27-.11.27-.34v-3H59.07v-.79H61a.39.39,0,0,1,.38.38v11h1.44v.79Zm-.67-6.54A1.21,1.21,0,0,0,59.3,303H57.2A1.21,1.21,0,0,0,56,304.2v4.54a1.21,1.21,0,0,0,1.21,1.21H59.3a1.21,1.21,0,0,0,1.21-1.21Z"/><path class="cls-3" d="M70.21,306.9h-4.7v1.85a1.17,1.17,0,0,0,1.19,1.19h2.75a.33.33,0,0,1,.34.32v.14a.33.33,0,0,1-.34.32h-3a1.8,1.8,0,0,1-1.8-1.8v-5a1.81,1.81,0,0,1,1.82-1.78h2.77A1.79,1.79,0,0,1,71,304v2.16A.71.71,0,0,1,70.21,306.9Zm-.05-2.74A1.15,1.15,0,0,0,69,303H66.7a1.19,1.19,0,0,0-1.19,1.17v2h4.65Z"/><path class="cls-3" d="M83.35,305.26H79.86v4.27h1.51v1.21H77v-1.21h1.51v-9.76H77v-1.21h2.23a.38.38,0,0,1,.34.22l.22.4a.32.32,0,0,0,.25.16c.74,0,1.31-.83,2.81-.83h.36a2,2,0,0,1,2.21,2v2.65A2.13,2.13,0,0,1,83.35,305.26Zm.76-4.5a1,1,0,0,0-1-1H80.87a1,1,0,0,0-1,1v3.29H83a1.1,1.1,0,0,0,1.08-1Z"/><path class="cls-3" d="M94.48,310.74H86.91v-1.21h1.51v-9.76H86.91v-1.21h7.31a.53.53,0,0,1,.54.54v2.23H93.43v-1.57H89.76v4.29h3.57v1.21H89.76v4.27h3.92v-1.31H95v2A.53.53,0,0,1,94.48,310.74Z"/><path class="cls-3" d="M107.17,309.53v1.21h-1.91a.55.55,0,0,1-.54-.36l-2.45-5.11H99.66v4.27h1.51v1.21H96.81v-1.21h1.51v-9.76H96.81v-1.21h2.25a.46.46,0,0,1,.34.23l.18.34a.31.31,0,0,0,.27.2c.79,0,1.26-.83,2.81-.83H103a2,2,0,0,1,2.21,2v2.65a2.14,2.14,0,0,1-1.51,2l2.05,4.34Zm-3.26-8.77a1,1,0,0,0-1-1h-2.27a1,1,0,0,0-1,1v3.29h3.17a1.1,1.1,0,0,0,1.08-1Z"/><path class="cls-3" d="M118.67,310.74v-1.21h1.28v-4.27h-4.83v4.27h1.28v1.21h-4.12v-1.21h1.51v-9.76h-1.51v-1.21h4.12v1.21h-1.28v4.29h4.83v-4.29h-1.28v-1.21h4.12v1.21h-1.51v9.76h1.51v1.21Z"/><path class="cls-3" d="M131.16,310.74h-3.85a2,2,0,0,1-2-2v-8.21a2,2,0,0,1,2-2h3.85a2,2,0,0,1,2,2v8.21A2,2,0,0,1,131.16,310.74Zm.7-9.78a1.09,1.09,0,0,0-1.08-1.19h-3.15a1,1,0,0,0-1,1.19v7.4a1,1,0,0,0,1,1.17h3.15a1.08,1.08,0,0,0,1.08-1.17Z"/><path class="cls-3" d="M144,310.74a.54.54,0,0,1-.4-.25l-.18-.32c-.05-.11-.14-.16-.32-.16-.65,0-1.15.79-2.92.79h-.72a2.23,2.23,0,0,1-2.41-2.05v-9h-1.51v-1.21h4.05v1.21h-1.21v8.57a1.12,1.12,0,0,0,1.28,1.19h2.3a1.23,1.23,0,0,0,1.39-1.19v-8.57H142.1v-1.21h4.05v1.21h-1.51v9.76h1.51v1.21Z"/><path class="cls-3" d="M158.2,309.53v1.21h-1.91a.54.54,0,0,1-.54-.36l-2.45-5.11h-2.61v4.27h1.51v1.21h-4.36v-1.21h1.51v-9.76h-1.51v-1.21h2.25a.46.46,0,0,1,.34.23l.18.34a.31.31,0,0,0,.27.2c.79,0,1.26-.83,2.81-.83h.36a2,2,0,0,1,2.21,2v2.65a2.14,2.14,0,0,1-1.51,2l2.05,4.34Zm-3.26-8.77a1,1,0,0,0-1-1H151.7a1,1,0,0,0-1,1v3.29h3.17a1.1,1.1,0,0,0,1.08-1Z"/><path class="cls-3" d="M168.63,310.79H168c-1.58,0-2-.56-2.45-.56a.55.55,0,0,0-.34.16l-.14.14a.69.69,0,0,1-.45.2H163v-.79h1.44V299.36H163v-.79h1.93a.39.39,0,0,1,.38.38v3.46c0,.23.14.34.27.34.49,0,.86-.59,2.45-.59h.61a1.85,1.85,0,0,1,2.05,1.93v4.79A1.86,1.86,0,0,1,168.63,310.79Zm1.19-6.59a1.21,1.21,0,0,0-1.21-1.21h-2.11a1.21,1.21,0,0,0-1.21,1.21v4.54a1.21,1.21,0,0,0,1.21,1.21h2.11a1.21,1.21,0,0,0,1.21-1.21Z"/><path class="cls-3" d="M180.5,303l-4.39,10.89a1.49,1.49,0,0,1-1.39.87,2.87,2.87,0,0,1-1.57-.52v-.79a3.12,3.12,0,0,0,1.35.47.92.92,0,0,0,1-.61l1-2.56a.71.71,0,0,1-.38-.4l-3-7.35h-1.21v-.79h3.13V303h-1l2.79,6.9,2.79-6.9h-1v-.79h3.13V303Z"/><path class="cls-3" d="M189.44,310.79a1.51,1.51,0,0,1-1.57-1.62V303h-1a.34.34,0,0,1-.34-.32v-.14a.34.34,0,0,1,.34-.32h1v-3.29a.35.35,0,0,1,.34-.34h.18a.35.35,0,0,1,.34.34v3.29h2.13V303h-2.12v6c0,.77.41,1,.9,1a3.52,3.52,0,0,0,1.42-.45v.76A3.26,3.26,0,0,1,189.44,310.79Z"/><path class="cls-3" d="M198.14,310.74v-.79h1.24V304.2a1.21,1.21,0,0,0-1.21-1.21h-2.11a1.21,1.21,0,0,0-1.21,1.21v5.74h1.24v.79h-3.55v-.79H194V299.36h-1.44v-.79h1.93a.39.39,0,0,1,.38.38v3.46c0,.23.14.34.27.34.49,0,.86-.59,2.45-.59h.61a1.85,1.85,0,0,1,2.05,1.93v5.87h1.44v.79Z"/><path class="cls-3" d="M209.08,306.9h-4.7v1.85a1.17,1.17,0,0,0,1.19,1.19h2.75a.33.33,0,0,1,.34.32v.14a.33.33,0,0,1-.34.32h-3a1.8,1.8,0,0,1-1.8-1.8v-5a1.81,1.81,0,0,1,1.82-1.78h2.77a1.79,1.79,0,0,1,1.78,1.8v2.16A.71.71,0,0,1,209.08,306.9Zm-.05-2.74a1.15,1.15,0,0,0-1.17-1.17h-2.29a1.19,1.19,0,0,0-1.19,1.17v2H209Z"/><path class="cls-3" d="M8.56,332.34H1.45v-.79H2.89V321H1.45v-.79H5.2V321H3.75v10.59H8.18V330H9v1.94C9,332.14,8.94,332.34,8.56,332.34Z"/><path class="cls-3" d="M9.91,332.34v-.79h1.44v-7H9.91v-.79h1.94a.37.37,0,0,1,.36.36v7.38h1.44v.79Zm2-10.51h-.18a.35.35,0,0,1-.34-.34v-1a.35.35,0,0,1,.34-.34h.18a.35.35,0,0,1,.34.34v1A.36.36,0,0,1,11.87,321.82Z"/><path class="cls-3" d="M20.71,332.34v-.79H22v-5.76a1.21,1.21,0,0,0-1.21-1.19H18.64a1.21,1.21,0,0,0-1.21,1.19v5.76h1.24v.79H15.13v-.79h1.44v-7H15.13v-.79H16.8a.55.55,0,0,1,.43.2l.13.14a.6.6,0,0,0,.34.2c.49,0,.85-.59,2.41-.59h.61a1.87,1.87,0,0,1,2.09,1.93v5.87h1.44v.79Z"/><path class="cls-3" d="M32.92,332.34a.62.62,0,0,1-.49-.18l-.18-.18a.49.49,0,0,0-.32-.14c-.49,0-.9.56-2.45.56h-.61a1.84,1.84,0,0,1-2.05-1.93v-5.87H25.37v-.79h2a.35.35,0,0,1,.31.32v6.23a1.21,1.21,0,0,0,1.21,1.19H31a1.21,1.21,0,0,0,1.21-1.19v-5.76H30.75v-.79h2a.35.35,0,0,1,.31.32v7.42H34.5v.79Z"/><path class="cls-3" d="M40.92,332.34v-.79h1l-2.27-3-2.27,3h1v.79h-3.2v-.79h1.21l2.75-3.62-2.54-3.33H35.47v-.79h3.17v.79h-1l2,2.68,2-2.68h-1v-.79H43.9v.79H42.71l-2.54,3.33,2.75,3.62h1.21v.79Z"/><path class="cls-3" d="M54.37,332.34H51.58a1.81,1.81,0,0,1-1.8-1.8V325.6a1.81,1.81,0,0,1,1.8-1.8h4.23V326h-.86v-1.37H51.83a1.18,1.18,0,0,0-1.19,1.17v4.61a1.18,1.18,0,0,0,1.17,1.17h2.32a1.18,1.18,0,0,0,1.17-1.17v-.25h.86v.41A1.81,1.81,0,0,1,54.37,332.34Z"/><path class="cls-3" d="M62.78,332.34H60.09a1.81,1.81,0,0,1-1.8-1.8V325.6a1.81,1.81,0,0,1,1.8-1.8h2.68a1.79,1.79,0,0,1,1.8,1.8v4.93A1.79,1.79,0,0,1,62.78,332.34Zm.94-6.57a1.16,1.16,0,0,0-1.15-1.17H60.35a1.18,1.18,0,0,0-1.19,1.17v4.61a1.18,1.18,0,0,0,1.17,1.17h2.21a1.17,1.17,0,0,0,1.17-1.17Z"/><path class="cls-3" d="M76.69,332.34v-.79h1v-5.78a1.17,1.17,0,0,0-1.17-1.17H74.91a1.17,1.17,0,0,0-1.17,1.17v5.78h1v.79H71.85v-.79h1v-5.78a1.17,1.17,0,0,0-1.17-1.17H70.07a1.17,1.17,0,0,0-1.17,1.17v5.78h1v.79H66.59v-.79H68v-7H66.59v-.79h1.67a.65.65,0,0,1,.43.2l.13.14a.6.6,0,0,0,.34.2c.49,0,.9-.59,2.27-.59h.13c1.22,0,1.42.59,2.3.59s1-.59,2.41-.59h.13a2,2,0,0,1,2.18,1.94v5.85H80v.79Z"/><path class="cls-3" d="M91.42,332.34v-.79h1v-5.78a1.17,1.17,0,0,0-1.17-1.17H89.63a1.17,1.17,0,0,0-1.17,1.17v5.78h1v.79H86.57v-.79h1v-5.78a1.17,1.17,0,0,0-1.17-1.17H84.79a1.17,1.17,0,0,0-1.17,1.17v5.78h1v.79H81.31v-.79h1.44v-7H81.31v-.79H83a.65.65,0,0,1,.43.2l.13.14a.6.6,0,0,0,.34.2c.49,0,.9-.59,2.27-.59h.13c1.22,0,1.42.59,2.3.59s1-.59,2.41-.59h.13a2,2,0,0,1,2.18,1.94v5.85h1.44v.79Z"/><path class="cls-3" d="M103.4,332.34a.63.63,0,0,1-.49-.18l-.18-.18a.49.49,0,0,0-.32-.14c-.49,0-.9.56-2.45.56h-.61a1.84,1.84,0,0,1-2.05-1.93v-5.87H95.86v-.79h2a.35.35,0,0,1,.31.32v6.23a1.21,1.21,0,0,0,1.21,1.19h2.11a1.21,1.21,0,0,0,1.21-1.19v-5.76h-1.44v-.79h2a.35.35,0,0,1,.31.32v7.42H105v.79Z"/><path class="cls-3" d="M111.86,332.34v-.79h1.24v-5.76a1.21,1.21,0,0,0-1.21-1.19h-2.11a1.21,1.21,0,0,0-1.21,1.19v5.76h1.24v.79h-3.55v-.79h1.44v-7h-1.44v-.79H108a.55.55,0,0,1,.43.2l.13.14a.6.6,0,0,0,.34.2c.49,0,.85-.59,2.41-.59h.61a1.87,1.87,0,0,1,2.09,1.93v5.87h1.44v.79Z"/><path class="cls-3" d="M116.88,332.34v-.79h1.44v-7h-1.44v-.79h1.94a.37.37,0,0,1,.36.36v7.38h1.44v.79Zm2-10.51h-.18a.35.35,0,0,1-.34-.34v-1a.35.35,0,0,1,.34-.34h.18a.35.35,0,0,1,.34.34v1A.36.36,0,0,1,118.84,321.82Z"/><path class="cls-3" d="M124.93,332.39a1.51,1.51,0,0,1-1.57-1.62v-6.18h-1a.34.34,0,0,1-.34-.32v-.14a.34.34,0,0,1,.34-.32h1v-3.29a.35.35,0,0,1,.34-.34h.18a.35.35,0,0,1,.34.34v3.29h2.12v.79h-2.12v6c0,.77.41,1,.9,1a3.52,3.52,0,0,0,1.42-.45v.76A3.26,3.26,0,0,1,124.93,332.39Z"/><path class="cls-3" d="M136,324.59l-4.39,10.89a1.49,1.49,0,0,1-1.39.86,2.88,2.88,0,0,1-1.57-.52V335a3.12,3.12,0,0,0,1.35.47.92.92,0,0,0,1-.61l1-2.56a.71.71,0,0,1-.38-.4l-3-7.35h-1.21v-.79h3.13v.79h-1l2.79,6.9,2.79-6.9h-1v-.79h3.13v.79Z"/><path class="cls-2" d="M128,50.46h-2.63a2,2,0,0,1-2-2.05V43.93a2,2,0,0,1,2.05-2h4.21v2.23h-1.33v-1H126a1.06,1.06,0,0,0-1.19,1.17v3.84c0,.85.54,1.12,1.21,1.12h1.78a1,1,0,0,0,1-1v-.32h1.33v.52A2,2,0,0,1,128,50.46Z"/><path class="cls-2" d="M137.08,50.46h-2.93a2,2,0,0,1-2-2V43.91a2,2,0,0,1,2.07-2H137a2,2,0,0,1,2.07,2v4.54A2,2,0,0,1,137.08,50.46Zm.67-6.34a1,1,0,0,0-1-1h-2.29a1,1,0,0,0-1,1v4.14a1,1,0,0,0,1,1h2.3a1,1,0,0,0,1-1Z"/><path class="cls-2" d="M151.09,50.46V49.25h1.08v-5a1.1,1.1,0,0,0-1.06-1.1H149.7a1.08,1.08,0,0,0-1.06,1.1v5h1.08v1.21h-3.49V49.25h1.08v-5a1.08,1.08,0,0,0-1-1.1h-1.42a1.08,1.08,0,0,0-1.08,1.1v5h1.08v1.21h-3.93V49.25h1.51V43.13h-1.51V41.93h2.2a.46.46,0,0,1,.4.25l.18.32c.07.14.14.2.27.2.41,0,1.08-.83,2.2-.83h.31c1.28,0,1.62.85,2.18.85.72,0,1.17-.85,2.36-.85h.31a2.1,2.1,0,0,1,2.18,2.07v5.31H155v1.21Z"/><path class="cls-2" d="M162.14,50.52h-.27c-1.37,0-2.2-.79-2.79-.79-.14,0-.25.18-.25.34v3.8a.54.54,0,0,1-.52.56H156V53.22h1.51V43.13H156V41.93h2.2a.5.5,0,0,1,.4.23l.2.38a.35.35,0,0,0,.31.16c.59,0,1.42-.83,2.79-.83h.27A2.08,2.08,0,0,1,164.46,44v4.39A2.07,2.07,0,0,1,162.14,50.52Zm1-6.3A1.07,1.07,0,0,0,162,43.13h-2.14a1.07,1.07,0,0,0-1.08,1.08v4a1.08,1.08,0,0,0,1.08,1.08H162a1.08,1.08,0,0,0,1.08-1.08Z"/><path class="cls-2" d="M172.79,50.46a.5.5,0,0,1-.4-.25l-.18-.31a.29.29,0,0,0-.32-.18c-.59,0-1.42.79-2.79.79h-.27a2.08,2.08,0,0,1-2.32-2.12V47.17A2.08,2.08,0,0,1,168.83,45h.27c1.37,0,2.2.83,2.79.83.14,0,.25-.14.25-.32V44.29A1.06,1.06,0,0,0,171,43.13h-3.19a.52.52,0,0,1-.56-.5v-.2a.51.51,0,0,1,.54-.5h3.67a2.06,2.06,0,0,1,2,2v5.35h1.42v1.21Zm-.65-3.24a.93.93,0,0,0-.94-.92h-2.43a.93.93,0,0,0-.94.92v1.12a.93.93,0,0,0,.94.92h2.43a.93.93,0,0,0,.94-.92Z"/><path class="cls-2" d="M182,50.46V49.25h1.28v-5a1.08,1.08,0,0,0-1.08-1.08h-2.14A1.08,1.08,0,0,0,179,44.21v5h1.28v1.21h-4.12V49.25h1.51V43.13h-1.51V41.93h2.18a.43.43,0,0,1,.41.25l.18.32c.09.16.16.2.31.2.59,0,1.44-.83,2.81-.83h.27A2.08,2.08,0,0,1,184.62,44v5.26h1.51v1.21Z"/><path class="cls-2" d="M187.46,50.46V49.25H189V43.13h-1.51V41.93h2.3a.54.54,0,0,1,.54.54v6.79h1.51v1.21Zm2.3-10.1h-.25a.53.53,0,0,1-.54-.54v-1a.53.53,0,0,1,.54-.54h.25a.54.54,0,0,1,.54.54v1A.54.54,0,0,1,189.77,40.36Z"/><path class="cls-2" d="M199.6,46.74H195v1.42a1,1,0,0,0,1.17,1.1h2.48a.5.5,0,0,1,.54.5V50a.5.5,0,0,1-.54.5h-3a2,2,0,0,1-2-2.05v-4.5a2,2,0,0,1,2.07-2h2.83a2,2,0,0,1,2.07,2v1.75A1,1,0,0,1,199.6,46.74Zm-.29-2.63a1,1,0,0,0-1-1H196a1,1,0,0,0-1,1v1.51h4.3Z"/><path class="cls-2" d="M207.19,50.46h-3a2,2,0,0,1-2-2v-.52h1.33v.32a1,1,0,0,0,1,1h2.43c.61,0,.77-.63.77-1v-.72a.72.72,0,0,0-.77-.77h-2.88a1.8,1.8,0,0,1-1.76-1.82V43.8a2,2,0,0,1,2.05-1.87h3.51a.5.5,0,0,1,.52.5v1.73H207v-1h-2.4a.9.9,0,0,0-1,.92v.67a.94.94,0,0,0,1,.9h2.83a1.53,1.53,0,0,1,1.6,1.62v1.21A1.81,1.81,0,0,1,207.19,50.46Z"/><path class="cls-3" d="M391.09,109.08h-2.68a1.81,1.81,0,0,1-1.8-1.8v-4.93a1.81,1.81,0,0,1,1.8-1.8h2.68a1.79,1.79,0,0,1,1.8,1.8v4.93A1.79,1.79,0,0,1,391.09,109.08Zm.94-6.57a1.16,1.16,0,0,0-1.15-1.17h-2.21a1.18,1.18,0,0,0-1.19,1.17v4.61a1.18,1.18,0,0,0,1.17,1.17h2.21a1.17,1.17,0,0,0,1.17-1.17Z"/><path class="cls-3" d="M399.12,97.9a2.41,2.41,0,0,0-.83-.2.84.84,0,0,0-.9,1v1.87h1.8v.79h-1.8v7h1.44v.79h-3.75v-.79h1.44v-7h-1a.34.34,0,0,1-.34-.32v-.14a.34.34,0,0,1,.34-.32h1V98.48a1.51,1.51,0,0,1,1.57-1.62,2.29,2.29,0,0,1,1,.23l.61.31v.74Z"/><path class="cls-3" d="M409.78,109.08H407.2a1.8,1.8,0,0,1-1.8-1.8v-.42h.86v.25a1.18,1.18,0,0,0,1.17,1.17h2.09a1.17,1.17,0,0,0,1.17-1.19v-.68a1.17,1.17,0,0,0-1.17-1.17h-2.23a1.81,1.81,0,0,1-1.8-1.76v-1.15a1.8,1.8,0,0,1,1.8-1.78h3.19a.38.38,0,0,1,.4.34v1.82H410v-1.37h-2.49a1.18,1.18,0,0,0-1.17,1.17v.79a1.18,1.18,0,0,0,1.17,1.17h2.23a1.81,1.81,0,0,1,1.8,1.78v1A1.79,1.79,0,0,1,409.78,109.08Z"/><path class="cls-3" d="M423.46,109.08v-.79h1v-5.78a1.17,1.17,0,0,0-1.17-1.17h-1.64a1.17,1.17,0,0,0-1.17,1.17v5.78h1v.79h-2.92v-.79h1v-5.78a1.17,1.17,0,0,0-1.17-1.17h-1.64a1.17,1.17,0,0,0-1.17,1.17v5.78h1v.79h-3.33v-.79h1.44v-7h-1.44v-.79H415a.65.65,0,0,1,.43.2l.13.14a.6.6,0,0,0,.34.2c.49,0,.9-.59,2.27-.59h.13c1.22,0,1.42.59,2.3.59s1-.59,2.41-.59h.13a2,2,0,0,1,2.18,1.94v5.85h1.44v.79Z"/><path class="cls-3" d="M434.33,109.08a.73.73,0,0,1-.45-.18l-.14-.16a.52.52,0,0,0-.34-.16c-.49,0-.86.56-2.45.56h-.61a1.86,1.86,0,0,1-2.05-1.93v-1.44a1.85,1.85,0,0,1,2.05-1.93h.61c1.58,0,2,.59,2.45.59.13,0,.27-.11.27-.34v-1.6a1.16,1.16,0,0,0-1.17-1.15h-2.88a.34.34,0,0,1-.34-.32v-.14a.34.34,0,0,1,.34-.32h3.12a1.81,1.81,0,0,1,1.8,1.84v5.91h1.35v.79Zm-.67-3.19a1.21,1.21,0,0,0-1.21-1.21h-2.11a1.21,1.21,0,0,0-1.21,1.21v1.19a1.21,1.21,0,0,0,1.21,1.21h2.11a1.21,1.21,0,0,0,1.21-1.21Z"/><path class="cls-3" d="M443.58,101.34h-2.81a1.21,1.21,0,0,0-1.21,1.21v5.74H441v.79h-3.75v-.79h1.44v-7h-1.44v-.79h1.66a.53.53,0,0,1,.45.2l.13.14a.6.6,0,0,0,.34.2c.49,0,.77-.54,2.32-.54h1.42a.34.34,0,0,1,.34.32V101A.34.34,0,0,1,443.58,101.34Z"/><path class="cls-3" d="M447.52,109.14a1.51,1.51,0,0,1-1.57-1.62v-6.18h-1a.34.34,0,0,1-.34-.32v-.14a.34.34,0,0,1,.34-.32h1V97.26a.35.35,0,0,1,.34-.34h.18a.35.35,0,0,1,.34.34v3.29h2.13v.79h-2.12v6c0,.77.41,1,.9,1a3.52,3.52,0,0,0,1.42-.45v.76A3.26,3.26,0,0,1,447.52,109.14Z"/><path class="cls-3" d="M456.27,109.14h-.61c-1.55,0-2-.58-2.48-.58-.18,0-.23.18-.23.4v3.66a.42.42,0,0,1-.47.43h-1.84v-.79h1.44V101.34h-1.44v-.79h1.67a.56.56,0,0,1,.43.18l.13.16a.54.54,0,0,0,.34.2c.49,0,.86-.59,2.45-.59h.61a1.86,1.86,0,0,1,2.05,1.93v4.79A1.86,1.86,0,0,1,456.27,109.14Zm1.19-6.59a1.21,1.21,0,0,0-1.21-1.21h-2.11a1.21,1.21,0,0,0-1.21,1.21v4.54a1.21,1.21,0,0,0,1.21,1.21h2.11a1.21,1.21,0,0,0,1.21-1.21Z"/><path class="cls-3" d="M465.74,109.08v-.79H467v-5.74a1.21,1.21,0,0,0-1.21-1.21h-2.11a1.21,1.21,0,0,0-1.21,1.21v5.74h1.24v.79h-3.55v-.79h1.44V97.71h-1.44v-.79h1.93a.39.39,0,0,1,.38.38v3.46c0,.23.14.34.27.34.49,0,.86-.59,2.45-.59h.61a1.85,1.85,0,0,1,2.05,1.93v5.87h1.44v.79Z"/><path class="cls-3" d="M475.6,109.08h-2.68a1.8,1.8,0,0,1-1.8-1.8v-4.93a1.81,1.81,0,0,1,1.8-1.8h2.68a1.79,1.79,0,0,1,1.8,1.8v4.93A1.79,1.79,0,0,1,475.6,109.08Zm.94-6.57a1.16,1.16,0,0,0-1.15-1.17h-2.21a1.18,1.18,0,0,0-1.19,1.17v4.61a1.18,1.18,0,0,0,1.17,1.17h2.21a1.17,1.17,0,0,0,1.17-1.17Z"/><path class="cls-3" d="M485,109.08v-.79h1.24v-5.76a1.21,1.21,0,0,0-1.21-1.19h-2.11a1.21,1.21,0,0,0-1.21,1.19v5.76H483v.79h-3.55v-.79h1.44v-7h-1.44v-.79h1.67a.55.55,0,0,1,.43.2l.13.14a.6.6,0,0,0,.34.2c.49,0,.85-.59,2.41-.59H485a1.87,1.87,0,0,1,2.09,1.93v5.87h1.44v.79Z"/><path class="cls-3" d="M495.94,105.25h-4.7v1.85a1.17,1.17,0,0,0,1.19,1.19h2.75a.33.33,0,0,1,.34.32v.14a.33.33,0,0,1-.34.32h-3a1.8,1.8,0,0,1-1.8-1.8v-5a1.81,1.81,0,0,1,1.82-1.78H495a1.79,1.79,0,0,1,1.78,1.8v2.16A.71.71,0,0,1,495.94,105.25Zm-.05-2.74a1.15,1.15,0,0,0-1.17-1.17h-2.29a1.2,1.2,0,0,0-1.19,1.17v2h4.65Z"/><path class="cls-3" d="M503.09,109.08h-2.58a1.8,1.8,0,0,1-1.8-1.8v-.42h.86v.25a1.18,1.18,0,0,0,1.17,1.17h2.09A1.17,1.17,0,0,0,504,107.1v-.68a1.17,1.17,0,0,0-1.17-1.17H500.6a1.81,1.81,0,0,1-1.8-1.76v-1.15a1.8,1.8,0,0,1,1.8-1.78h3.19a.38.38,0,0,1,.4.34v1.82h-.86v-1.37h-2.49a1.18,1.18,0,0,0-1.17,1.17v.79a1.18,1.18,0,0,0,1.17,1.17h2.23a1.81,1.81,0,0,1,1.8,1.78v1A1.79,1.79,0,0,1,503.09,109.08Z"/><path class="cls-3" d="M392.39,121.34h-2.81a1.21,1.21,0,0,0-1.21,1.21v5.74h1.44v.79h-3.75v-.79h1.44v-7h-1.44v-.79h1.66a.53.53,0,0,1,.45.2l.13.14a.6.6,0,0,0,.34.2c.49,0,.77-.54,2.32-.54h1.42a.34.34,0,0,1,.34.32V121A.34.34,0,0,1,392.39,121.34Z"/><path class="cls-3" d="M400.87,129.08a.62.62,0,0,1-.49-.18l-.18-.18a.49.49,0,0,0-.32-.14c-.49,0-.9.56-2.45.56h-.61a1.84,1.84,0,0,1-2.05-1.93v-5.87h-1.44v-.79h2a.35.35,0,0,1,.31.32v6.23a1.21,1.21,0,0,0,1.21,1.19h2.11a1.21,1.21,0,0,0,1.21-1.19v-5.76h-1.44v-.79h2a.35.35,0,0,1,.31.32v7.42h1.44v.79Z"/><path class="cls-3" d="M409.33,129.08v-.79h1.24v-5.76a1.21,1.21,0,0,0-1.21-1.19h-2.11a1.21,1.21,0,0,0-1.21,1.19v5.76h1.24v.79h-3.55v-.79h1.44v-7h-1.44v-.79h1.67a.55.55,0,0,1,.43.2l.13.14a.6.6,0,0,0,.34.2c.49,0,.85-.59,2.41-.59h.61a1.87,1.87,0,0,1,2.09,1.93v5.87h1.44v.79Z"/><path class="cls-3" d="M424.54,129.08v-.79h1.17l-.88-3h-4.39l-.88,3h1.17v.79h-3.31v-.79h1.28l3.1-10.59h-1.44v-.79h2.52a.43.43,0,0,1,.47.31l3.24,11.07h1.28v.79Zm-1.12-8.57c-.38-1.31-.77-2.77-.77-2.77h0s-.4,1.46-.77,2.77l-1.17,4h3.92Z"/><path class="cls-3" d="M434.49,129.08v-.79h1.24v-5.76a1.21,1.21,0,0,0-1.21-1.19h-2.11a1.21,1.21,0,0,0-1.21,1.19v5.76h1.24v.79h-3.55v-.79h1.44v-7h-1.44v-.79h1.67a.55.55,0,0,1,.43.2l.13.14a.6.6,0,0,0,.34.2c.49,0,.85-.59,2.41-.59h.61a1.87,1.87,0,0,1,2.09,1.93v5.87H438v.79Z"/><path class="cls-3" d="M445.92,129.08a.73.73,0,0,1-.45-.18l-.14-.16a.51.51,0,0,0-.34-.16c-.49,0-.86.56-2.45.56h-.61a1.86,1.86,0,0,1-2.05-1.93v-4.79a1.85,1.85,0,0,1,2.05-1.93h.61c1.58,0,2,.59,2.45.59.13,0,.27-.11.27-.34v-3h-1.44v-.79h1.93a.39.39,0,0,1,.38.38v11h1.44v.79Zm-.67-6.54a1.21,1.21,0,0,0-1.21-1.21h-2.11a1.21,1.21,0,0,0-1.21,1.21v4.54a1.21,1.21,0,0,0,1.21,1.21H444a1.21,1.21,0,0,0,1.21-1.21Z"/><path class="cls-3" d="M455.17,121.34h-2.81a1.21,1.21,0,0,0-1.21,1.21v5.74h1.44v.79h-3.75v-.79h1.44v-7h-1.44v-.79h1.66a.53.53,0,0,1,.45.2l.13.14a.6.6,0,0,0,.34.2c.49,0,.77-.54,2.32-.54h1.42a.34.34,0,0,1,.34.32V121A.34.34,0,0,1,455.17,121.34Z"/><path class="cls-3" d="M461.31,129.08h-2.68a1.8,1.8,0,0,1-1.8-1.8v-4.93a1.81,1.81,0,0,1,1.8-1.8h2.68a1.79,1.79,0,0,1,1.8,1.8v4.93A1.79,1.79,0,0,1,461.31,129.08Zm.94-6.57a1.16,1.16,0,0,0-1.15-1.17h-2.21a1.18,1.18,0,0,0-1.19,1.17v4.61a1.18,1.18,0,0,0,1.17,1.17h2.21a1.17,1.17,0,0,0,1.17-1.17Z"/><path class="cls-3" d="M465.31,129.08v-.79h1.44v-7h-1.44v-.79h1.94a.37.37,0,0,1,.36.36v7.38h1.44v.79Zm2-10.51h-.18a.35.35,0,0,1-.34-.34v-1a.35.35,0,0,1,.34-.34h.18a.35.35,0,0,1,.34.34v1A.36.36,0,0,1,467.27,118.57Z"/><path class="cls-3" d="M477.12,129.08a.73.73,0,0,1-.45-.18l-.14-.16a.51.51,0,0,0-.34-.16c-.49,0-.86.56-2.45.56h-.61a1.86,1.86,0,0,1-2.05-1.93v-4.79a1.85,1.85,0,0,1,2.05-1.93h.61c1.58,0,2,.59,2.45.59.13,0,.27-.11.27-.34v-3H475v-.79h1.93a.39.39,0,0,1,.38.38v11h1.44v.79Zm-.67-6.54a1.21,1.21,0,0,0-1.21-1.21h-2.11a1.21,1.21,0,0,0-1.21,1.21v4.54a1.21,1.21,0,0,0,1.21,1.21h2.11a1.21,1.21,0,0,0,1.21-1.21Z"/><path class="cls-3" d="M490.49,129.08a.73.73,0,0,1-.45-.18l-.14-.16a.52.52,0,0,0-.34-.16c-.49,0-.86.56-2.45.56h-.61a1.86,1.86,0,0,1-2.05-1.93v-1.44a1.85,1.85,0,0,1,2.05-1.93h.61c1.58,0,2,.59,2.45.59.13,0,.27-.11.27-.34v-1.6a1.16,1.16,0,0,0-1.17-1.15h-2.88a.34.34,0,0,1-.34-.32v-.14a.34.34,0,0,1,.34-.32h3.12a1.81,1.81,0,0,1,1.8,1.84v5.91H492v.79Zm-.67-3.19a1.21,1.21,0,0,0-1.21-1.21h-2.11a1.21,1.21,0,0,0-1.21,1.21v1.19a1.21,1.21,0,0,0,1.21,1.21h2.11a1.21,1.21,0,0,0,1.21-1.21Z"/><path class="cls-3" d="M499.74,121.34h-2.81a1.21,1.21,0,0,0-1.21,1.21v5.74h1.44v.79h-3.75v-.79h1.44v-7h-1.44v-.79h1.66a.53.53,0,0,1,.45.2l.13.14a.6.6,0,0,0,.34.2c.49,0,.77-.54,2.32-.54h1.42a.34.34,0,0,1,.34.32V121A.34.34,0,0,1,499.74,121.34Z"/><path class="cls-3" d="M507,125.25h-4.7v1.85a1.17,1.17,0,0,0,1.19,1.19h2.75a.33.33,0,0,1,.34.32v.14a.33.33,0,0,1-.34.32h-3a1.8,1.8,0,0,1-1.8-1.8v-5a1.81,1.81,0,0,1,1.82-1.78H506a1.79,1.79,0,0,1,1.78,1.8v2.16A.71.71,0,0,1,507,125.25Zm-.05-2.74a1.15,1.15,0,0,0-1.17-1.17h-2.29a1.2,1.2,0,0,0-1.19,1.17v2h4.65Z"/><path class="cls-3" d="M391.53,149.14h-.61c-1.58,0-2-.56-2.45-.56a.56.56,0,0,0-.34.16l-.14.14a.69.69,0,0,1-.45.2h-1.64v-.79h1.44V137.71h-1.44v-.79h1.93a.39.39,0,0,1,.38.38v3.46c0,.23.14.34.27.34.49,0,.86-.59,2.45-.59h.61a1.85,1.85,0,0,1,2.05,1.93v4.79A1.86,1.86,0,0,1,391.53,149.14Zm1.19-6.59a1.21,1.21,0,0,0-1.21-1.21H389.4a1.21,1.21,0,0,0-1.21,1.21v4.54a1.21,1.21,0,0,0,1.21,1.21h2.11a1.21,1.21,0,0,0,1.21-1.21Z"/><path class="cls-3" d="M401.84,149.08a.73.73,0,0,1-.45-.18l-.14-.16a.51.51,0,0,0-.34-.16c-.49,0-.86.56-2.45.56h-.61a1.86,1.86,0,0,1-2.05-1.93v-1.44a1.85,1.85,0,0,1,2.05-1.93h.61c1.58,0,2,.59,2.45.59.13,0,.27-.11.27-.34v-1.6a1.16,1.16,0,0,0-1.17-1.15h-2.88a.34.34,0,0,1-.34-.32v-.14a.34.34,0,0,1,.34-.32h3.12a1.81,1.81,0,0,1,1.8,1.84v5.91h1.35v.79Zm-.67-3.19a1.21,1.21,0,0,0-1.21-1.21h-2.11a1.21,1.21,0,0,0-1.21,1.21v1.19a1.21,1.21,0,0,0,1.21,1.21H400a1.21,1.21,0,0,0,1.21-1.21Z"/><path class="cls-3" d="M409.42,149.08h-2.58a1.81,1.81,0,0,1-1.8-1.8v-.42h.86v.25a1.18,1.18,0,0,0,1.17,1.17h2.09a1.17,1.17,0,0,0,1.17-1.19v-.68a1.17,1.17,0,0,0-1.17-1.17h-2.23a1.81,1.81,0,0,1-1.8-1.76v-1.15a1.8,1.8,0,0,1,1.8-1.78h3.19a.38.38,0,0,1,.4.34v1.82h-.86v-1.37h-2.48a1.18,1.18,0,0,0-1.17,1.17v.79a1.18,1.18,0,0,0,1.17,1.17h2.23a1.81,1.81,0,0,1,1.8,1.78v1A1.79,1.79,0,0,1,409.42,149.08Z"/><path class="cls-3" d="M419.1,145.25h-4.7v1.85a1.17,1.17,0,0,0,1.19,1.19h2.75a.33.33,0,0,1,.34.32v.14a.33.33,0,0,1-.34.32h-3a1.8,1.8,0,0,1-1.8-1.8v-5a1.81,1.81,0,0,1,1.82-1.78h2.77a1.79,1.79,0,0,1,1.78,1.8v2.16A.71.71,0,0,1,419.1,145.25Zm-.05-2.74a1.15,1.15,0,0,0-1.17-1.17h-2.29a1.2,1.2,0,0,0-1.19,1.17v2H419Z"/><path class="cls-3" d="M428.19,149.08a.73.73,0,0,1-.45-.18l-.14-.16a.51.51,0,0,0-.34-.16c-.49,0-.86.56-2.45.56h-.61a1.86,1.86,0,0,1-2.05-1.93v-4.79a1.85,1.85,0,0,1,2.05-1.93h.61c1.58,0,2,.59,2.45.59.13,0,.27-.11.27-.34v-3h-1.44v-.79H428a.39.39,0,0,1,.38.38v11h1.44v.79Zm-.67-6.54a1.21,1.21,0,0,0-1.21-1.21h-2.11a1.21,1.21,0,0,0-1.21,1.21v4.54a1.21,1.21,0,0,0,1.21,1.21h2.11a1.21,1.21,0,0,0,1.21-1.21Z"/><path class="cls-3" d="M440.34,149.08h-2.68a1.81,1.81,0,0,1-1.8-1.8v-4.93a1.81,1.81,0,0,1,1.8-1.8h2.68a1.79,1.79,0,0,1,1.8,1.8v4.93A1.79,1.79,0,0,1,440.34,149.08Zm.94-6.57a1.16,1.16,0,0,0-1.15-1.17h-2.21a1.18,1.18,0,0,0-1.19,1.17v4.61a1.18,1.18,0,0,0,1.17,1.17h2.21a1.17,1.17,0,0,0,1.17-1.17Z"/><path class="cls-3" d="M449.74,149.08v-.79H451v-5.76a1.21,1.21,0,0,0-1.21-1.19h-2.11a1.21,1.21,0,0,0-1.21,1.19v5.76h1.24v.79h-3.55v-.79h1.44v-7h-1.44v-.79h1.67a.55.55,0,0,1,.43.2l.13.14a.6.6,0,0,0,.34.2c.49,0,.85-.59,2.41-.59h.61a1.87,1.87,0,0,1,2.09,1.93v5.87h1.44v.79Z"/><path class="cls-3" d="M466.06,149.08H459v-.79h1.44V137.71H459v-.79h3.75v.79h-1.44v10.59h4.43v-1.57h.86v1.94C466.55,148.89,466.44,149.08,466.06,149.08Z"/><path class="cls-3" d="M467.41,149.08v-.79h1.44v-7h-1.44v-.79h1.94a.37.37,0,0,1,.36.36v7.38h1.44v.79Zm2-10.51h-.18a.35.35,0,0,1-.34-.34v-1a.35.35,0,0,1,.34-.34h.18a.35.35,0,0,1,.34.34v1A.36.36,0,0,1,469.37,138.57Z"/><path class="cls-3" d="M478.21,149.08v-.79h1.24v-5.76a1.21,1.21,0,0,0-1.21-1.19h-2.11a1.21,1.21,0,0,0-1.21,1.19v5.76h1.24v.79h-3.55v-.79h1.44v-7h-1.44v-.79h1.67a.55.55,0,0,1,.43.2l.13.14a.6.6,0,0,0,.34.2c.49,0,.85-.59,2.41-.59h.61a1.87,1.87,0,0,1,2.09,1.93v5.87h1.44v.79Z"/><path class="cls-3" d="M490.42,149.08a.63.63,0,0,1-.49-.18l-.18-.18a.49.49,0,0,0-.32-.14c-.49,0-.9.56-2.45.56h-.61a1.84,1.84,0,0,1-2.05-1.93v-5.87h-1.44v-.79h2a.35.35,0,0,1,.31.32v6.23a1.21,1.21,0,0,0,1.21,1.19h2.11a1.21,1.21,0,0,0,1.21-1.19v-5.76h-1.44v-.79h2a.35.35,0,0,1,.31.32v7.42H492v.79Z"/><path class="cls-3" d="M498.43,149.08v-.79h1l-2.27-3-2.27,3h1v.79h-3.21v-.79h1.21l2.75-3.62-2.54-3.33H493v-.79h3.17v.79h-1l2,2.68,2-2.68h-1v-.79h3.17v.79h-1.19l-2.54,3.33,2.75,3.62h1.21v.79Z"/><path class="cls-3" d="M391.09,197.06h-2.68a1.81,1.81,0,0,1-1.8-1.8v-4.93a1.81,1.81,0,0,1,1.8-1.8h2.68a1.79,1.79,0,0,1,1.8,1.8v4.93A1.79,1.79,0,0,1,391.09,197.06Zm.94-6.57a1.16,1.16,0,0,0-1.15-1.17h-2.21a1.18,1.18,0,0,0-1.19,1.17v4.61a1.18,1.18,0,0,0,1.17,1.17h2.21A1.17,1.17,0,0,0,392,195.1Z"/><path class="cls-3" d="M399.12,185.88a2.39,2.39,0,0,0-.83-.2.84.84,0,0,0-.9,1v1.87h1.8v.79h-1.8v7h1.44v.79h-3.75v-.79h1.44v-7h-1a.34.34,0,0,1-.34-.32v-.14a.34.34,0,0,1,.34-.32h1v-2.07a1.51,1.51,0,0,1,1.57-1.62,2.29,2.29,0,0,1,1,.23l.61.31v.74Z"/><path class="cls-3" d="M408,197.12a1.51,1.51,0,0,1-1.57-1.62v-6.18h-1A.34.34,0,0,1,405,189v-.14a.34.34,0,0,1,.34-.32h1v-3.29a.35.35,0,0,1,.34-.34h.18a.35.35,0,0,1,.34.34v3.29h2.12v.79h-2.12v6c0,.77.41,1,.9,1a3.53,3.53,0,0,0,1.42-.45v.76A3.26,3.26,0,0,1,408,197.12Z"/><path class="cls-3" d="M416.28,197.06h-2.68a1.81,1.81,0,0,1-1.8-1.8v-4.93a1.81,1.81,0,0,1,1.8-1.8h2.68a1.79,1.79,0,0,1,1.8,1.8v4.93A1.79,1.79,0,0,1,416.28,197.06Zm.94-6.57a1.16,1.16,0,0,0-1.15-1.17h-2.21a1.18,1.18,0,0,0-1.19,1.17v4.61a1.18,1.18,0,0,0,1.17,1.17H416a1.17,1.17,0,0,0,1.17-1.17Z"/><path class="cls-3" d="M425.55,197.12h-.61c-1.55,0-2-.58-2.49-.58-.18,0-.23.18-.23.4v3.66a.42.42,0,0,1-.47.43h-1.84v-.79h1.44V189.32h-1.44v-.79h1.67a.56.56,0,0,1,.43.18l.13.16a.54.54,0,0,0,.34.2c.49,0,.86-.59,2.45-.59h.61a1.86,1.86,0,0,1,2.05,1.93v4.79A1.86,1.86,0,0,1,425.55,197.12Zm1.19-6.59a1.21,1.21,0,0,0-1.21-1.21h-2.11a1.21,1.21,0,0,0-1.21,1.21v4.54a1.21,1.21,0,0,0,1.21,1.21h2.11a1.21,1.21,0,0,0,1.21-1.21Z"/><path class="cls-3" d="M438.74,197.06H436.2a1.82,1.82,0,0,1-1.82-1.8v-1.17h.86v1a1.18,1.18,0,0,0,1.19,1.17h2.07a1.17,1.17,0,0,0,1.17-1.17v-2.58a1.18,1.18,0,0,0-1.19-1.17h-3.91v-6.12a.39.39,0,0,1,.38-.34h4.66a.32.32,0,0,1,.34.31v.2c0,.14-.13.29-.36.29h-4.16v4.88h3.28a1.83,1.83,0,0,1,1.82,1.78v2.92A1.81,1.81,0,0,1,438.74,197.06Z"/><path class="cls-3" d="M447.67,197.06h-2.83a1.82,1.82,0,0,1-1.82-1.8v-8.57a1.82,1.82,0,0,1,1.82-1.8h2.83a1.81,1.81,0,0,1,1.8,1.8v8.57A1.81,1.81,0,0,1,447.67,197.06Zm.94-10.21a1.17,1.17,0,0,0-1.17-1.17h-2.36a1.18,1.18,0,0,0-1.19,1.17v8.25a1.18,1.18,0,0,0,1.19,1.17h2.36a1.17,1.17,0,0,0,1.17-1.17Z"/><path class="cls-3" d="M456.45,197.06h-2.83a1.82,1.82,0,0,1-1.82-1.8v-8.57a1.82,1.82,0,0,1,1.82-1.8h2.83a1.81,1.81,0,0,1,1.8,1.8v8.57A1.8,1.8,0,0,1,456.45,197.06Zm.94-10.21a1.17,1.17,0,0,0-1.17-1.17h-2.36a1.18,1.18,0,0,0-1.19,1.17v8.25a1.18,1.18,0,0,0,1.19,1.17h2.36a1.17,1.17,0,0,0,1.17-1.17Z"/><path class="cls-3" d="M468.56,185.88a2.39,2.39,0,0,0-.83-.2.84.84,0,0,0-.9,1v1.87h1.8v.79h-1.8v7h1.44v.79h-3.75v-.79H466v-7h-1a.34.34,0,0,1-.34-.32v-.14a.34.34,0,0,1,.34-.32h1v-2.07a1.51,1.51,0,0,1,1.57-1.62,2.29,2.29,0,0,1,1,.23l.61.31v.74Z"/><path class="cls-3" d="M476.63,197.06a.72.72,0,0,1-.45-.18l-.14-.16a.52.52,0,0,0-.34-.16c-.49,0-.86.56-2.45.56h-.61a1.86,1.86,0,0,1-2.05-1.93v-1.44a1.85,1.85,0,0,1,2.05-1.93h.61c1.58,0,2,.59,2.45.59.13,0,.27-.11.27-.34v-1.6a1.16,1.16,0,0,0-1.17-1.15h-2.88a.34.34,0,0,1-.34-.32v-.14a.34.34,0,0,1,.34-.32H475a1.81,1.81,0,0,1,1.8,1.84v5.91h1.35v.79Zm-.67-3.19a1.21,1.21,0,0,0-1.21-1.21h-2.11a1.21,1.21,0,0,0-1.21,1.21v1.19a1.21,1.21,0,0,0,1.21,1.21h2.11a1.21,1.21,0,0,0,1.21-1.21Z"/><path class="cls-3" d="M484.21,197.06h-2.58a1.81,1.81,0,0,1-1.8-1.8v-.41h.86v.25a1.18,1.18,0,0,0,1.17,1.17H484a1.17,1.17,0,0,0,1.17-1.19v-.68a1.17,1.17,0,0,0-1.17-1.17h-2.23a1.81,1.81,0,0,1-1.8-1.76v-1.15a1.8,1.8,0,0,1,1.8-1.78h3.19a.38.38,0,0,1,.4.34v1.82h-.86v-1.37H482a1.18,1.18,0,0,0-1.17,1.17v.79a1.18,1.18,0,0,0,1.17,1.17h2.23a1.81,1.81,0,0,1,1.8,1.78v1A1.79,1.79,0,0,1,484.21,197.06Z"/><path class="cls-3" d="M490.61,197.12A1.51,1.51,0,0,1,489,195.5v-6.18h-1a.34.34,0,0,1-.34-.32v-.14a.34.34,0,0,1,.34-.32h1v-3.29a.35.35,0,0,1,.34-.34h.18a.35.35,0,0,1,.34.34v3.29H492v.79h-2.12v6c0,.77.41,1,.9,1a3.54,3.54,0,0,0,1.42-.45v.76A3.26,3.26,0,0,1,490.61,197.12Z"/><path class="cls-3" d="M500,193.23h-4.7v1.85a1.17,1.17,0,0,0,1.19,1.19h2.75a.33.33,0,0,1,.34.32v.14a.33.33,0,0,1-.34.32h-3a1.8,1.8,0,0,1-1.8-1.8v-5a1.81,1.81,0,0,1,1.82-1.78H499a1.79,1.79,0,0,1,1.78,1.8v2.16A.71.71,0,0,1,500,193.23Zm-.05-2.74a1.15,1.15,0,0,0-1.17-1.17H496.5a1.2,1.2,0,0,0-1.19,1.17v2H500Z"/><path class="cls-3" d="M507.16,197.06h-2.58a1.8,1.8,0,0,1-1.8-1.8v-.41h.86v.25a1.18,1.18,0,0,0,1.17,1.17h2.09a1.17,1.17,0,0,0,1.17-1.19v-.68a1.17,1.17,0,0,0-1.17-1.17h-2.23a1.81,1.81,0,0,1-1.8-1.76v-1.15a1.8,1.8,0,0,1,1.8-1.78h3.19a.38.38,0,0,1,.4.34v1.82h-.86v-1.37H504.9a1.18,1.18,0,0,0-1.17,1.17v.79a1.18,1.18,0,0,0,1.17,1.17h2.23a1.81,1.81,0,0,1,1.8,1.78v1A1.79,1.79,0,0,1,507.16,197.06Z"/><path class="cls-3" d="M513.56,197.12A1.51,1.51,0,0,1,512,195.5v-6.18h-1a.34.34,0,0,1-.34-.32v-.14a.34.34,0,0,1,.34-.32h1v-3.29a.35.35,0,0,1,.34-.34h.18a.35.35,0,0,1,.34.34v3.29H515v.79h-2.12v6c0,.77.41,1,.9,1a3.53,3.53,0,0,0,1.42-.45v.76A3.26,3.26,0,0,1,513.56,197.12Z"/><path class="cls-3" d="M390.72,217.06h-2.58a1.8,1.8,0,0,1-1.8-1.8v-.41h.86v.25a1.18,1.18,0,0,0,1.17,1.17h2.09a1.17,1.17,0,0,0,1.17-1.19v-.68a1.17,1.17,0,0,0-1.17-1.17h-2.23a1.81,1.81,0,0,1-1.8-1.76v-1.15a1.8,1.8,0,0,1,1.8-1.78h3.19a.38.38,0,0,1,.4.34v1.82H391v-1.37h-2.49a1.18,1.18,0,0,0-1.17,1.17v.79a1.18,1.18,0,0,0,1.17,1.17h2.23a1.81,1.81,0,0,1,1.8,1.78v1A1.79,1.79,0,0,1,390.72,217.06Z"/><path class="cls-3" d="M401.66,217.06a.62.62,0,0,1-.49-.18l-.18-.18a.49.49,0,0,0-.32-.14c-.49,0-.9.56-2.45.56h-.61a1.84,1.84,0,0,1-2.05-1.93v-5.87h-1.44v-.79h2a.35.35,0,0,1,.31.32v6.23a1.21,1.21,0,0,0,1.21,1.19h2.11a1.21,1.21,0,0,0,1.21-1.19v-5.76H399.5v-.79h2a.35.35,0,0,1,.31.32v7.42h1.44v.79Z"/><path class="cls-3" d="M410,217.12h-.61c-1.55,0-2-.58-2.48-.58-.18,0-.23.18-.23.4v3.66a.42.42,0,0,1-.47.43h-1.84v-.79h1.44V209.32h-1.44v-.79H406a.56.56,0,0,1,.43.18l.13.16a.54.54,0,0,0,.34.2c.49,0,.86-.59,2.45-.59H410A1.86,1.86,0,0,1,412,210.4v4.79A1.86,1.86,0,0,1,410,217.12Zm1.19-6.59a1.21,1.21,0,0,0-1.21-1.21h-2.11a1.21,1.21,0,0,0-1.21,1.21v4.54a1.21,1.21,0,0,0,1.21,1.21H410a1.21,1.21,0,0,0,1.21-1.21Z"/><path class="cls-3" d="M420.16,213.23h-4.7v1.85a1.17,1.17,0,0,0,1.19,1.19h2.75a.33.33,0,0,1,.34.32v.14a.33.33,0,0,1-.34.32h-3a1.8,1.8,0,0,1-1.8-1.8v-5a1.81,1.81,0,0,1,1.82-1.78h2.77a1.79,1.79,0,0,1,1.78,1.8v2.16A.71.71,0,0,1,420.16,213.23Zm-.05-2.74a1.14,1.14,0,0,0-1.17-1.17h-2.29a1.2,1.2,0,0,0-1.19,1.17v2h4.65Z"/><path class="cls-3" d="M429,209.32h-2.81a1.21,1.21,0,0,0-1.21,1.21v5.74h1.44v.79h-3.75v-.79h1.44v-7h-1.44v-.79h1.66a.53.53,0,0,1,.45.2l.13.14a.6.6,0,0,0,.34.2c.49,0,.77-.54,2.32-.54H429a.34.34,0,0,1,.34.32V209A.34.34,0,0,1,429,209.32Z"/><path class="cls-3" d="M435.23,217.06h-2.79a1.81,1.81,0,0,1-1.8-1.8v-4.93a1.81,1.81,0,0,1,1.8-1.8h4.23v2.16h-.86v-1.37h-3.12a1.18,1.18,0,0,0-1.19,1.17v4.61a1.18,1.18,0,0,0,1.17,1.17H435a1.18,1.18,0,0,0,1.17-1.17v-.25H437v.41A1.81,1.81,0,0,1,435.23,217.06Z"/><path class="cls-3" d="M443.63,217.06H441a1.81,1.81,0,0,1-1.8-1.8v-4.93a1.81,1.81,0,0,1,1.8-1.8h2.68a1.79,1.79,0,0,1,1.8,1.8v4.93A1.79,1.79,0,0,1,443.63,217.06Zm.94-6.57a1.16,1.16,0,0,0-1.15-1.17H441.2a1.18,1.18,0,0,0-1.19,1.17v4.61a1.18,1.18,0,0,0,1.17,1.17h2.21a1.17,1.17,0,0,0,1.17-1.17Z"/><path class="cls-3" d="M457.55,217.06v-.79h1v-5.78a1.17,1.17,0,0,0-1.17-1.17h-1.64a1.17,1.17,0,0,0-1.17,1.17v5.78h1v.79h-2.92v-.79h1v-5.78a1.17,1.17,0,0,0-1.17-1.17h-1.64a1.17,1.17,0,0,0-1.17,1.17v5.78h1v.79h-3.33v-.79h1.44v-7h-1.44v-.79h1.67a.65.65,0,0,1,.43.2l.13.14a.6.6,0,0,0,.34.2c.49,0,.9-.59,2.27-.59h.13c1.22,0,1.42.59,2.3.59s1-.59,2.41-.59h.13a2,2,0,0,1,2.18,1.95v5.85h1.44v.79Z"/><path class="cls-3" d="M467.63,217.12H467c-1.55,0-2-.58-2.49-.58-.18,0-.23.18-.23.4v3.66a.42.42,0,0,1-.47.43H462v-.79h1.44V209.32H462v-.79h1.67a.56.56,0,0,1,.43.18l.13.16a.54.54,0,0,0,.34.2c.49,0,.86-.59,2.45-.59h.61a1.86,1.86,0,0,1,2.05,1.93v4.79A1.86,1.86,0,0,1,467.63,217.12Zm1.19-6.59a1.21,1.21,0,0,0-1.21-1.21H465.5a1.21,1.21,0,0,0-1.21,1.21v4.54a1.21,1.21,0,0,0,1.21,1.21h2.11a1.21,1.21,0,0,0,1.21-1.21Z"/><path class="cls-3" d="M479.06,217.06a.62.62,0,0,1-.49-.18l-.18-.18a.49.49,0,0,0-.32-.14c-.49,0-.9.56-2.45.56H475a1.84,1.84,0,0,1-2.05-1.93v-5.87h-1.44v-.79h2a.35.35,0,0,1,.31.32v6.23a1.21,1.21,0,0,0,1.21,1.19h2.11a1.21,1.21,0,0,0,1.21-1.19v-5.76H476.9v-.79h2a.35.35,0,0,1,.31.32v7.42h1.44v.79Z"/><path class="cls-3" d="M484.76,217.12a1.51,1.51,0,0,1-1.57-1.62v-6.18h-1a.34.34,0,0,1-.34-.32v-.14a.34.34,0,0,1,.34-.32h1v-3.29a.35.35,0,0,1,.34-.34h.18a.35.35,0,0,1,.34.34v3.29h2.12v.79h-2.12v6c0,.77.41,1,.9,1a3.53,3.53,0,0,0,1.42-.45v.76A3.26,3.26,0,0,1,484.76,217.12Z"/><path class="cls-3" d="M494.16,213.23h-4.7v1.85a1.17,1.17,0,0,0,1.19,1.19h2.75a.33.33,0,0,1,.34.32v.14a.33.33,0,0,1-.34.32h-3a1.8,1.8,0,0,1-1.8-1.8v-5a1.81,1.81,0,0,1,1.82-1.78h2.77a1.79,1.79,0,0,1,1.78,1.8v2.16A.71.71,0,0,1,494.16,213.23Zm-.05-2.74a1.14,1.14,0,0,0-1.17-1.17h-2.29a1.2,1.2,0,0,0-1.19,1.17v2h4.65Z"/><path class="cls-3" d="M503,209.32h-2.81a1.21,1.21,0,0,0-1.21,1.21v5.74h1.44v.79h-3.75v-.79h1.44v-7h-1.44v-.79h1.66a.53.53,0,0,1,.45.2l.13.14a.6.6,0,0,0,.34.2c.49,0,.77-.54,2.32-.54H503a.34.34,0,0,1,.34.32V209A.34.34,0,0,1,503,209.32Z"/><path class="cls-3" d="M508.74,217.06h-2.58a1.8,1.8,0,0,1-1.8-1.8v-.41h.86v.25a1.18,1.18,0,0,0,1.17,1.17h2.09a1.17,1.17,0,0,0,1.17-1.19v-.68a1.17,1.17,0,0,0-1.17-1.17h-2.23a1.81,1.81,0,0,1-1.8-1.76v-1.15a1.8,1.8,0,0,1,1.8-1.78h3.19a.38.38,0,0,1,.4.34v1.82H509v-1.37h-2.49a1.18,1.18,0,0,0-1.17,1.17v.79a1.18,1.18,0,0,0,1.17,1.17h2.23a1.81,1.81,0,0,1,1.8,1.78v1A1.79,1.79,0,0,1,508.74,217.06Z"/><path class="cls-3" d="M392.39,229.32h-2.81a1.21,1.21,0,0,0-1.21,1.21v5.74h1.44v.79h-3.75v-.79h1.44v-7h-1.44v-.79h1.66a.53.53,0,0,1,.45.2l.13.14a.6.6,0,0,0,.34.2c.49,0,.77-.54,2.32-.54h1.42a.34.34,0,0,1,.34.32V229A.34.34,0,0,1,392.39,229.32Z"/><path class="cls-3" d="M400.87,237.06a.62.62,0,0,1-.49-.18l-.18-.18a.49.49,0,0,0-.32-.14c-.49,0-.9.56-2.45.56h-.61a1.84,1.84,0,0,1-2.05-1.93v-5.87h-1.44v-.79h2a.35.35,0,0,1,.31.32v6.23a1.21,1.21,0,0,0,1.21,1.19h2.11a1.21,1.21,0,0,0,1.21-1.19v-5.76h-1.44v-.79h2a.35.35,0,0,1,.31.32v7.42h1.44v.79Z"/><path class="cls-3" d="M409.33,237.06v-.79h1.24v-5.76a1.21,1.21,0,0,0-1.21-1.19h-2.11a1.21,1.21,0,0,0-1.21,1.19v5.76h1.24v.79h-3.55v-.79h1.44v-7h-1.44v-.79h1.67a.55.55,0,0,1,.43.2l.13.14a.6.6,0,0,0,.34.2c.49,0,.85-.59,2.41-.59h.61a1.88,1.88,0,0,1,2.09,1.93v5.87h1.44v.79Z"/><path class="cls-3" d="M423.39,237.06H420.7a1.81,1.81,0,0,1-1.8-1.8v-4.93a1.81,1.81,0,0,1,1.8-1.8h2.68a1.79,1.79,0,0,1,1.8,1.8v4.93A1.79,1.79,0,0,1,423.39,237.06Zm.94-6.57a1.16,1.16,0,0,0-1.15-1.17H421a1.18,1.18,0,0,0-1.19,1.17v4.61a1.18,1.18,0,0,0,1.17,1.17h2.21a1.17,1.17,0,0,0,1.17-1.17Z"/><path class="cls-3" d="M432.78,237.06v-.79H434v-5.76a1.21,1.21,0,0,0-1.21-1.19h-2.11a1.21,1.21,0,0,0-1.21,1.19v5.76h1.24v.79H427.2v-.79h1.44v-7H427.2v-.79h1.67a.55.55,0,0,1,.43.2l.13.14a.6.6,0,0,0,.34.2c.49,0,.85-.59,2.41-.59h.61a1.87,1.87,0,0,1,2.09,1.93v5.87h1.44v.79Z"/><path class="cls-3" d="M449.11,237.06H442v-.79h1.44V225.68H442v-.79h3.75v.79H444.3v10.59h4.43V234.7h.86v1.94C449.59,236.86,449.49,237.06,449.11,237.06Z"/><path class="cls-3" d="M450.46,237.06v-.79h1.44v-7h-1.44v-.79h1.94a.37.37,0,0,1,.36.36v7.38h1.44v.79Zm2-10.51h-.18a.35.35,0,0,1-.34-.34v-1a.35.35,0,0,1,.34-.34h.18a.35.35,0,0,1,.34.34v1A.36.36,0,0,1,452.42,226.55Z"/><path class="cls-3" d="M461.26,237.06v-.79h1.24v-5.76a1.21,1.21,0,0,0-1.21-1.19h-2.11a1.21,1.21,0,0,0-1.21,1.19v5.76h1.24v.79h-3.55v-.79h1.44v-7h-1.44v-.79h1.67a.55.55,0,0,1,.43.2l.13.14a.6.6,0,0,0,.34.2c.49,0,.85-.59,2.41-.59h.61a1.87,1.87,0,0,1,2.09,1.93v5.87h1.44v.79Z"/><path class="cls-3" d="M473.46,237.06a.62.62,0,0,1-.49-.18l-.18-.18a.49.49,0,0,0-.32-.14c-.49,0-.9.56-2.45.56h-.61a1.84,1.84,0,0,1-2.05-1.93v-5.87h-1.44v-.79h2a.35.35,0,0,1,.31.32v6.23a1.21,1.21,0,0,0,1.21,1.19h2.11a1.21,1.21,0,0,0,1.21-1.19v-5.76H471.3v-.79h2a.35.35,0,0,1,.31.32v7.42H475v.79Z"/><path class="cls-3" d="M481.47,237.06v-.79h1l-2.27-3-2.27,3h1v.79h-3.2v-.79H477l2.75-3.62-2.54-3.33H476v-.79h3.17v.79h-1l2,2.68,2-2.68h-1v-.79h3.17v.79h-1.19l-2.54,3.33,2.75,3.62h1.21v.79Z"/><path class="cls-3" d="M392.17,285.07h-3.4a1.81,1.81,0,0,1-1.8-1.8v-8.57a1.81,1.81,0,0,1,1.8-1.8h4.54a.38.38,0,0,1,.4.34v1.93h-.86v-1.48H389a1.18,1.18,0,0,0-1.19,1.17v8.25a1.18,1.18,0,0,0,1.17,1.17h2.94a1.18,1.18,0,0,0,1.17-1.17v-1H394v1.17A1.81,1.81,0,0,1,392.17,285.07Z"/><path class="cls-3" d="M395.61,285.07v-.79h1.44V273.69h-1.44v-.79h2a.36.36,0,0,1,.34.36v11h1.44v.79Z"/><path class="cls-3" d="M405.85,285.07h-2.68a1.81,1.81,0,0,1-1.8-1.8v-4.93a1.81,1.81,0,0,1,1.8-1.8h2.68a1.79,1.79,0,0,1,1.8,1.8v4.93A1.79,1.79,0,0,1,405.85,285.07Zm.94-6.57a1.16,1.16,0,0,0-1.15-1.17h-2.21a1.18,1.18,0,0,0-1.19,1.17v4.61a1.18,1.18,0,0,0,1.17,1.17h2.21a1.17,1.17,0,0,0,1.17-1.17Z"/><path class="cls-3" d="M417,285.07a.63.63,0,0,1-.49-.18l-.18-.18a.49.49,0,0,0-.32-.14c-.49,0-.9.56-2.45.56H413a1.84,1.84,0,0,1-2.05-1.93v-5.87h-1.44v-.79h2a.35.35,0,0,1,.31.32v6.23a1.21,1.21,0,0,0,1.21,1.19h2.11a1.21,1.21,0,0,0,1.21-1.19v-5.76h-1.44v-.79h2a.35.35,0,0,1,.31.32v7.42h1.44v.79Z"/><path class="cls-3" d="M426.5,285.07a.72.72,0,0,1-.45-.18l-.14-.16a.52.52,0,0,0-.34-.16c-.49,0-.86.56-2.45.56h-.61a1.86,1.86,0,0,1-2.05-1.93V278.4a1.85,1.85,0,0,1,2.05-1.93h.61c1.58,0,2,.59,2.45.59.13,0,.27-.11.27-.34v-3h-1.44v-.79h1.93a.39.39,0,0,1,.38.38v11h1.44v.79Zm-.67-6.54a1.21,1.21,0,0,0-1.21-1.21h-2.11a1.21,1.21,0,0,0-1.21,1.21v4.54a1.21,1.21,0,0,0,1.21,1.21h2.11a1.21,1.21,0,0,0,1.21-1.21Z"/><path class="cls-3" d="M439.08,285.12h-.61c-1.58,0-2-.56-2.45-.56a.56.56,0,0,0-.34.16l-.14.14a.69.69,0,0,1-.45.2h-1.64v-.79h1.44V273.69h-1.44v-.79h1.93a.39.39,0,0,1,.38.38v3.46c0,.23.14.34.27.34.49,0,.86-.59,2.45-.59h.61a1.85,1.85,0,0,1,2.05,1.93v4.79A1.86,1.86,0,0,1,439.08,285.12Zm1.19-6.59a1.21,1.21,0,0,0-1.21-1.21H437a1.21,1.21,0,0,0-1.21,1.21v4.54a1.21,1.21,0,0,0,1.21,1.21h2.11a1.21,1.21,0,0,0,1.21-1.21Z"/><path class="cls-3" d="M449.4,285.07a.72.72,0,0,1-.45-.18l-.14-.16a.52.52,0,0,0-.34-.16c-.49,0-.86.56-2.45.56h-.61a1.86,1.86,0,0,1-2.05-1.93v-1.44a1.85,1.85,0,0,1,2.05-1.93H446c1.58,0,2,.59,2.45.59.13,0,.27-.11.27-.34v-1.6a1.16,1.16,0,0,0-1.17-1.15h-2.88a.34.34,0,0,1-.34-.32v-.14a.34.34,0,0,1,.34-.32h3.12a1.81,1.81,0,0,1,1.8,1.84v5.91h1.35v.79Zm-.67-3.19a1.21,1.21,0,0,0-1.21-1.21h-2.11a1.21,1.21,0,0,0-1.21,1.21v1.19a1.21,1.21,0,0,0,1.21,1.21h2.11a1.21,1.21,0,0,0,1.21-1.21Z"/><path class="cls-3" d="M457,285.07H454.4a1.81,1.81,0,0,1-1.8-1.8v-.41h.86v.25a1.18,1.18,0,0,0,1.17,1.17h2.09a1.17,1.17,0,0,0,1.17-1.19v-.68a1.17,1.17,0,0,0-1.17-1.17h-2.23a1.81,1.81,0,0,1-1.8-1.76v-1.15a1.8,1.8,0,0,1,1.8-1.78h3.19a.38.38,0,0,1,.4.34v1.82h-.86v-1.37h-2.49a1.18,1.18,0,0,0-1.17,1.17v.79a1.18,1.18,0,0,0,1.17,1.17H457a1.81,1.81,0,0,1,1.8,1.78v1A1.79,1.79,0,0,1,457,285.07Z"/><path class="cls-3" d="M466.66,281.23H462v1.85a1.17,1.17,0,0,0,1.19,1.19h2.75a.33.33,0,0,1,.34.32v.14a.33.33,0,0,1-.34.32h-3a1.8,1.8,0,0,1-1.8-1.8v-5a1.81,1.81,0,0,1,1.82-1.78h2.77a1.79,1.79,0,0,1,1.78,1.8v2.16A.71.71,0,0,1,466.66,281.23Zm-.05-2.74a1.14,1.14,0,0,0-1.17-1.17h-2.29a1.19,1.19,0,0,0-1.19,1.17v2h4.65Z"/><path class="cls-3" d="M475.75,285.07a.72.72,0,0,1-.45-.18l-.14-.16a.52.52,0,0,0-.34-.16c-.49,0-.86.56-2.45.56h-.61a1.86,1.86,0,0,1-2.05-1.93V278.4a1.85,1.85,0,0,1,2.05-1.93h.61c1.58,0,2,.59,2.45.59.13,0,.27-.11.27-.34v-3h-1.44v-.79h1.93a.39.39,0,0,1,.38.38v11h1.44v.79Zm-.67-6.54a1.21,1.21,0,0,0-1.21-1.21h-2.11a1.21,1.21,0,0,0-1.21,1.21v4.54a1.21,1.21,0,0,0,1.21,1.21h2.11a1.21,1.21,0,0,0,1.21-1.21Z"/><path class="cls-3" d="M392.17,301.23h-4.7v1.85a1.17,1.17,0,0,0,1.19,1.19h2.75a.33.33,0,0,1,.34.32v.14a.33.33,0,0,1-.34.32h-3a1.8,1.8,0,0,1-1.8-1.8v-5a1.81,1.81,0,0,1,1.82-1.78h2.77a1.79,1.79,0,0,1,1.78,1.8v2.16A.71.71,0,0,1,392.17,301.23Zm-.05-2.74a1.14,1.14,0,0,0-1.17-1.17h-2.29a1.19,1.19,0,0,0-1.19,1.17v2h4.65Z"/><path class="cls-3" d="M400.26,305.07v-.79h1.24v-5.76a1.21,1.21,0,0,0-1.21-1.19h-2.11a1.21,1.21,0,0,0-1.21,1.19v5.76h1.24v.79h-3.55v-.79h1.44v-7h-1.44v-.79h1.67a.55.55,0,0,1,.43.2l.13.14a.6.6,0,0,0,.34.2c.49,0,.85-.59,2.41-.59h.61a1.87,1.87,0,0,1,2.09,1.93v5.87h1.44v.79Z"/><path class="cls-3" d="M407.92,305.12a1.51,1.51,0,0,1-1.57-1.62v-6.18h-1A.34.34,0,0,1,405,297v-.14a.34.34,0,0,1,.34-.32h1v-3.29a.35.35,0,0,1,.34-.34h.18a.35.35,0,0,1,.34.34v3.29h2.13v.79h-2.12v6c0,.77.41,1,.9,1a3.54,3.54,0,0,0,1.42-.45v.76A3.26,3.26,0,0,1,407.92,305.12Z"/><path class="cls-3" d="M417.32,301.23h-4.7v1.85a1.17,1.17,0,0,0,1.19,1.19h2.75a.33.33,0,0,1,.34.32v.14a.33.33,0,0,1-.34.32h-3a1.8,1.8,0,0,1-1.8-1.8v-5a1.81,1.81,0,0,1,1.82-1.78h2.77a1.79,1.79,0,0,1,1.78,1.8v2.16A.71.71,0,0,1,417.32,301.23Zm-.05-2.74a1.14,1.14,0,0,0-1.17-1.17h-2.29a1.19,1.19,0,0,0-1.19,1.17v2h4.65Z"/><path class="cls-3" d="M426.14,297.32h-2.81a1.21,1.21,0,0,0-1.21,1.21v5.74h1.44v.79h-3.75v-.79h1.44v-7h-1.44v-.79h1.66a.53.53,0,0,1,.45.2l.13.14a.61.61,0,0,0,.34.2c.49,0,.77-.54,2.32-.54h1.42a.34.34,0,0,1,.34.32V297A.34.34,0,0,1,426.14,297.32Z"/><path class="cls-3" d="M432.71,305.12h-.61c-1.55,0-2-.58-2.48-.58-.18,0-.23.18-.23.4v3.66a.42.42,0,0,1-.47.43h-1.84v-.79h1.44V297.32h-1.44v-.79h1.67a.56.56,0,0,1,.43.18l.13.16a.55.55,0,0,0,.34.2c.49,0,.86-.59,2.45-.59h.61a1.86,1.86,0,0,1,2.05,1.93v4.79A1.86,1.86,0,0,1,432.71,305.12Zm1.19-6.59a1.21,1.21,0,0,0-1.21-1.21h-2.11a1.21,1.21,0,0,0-1.21,1.21v4.54a1.21,1.21,0,0,0,1.21,1.21h2.11a1.21,1.21,0,0,0,1.21-1.21Z"/><path class="cls-3" d="M443.1,297.32h-2.81a1.21,1.21,0,0,0-1.21,1.21v5.74h1.44v.79h-3.75v-.79h1.44v-7h-1.44v-.79h1.66a.53.53,0,0,1,.45.2l.13.14a.61.61,0,0,0,.34.2c.49,0,.77-.54,2.32-.54h1.42a.34.34,0,0,1,.34.32V297A.34.34,0,0,1,443.1,297.32Z"/><path class="cls-3" d="M444.39,305.07v-.79h1.44v-7h-1.44v-.79h1.94a.37.37,0,0,1,.36.36v7.38h1.44v.79Zm2-10.52h-.18a.35.35,0,0,1-.34-.34v-1a.35.35,0,0,1,.34-.34h.18a.35.35,0,0,1,.34.34v1A.36.36,0,0,1,446.35,294.55Z"/><path class="cls-3" d="M454.26,305.07h-2.58a1.81,1.81,0,0,1-1.8-1.8v-.41h.86v.25a1.18,1.18,0,0,0,1.17,1.17H454a1.17,1.17,0,0,0,1.17-1.19v-.68a1.17,1.17,0,0,0-1.17-1.17h-2.23a1.81,1.81,0,0,1-1.8-1.76v-1.15a1.8,1.8,0,0,1,1.8-1.78H455a.38.38,0,0,1,.4.34v1.82h-.86v-1.37H452a1.18,1.18,0,0,0-1.17,1.17v.79a1.18,1.18,0,0,0,1.17,1.17h2.23a1.81,1.81,0,0,1,1.8,1.78v1A1.79,1.79,0,0,1,454.26,305.07Z"/><path class="cls-3" d="M463.94,301.23h-4.7v1.85a1.17,1.17,0,0,0,1.19,1.19h2.75a.33.33,0,0,1,.34.32v.14a.33.33,0,0,1-.34.32h-3a1.8,1.8,0,0,1-1.8-1.8v-5a1.81,1.81,0,0,1,1.82-1.78H463a1.79,1.79,0,0,1,1.78,1.8v2.16A.71.71,0,0,1,463.94,301.23Zm-.05-2.74a1.14,1.14,0,0,0-1.17-1.17h-2.29a1.19,1.19,0,0,0-1.19,1.17v2h4.65Z"/><path class="cls-3" d="M471.09,305.07h-2.58a1.81,1.81,0,0,1-1.8-1.8v-.41h.86v.25a1.18,1.18,0,0,0,1.17,1.17h2.09a1.17,1.17,0,0,0,1.17-1.19v-.68a1.17,1.17,0,0,0-1.17-1.17H468.6a1.81,1.81,0,0,1-1.8-1.76v-1.15a1.8,1.8,0,0,1,1.8-1.78h3.19a.38.38,0,0,1,.4.34v1.82h-.86v-1.37h-2.48a1.18,1.18,0,0,0-1.17,1.17v.79a1.18,1.18,0,0,0,1.17,1.17h2.23a1.81,1.81,0,0,1,1.8,1.78v1A1.79,1.79,0,0,1,471.09,305.07Z"/><path class="cls-3" d="M486.22,305.07a.63.63,0,0,1-.49-.18l-.18-.18a.49.49,0,0,0-.32-.14c-.49,0-.9.56-2.45.56h-.61a1.84,1.84,0,0,1-2.05-1.93v-5.87h-1.44v-.79h2a.35.35,0,0,1,.31.32v6.23a1.21,1.21,0,0,0,1.21,1.19h2.11a1.21,1.21,0,0,0,1.21-1.19v-5.76h-1.44v-.79h2a.35.35,0,0,1,.31.32v7.42h1.44v.79Z"/><path class="cls-3" d="M493.75,305.07h-2.58a1.81,1.81,0,0,1-1.8-1.8v-.41h.86v.25a1.18,1.18,0,0,0,1.17,1.17h2.09a1.17,1.17,0,0,0,1.17-1.19v-.68a1.17,1.17,0,0,0-1.17-1.17h-2.23a1.81,1.81,0,0,1-1.8-1.76v-1.15a1.8,1.8,0,0,1,1.8-1.78h3.19a.38.38,0,0,1,.4.34v1.82H494v-1.37H491.5a1.18,1.18,0,0,0-1.17,1.17v.79a1.18,1.18,0,0,0,1.17,1.17h2.23a1.81,1.81,0,0,1,1.8,1.78v1A1.79,1.79,0,0,1,493.75,305.07Z"/><path class="cls-3" d="M503.43,301.23h-4.7v1.85a1.17,1.17,0,0,0,1.19,1.19h2.75a.33.33,0,0,1,.34.32v.14a.33.33,0,0,1-.34.32h-3a1.8,1.8,0,0,1-1.8-1.8v-5a1.81,1.81,0,0,1,1.82-1.78h2.77a1.79,1.79,0,0,1,1.78,1.8v2.16A.71.71,0,0,1,503.43,301.23Zm-.05-2.74a1.14,1.14,0,0,0-1.17-1.17h-2.29a1.19,1.19,0,0,0-1.19,1.17v2h4.65Z"/><path class="cls-3" d="M393.36,325.07h-7.11v-.79h1.44V313.69h-1.44v-.79H390v.79h-1.44v10.59H393v-1.57h.86v1.95C393.85,324.87,393.74,325.07,393.36,325.07Z"/><path class="cls-3" d="M394.71,325.07v-.79h1.44v-7h-1.44v-.79h1.94a.37.37,0,0,1,.36.36v7.38h1.44v.79Zm2-10.52h-.18a.35.35,0,0,1-.34-.34v-1a.35.35,0,0,1,.34-.34h.18a.35.35,0,0,1,.34.34v1A.36.36,0,0,1,396.67,314.55Z"/><path class="cls-3" d="M405.51,325.07v-.79h1.24v-5.76a1.21,1.21,0,0,0-1.21-1.19h-2.11a1.21,1.21,0,0,0-1.21,1.19v5.76h1.24v.79h-3.55v-.79h1.44v-7h-1.44v-.79h1.67a.55.55,0,0,1,.43.2l.13.14a.6.6,0,0,0,.34.2c.49,0,.85-.59,2.41-.59h.61a1.87,1.87,0,0,1,2.09,1.93v5.87h1.44v.79Z"/><path class="cls-3" d="M417.72,325.07a.63.63,0,0,1-.49-.18l-.18-.18a.49.49,0,0,0-.32-.14c-.49,0-.9.56-2.45.56h-.61a1.84,1.84,0,0,1-2.05-1.93v-5.87h-1.44v-.79h2a.35.35,0,0,1,.31.32v6.23a1.21,1.21,0,0,0,1.21,1.19h2.11a1.21,1.21,0,0,0,1.21-1.19v-5.76h-1.44v-.79h2a.35.35,0,0,1,.31.32v7.42h1.44v.79Z"/><path class="cls-3" d="M425.73,325.07v-.79h1l-2.27-3-2.27,3h1v.79H420v-.79h1.21l2.75-3.62-2.54-3.33h-1.19v-.79h3.17v.79h-1l2,2.68,2-2.68h-1v-.79h3.17v.79h-1.19L425,320.65l2.75,3.62h1.21v.79Z"/><path class="cls-3" d="M439.5,325.12h-.61c-1.55,0-2-.58-2.48-.58-.18,0-.23.18-.23.4v3.66a.42.42,0,0,1-.47.43h-1.84v-.79h1.44V317.32h-1.44v-.79h1.67a.56.56,0,0,1,.43.18l.13.16a.55.55,0,0,0,.34.2c.49,0,.86-.59,2.45-.59h.61a1.86,1.86,0,0,1,2.05,1.93v4.79A1.86,1.86,0,0,1,439.5,325.12Zm1.19-6.59a1.21,1.21,0,0,0-1.21-1.21h-2.11a1.21,1.21,0,0,0-1.21,1.21v4.54a1.21,1.21,0,0,0,1.21,1.21h2.11a1.21,1.21,0,0,0,1.21-1.21Z"/><path class="cls-3" d="M449.88,317.32h-2.81a1.21,1.21,0,0,0-1.21,1.21v5.74h1.44v.79h-3.75v-.79H445v-7h-1.44v-.79h1.66a.53.53,0,0,1,.45.2l.13.14a.61.61,0,0,0,.34.2c.49,0,.77-.54,2.32-.54h1.42a.34.34,0,0,1,.34.32V317A.34.34,0,0,1,449.88,317.32Z"/><path class="cls-3" d="M451.18,325.07v-.79h1.44v-7h-1.44v-.79h1.94a.37.37,0,0,1,.36.36v7.38h1.44v.79Zm2-10.52H453a.35.35,0,0,1-.34-.34v-1a.35.35,0,0,1,.34-.34h.18a.35.35,0,0,1,.34.34v1A.36.36,0,0,1,453.14,314.55Z"/><path class="cls-3" d="M466.5,325.07v-.79h1v-5.78a1.17,1.17,0,0,0-1.17-1.17h-1.64a1.17,1.17,0,0,0-1.17,1.17v5.78h1v.79h-2.92v-.79h1v-5.78a1.17,1.17,0,0,0-1.17-1.17h-1.64a1.17,1.17,0,0,0-1.17,1.17v5.78h1v.79H456.4v-.79h1.44v-7H456.4v-.79h1.67a.65.65,0,0,1,.43.2l.13.14a.61.61,0,0,0,.34.2c.49,0,.9-.59,2.27-.59h.13c1.22,0,1.42.59,2.3.59s1-.59,2.41-.59h.13a2,2,0,0,1,2.18,1.94v5.85h1.44v.79Z"/><path class="cls-3" d="M477.37,325.07a.72.72,0,0,1-.45-.18l-.14-.16a.52.52,0,0,0-.34-.16c-.49,0-.86.56-2.45.56h-.61a1.86,1.86,0,0,1-2.05-1.93v-1.44a1.85,1.85,0,0,1,2.05-1.93H474c1.58,0,2,.59,2.45.59.13,0,.27-.11.27-.34v-1.6a1.16,1.16,0,0,0-1.17-1.15h-2.88a.34.34,0,0,1-.34-.32v-.14a.34.34,0,0,1,.34-.32h3.12a1.81,1.81,0,0,1,1.8,1.84v5.91h1.35v.79Zm-.67-3.19a1.21,1.21,0,0,0-1.21-1.21h-2.11a1.21,1.21,0,0,0-1.21,1.21v1.19a1.21,1.21,0,0,0,1.21,1.21h2.11a1.21,1.21,0,0,0,1.21-1.21Z"/><path class="cls-3" d="M486.62,317.32h-2.81a1.21,1.21,0,0,0-1.21,1.21v5.74H484v.79H480.3v-.79h1.44v-7H480.3v-.79H482a.53.53,0,0,1,.45.2l.13.14a.61.61,0,0,0,.34.2c.49,0,.77-.54,2.32-.54h1.42a.34.34,0,0,1,.34.32V317A.34.34,0,0,1,486.62,317.32Z"/><path class="cls-3" d="M487.91,325.07v-.79h1.44v-7h-1.44v-.79h1.94a.37.37,0,0,1,.36.36v7.38h1.44v.79Zm2-10.52h-.18a.35.35,0,0,1-.34-.34v-1a.35.35,0,0,1,.34-.34h.18a.35.35,0,0,1,.34.34v1A.36.36,0,0,1,489.88,314.55Z"/><path class="cls-3" d="M493.13,325.07v-.79h1.44V313.69h-1.44v-.79h2a.36.36,0,0,1,.34.36v11h1.44v.79Z"/><path class="cls-3" d="M506.15,317.32l-4.39,10.89a1.49,1.49,0,0,1-1.39.86,2.87,2.87,0,0,1-1.57-.52v-.79a3.11,3.11,0,0,0,1.35.47.92.92,0,0,0,1-.61l1-2.56a.71.71,0,0,1-.38-.4l-3-7.35H497.6v-.79h3.13v.79h-1l2.79,6.9,2.79-6.9h-1v-.79h3.13v.79Z"/><line class="cls-4" x1="108.81" y1="4.09" x2="108.81" y2="50.39"/><line class="cls-5" x1="208.88" y1="238.81" x2="1.41" y2="238.81"/><line class="cls-5" x1="208.88" y1="121.21" x2="1.41" y2="121.21"/><line class="cls-5" x1="261.17" y1="332.69" x2="258.9" y2="4.09"/><circle class="cls-6" cx="329.89" cy="299.5" r="33.19"/><circle class="cls-6" cx="329.89" cy="211.49" r="33.19"/><circle class="cls-6" cx="329.89" cy="123.53" r="33.19"/><circle class="cls-6" cx="329.89" cy="35.57" r="33.19"/><path class="cls-3" d="M317,43.57h-5a.64.64,0,0,1-.69-.64v-.25a.64.64,0,0,1,.69-.64h4.28c1.12,0,1.58-.62,1.58-1.72V35.86a2.06,2.06,0,0,1-1.49.75h-3.13A2.63,2.63,0,0,1,310.75,34V30.57a2.44,2.44,0,0,1,2.49-2.47h3.87a2.44,2.44,0,0,1,2.49,2.47V40.89A2.52,2.52,0,0,1,317,43.57Zm.89-12.69a1.25,1.25,0,0,0-1.26-1.24h-2.93a1.27,1.27,0,0,0-1.28,1.24v3a1.29,1.29,0,0,0,1.28,1.26h2.93a1.27,1.27,0,0,0,1.26-1.26Z"/><path class="cls-3" d="M328.38,43.57h-3A2.57,2.57,0,0,1,322.85,41V39.68h1.69v1.1A1.23,1.23,0,0,0,325.77,42H328a1.37,1.37,0,0,0,1.37-1.35V37.55a1,1,0,0,0-1-.94H323.1V29a.85.85,0,0,1,1-.94h5.56a.66.66,0,0,1,.71.64V29a.65.65,0,0,1-.69.64h-4.85v5.44h4.51A1.76,1.76,0,0,1,331,36.93v4A2.54,2.54,0,0,1,328.38,43.57Z"/><path class="cls-3" d="M337.46,36.59h-1.78a1.84,1.84,0,0,1-1.85-1.83V29.93a1.84,1.84,0,0,1,1.83-1.83h1.78a1.82,1.82,0,0,1,1.83,1.83v4.83A1.82,1.82,0,0,1,337.46,36.59Zm.46-6.66a.57.57,0,0,0-.57-.57h-1.6a.57.57,0,0,0-.57.57v4.8a.59.59,0,0,0,.57.59h1.6a.59.59,0,0,0,.57-.59ZM346,28.68l-8.65,14.87a.41.41,0,0,1-.55.16l-.32-.18a.38.38,0,0,1-.21-.34.41.41,0,0,1,0-.23L345,28.08a.42.42,0,0,1,.32-.21.66.66,0,0,1,.23,0l.32.18a.44.44,0,0,1,.21.37A.66.66,0,0,1,346,28.68Zm.73,14.89H345a1.84,1.84,0,0,1-1.83-1.83V36.91A1.83,1.83,0,0,1,345,35.08h1.78a1.83,1.83,0,0,1,1.83,1.83v4.83A1.83,1.83,0,0,1,346.77,43.57Zm.48-6.66a.57.57,0,0,0-.57-.57h-1.6a.57.57,0,0,0-.57.57v4.8a.59.59,0,0,0,.57.59h1.6a.59.59,0,0,0,.57-.59Z"/><path class="cls-7" d="M340.58,4.14a33.15,33.15,0,0,0-10.69-1.76"/><path class="cls-3" d="M317.17,131.53H313.4a2.51,2.51,0,0,1-2.54-2.49v-3.18a1.91,1.91,0,0,1,1.19-2.06,1.81,1.81,0,0,1-1-1.87v-3.41a2.45,2.45,0,0,1,2.52-2.45H317a2.45,2.45,0,0,1,2.52,2.45v3.41a1.85,1.85,0,0,1-1,1.88,2,2,0,0,1,1.19,2.06V129A2.51,2.51,0,0,1,317.17,131.53Zm.85-5.7a1.25,1.25,0,0,0-1.26-1.26h-3a1.25,1.25,0,0,0-1.26,1.23v2.93a1.25,1.25,0,0,0,1.26,1.26h3a1.25,1.25,0,0,0,1.26-1.26Zm-.18-7a1.24,1.24,0,0,0-1.26-1.24H314a1.23,1.23,0,0,0-1.24,1.24v3A1.25,1.25,0,0,0,314,123h2.61a1.25,1.25,0,0,0,1.26-1.26Z"/><path class="cls-3" d="M328.79,131.53h-3.68A2.57,2.57,0,0,1,322.5,129V118.58a2.57,2.57,0,0,1,2.61-2.52h3.68a2.55,2.55,0,0,1,2.56,2.52V129A2.55,2.55,0,0,1,328.79,131.53Zm.87-12.42a1.38,1.38,0,0,0-1.37-1.51h-2.77a1.35,1.35,0,0,0-1.33,1.51v9.38a1.35,1.35,0,0,0,1.33,1.51h2.77a1.38,1.38,0,0,0,1.37-1.51Z"/><path class="cls-3" d="M337.46,124.55h-1.78a1.84,1.84,0,0,1-1.85-1.83V117.9a1.83,1.83,0,0,1,1.83-1.83h1.78a1.82,1.82,0,0,1,1.83,1.83v4.83A1.82,1.82,0,0,1,337.46,124.55Zm.46-6.66a.57.57,0,0,0-.57-.57h-1.6a.57.57,0,0,0-.57.57v4.8a.59.59,0,0,0,.57.59h1.6a.59.59,0,0,0,.57-.59Zm8.12-1.26-8.65,14.87a.37.37,0,0,1-.32.21.37.37,0,0,1-.23,0l-.32-.18a.38.38,0,0,1-.21-.34.41.41,0,0,1,0-.23L345,116a.42.42,0,0,1,.32-.21.68.68,0,0,1,.23,0l.32.18a.44.44,0,0,1,.21.37A.65.65,0,0,1,346,116.64Zm.73,14.89H345a1.84,1.84,0,0,1-1.83-1.83v-4.83A1.84,1.84,0,0,1,345,123h1.78a1.83,1.83,0,0,1,1.83,1.83v4.83A1.83,1.83,0,0,1,346.77,131.53Zm.48-6.66a.57.57,0,0,0-.57-.57h-1.6a.57.57,0,0,0-.57.57v4.8a.59.59,0,0,0,.57.59h1.6a.59.59,0,0,0,.57-.59Z"/><path class="cls-7" d="M361.24,112.62a33.2,33.2,0,0,0-31.36-22.28"/><path class="cls-3" d="M317,219.49h-5a.64.64,0,0,1-.69-.64v-.25a.64.64,0,0,1,.69-.64h4.28c1.12,0,1.58-.62,1.58-1.72v-4.46a2.06,2.06,0,0,1-1.49.75h-3.13a2.63,2.63,0,0,1-2.54-2.65V206.5a2.44,2.44,0,0,1,2.49-2.47h3.87a2.44,2.44,0,0,1,2.49,2.47v10.32A2.52,2.52,0,0,1,317,219.49Zm.89-12.69a1.25,1.25,0,0,0-1.26-1.24h-2.93a1.27,1.27,0,0,0-1.28,1.24v3a1.29,1.29,0,0,0,1.28,1.26h2.93a1.27,1.27,0,0,0,1.26-1.26Z"/><path class="cls-3" d="M328.66,219.49h-5a.64.64,0,0,1-.69-.64v-.25a.64.64,0,0,1,.69-.64H328c1.12,0,1.58-.62,1.58-1.72v-4.46a2.06,2.06,0,0,1-1.49.75h-3.13a2.63,2.63,0,0,1-2.54-2.65V206.5a2.44,2.44,0,0,1,2.49-2.47h3.87a2.44,2.44,0,0,1,2.49,2.47v10.32A2.52,2.52,0,0,1,328.66,219.49Zm.89-12.69a1.25,1.25,0,0,0-1.26-1.24h-2.93a1.27,1.27,0,0,0-1.28,1.24v3a1.29,1.29,0,0,0,1.28,1.26h2.93a1.27,1.27,0,0,0,1.26-1.26Z"/><path class="cls-3" d="M337.46,212.51h-1.78a1.84,1.84,0,0,1-1.85-1.83v-4.83a1.84,1.84,0,0,1,1.83-1.83h1.78a1.82,1.82,0,0,1,1.83,1.83v4.83A1.82,1.82,0,0,1,337.46,212.51Zm.46-6.66a.57.57,0,0,0-.57-.57h-1.6a.57.57,0,0,0-.57.57v4.8a.59.59,0,0,0,.57.59h1.6a.59.59,0,0,0,.57-.59ZM346,204.6l-8.65,14.87a.41.41,0,0,1-.55.16l-.32-.18a.38.38,0,0,1-.21-.34.41.41,0,0,1,0-.23L345,204a.42.42,0,0,1,.32-.21.66.66,0,0,1,.23,0l.32.18a.44.44,0,0,1,.21.37A.66.66,0,0,1,346,204.6Zm.73,14.89H345a1.84,1.84,0,0,1-1.83-1.83v-4.83A1.83,1.83,0,0,1,345,211h1.78a1.83,1.83,0,0,1,1.83,1.83v4.83A1.83,1.83,0,0,1,346.77,219.49Zm.48-6.66a.57.57,0,0,0-.57-.57h-1.6a.57.57,0,0,0-.57.57v4.8a.59.59,0,0,0,.57.59h1.6a.59.59,0,0,0,.57-.59Z"/><path class="cls-7" d="M331.9,178.36q-1-.06-2-.06"/><path class="cls-3" d="M319.44,293.52l-4.28,13.68a.56.56,0,0,1-.59.37,1.16,1.16,0,0,1-.25,0l-.27-.09a.55.55,0,0,1-.41-.53,1.55,1.55,0,0,1,.07-.34l4.07-13h-5.19v2h-1.69v-2.88a.63.63,0,0,1,.66-.64h7.37a.72.72,0,0,1,.69.78A5.53,5.53,0,0,1,319.44,293.52Z"/><path class="cls-3" d="M328.38,307.5h-3a2.57,2.57,0,0,1-2.56-2.54v-1.35h1.69v1.1a1.23,1.23,0,0,0,1.24,1.26H328a1.37,1.37,0,0,0,1.37-1.35v-3.13a1,1,0,0,0-1-.94H323.1V293a.85.85,0,0,1,1-.94h5.56a.66.66,0,0,1,.71.64v.25a.65.65,0,0,1-.69.64h-4.85V299h4.51a1.76,1.76,0,0,1,1.74,1.85v4A2.54,2.54,0,0,1,328.38,307.5Z"/><path class="cls-3" d="M337.46,300.52h-1.78a1.84,1.84,0,0,1-1.85-1.83v-4.83a1.83,1.83,0,0,1,1.83-1.83h1.78a1.82,1.82,0,0,1,1.83,1.83v4.83A1.82,1.82,0,0,1,337.46,300.52Zm.46-6.66a.57.57,0,0,0-.57-.57h-1.6a.57.57,0,0,0-.57.57v4.8a.59.59,0,0,0,.57.59h1.6a.59.59,0,0,0,.57-.59Zm8.12-1.26-8.65,14.87a.37.37,0,0,1-.32.21.37.37,0,0,1-.23,0l-.32-.18a.38.38,0,0,1-.21-.34.41.41,0,0,1,0-.23L345,292a.42.42,0,0,1,.32-.21.68.68,0,0,1,.23,0l.32.18a.44.44,0,0,1,.21.37A.65.65,0,0,1,346,292.61Zm.73,14.89H345a1.84,1.84,0,0,1-1.83-1.83v-4.83A1.84,1.84,0,0,1,345,299h1.78a1.83,1.83,0,0,1,1.83,1.83v4.83A1.83,1.83,0,0,1,346.77,307.5Zm.48-6.66a.57.57,0,0,0-.57-.57h-1.6a.57.57,0,0,0-.57.57v4.8a.59.59,0,0,0,.57.59h1.6a.59.59,0,0,0,.57-.59Z"/><path class="cls-7" d="M363.08,299.5a33.19,33.19,0,0,0-33.19-33.19"/></svg>