<?xml version="1.0" encoding="utf-8"?>
<!-- Generator: Adobe Illustrator 22.0.0, SVG Export Plug-In . SVG Version: 6.00 Build 0)  -->
<svg version="1.1" id="Layer_1" xmlns="http://www.w3.org/2000/svg" xmlns:xlink="http://www.w3.org/1999/xlink" x="0px" y="0px"
	 viewBox="0 0 1138 739.4" style="enable-background:new 0 0 1138 739.4;" xml:space="preserve">
<style type="text/css">
	.st0{clip-path:url(#SVGID_2_);}
	.st1{enable-background:new    ;}
	.st2{fill:#00FF00;}
	.st3{fill:none;stroke:#FFFFFF;stroke-width:4;}
	.st4{fill:none;stroke:#00FF00;stroke-width:3;}
	.st5{clip-path:url(#SVGID_4_);}
	.st6{fill:#FFFFFF;}
</style>
<title>Artboard 10</title>
<g>
	<defs>
		<rect id="SVGID_1_" width="1138" height="809"/>
	</defs>
	<clipPath id="SVGID_2_">
		<use xlink:href="#SVGID_1_"  style="overflow:visible;"/>
	</clipPath>
	<g class="st0">
		<g class="st1">
			<path class="st2" d="M804,276.1h-19.4V274h3.9v-28.8h-3.9V243h10.2v2.2h-3.9V274h12.1v-4.3h2.4v5.3
				C805.3,275.6,805,276.1,804,276.1z"/>
			<path class="st2" d="M807.6,276.1V274h3.9v-18.9h-3.9v-2.2h5.3c0.5,0,1,0.5,1,1V274h3.9v2.2H807.6z M813,247.5h-0.5
				c-0.5,0-0.9-0.4-0.9-0.9v-2.6c0-0.5,0.4-0.9,0.9-0.9h0.5c0.5,0,0.9,0.4,0.9,0.9v2.6C813.9,247.1,813.5,247.5,813,247.5z"/>
			<path class="st2" d="M837,276.1V274h3.4v-15.7c0-1.6-1.3-3.2-3.3-3.2h-5.7c-2,0-3.3,1.7-3.3,3.2V274h3.4v2.2h-9.7V274h3.9v-18.9
				h-3.9v-2.2h4.6c0.5,0,0.9,0.2,1.2,0.5l0.3,0.4c0.2,0.2,0.6,0.5,0.9,0.5c1.3,0,2.3-1.6,6.6-1.6h1.7c4.2,0,5.7,2.7,5.7,5.2v16h3.9
				v2.2H837z"/>
			<path class="st2" d="M870.3,276.1c-0.6,0-1-0.1-1.3-0.5l-0.5-0.5c-0.2-0.2-0.5-0.4-0.9-0.4c-1.3,0-2.5,1.5-6.7,1.5h-1.7
				c-4.2,0-5.6-2.7-5.6-5.2v-16h-3.9v-2.2h5.4c0.4,0,0.8,0.5,0.8,0.9v17c0,1.6,1.3,3.2,3.3,3.2h5.7c2,0,3.3-1.7,3.3-3.2v-15.7h-3.9
				v-2.2h5.4c0.4,0,0.8,0.5,0.8,0.9V274h3.9v2.2H870.3z"/>
			<path class="st2" d="M890.7,276.1h-7c-2.7,0-4.9-2.2-4.9-4.9v-1.1h2.4v0.7c0,1.8,1.5,3.2,3.2,3.2h5.7c1.8,0,3.2-1.4,3.2-3.2v-1.9
				c0-1.8-1.4-3.2-3.2-3.2H884c-2.7,0-4.9-2.3-4.9-4.8v-3.1c0-2.5,2.1-4.9,4.9-4.9h8.7c0.6,0,1.1,0.4,1.1,0.9v4.9h-2.4v-3.7h-6.8
				c-1.6,0-3.2,1.3-3.2,3.2v2.2c0,1.9,1.6,3.2,3.2,3.2h6.1c2.7,0,4.9,2.3,4.9,4.9v2.8C895.6,273.9,893.4,276.1,890.7,276.1z"/>
			<path class="st2" d="M931.8,265.7v5.5c0,2.7-2.2,4.9-4.9,4.9h-7.8c-2.7,0-4.9-2.2-4.9-4.9v-9.7c0-1.2,0.4-3,2.7-3.7
				c-1.8-0.6-2.4-2.5-2.4-3.5v-6.5c0-2.7,2.2-4.9,4.9-4.9h9c0.8,0,1.4,0.4,1.4,1.3v4.9h-2.4v-4h-7.6c-1.8,0-3,1.4-3,3.2v5.3
				c0,2,1.6,3.3,3.4,3.3h4.1v2.2h-4.6c-1.8,0-3.2,1.4-3.2,3.2v8.5c0,1.8,1.5,3.2,3.2,3.2h6.5c1.8,0,3.2-1.4,3.2-3.2v-5h-2.3
				c-0.5,0-0.9-0.4-0.9-0.9v-0.4c0-0.5,0.4-0.9,0.9-0.9h8.2v2.2H931.8z"/>
			<path class="st2" d="M967.1,276.1V274h3.4v-13.4h-14.4V274h3.4v2.2h-9.7V274h3.9v-28.8h-3.9V243h9.7v2.2h-3.4v13.3h14.4v-13.3
				h-3.4V243h9.7v2.2h-3.9V274h3.9v2.2H967.1z"/>
			<path class="st2" d="M981.7,276.1V274h3.9v-18.9h-3.9v-2.2h5.3c0.5,0,1,0.5,1,1V274h3.9v2.2H981.7z M987.1,247.5h-0.5
				c-0.5,0-0.9-0.4-0.9-0.9v-2.6c0-0.5,0.4-0.9,0.9-0.9h0.5c0.5,0,0.9,0.4,0.9,0.9v2.6C988,247.1,987.6,247.5,987.1,247.5z"/>
			<path class="st2" d="M1008.6,276.1h-7c-2.7,0-4.9-2.2-4.9-4.9v-1.1h2.4v0.7c0,1.8,1.5,3.2,3.2,3.2h5.7c1.8,0,3.2-1.4,3.2-3.2
				v-1.9c0-1.8-1.4-3.2-3.2-3.2h-6.1c-2.7,0-4.9-2.3-4.9-4.8v-3.1c0-2.5,2.1-4.9,4.9-4.9h8.7c0.6,0,1.1,0.4,1.1,0.9v4.9h-2.4v-3.7
				h-6.8c-1.6,0-3.2,1.3-3.2,3.2v2.2c0,1.9,1.6,3.2,3.2,3.2h6.1c2.7,0,4.9,2.3,4.9,4.9v2.8C1013.4,273.9,1011.3,276.1,1008.6,276.1z
				"/>
		</g>
		<g class="st1">
			<path class="st2" d="M1048.9,249.2v-4h-7.8V274h3.9v2.2h-10.2V274h3.9v-28.8h-7.8v4h-2.4v-5.2c0-0.4,0.4-0.9,1-0.9h20.7
				c0.6,0,1,0.5,1,0.9v5.2H1048.9z"/>
		</g>
		<g class="st1">
			<path class="st2" d="M1068.1,265.7h-12.8v5c0,2,1.6,3.2,3.2,3.2h7.5c0.5,0,0.9,0.4,0.9,0.9v0.4c0,0.5-0.4,0.9-0.9,0.9h-8.2
				c-2.5,0-4.9-2-4.9-4.9v-13.5c0-2.7,2.3-4.9,4.9-4.9h7.5c2.6,0,4.9,2.2,4.9,4.9v5.9C1070.3,264.9,1069.6,265.7,1068.1,265.7z
				 M1068,258.2c0-1.7-1.2-3.2-3.2-3.2h-6.2c-1.9,0-3.2,1.6-3.2,3.2v5.3h12.6V258.2z"/>
			<path class="st2" d="M1091.9,276.1c-0.4,0-1-0.2-1.2-0.5l-0.4-0.4c-0.1-0.2-0.6-0.4-0.9-0.4c-1.3,0-2.4,1.5-6.7,1.5h-1.7
				c-3.8,0-5.6-2.4-5.6-5.2v-3.9c0-2.9,1.8-5.2,5.6-5.2h1.7c4.3,0,5.3,1.6,6.7,1.6c0.3,0,0.7-0.3,0.7-0.9v-4.4
				c0-1.5-1.2-3.1-3.2-3.1h-7.8c-0.5,0-0.9-0.4-0.9-0.9v-0.4c0-0.5,0.4-0.9,0.9-0.9h8.5c2.7,0,4.9,2.3,4.9,5V274h3.7v2.2H1091.9z
				 M1090.1,267.5c0-1.8-1.5-3.3-3.3-3.3h-5.7c-1.8,0-3.3,1.5-3.3,3.3v3.2c0,1.8,1.5,3.3,3.3,3.3h5.7c1.8,0,3.3-1.5,3.3-3.3V267.5z"
				/>
			<path class="st2" d="M1127.4,276.1V274h2.8v-15.7c0-1.7-1.4-3.2-3.2-3.2h-4.5c-1.8,0-3.2,1.5-3.2,3.2V274h2.8v2.2h-7.9V274h2.8
				v-15.7c0-1.7-1.4-3.2-3.2-3.2h-4.5c-1.8,0-3.2,1.5-3.2,3.2V274h2.8v2.2h-9.1V274h3.9v-18.9h-3.9v-2.2h4.6c0.5,0,1,0.3,1.2,0.5
				l0.3,0.4c0.2,0.2,0.6,0.5,0.9,0.5c1.3,0,2.5-1.6,6.2-1.6h0.3c3.3,0,3.9,1.6,6.3,1.6c2.1,0,2.6-1.6,6.6-1.6h0.3
				c3.4,0,5.9,2.4,5.9,5.3V274h3.9v2.2H1127.4z"/>
		</g>
		<circle class="st3" cx="52.5" cy="52.5" r="50.5"/>
		<circle class="st3" cx="80.5" cy="203.5" r="50.5"/>
		<circle class="st3" cx="240.5" cy="73.5" r="50.5"/>
		<circle class="st3" cx="200.5" cy="275.5" r="50.5"/>
		<circle class="st3" cx="176.5" cy="477.5" r="50.5"/>
		<circle class="st3" cx="336.5" cy="380.5" r="50.5"/>
		<circle class="st3" cx="336.5" cy="213.5" r="50.5"/>
		<circle class="st3" cx="428.5" cy="73.5" r="50.5"/>
		<circle class="st3" cx="472.5" cy="485.5" r="50.5"/>
		<circle class="st3" cx="533.5" cy="297.5" r="50.5"/>
		<circle class="st3" cx="52.5" cy="395.5" r="50.5"/>
	</g>
</g>
<line class="st4" x1="533.5" y1="297.5" x2="761" y2="260"/>
<line class="st4" x1="200.5" y1="275.5" x2="761.1" y2="263.2"/>
<line class="st4" x1="52.5" y1="395.5" x2="761" y2="260.7"/>
<line class="st4" x1="176.5" y1="478.5" x2="761" y2="260.7"/>
<line class="st4" x1="336.5" y1="380.5" x2="761" y2="263.2"/>
<line class="st4" x1="472.5" y1="485.5" x2="761" y2="260.8"/>
<line class="st4" x1="428.5" y1="73.5" x2="761.4" y2="261"/>
<line class="st4" x1="80.5" y1="203.5" x2="761.4" y2="260.8"/>
<line class="st4" x1="52.5" y1="52.5" x2="761.4" y2="260.7"/>
<line class="st4" x1="240.5" y1="73.5" x2="761.4" y2="260.8"/>
<line class="st4" x1="336.5" y1="213.5" x2="761.4" y2="261"/>
<g class="st1">
	<path class="st2" d="M23.9,703.6H4.5v-2.2h3.9v-28.8H4.5v-2.2h10.2v2.2h-3.9v28.8h12.1v-4.3h2.4v5.3
		C25.2,703.1,24.9,703.6,23.9,703.6z"/>
	<path class="st2" d="M27.5,703.6v-2.2h3.9v-18.9h-3.9v-2.2h5.3c0.5,0,1,0.5,1,1v20.1h3.9v2.2H27.5z M32.9,675h-0.5
		c-0.5,0-0.9-0.4-0.9-0.9v-2.6c0-0.5,0.4-0.9,0.9-0.9h0.5c0.5,0,0.9,0.4,0.9,0.9v2.6C33.8,674.6,33.4,675,32.9,675z"/>
	<path class="st2" d="M56.9,703.6v-2.2h3.4v-15.7c0-1.6-1.3-3.2-3.3-3.2h-5.7c-2,0-3.3,1.7-3.3,3.2v15.7h3.4v2.2h-9.7v-2.2h3.9
		v-18.9h-3.9v-2.2h4.6c0.5,0,0.9,0.2,1.2,0.5l0.3,0.4c0.2,0.2,0.6,0.5,0.9,0.5c1.3,0,2.3-1.6,6.6-1.6H57c4.2,0,5.7,2.7,5.7,5.2v16
		h3.9v2.2H56.9z"/>
	<path class="st2" d="M90.1,703.6c-0.6,0-1-0.1-1.3-0.5l-0.5-0.5c-0.2-0.2-0.5-0.4-0.9-0.4c-1.3,0-2.4,1.5-6.7,1.5h-1.7
		c-4.2,0-5.6-2.7-5.6-5.2v-16h-3.9v-2.2h5.4c0.4,0,0.8,0.5,0.8,0.9v17c0,1.6,1.3,3.2,3.3,3.2h5.7c2,0,3.3-1.7,3.3-3.2v-15.7h-3.9
		v-2.2h5.4c0.4,0,0.8,0.5,0.8,0.9v20.2h3.9v2.2H90.1z"/>
	<path class="st2" d="M110.6,703.6h-7c-2.7,0-4.9-2.2-4.9-4.9v-1.1h2.4v0.7c0,1.8,1.5,3.2,3.2,3.2h5.7c1.8,0,3.2-1.4,3.2-3.2v-1.9
		c0-1.8-1.4-3.2-3.2-3.2h-6.1c-2.7,0-4.9-2.3-4.9-4.8v-3.1c0-2.5,2.1-4.9,4.9-4.9h8.7c0.6,0,1.1,0.4,1.1,0.9v4.9h-2.4v-3.7h-6.8
		c-1.6,0-3.2,1.3-3.2,3.2v2.2c0,1.9,1.6,3.2,3.2,3.2h6.1c2.7,0,4.9,2.3,4.9,4.9v2.8C115.5,701.4,113.3,703.6,110.6,703.6z"/>
	<path class="st2" d="M151.6,693.2v5.5c0,2.7-2.2,4.9-4.9,4.9H139c-2.7,0-4.9-2.2-4.9-4.9v-9.7c0-1.2,0.4-3,2.7-3.7
		c-1.8-0.6-2.4-2.5-2.4-3.5v-6.5c0-2.7,2.2-4.9,4.9-4.9h9c0.8,0,1.4,0.4,1.4,1.3v4.9h-2.4v-4h-7.6c-1.8,0-3,1.4-3,3.2v5.3
		c0,2,1.6,3.3,3.4,3.3h4.1v2.2h-4.6c-1.8,0-3.2,1.4-3.2,3.2v8.5c0,1.8,1.5,3.2,3.2,3.2h6.5c1.8,0,3.2-1.4,3.2-3.2v-5H147
		c-0.5,0-0.9-0.4-0.9-0.9V692c0-0.5,0.4-0.9,0.9-0.9h8.2v2.2H151.6z"/>
	<path class="st2" d="M187,703.6v-2.2h3.4v-13.4h-14.4v13.4h3.4v2.2h-9.7v-2.2h3.9v-28.8h-3.9v-2.2h9.7v2.2h-3.4v13.3h14.4v-13.3
		H187v-2.2h9.7v2.2h-3.9v28.8h3.9v2.2H187z"/>
	<path class="st2" d="M201.6,703.6v-2.2h3.9v-18.9h-3.9v-2.2h5.3c0.5,0,1,0.5,1,1v20.1h3.9v2.2H201.6z M207,675h-0.5
		c-0.5,0-0.9-0.4-0.9-0.9v-2.6c0-0.5,0.4-0.9,0.9-0.9h0.5c0.5,0,0.9,0.4,0.9,0.9v2.6C207.9,674.6,207.5,675,207,675z"/>
	<path class="st2" d="M228.5,703.6h-7c-2.7,0-4.9-2.2-4.9-4.9v-1.1h2.4v0.7c0,1.8,1.5,3.2,3.2,3.2h5.7c1.8,0,3.2-1.4,3.2-3.2v-1.9
		c0-1.8-1.4-3.2-3.2-3.2h-6.1c-2.7,0-4.9-2.3-4.9-4.8v-3.1c0-2.5,2.1-4.9,4.9-4.9h8.7c0.6,0,1.1,0.4,1.1,0.9v4.9h-2.4v-3.7h-6.8
		c-1.6,0-3.2,1.3-3.2,3.2v2.2c0,1.9,1.6,3.2,3.2,3.2h6.1c2.7,0,4.9,2.3,4.9,4.9v2.8C233.3,701.4,231.2,703.6,228.5,703.6z"/>
</g>
<g class="st1">
	<path class="st2" d="M268.7,676.7v-4h-7.8v28.8h3.9v2.2h-10.2v-2.2h3.9v-28.8h-7.8v4h-2.4v-5.2c0-0.4,0.4-0.9,1-0.9h20.7
		c0.6,0,1,0.5,1,0.9v5.2H268.7z"/>
</g>
<g class="st1">
	<path class="st2" d="M288,693.2h-12.8v5c0,2,1.6,3.2,3.2,3.2h7.5c0.5,0,0.9,0.4,0.9,0.9v0.4c0,0.5-0.4,0.9-0.9,0.9h-8.2
		c-2.4,0-4.9-2-4.9-4.9v-13.5c0-2.7,2.3-4.9,4.9-4.9h7.5c2.6,0,4.9,2.2,4.9,4.9v5.9C290.2,692.4,289.5,693.2,288,693.2z
		 M287.9,685.7c0-1.7-1.2-3.2-3.2-3.2h-6.2c-1.9,0-3.2,1.6-3.2,3.2v5.3h12.6V685.7z"/>
	<path class="st2" d="M311.8,703.6c-0.4,0-1-0.2-1.2-0.5l-0.4-0.4c-0.1-0.2-0.6-0.4-0.9-0.4c-1.3,0-2.4,1.5-6.7,1.5h-1.7
		c-3.8,0-5.6-2.4-5.6-5.2v-3.9c0-2.9,1.8-5.2,5.6-5.2h1.7c4.3,0,5.3,1.6,6.7,1.6c0.3,0,0.7-0.3,0.7-0.9v-4.4c0-1.5-1.2-3.1-3.2-3.1
		H299c-0.5,0-0.9-0.4-0.9-0.9v-0.4c0-0.5,0.4-0.9,0.9-0.9h8.5c2.7,0,4.9,2.3,4.9,5v16.1h3.7v2.2H311.8z M310,695
		c0-1.8-1.5-3.3-3.3-3.3H301c-1.8,0-3.3,1.5-3.3,3.3v3.2c0,1.8,1.5,3.3,3.3,3.3h5.7c1.8,0,3.3-1.5,3.3-3.3V695z"/>
	<path class="st2" d="M347.3,703.6v-2.2h2.8v-15.7c0-1.7-1.4-3.2-3.2-3.2h-4.5c-1.8,0-3.2,1.5-3.2,3.2v15.7h2.8v2.2h-7.9v-2.2h2.8
		v-15.7c0-1.7-1.4-3.2-3.2-3.2h-4.5c-1.8,0-3.2,1.5-3.2,3.2v15.7h2.8v2.2h-9.1v-2.2h3.9v-18.9h-3.9v-2.2h4.6c0.5,0,1,0.3,1.2,0.5
		l0.3,0.4c0.2,0.2,0.6,0.5,0.9,0.5c1.3,0,2.4-1.6,6.2-1.6h0.3c3.3,0,3.9,1.6,6.3,1.6c2.1,0,2.6-1.6,6.6-1.6h0.3
		c3.4,0,5.9,2.4,5.9,5.3v15.9h3.9v2.2H347.3z"/>
</g>
<g>
	<defs>
		<rect id="SVGID_3_" width="1138" height="809"/>
	</defs>
	<clipPath id="SVGID_4_">
		<use xlink:href="#SVGID_3_"  style="overflow:visible;"/>
	</clipPath>
	<g class="st5">
		<g class="st1">
			<path class="st6" d="M672.2,646.7v30.2c0,0.4-0.4,0.9-0.8,0.9h-0.6c-0.5,0-0.9-0.3-1.2-0.9l-15-27.7v26.3h3.4v2.2h-9.7v-2.2h3.9
				v-28.8h-3.9v-2.2h5.4c0.5,0,0.9,0.1,1.2,0.7l15,27.6v-26.1h-3.4v-2.2h9.7v2.2H672.2z"/>
			<path class="st6" d="M696.8,667.2H684v5c0,2,1.6,3.2,3.2,3.2h7.5c0.5,0,0.9,0.4,0.9,0.9v0.4c0,0.5-0.4,0.9-0.9,0.9h-8.2
				c-2.5,0-4.9-2-4.9-4.9v-13.5c0-2.7,2.3-4.9,4.9-4.9h7.5c2.6,0,4.9,2.2,4.9,4.9v5.9C699,666.4,698.2,667.2,696.8,667.2z
				 M696.6,659.7c0-1.7-1.2-3.2-3.2-3.2h-6.2c-1.9,0-3.2,1.6-3.2,3.2v5.3h12.6V659.7z"/>
			<path class="st6" d="M730.1,656.6l-4.4,19.5c-0.2,0.8-0.7,1.5-1.6,1.5h-0.6c-0.8,0-1.2-0.7-1.5-1.5l-4.6-12.4l-4.6,12.4
				c-0.3,0.7-0.7,1.5-1.5,1.5h-0.6c-0.8,0-1.4-0.7-1.6-1.5l-4.4-19.5h-3.3v-2.2h8.5v2.2h-2.9l2.9,12.8c0.6,2.6,1.1,6,1.1,6h0.1
				c0,0,0.7-2.5,1.6-5l2.9-7.8c0.2-0.6,0.6-1,1.3-1h0.8c0.6,0,1,0.4,1.3,1l2.9,7.8c0.9,2.4,1.6,5,1.6,5h0.1c0,0,0.5-3.4,1.1-6
				l2.9-12.8h-2.9v-2.2h8.5v2.2H730.1z"/>
			<path class="st6" d="M765.3,677.6c-0.6,0-1.2-0.2-1.6-0.9l-8.1-11.4l-3.1,3.2v6.9h3.4v2.2h-9.7v-2.2h3.9v-28.8h-3.9v-2.2h5.3
				c0.6,0,0.9,0.5,0.9,0.9v19.9l10-10.4c0.2-0.2,0.6-0.5,1.3-0.5h3.7v2.2h-3.5l-6.9,7.2l8.3,11.7h3.5v2.2H765.3z"/>
			<path class="st6" d="M788.3,667.2h-12.8v5c0,2,1.6,3.2,3.2,3.2h7.5c0.5,0,0.9,0.4,0.9,0.9v0.4c0,0.5-0.4,0.9-0.9,0.9h-8.2
				c-2.5,0-4.9-2-4.9-4.9v-13.5c0-2.7,2.3-4.9,4.9-4.9h7.5c2.6,0,4.8,2.2,4.8,4.9v5.9C790.5,666.4,789.8,667.2,788.3,667.2z
				 M788.2,659.7c0-1.7-1.2-3.2-3.2-3.2h-6.2c-1.9,0-3.2,1.6-3.2,3.2v5.3h12.6V659.7z"/>
			<path class="st6" d="M812.3,656.6h-7.6c-1.8,0-3.3,1.5-3.3,3.3v15.6h3.9v2.2h-10.2v-2.2h3.9v-18.9h-3.9v-2.2h4.5
				c0.5,0,0.9,0.1,1.2,0.5l0.3,0.4c0.2,0.2,0.6,0.5,0.9,0.5c1.3,0,2.1-1.5,6.3-1.5h3.9c0.5,0,0.9,0.4,0.9,0.9v0.4
				C813.3,656.2,812.8,656.6,812.3,656.6z"/>
			<path class="st6" d="M830.6,677.6v-2.2h3.4v-15.7c0-1.6-1.3-3.2-3.3-3.2h-5.7c-2,0-3.3,1.7-3.3,3.2v15.7h3.4v2.2h-9.7v-2.2h3.9
				v-18.9h-3.9v-2.2h4.6c0.5,0,0.9,0.2,1.2,0.5l0.3,0.4c0.2,0.2,0.6,0.5,0.9,0.5c1.3,0,2.3-1.6,6.6-1.6h1.7c4.2,0,5.7,2.7,5.7,5.2
				v16h3.9v2.2H830.6z"/>
			<path class="st6" d="M860.4,667.2h-12.8v5c0,2,1.6,3.2,3.2,3.2h7.5c0.5,0,0.9,0.4,0.9,0.9v0.4c0,0.5-0.4,0.9-0.9,0.9h-8.2
				c-2.5,0-4.9-2-4.9-4.9v-13.5c0-2.7,2.3-4.9,4.9-4.9h7.5c2.6,0,4.8,2.2,4.8,4.9v5.9C862.6,666.4,861.8,667.2,860.4,667.2z
				 M860.2,659.7c0-1.7-1.2-3.2-3.2-3.2h-6.2c-1.9,0-3.2,1.6-3.2,3.2v5.3h12.6V659.7z"/>
			<path class="st6" d="M867.2,677.6v-2.2h3.9v-28.8h-3.9v-2.2h5.3c0.5,0,0.9,0.5,0.9,1v30h3.9v2.2H867.2z"/>
			<path class="st6" d="M912.8,677.6c-0.6,0-1-0.1-1.3-0.5l-0.5-0.5c-0.2-0.2-0.5-0.4-0.9-0.4c-1.3,0-2.4,1.5-6.7,1.5h-1.7
				c-4.2,0-5.6-2.7-5.6-5.2v-16h-3.9v-2.2h5.4c0.4,0,0.8,0.5,0.8,0.9v17c0,1.6,1.3,3.2,3.3,3.2h5.7c2,0,3.3-1.7,3.3-3.2v-15.7H907
				v-2.2h5.4c0.4,0,0.8,0.5,0.8,0.9v20.2h3.9v2.2H912.8z"/>
			<path class="st6" d="M935.5,677.8h-1.7c-4.2,0-5.4-1.6-6.8-1.6c-0.5,0-0.6,0.5-0.6,1.1v9.9c0,0.5-0.3,1.2-1.3,1.2h-5v-2.2h3.9
				v-29.7h-3.9v-2.2h4.6c0.4,0,0.9,0.1,1.2,0.5l0.3,0.4c0.1,0.2,0.6,0.5,0.9,0.5c1.3,0,2.4-1.6,6.7-1.6h1.7c3.8,0,5.6,2.4,5.6,5.2
				v13C941.1,675.4,939.3,677.8,935.5,677.8z M938.8,659.8c0-1.8-1.5-3.3-3.3-3.3h-5.7c-1.8,0-3.3,1.5-3.3,3.3v12.3
				c0,1.8,1.5,3.3,3.3,3.3h5.7c1.8,0,3.3-1.5,3.3-3.3V659.8z"/>
			<path class="st6" d="M964.5,677.6c-0.4,0-1-0.2-1.2-0.5l-0.4-0.4c-0.1-0.2-0.6-0.4-0.9-0.4c-1.3,0-2.4,1.5-6.7,1.5h-1.7
				c-3.8,0-5.6-2.4-5.6-5.2v-13c0-2.9,1.8-5.2,5.6-5.2h1.7c4.3,0,5.3,1.6,6.7,1.6c0.3,0,0.7-0.3,0.7-0.9v-8.3h-3.9v-2.2h5.2
				c0.6,0,1,0.5,1,1v29.9h3.9v2.2H964.5z M962.7,659.8c0-1.8-1.5-3.3-3.3-3.3h-5.7c-1.8,0-3.3,1.5-3.3,3.3v12.3
				c0,1.8,1.5,3.3,3.3,3.3h5.7c1.8,0,3.3-1.5,3.3-3.3V659.8z"/>
			<path class="st6" d="M989.5,677.6c-0.4,0-1-0.2-1.2-0.5l-0.4-0.4c-0.1-0.2-0.6-0.4-0.9-0.4c-1.3,0-2.4,1.5-6.7,1.5h-1.7
				c-3.8,0-5.6-2.4-5.6-5.2v-3.9c0-2.9,1.8-5.2,5.6-5.2h1.7c4.3,0,5.3,1.6,6.7,1.6c0.3,0,0.7-0.3,0.7-0.9v-4.4
				c0-1.5-1.2-3.1-3.2-3.1h-7.8c-0.5,0-0.9-0.4-0.9-0.9v-0.4c0-0.5,0.4-0.9,0.9-0.9h8.5c2.7,0,4.9,2.3,4.9,5v16.1h3.7v2.2H989.5z
				 M987.7,669c0-1.8-1.5-3.3-3.3-3.3h-5.7c-1.8,0-3.3,1.5-3.3,3.3v3.2c0,1.8,1.5,3.3,3.3,3.3h5.7c1.8,0,3.3-1.5,3.3-3.3V669z"/>
			<path class="st6" d="M1005.2,677.8c-2.3,0-4.3-1.5-4.3-4.4v-16.8h-2.8c-0.5,0-0.9-0.4-0.9-0.9v-0.4c0-0.5,0.4-0.9,0.9-0.9h2.8v-9
				c0-0.5,0.4-0.9,0.9-0.9h0.5c0.5,0,0.9,0.4,0.9,0.9v9h5.8v2.2h-5.8v16.3c0,2.1,1.1,2.6,2.5,2.6c1.2,0,2.6-0.6,3.9-1.2v2.1
				C1008.5,676.9,1007,677.8,1005.2,677.8z"/>
			<path class="st6" d="M1030.8,667.2H1018v5c0,2,1.6,3.2,3.2,3.2h7.5c0.5,0,0.9,0.4,0.9,0.9v0.4c0,0.5-0.4,0.9-0.9,0.9h-8.2
				c-2.4,0-4.9-2-4.9-4.9v-13.5c0-2.7,2.3-4.9,4.9-4.9h7.5c2.6,0,4.9,2.2,4.9,4.9v5.9C1033,666.4,1032.3,667.2,1030.8,667.2z
				 M1030.6,659.7c0-1.7-1.2-3.2-3.2-3.2h-6.2c-1.9,0-3.2,1.6-3.2,3.2v5.3h12.6V659.7z"/>
			<path class="st6" d="M1075.5,656.6l-4.4,19.5c-0.2,0.8-0.7,1.5-1.6,1.5h-0.6c-0.8,0-1.2-0.7-1.5-1.5l-4.6-12.4l-4.6,12.4
				c-0.3,0.7-0.7,1.5-1.5,1.5h-0.6c-0.8,0-1.4-0.7-1.6-1.5l-4.4-19.5h-3.3v-2.2h8.5v2.2h-2.9l2.9,12.8c0.6,2.6,1.1,6,1.1,6h0.1
				c0,0,0.7-2.5,1.6-5l2.9-7.8c0.2-0.6,0.6-1,1.3-1h0.8c0.6,0,1,0.4,1.3,1l2.9,7.8c0.9,2.4,1.6,5,1.6,5h0.1c0,0,0.5-3.4,1.1-6
				l2.9-12.8h-2.9v-2.2h8.5v2.2H1075.5z"/>
			<path class="st6" d="M1081.3,677.6v-2.2h3.9v-18.9h-3.9v-2.2h5.3c0.5,0,1,0.5,1,1v20.1h3.9v2.2H1081.3z M1086.6,649h-0.5
				c-0.5,0-0.9-0.4-0.9-0.9v-2.6c0-0.5,0.4-0.9,0.9-0.9h0.5c0.5,0,0.9,0.4,0.9,0.9v2.6C1087.5,648.6,1087.1,649,1086.6,649z"/>
			<path class="st6" d="M1103.2,677.8c-2.3,0-4.3-1.5-4.3-4.4v-16.8h-2.8c-0.5,0-0.9-0.4-0.9-0.9v-0.4c0-0.5,0.4-0.9,0.9-0.9h2.8v-9
				c0-0.5,0.4-0.9,0.9-0.9h0.5c0.5,0,0.9,0.4,0.9,0.9v9h5.8v2.2h-5.8v16.3c0,2.1,1.1,2.6,2.5,2.6c1.2,0,2.6-0.6,3.9-1.2v2.1
				C1106.5,676.9,1104.9,677.8,1103.2,677.8z"/>
			<path class="st6" d="M1126.8,677.6v-2.2h3.4v-15.6c0-1.8-1.5-3.3-3.3-3.3h-5.7c-1.8,0-3.3,1.5-3.3,3.3v15.6h3.4v2.2h-9.7v-2.2
				h3.9v-28.8h-3.9v-2.2h5.2c0.6,0,1,0.5,1,1v9.4c0,0.6,0.4,0.9,0.7,0.9c1.3,0,2.4-1.6,6.7-1.6h1.7c3.8,0,5.6,2.4,5.6,5.2v16h3.9
				v2.2H1126.8z"/>
		</g>
		<g class="st1">
			<path class="st6" d="M661.1,727.6h-7.6c-2.7,0-4.9-2.2-4.9-4.9v-13.4c0-2.7,2.2-4.9,4.9-4.9h11.5v5.9h-2.4v-3.7h-8.5
				c-1.8,0-3.2,1.4-3.2,3.2v12.5c0,1.8,1.5,3.2,3.2,3.2h6.3c1.7,0,3.2-1.4,3.2-3.2v-0.7h2.4v1.1C666,725.4,663.8,727.6,661.1,727.6z
				"/>
			<path class="st6" d="M685.1,727.6v-2.2h3.4v-15.6c0-1.8-1.5-3.3-3.3-3.3h-5.7c-1.8,0-3.3,1.5-3.3,3.3v15.6h3.4v2.2h-9.7v-2.2h3.9
				v-28.8h-3.9v-2.2h5.2c0.6,0,1,0.5,1,1v9.4c0,0.6,0.4,0.9,0.7,0.9c1.3,0,2.4-1.6,6.7-1.6h1.7c3.8,0,5.6,2.4,5.6,5.2v16h3.9v2.2
				H685.1z"/>
			<path class="st6" d="M715.2,727.6c-0.4,0-1-0.2-1.2-0.5l-0.4-0.4c-0.1-0.2-0.6-0.4-0.9-0.4c-1.3,0-2.4,1.5-6.7,1.5h-1.7
				c-3.8,0-5.6-2.4-5.6-5.2v-3.9c0-2.9,1.8-5.2,5.6-5.2h1.7c4.3,0,5.3,1.6,6.7,1.6c0.3,0,0.7-0.3,0.7-0.9v-4.4
				c0-1.5-1.2-3.1-3.2-3.1h-7.8c-0.5,0-0.9-0.4-0.9-0.9v-0.4c0-0.5,0.4-0.9,0.9-0.9h8.5c2.7,0,4.9,2.3,4.9,5v16.1h3.7v2.2H715.2z
				 M713.4,718.9c0-1.8-1.5-3.3-3.3-3.3h-5.7c-1.8,0-3.3,1.5-3.3,3.3v3.2c0,1.8,1.5,3.3,3.3,3.3h5.7c1.8,0,3.3-1.5,3.3-3.3V718.9z"
				/>
			<path class="st6" d="M738.4,727.6v-2.2h3.4v-15.7c0-1.6-1.3-3.2-3.3-3.2h-5.7c-2,0-3.3,1.7-3.3,3.2v15.7h3.4v2.2h-9.7v-2.2h3.9
				v-18.9h-3.9v-2.2h4.6c0.5,0,0.9,0.2,1.2,0.5l0.3,0.4c0.2,0.2,0.6,0.5,0.9,0.5c1.3,0,2.3-1.6,6.6-1.6h1.7c4.2,0,5.7,2.7,5.7,5.2
				v16h3.9v2.2H738.4z"/>
			<path class="st6" d="M770.1,706.5v26.9c0,2.7-2.2,4.9-4.9,4.9h-7.7v-2.2h7c1.8,0,3.2-1.4,3.2-3.2v-5.8c0-0.6-0.1-1.1-0.6-1.1
				c-1.3,0-2.5,1.6-6.8,1.6h-1.7c-3.8,0-5.6-2.4-5.6-5.2v-13c0-2.8,1.8-5.2,5.6-5.2h1.7c4.3,0,5.3,1.6,6.7,1.6
				c0.3,0,0.8-0.3,0.9-0.5l0.3-0.4c0.2-0.3,0.7-0.5,1.2-0.5h4.6v2.2H770.1z M767.7,709.8c0-1.8-1.5-3.3-3.3-3.3h-5.7
				c-1.8,0-3.3,1.5-3.3,3.3v12.3c0,1.8,1.5,3.3,3.3,3.3h5.7c1.8,0,3.3-1.5,3.3-3.3V709.8z"/>
			<path class="st6" d="M794.1,717.2h-12.8v5c0,2,1.6,3.2,3.2,3.2h7.5c0.5,0,0.9,0.4,0.9,0.9v0.4c0,0.5-0.4,0.9-0.9,0.9h-8.2
				c-2.5,0-4.9-2-4.9-4.9v-13.5c0-2.7,2.3-4.9,4.9-4.9h7.5c2.6,0,4.9,2.2,4.9,4.9v5.9C796.3,716.3,795.6,717.2,794.1,717.2z
				 M794,709.7c0-1.7-1.2-3.2-3.2-3.2h-6.2c-1.9,0-3.2,1.6-3.2,3.2v5.3H794V709.7z"/>
			<path class="st6" d="M813.6,727.6h-7c-2.7,0-4.9-2.2-4.9-4.9v-1.1h2.4v0.7c0,1.8,1.5,3.2,3.2,3.2h5.7c1.8,0,3.2-1.4,3.2-3.2v-1.9
				c0-1.8-1.4-3.2-3.2-3.2h-6.1c-2.7,0-4.9-2.3-4.9-4.8v-3.1c0-2.5,2.1-4.9,4.9-4.9h8.7c0.6,0,1.1,0.4,1.1,0.9v4.9h-2.4v-3.7h-6.8
				c-1.6,0-3.2,1.3-3.2,3.2v2.2c0,1.9,1.6,3.2,3.2,3.2h6.1c2.7,0,4.9,2.3,4.9,4.9v2.8C818.4,725.4,816.3,727.6,813.6,727.6z"/>
			<path class="st6" d="M849.6,727.8h-1.7c-4.3,0-5.3-1.5-6.7-1.5c-0.3,0-0.7,0.2-0.9,0.4l-0.4,0.4c-0.3,0.3-0.8,0.5-1.2,0.5h-4.5
				v-2.2h3.9v-28.8h-3.9v-2.2h5.2c0.6,0,1,0.5,1,1v9.4c0,0.6,0.4,0.9,0.7,0.9c1.3,0,2.4-1.6,6.7-1.6h1.7c3.8,0,5.6,2.4,5.6,5.2v13
				C855.2,725.4,853.4,727.8,849.6,727.8z M852.8,709.8c0-1.8-1.5-3.3-3.3-3.3h-5.7c-1.8,0-3.3,1.5-3.3,3.3v12.3
				c0,1.8,1.5,3.3,3.3,3.3h5.7c1.8,0,3.3-1.5,3.3-3.3V709.8z"/>
			<path class="st6" d="M881.9,706.5l-12,29.6c-0.6,1.6-2.3,2.4-3.8,2.4c-2,0-3.2-0.8-4.3-1.4V735c1.2,0.7,2.6,1.3,3.7,1.3
				c1.6,0,2.3-0.9,2.6-1.7l2.8-7c0,0-0.7-0.2-1-1.1l-8.1-20h-3.3v-2.2h8.5v2.2h-2.8l7.6,18.8l7.6-18.8h-2.8v-2.2h8.5v2.2H881.9z"/>
			<path class="st6" d="M912.5,727.6h-7.6c-2.7,0-4.9-2.2-4.9-4.9v-13.4c0-2.7,2.2-4.9,4.9-4.9h11.5v5.9h-2.4v-3.7h-8.5
				c-1.8,0-3.2,1.4-3.2,3.2v12.5c0,1.8,1.5,3.2,3.2,3.2h6.3c1.7,0,3.2-1.4,3.2-3.2v-0.7h2.4v1.1
				C917.4,725.4,915.2,727.6,912.5,727.6z"/>
			<path class="st6" d="M935.4,727.6h-7.3c-2.7,0-4.9-2.2-4.9-4.9v-13.4c0-2.7,2.2-4.9,4.9-4.9h7.3c2.7,0,4.9,2.2,4.9,4.9v13.4
				C940.3,725.4,938.1,727.6,935.4,727.6z M937.9,709.7c0-1.8-1.4-3.2-3.1-3.2h-6c-1.8,0-3.2,1.4-3.2,3.2v12.5
				c0,1.8,1.5,3.2,3.2,3.2h6c1.8,0,3.2-1.4,3.2-3.2V709.7z"/>
			<path class="st6" d="M973.3,727.6v-2.2h2.8v-15.7c0-1.7-1.4-3.2-3.2-3.2h-4.5c-1.8,0-3.2,1.5-3.2,3.2v15.7h2.8v2.2h-7.9v-2.2h2.8
				v-15.7c0-1.7-1.4-3.2-3.2-3.2h-4.5c-1.8,0-3.2,1.5-3.2,3.2v15.7h2.8v2.2h-9.1v-2.2h3.9v-18.9h-3.9v-2.2h4.6c0.5,0,1,0.3,1.2,0.5
				l0.3,0.4c0.2,0.2,0.6,0.5,0.9,0.5c1.3,0,2.4-1.6,6.2-1.6h0.3c3.3,0,3.9,1.6,6.3,1.6c2.1,0,2.6-1.6,6.6-1.6h0.3
				c3.4,0,5.9,2.4,5.9,5.3v15.9h3.9v2.2H973.3z"/>
			<path class="st6" d="M1013.3,727.6v-2.2h2.8v-15.7c0-1.7-1.4-3.2-3.2-3.2h-4.5c-1.8,0-3.2,1.5-3.2,3.2v15.7h2.8v2.2h-7.9v-2.2
				h2.8v-15.7c0-1.7-1.4-3.2-3.2-3.2h-4.5c-1.8,0-3.2,1.5-3.2,3.2v15.7h2.8v2.2h-9.1v-2.2h3.9v-18.9h-3.9v-2.2h4.6
				c0.5,0,1,0.3,1.2,0.5l0.3,0.4c0.2,0.2,0.6,0.5,0.9,0.5c1.3,0,2.5-1.6,6.2-1.6h0.3c3.3,0,3.9,1.6,6.3,1.6c2.1,0,2.6-1.6,6.6-1.6
				h0.3c3.4,0,5.9,2.4,5.9,5.3v15.9h3.9v2.2H1013.3z"/>
			<path class="st6" d="M1046,727.6c-0.6,0-1-0.1-1.3-0.5l-0.5-0.5c-0.2-0.2-0.5-0.4-0.9-0.4c-1.3,0-2.4,1.5-6.7,1.5h-1.7
				c-4.2,0-5.6-2.7-5.6-5.2v-16h-3.9v-2.2h5.4c0.4,0,0.8,0.5,0.8,0.9v17c0,1.6,1.3,3.2,3.3,3.2h5.7c2,0,3.3-1.7,3.3-3.2v-15.7h-3.9
				v-2.2h5.4c0.4,0,0.8,0.5,0.8,0.9v20.2h3.9v2.2H1046z"/>
			<path class="st6" d="M1069,727.6v-2.2h3.4v-15.7c0-1.6-1.3-3.2-3.3-3.2h-5.7c-2,0-3.3,1.7-3.3,3.2v15.7h3.4v2.2h-9.7v-2.2h3.9
				v-18.9h-3.9v-2.2h4.6c0.5,0,0.9,0.2,1.2,0.5l0.3,0.4c0.2,0.2,0.6,0.5,0.9,0.5c1.3,0,2.3-1.6,6.6-1.6h1.7c4.2,0,5.7,2.7,5.7,5.2
				v16h3.9v2.2H1069z"/>
			<path class="st6" d="M1082.7,727.6v-2.2h3.9v-18.9h-3.9v-2.2h5.3c0.5,0,1,0.5,1,1v20.1h3.9v2.2H1082.7z M1088,699h-0.5
				c-0.5,0-0.9-0.4-0.9-0.9v-2.6c0-0.5,0.4-0.9,0.9-0.9h0.5c0.5,0,0.9,0.4,0.9,0.9v2.6C1089,698.6,1088.5,699,1088,699z"/>
			<path class="st6" d="M1104.6,727.8c-2.3,0-4.3-1.5-4.3-4.4v-16.8h-2.8c-0.5,0-0.9-0.4-0.9-0.9v-0.4c0-0.5,0.4-0.9,0.9-0.9h2.8v-9
				c0-0.5,0.4-0.9,0.9-0.9h0.5c0.5,0,0.9,0.4,0.9,0.9v9h5.8v2.2h-5.8v16.3c0,2.1,1.1,2.6,2.5,2.6c1.2,0,2.6-0.6,3.9-1.2v2.1
				C1107.9,726.9,1106.3,727.8,1104.6,727.8z"/>
			<path class="st6" d="M1134.8,706.5l-12,29.6c-0.6,1.6-2.3,2.4-3.8,2.4c-2,0-3.2-0.8-4.3-1.4V735c1.2,0.7,2.6,1.3,3.7,1.3
				c1.6,0,2.3-0.9,2.6-1.7l2.8-7c0,0-0.7-0.2-1-1.1l-8.1-20h-3.3v-2.2h8.5v2.2h-2.8l7.6,18.8l7.6-18.8h-2.8v-2.2h8.5v2.2H1134.8z"/>
		</g>
	</g>
</g>
<line class="st4" x1="381" y1="686" x2="620" y2="686"/>
<polyline class="st4" points="602,668 620,686 602,704 "/>
</svg>
