<?xml version="1.0" encoding="utf-8"?>
<!-- Generator: Adobe Illustrator 22.0.0, SVG Export Plug-In . SVG Version: 6.00 Build 0)  -->
<svg version="1.1" id="Layer_1" xmlns="http://www.w3.org/2000/svg" xmlns:xlink="http://www.w3.org/1999/xlink" x="0px" y="0px"
	 viewBox="0 0 1251.8 908.3" style="enable-background:new 0 0 1251.8 908.3;" xml:space="preserve">
<style type="text/css">
	.st0{fill:#00FF00;}
	.st1{clip-path:url(#SVGID_2_);}
	.st2{fill:none;stroke:#00FF00;stroke-width:4;}
	.st3{fill:#FFFFFF;}
	.st4{clip-path:url(#SVGID_4_);}
	.st5{fill:none;stroke:#FFFFFF;stroke-width:4;}
	.st6{clip-path:url(#SVGID_6_);}
	.st7{clip-path:url(#SVGID_8_);}
	.st8{clip-path:url(#SVGID_10_);}
	.st9{clip-path:url(#SVGID_12_);}
	.st10{clip-path:url(#SVGID_14_);}
	.st11{clip-path:url(#SVGID_16_);}
	.st12{fill:none;stroke:#00FF00;stroke-width:3;}
</style>
<title>Artboard 11</title>
<path class="st0" d="M888.6,314.2v-1.3h2.1v-16.4l-4.8,7.2c-0.1,0.2-0.3,0.3-0.5,0.4h-0.2c-0.2-0.1-0.4-0.2-0.5-0.4l-4.8-7.2v16.4
	h2.1v1.3h-5.9v-1.3h2.4v-17.6h-2.4v-1.3h3.2c0.3,0,0.6,0.1,0.8,0.4l5.3,7.9l5.3-7.9c0.2-0.3,0.5-0.4,0.8-0.4h3.2v1.3h-2.4v17.6h2.4
	v1.3L888.6,314.2z"/>
<path class="st0" d="M907.7,314.2c-0.3,0-0.5-0.1-0.8-0.3l-0.2-0.3c-0.1-0.2-0.4-0.3-0.6-0.3c-0.8,0-1.4,0.9-4.1,0.9h-1
	c-1.7,0.2-3.2-1.1-3.4-2.8c0-0.1,0-0.3,0-0.4v-2.4c-0.1-1.7,1.2-3.1,2.9-3.2c0.2,0,0.3,0,0.5,0h1c2.6,0,3.3,1,4.1,1
	c0.2,0,0.5-0.2,0.5-0.6v-2.7c0-1.1-0.9-1.9-2-1.9c0,0,0,0,0,0h-4.8c-0.3,0-0.6-0.2-0.6-0.5v-0.2c0-0.3,0.3-0.5,0.6-0.5h5.2
	c1.7,0,3,1.3,3,3c0,0,0,0,0,0.1v9.8h2.3v1.3L907.7,314.2z M906.6,308.9c0-1.1-0.9-2-2-2h-3.5c-1.1,0-2,0.9-2,2v2c0,1.1,0.9,2,2,2
	h3.5c1.1,0,2-0.9,2-2V308.9z"/>
<path class="st0" d="M921.9,314.2v-1.3h2.1v-9.6c0-1.1-0.9-2-2-2h-3.5c-1.1,0-2,0.9-2,2v9.6h2.1v1.3h-5.9v-1.3h2.3v-11.6h-2.4V300
	h2.8c0.3,0,0.5,0.1,0.7,0.3l0.2,0.2c0.1,0.2,0.3,0.3,0.6,0.3c0.8,0,1.4-1,4-1h1c1.7-0.2,3.3,1,3.5,2.7c0,0.2,0,0.3,0,0.5v9.8h2.4
	v1.3L921.9,314.2z"/>
<path class="st0" d="M940.4,314.2c-0.3,0-0.5-0.1-0.8-0.3l-0.2-0.3c-0.1-0.2-0.4-0.3-0.6-0.3c-0.8,0-1.4,0.9-4.1,0.9h-1
	c-1.7,0.2-3.2-1.1-3.4-2.8c0-0.1,0-0.3,0-0.4v-2.4c-0.1-1.7,1.2-3.1,2.9-3.2c0.2,0,0.3,0,0.5,0h1c2.6,0,3.3,1,4.1,1
	c0.2,0,0.5-0.2,0.5-0.6v-2.7c0-1.1-0.9-1.9-2-1.9c0,0,0,0,0,0h-4.8c-0.3,0-0.6-0.2-0.6-0.5v-0.2c0-0.3,0.3-0.5,0.6-0.5h5.2
	c1.7,0,3,1.3,3,3c0,0,0,0,0,0.1v9.8h2.3v1.3L940.4,314.2z M939.3,308.9c0-1.1-0.9-2-2-2h-3.5c-1.1,0-2,0.9-2,2v2c0,1.1,0.9,2,2,2
	h3.5c1.1,0,2-0.9,2-2V308.9z"/>
<path class="st0" d="M956.6,301.3v16.5c0,1.7-1.3,3-3,3l0,0h-4.7v-1.3h4.3c1.1,0,2-0.9,2-2V314c0-0.4-0.1-0.7-0.4-0.7
	c-0.8,0-1.6,1-4.1,1h-1c-1.7,0.2-3.2-1.1-3.4-2.8c0-0.1,0-0.3,0-0.4v-8c-0.1-1.7,1.3-3.2,3-3.2c0.1,0,0.3,0,0.4,0h1
	c2.6,0,3.3,1,4.1,1c0.2,0,0.4-0.2,0.6-0.3l0.2-0.2c0.2-0.2,0.4-0.3,0.7-0.3h2.8v1.3L956.6,301.3z M955.1,303.3c0-1.1-0.9-2-2-2h-3.5
	c-1.1,0-2,0.9-2,2v7.6c0,1.1,0.9,2,2,2h3.5c1.1,0,2-0.9,2-2V303.3z"/>
<path class="st0" d="M971.3,307.8h-7.8v3.1c0,1.1,0.9,2,2,2h4.5c0.3,0,0.6,0.2,0.6,0.5c0,0,0,0,0,0v0.2c0,0.3-0.3,0.5-0.6,0.5
	c0,0,0,0,0,0h-5c-1.7,0-3-1.3-3-3v-8.3c0-1.7,1.3-3,3-3h4.6c1.7,0,3,1.3,3,3v3.6c0,0.7-0.5,1.2-1.1,1.2
	C971.4,307.8,971.4,307.8,971.3,307.8z M971.2,303.2c0-1.1-0.8-1.9-1.9-2c0,0-0.1,0-0.1,0h-3.8c-1.1,0-2,0.9-2,1.9v3.3h7.7
	L971.2,303.2z"/>
<path class="st0" d="M986,301.3h-4.7c-1.1,0-2,0.9-2,2v9.6h2.4v1.3h-6.2v-1.3h2.4v-11.6h-2.4V300h2.8c0.3,0,0.6,0.1,0.8,0.3l0.2,0.2
	c0.1,0.2,0.3,0.3,0.6,0.3c0.8,0,1.3-0.9,3.9-0.9h2.4c0.3,0,0.6,0.2,0.6,0.5v0.2C986.5,301.1,986.3,301.3,986,301.3z"/>
<path class="st0" d="M995.6,314.2h-4.3c-1.7,0-3-1.3-3-3v-0.7h1.4v0.4c0,1.1,0.9,2,2,1.9h3.5c1.1,0,2-0.9,2-2v-1.1
	c0-1.1-0.9-2-2-1.9h-3.7c-1.6,0-3-1.3-3-2.9v-1.9c0-1.7,1.3-3,3-3l0,0h5.3c0.3,0,0.6,0.2,0.7,0.6v3H996v-2.3h-4.1c-1.1,0-2,0.9-2,2
	v1.3c0,1.1,0.9,2,2,2h3.7c1.7,0,3,1.3,3,3v1.7C998.6,312.8,997.2,314.2,995.6,314.2z"/>
<g>
	<defs>
		<rect id="SVGID_1_" x="-387.6" y="64.7" width="1938" height="974.8"/>
	</defs>
	<clipPath id="SVGID_2_">
		<use xlink:href="#SVGID_1_"  style="overflow:visible;"/>
	</clipPath>
	<g class="st1">
		<circle class="st2" cx="937.4" cy="230.2" r="50.5"/>
	</g>
</g>
<path class="st3" d="M42.2,270.4c-0.3,0-0.6-0.1-0.8-0.3l-0.3-0.3c-0.1-0.1-0.3-0.2-0.5-0.2c-0.7,0.1-1.3,0.3-1.9,0.6
	c-1,0.3-2.1,0.4-3.2,0.3h-1.3c-1.6,0.2-3.1-1.1-3.3-2.7c0-0.1,0-0.3,0-0.4v-15.9h-2.4v-1.3h5.9v1.3h-2.1v15.6c0,1.1,0.9,2,2,2H39
	c1.1,0,2-0.9,2-2v-15.6h-2.1v-1.3h5.9v1.3h-2.4v17.6h2.4v1.3L42.2,270.4z"/>
<path class="st3" d="M55.3,270.4H51c-1.7,0-3-1.3-3-3v-0.7h1.4v0.4c0,1.1,0.9,2,2,1.9h3.5c1.1,0,2-0.9,2-2V266c0-1.1-0.9-2-2-2h-3.7
	c-1.6,0-3-1.3-3-2.9v-1.9c0-1.7,1.3-3,3-3h5.3c0.3,0,0.6,0.2,0.7,0.6v3h-1.4v-2.3h-4.1c-1.1,0-1.9,0.9-2,1.9v1.3c0,1.1,0.9,2,2,2
	h3.7c1.7,0,3,1.3,3,3v1.7C58.3,269.1,56.9,270.4,55.3,270.4z"/>
<path class="st3" d="M71.5,264h-7.8v3.1c0,1.1,0.9,2,2,2h4.6c0.3,0,0.6,0.2,0.6,0.5c0,0,0,0,0,0v0.2c0,0.3-0.3,0.5-0.6,0.5
	c0,0,0,0,0,0h-5c-1.7,0-3-1.3-3-3v-8.3c0-1.7,1.3-3,3-3h4.6c1.7,0,3,1.3,3,3v3.6c0,0.7-0.5,1.2-1.1,1.3C71.6,264,71.6,264,71.5,264z
	 M71.4,259.4c0-1.1-0.8-1.9-1.9-2c0,0-0.1,0-0.1,0h-3.8c-1.1,0-2,0.9-2,2v3.3h7.7L71.4,259.4z"/>
<path class="st3" d="M86.2,257.5h-4.7c-1.1,0-2,0.9-2,2v9.6h2.4v1.3h-6.3v-1.3H78v-11.6h-2.4v-1.3h2.8c0.3,0,0.6,0.1,0.8,0.3
	l0.2,0.2c0.1,0.2,0.3,0.3,0.6,0.3c0.8,0,1.3-0.9,3.9-0.9h2.4c0.3,0,0.6,0.2,0.6,0.5v0.3C86.7,257.3,86.5,257.5,86.2,257.5z"/>
<path class="st3" d="M95.8,270.4h-4.3c-1.7,0-3-1.3-3-3v-0.7h1.4v0.4c0,1.1,0.9,2,2,1.9h3.5c1.1,0,2-0.9,2-2V266c0-1.1-0.9-2-2-2
	h-3.8c-1.6,0-3-1.3-3-2.9v-1.9c0-1.7,1.3-3,3-3h5.3c0.3,0,0.6,0.2,0.7,0.6v3h-1.4v-2.3H92c-1.1,0-2,0.9-2,1.9v1.3c0,1.1,0.9,2,2,2
	h3.7c1.7,0,3,1.3,3,3v1.7C98.7,269.1,97.4,270.4,95.8,270.4z"/>
<path class="st3" d="M164.2,415.4c-0.3,0-0.6-0.1-0.8-0.3l-0.3-0.3c-0.1-0.1-0.3-0.2-0.5-0.2c-0.7,0.1-1.3,0.3-1.9,0.6
	c-1,0.3-2.1,0.4-3.2,0.3h-1.3c-1.6,0.2-3.1-1.1-3.3-2.7c0-0.1,0-0.3,0-0.4v-15.9h-2.4v-1.3h5.9v1.3h-2.1v15.6c0,1.1,0.9,2,2,2h4.7
	c1.1,0,2-0.9,2-2v-15.6h-2.1v-1.3h5.9v1.3h-2.4v17.6h2.4v1.3L164.2,415.4z"/>
<path class="st3" d="M177.3,415.4h-4.3c-1.7,0-3-1.3-3-3v-0.7h1.4v0.4c0,1.1,0.9,1.9,1.9,2h3.5c1.1,0,2-0.9,2-2V411c0-1.1-0.9-2-2-2
	h-3.7c-1.6,0-3-1.3-3-2.9v-1.9c0-1.7,1.3-3,3-3h5.3c0.3,0,0.6,0.2,0.7,0.6v3h-1.4v-2.3h-4.1c-1.1,0-2,0.9-2,2v1.3c0,1.1,0.9,2,2,2
	h3.7c1.7,0,3,1.3,3,3v1.7C180.3,414.1,179,415.4,177.3,415.4z"/>
<path class="st3" d="M193.5,409h-7.8v3.1c0,1.1,0.9,2,2,2h4.6c0.3,0,0.6,0.2,0.6,0.5c0,0,0,0,0,0v0.2c0,0.3-0.3,0.5-0.6,0.5
	c0,0,0,0,0,0h-5c-1.7,0-3-1.3-3-3v-8.3c0-1.7,1.3-3,3-3h4.6c1.7,0,3,1.3,3,3v3.6c0,0.7-0.5,1.2-1.1,1.3
	C193.7,409,193.6,409,193.5,409z M193.4,404.4c0-1.1-0.8-1.9-1.9-2c0,0-0.1,0-0.1,0h-3.8c-1.1,0-2,0.9-2,2v3.3h7.7L193.4,404.4z"/>
<path class="st3" d="M208.2,402.5h-4.7c-1.1,0-2,0.9-2,2v9.6h2.4v1.3h-6.2v-1.3h2.4v-11.6h-2.4v-1.3h2.8c0.3,0,0.6,0.1,0.8,0.3
	l0.2,0.2c0.1,0.2,0.3,0.3,0.6,0.3c0.8,0,1.3-0.9,3.9-0.9h2.4c0.3,0,0.6,0.2,0.6,0.5v0.3C208.7,402.3,208.5,402.5,208.2,402.5z"/>
<path class="st3" d="M217.8,415.4h-4.3c-1.7,0-3-1.3-3-3v-0.7h1.4v0.4c0,1.1,0.9,1.9,1.9,2h3.5c1.1,0,2-0.9,1.9-2V411
	c0-1.1-0.9-2-1.9-2h-3.7c-1.6,0-3-1.3-3-2.9v-1.9c0-1.7,1.3-3,3-3h5.4c0.3,0,0.6,0.2,0.7,0.6v3h-1.4v-2.3H214c-1.1,0-1.9,0.9-1.9,2
	v1.3c0,1.1,0.9,2,1.9,2h3.7c1.7,0,3,1.3,3,3v1.7C220.7,414.1,219.4,415.4,217.8,415.4z"/>
<path class="st3" d="M507.2,204.1c-0.3,0-0.6-0.1-0.8-0.3l-0.3-0.3c-0.1-0.1-0.3-0.2-0.5-0.2c-0.7,0.1-1.3,0.3-1.9,0.6
	c-1,0.3-2.1,0.4-3.2,0.3h-1.3c-1.6,0.2-3.1-1.1-3.3-2.7c0-0.1,0-0.3,0-0.4v-15.9h-2.4v-1.3h5.9v1.3h-2.1v15.6c0,1.1,0.9,2,2,2h4.7
	c1.1,0,2-0.9,2-2v-15.6h-2.1v-1.3h5.9v1.3h-2.4v17.6h2.4v1.3L507.2,204.1z"/>
<path class="st3" d="M520.3,204.1H516c-1.7,0-3-1.3-3-3v-0.7h1.4v0.4c0,1.1,0.9,2,2,2h3.5c1.1,0,2-0.9,2-2v-1.1c0-1.1-0.9-2-2-2
	h-3.7c-1.6,0-3-1.3-3-2.9v-1.9c0-1.7,1.3-3,3-3h5.3c0.3,0,0.6,0.2,0.7,0.6v3h-1.4v-2.3h-4.1c-1.1,0-2,0.9-2,2v1.3c0,1.1,0.9,2,2,2
	h3.7c1.7,0,3,1.3,3,3l0,0v1.7C523.2,202.8,521.9,204.1,520.3,204.1z"/>
<path class="st3" d="M536.5,197.8h-7.8v3.1c0,1.1,0.9,2,2,2h4.6c0.3,0,0.6,0.2,0.6,0.5c0,0,0,0,0,0v0.2c0,0.3-0.3,0.5-0.6,0.5
	c0,0,0,0,0,0h-5c-1.7,0-3-1.3-3-3v-8.3c0-1.7,1.3-3,3-3h4.6c1.7,0,3,1.3,3,3v3.6c0,0.7-0.4,1.2-1.1,1.3
	C536.7,197.8,536.6,197.8,536.5,197.8z M536.4,193.2c0.1-1.1-0.8-1.9-1.8-2c-0.1,0-0.1,0-0.2,0h-3.8c-1.1,0-2,0.9-2,2v3.3h7.7
	L536.4,193.2z"/>
<path class="st3" d="M551.2,191.3h-4.7c-1.1,0-2,0.9-2,2v9.6h2.4v1.3h-6.2v-1.3h2.3v-11.6h-2.4v-1.3h2.8c0.3,0,0.6,0.1,0.8,0.3
	l0.2,0.2c0.1,0.2,0.3,0.3,0.6,0.3c0.8,0,1.3-0.9,3.9-0.9h2.4c0.3,0,0.6,0.2,0.6,0.5v0.2C551.7,191,551.5,191.2,551.2,191.3z"/>
<path class="st3" d="M560.8,204.1h-4.3c-1.7,0-3-1.3-3-3v-0.7h1.4v0.4c0,1.1,0.9,2,2,2h3.5c1.1,0,2-0.9,2-2v-1.1c0-1.1-0.9-2-2-2
	h-3.7c-1.6,0-3-1.3-3-2.9v-1.9c0-1.7,1.3-3,3-3h5.3c0.3,0,0.6,0.2,0.7,0.6v3h-1.4v-2.3H557c-1.1,0-2,0.9-2,2v1.3c0,1.1,0.9,2,2,2
	h3.7c1.7,0,3,1.3,3,3l0,0v1.7C563.7,202.8,562.4,204.1,560.8,204.1z"/>
<path class="st3" d="M709.2,221.6c-0.3,0-0.6-0.1-0.8-0.3L708,221c-0.1-0.1-0.3-0.2-0.5-0.2c-0.7,0.1-1.3,0.3-1.9,0.6
	c-1,0.3-2.1,0.4-3.2,0.3h-1.3c-1.6,0.2-3.1-1.1-3.3-2.7c0-0.1,0-0.3,0-0.4v-15.9h-2.4v-1.3h5.9v1.3h-2.1v15.6c0,1.1,0.9,2,2,2h4.8
	c1.1,0,2-0.9,2-2v-15.6h-2.1v-1.3h5.9v1.3h-2.4v17.6h2.4v1.3H709.2z"/>
<path class="st3" d="M722.3,221.6H718c-1.7,0-3-1.3-3-3V218h1.4v0.4c0,1.1,0.9,1.9,2,1.9h3.5c1.1,0,2-0.9,2-2v-1.2
	c0-1.1-0.9-2-2-1.9h-3.7c-1.6,0-3-1.3-3-2.9v-1.9c0-1.7,1.3-3,3-3h5.3c0.3,0,0.6,0.2,0.7,0.6v3h-1.4v-2.3h-4.1c-1.1,0-2,0.9-2,1.9
	v1.4c0,1.1,0.9,2,2,2h3.7c1.7,0,3,1.3,3,3v1.7C725.2,220.3,723.9,221.6,722.3,221.6z"/>
<path class="st3" d="M738.5,215.3h-7.8v3.1c0,1.1,0.9,2,2,2h4.6c0.3,0,0.6,0.2,0.6,0.5c0,0,0,0,0,0v0.2c0,0.3-0.3,0.5-0.6,0.5
	c0,0,0,0,0,0h-5c-1.7,0-3-1.3-3-3v-8.3c0-1.7,1.3-3,3-3h4.6c1.7,0,3,1.3,3,3v3.6c0,0.7-0.5,1.2-1.1,1.3
	C738.6,215.3,738.5,215.3,738.5,215.3z M738.4,210.7c0-1.1-0.8-1.9-1.9-2c0,0-0.1,0-0.1,0h-3.8c-1.1,0-2,0.9-2,1.9v3.3h7.7
	L738.4,210.7z"/>
<path class="st3" d="M753.2,208.7h-4.7c-1.1,0-2,0.9-2,2v9.6h2.4v1.3h-6.2v-1.3h2.4v-11.6h-2.4v-1.3h2.8c0.3,0,0.6,0.1,0.8,0.3
	l0.2,0.2c0.1,0.2,0.3,0.3,0.6,0.3c0.8,0,1.3-0.9,3.9-0.9h2.4c0.3,0,0.6,0.2,0.6,0.5v0.2C753.7,208.5,753.5,208.7,753.2,208.7z"/>
<path class="st3" d="M762.8,221.6h-4.3c-1.7,0-3-1.3-3-3V218h1.4v0.4c0,1.1,0.9,2,2,1.9h3.5c1.1,0,2-0.9,2-2v-1.2
	c0-1.1-0.9-1.9-2-1.9h-3.7c-1.6,0-3-1.3-3-2.9v-1.9c0-1.7,1.3-3,3-3h5.3c0.3,0,0.6,0.2,0.7,0.6v3h-1.4v-2.3H759c-1.1,0-2,0.9-2,1.9
	v1.4c0,1.1,0.9,2,2,2h3.7c1.7,0,3,1.3,3,3v1.7C765.7,220.3,764.4,221.6,762.8,221.6z"/>
<path class="st3" d="M1087.2,235.4c-0.3,0-0.6-0.1-0.8-0.3l-0.3-0.3c-0.1-0.1-0.3-0.2-0.5-0.2c-0.7,0.1-1.3,0.3-1.9,0.6
	c-1,0.3-2.1,0.4-3.2,0.3h-1.3c-1.7,0.2-3.1-1.1-3.3-2.7c0-0.1,0-0.3,0-0.4v-15.9h-2.4v-1.3h5.9v1.3h-2.1v15.6c0,1.1,0.9,2,2,2h4.7
	c1.1,0,2-0.9,2-2v-15.6h-2.1v-1.3h5.9v1.3h-2.4v17.6h2.4v1.3L1087.2,235.4z"/>
<path class="st3" d="M1100.3,235.4h-4.3c-1.7,0-3-1.3-3-3v-0.7h1.4v0.4c0,1.1,0.9,2,2,1.9h3.5c1.1,0,2-0.9,1.9-2v-1.1
	c0-1.1-0.9-1.9-1.9-1.9h-3.7c-1.6,0-3-1.3-3-2.9v-1.9c0-1.7,1.3-3,3-3h5.3c0.3,0,0.6,0.2,0.7,0.6v3h-1.4v-2.3h-4.1c-1.1,0-2,0.9-2,2
	v1.3c0,1.1,0.9,2,2,1.9h3.7c1.7,0,3,1.3,3,3v1.7C1103.3,234.1,1102,235.4,1100.3,235.4z"/>
<path class="st3" d="M1116.5,229h-7.8v3.1c0,1.1,0.9,2,2,2h4.6c0.3,0,0.6,0.2,0.6,0.5c0,0,0,0,0,0v0.2c0,0.3-0.3,0.5-0.6,0.5
	c0,0,0,0,0,0h-5c-1.7,0-3-1.3-3-3v-8.3c0-1.7,1.3-3,3-3h4.6c1.7,0,3,1.3,3,3v3.6c0,0.7-0.5,1.2-1.1,1.3
	C1116.6,229,1116.5,229,1116.5,229z M1116.4,224.4c0-1.1-0.8-1.9-1.8-2c0,0-0.1,0-0.1,0h-3.8c-1.1,0-2,0.9-2,2v3.3h7.7L1116.4,224.4
	z"/>
<path class="st3" d="M1131.2,222.5h-4.7c-1.1,0-2,0.9-2,2v9.6h2.4v1.3h-6.2V234h2.4v-11.6h-2.4v-1.3h2.8c0.3,0,0.6,0.1,0.8,0.3
	l0.2,0.2c0.1,0.2,0.3,0.3,0.6,0.3c0.8,0,1.3-0.9,3.9-0.9h2.4c0.3,0,0.6,0.2,0.6,0.5v0.2C1131.7,222.2,1131.5,222.5,1131.2,222.5
	C1131.2,222.5,1131.2,222.5,1131.2,222.5z"/>
<path class="st3" d="M1140.8,235.4h-4.3c-1.7,0-3-1.3-3-3v-0.7h1.4v0.4c0,1.1,0.9,1.9,1.9,1.9h3.5c1.1,0,2-0.9,2-2v-1.1
	c0-1.1-0.9-2-2-1.9h-3.7c-1.6,0-3-1.3-3-2.9v-1.9c0-1.7,1.3-3,3-3h5.3c0.3,0,0.6,0.2,0.7,0.6v3h-1.4v-2.3h-4.2c-1.1,0-2,0.9-2,2v1.3
	c0,1.1,0.9,2,2,1.9h3.7c1.7,0,3,1.3,3,3v1.7C1143.7,234,1142.4,235.4,1140.8,235.4z"/>
<path class="st3" d="M1054.2,444.4c-0.3,0-0.6-0.1-0.8-0.3l-0.3-0.3c-0.1-0.1-0.3-0.2-0.5-0.2c-0.7,0.1-1.3,0.3-1.9,0.6
	c-1,0.3-2.1,0.4-3.2,0.3h-1.3c-1.7,0.2-3.1-1.1-3.3-2.7c0-0.1,0-0.3,0-0.4v-15.9h-2.4v-1.3h5.9v1.3h-2.1v15.6c0,1.1,0.9,2,2,2h4.7
	c1.1,0,2-0.9,2-2v-15.6h-2.1v-1.3h5.9v1.3h-2.4v17.6h2.4v1.3H1054.2z"/>
<path class="st3" d="M1067.3,444.4h-4.3c-1.7,0-3-1.3-3-3v-0.7h1.4v0.4c0,1.1,0.9,2,2,2h3.5c1.1,0,2-0.9,1.9-2V440
	c0-1.1-0.9-1.9-1.9-2h-3.7c-1.6,0-3-1.3-3-2.9v-1.9c0-1.7,1.3-3,3-3h5.3c0.3,0,0.6,0.2,0.7,0.6v3h-1.4v-2.3h-4.1c-1.1,0-2,0.9-2,2
	v1.3c0,1.1,0.9,2,2,2h3.7c1.7,0,3,1.3,3,3v1.7C1070.3,443.1,1069,444.4,1067.3,444.4z"/>
<path class="st3" d="M1083.5,438h-7.8v3.1c0,1.1,0.9,2,2,2h4.6c0.3,0,0.6,0.2,0.6,0.5c0,0,0,0,0,0v0.2c0,0.3-0.3,0.5-0.6,0.5
	c0,0,0,0,0,0h-5c-1.7,0-3-1.3-3-3v-8.3c0-1.7,1.3-3,3-3h4.6c1.7,0,3,1.3,3,3v3.6c0,0.7-0.5,1.2-1.1,1.3
	C1083.6,438,1083.5,438,1083.5,438z M1083.4,433.4c0-1.1-0.8-1.9-1.9-2c0,0-0.1,0-0.1,0h-3.8c-1.1,0-2,0.9-2,2v3.3h7.7L1083.4,433.4
	z"/>
<path class="st3" d="M1098.2,431.5h-4.7c-1.1,0-2,0.9-2,2v9.6h2.4v1.3h-6.2v-1.3h2.4v-11.6h-2.4v-1.3h2.8c0.3,0,0.6,0.1,0.8,0.3
	l0.2,0.2c0.1,0.2,0.3,0.3,0.6,0.3c0.8,0,1.3-0.9,3.9-0.9h2.4c0.3,0,0.6,0.2,0.6,0.5v0.3C1098.7,431.3,1098.5,431.5,1098.2,431.5z"/>
<path class="st3" d="M1107.8,444.4h-4.3c-1.7,0-3-1.3-3-3v-0.7h1.4v0.4c0,1.1,0.9,1.9,1.9,2h3.5c1.1,0,2-0.9,2-2V440
	c0-1.1-0.9-2-2-2h-3.7c-1.6,0-3-1.3-3-2.9v-1.9c0-1.7,1.3-3,3-3h5.3c0.3,0,0.6,0.2,0.7,0.6v3h-1.4v-2.3h-4.2c-1.1,0-2,0.9-2,2v1.3
	c0,1.1,0.9,2,2,2h3.7c1.7,0,3,1.3,3,3v1.7C1110.7,443.1,1109.4,444.4,1107.8,444.4z"/>
<path class="st3" d="M1172.2,549.4c-0.3,0-0.6-0.1-0.8-0.3l-0.3-0.3c-0.1-0.1-0.3-0.2-0.5-0.2c-0.7,0.1-1.3,0.3-1.9,0.6
	c-1,0.3-2.1,0.4-3.2,0.3h-1.3c-1.7,0.2-3.1-1.1-3.3-2.7c0-0.1,0-0.3,0-0.4v-15.9h-2.4v-1.3h5.9v1.3h-2.1v15.6c0,1.1,0.9,2,2,2h4.7
	c1.1,0,2-0.9,2-2v-15.6h-2.1v-1.3h5.9v1.3h-2.4v17.6h2.4v1.3H1172.2z"/>
<path class="st3" d="M1185.3,549.4h-4.3c-1.7,0-3-1.3-3-3l0,0v-0.7h1.4v0.4c0,1.1,0.9,2,2,2h3.5c1.1,0,2-0.9,1.9-2V545
	c0-1.1-0.9-1.9-1.9-2h-3.7c-1.6,0-3-1.3-3-2.9v-1.9c0-1.7,1.3-3,3-3h5.3c0.3,0,0.6,0.2,0.7,0.6v3h-1.4v-2.3h-4.1c-1.1,0-2,0.9-2,2
	v1.3c0,1.1,0.9,2,2,2h3.7c1.7,0,3,1.3,3,3v1.7C1188.3,548.1,1186.9,549.4,1185.3,549.4z"/>
<path class="st3" d="M1201.4,543h-7.8v3.1c0,1.1,0.9,2,2,2h4.6c0.3,0,0.6,0.2,0.6,0.5c0,0,0,0,0,0v0.2c0,0.3-0.3,0.5-0.6,0.5
	c0,0,0,0,0,0h-5c-1.7,0-3-1.3-3-3v-8.3c0-1.7,1.3-3,3-3l0,0h4.6c1.7,0,3,1.3,3,3l0,0v3.6c0,0.7-0.5,1.2-1.1,1.3
	C1201.6,543,1201.5,543,1201.4,543z M1201.4,538.4c0-1.1-0.8-1.9-1.9-2c0,0-0.1,0-0.1,0h-3.8c-1.1,0-2,0.9-2,2v3.3h7.7L1201.4,538.4
	z"/>
<path class="st3" d="M1216.2,536.5h-4.7c-1.1,0-2,0.9-2,2v9.6h2.4v1.3h-6.2v-1.3h2.4v-11.6h-2.4v-1.3h2.8c0.3,0,0.6,0.1,0.8,0.3
	l0.2,0.2c0.1,0.2,0.3,0.3,0.6,0.3c0.8,0,1.3-0.9,3.9-0.9h2.4c0.3,0,0.6,0.2,0.6,0.5v0.3C1216.7,536.3,1216.4,536.5,1216.2,536.5z"/>
<path class="st3" d="M1225.8,549.4h-4.3c-1.7,0-3-1.3-3-3l0,0v-0.7h1.4v0.4c0,1.1,0.9,1.9,1.9,2h3.5c1.1,0,2-0.9,2-2V545
	c0-1.1-0.9-2-2-2h-3.7c-1.6,0-3-1.3-3-2.9v-1.9c0-1.7,1.3-3,3-3h5.3c0.3,0,0.6,0.2,0.7,0.6v3h-1.4v-2.3h-4.1c-1.1,0-2,0.9-2,2v1.3
	c0,1.1,0.9,2,2,2h3.7c1.7,0,3,1.3,3,3v1.7C1228.7,548.1,1227.4,549.4,1225.8,549.4z"/>
<path class="st3" d="M1048.2,647.4c-0.3,0-0.6-0.1-0.8-0.3l-0.3-0.3c-0.1-0.1-0.3-0.2-0.5-0.2c-0.7,0.1-1.3,0.3-1.9,0.6
	c-1,0.3-2.1,0.4-3.2,0.3h-1.3c-1.7,0.2-3.1-1.1-3.3-2.7c0-0.1,0-0.3,0-0.4v-15.9h-2.4v-1.3h5.9v1.3h-2.1v15.6c0,1.1,0.9,2,2,2h4.7
	c1.1,0,2-0.9,2-2v-15.6h-2.1v-1.3h5.9v1.3h-2.4v17.6h2.4v1.3H1048.2z"/>
<path class="st3" d="M1061.3,647.4h-4.3c-1.7,0-3-1.3-3-3v-0.7h1.4v0.4c0,1.1,0.9,2,2,2h3.5c1.1,0,2-0.9,1.9-2V643
	c0-1.1-0.9-2-1.9-2h-3.7c-1.6,0-3-1.3-3-2.9v-1.9c0-1.7,1.3-3,3-3h5.3c0.3,0,0.6,0.2,0.7,0.6v3h-1.4v-2.2h-4.1c-1.1,0-2,0.9-2,2v1.3
	c0,1.1,0.9,2,2,2h3.7c1.7,0,3,1.3,3,3v1.7C1064.2,646.2,1062.9,647.4,1061.3,647.4z"/>
<path class="st3" d="M1077.5,641h-7.8v3.1c0,1.1,0.9,2,2,2h4.6c0.3,0,0.6,0.2,0.6,0.5c0,0,0,0,0,0v0.2c0,0.3-0.3,0.5-0.6,0.5
	c0,0,0,0,0,0h-5c-1.7,0-3-1.3-3-3v-8.3c0-1.7,1.3-3,3-3h4.6c1.7,0,3,1.3,3,3v3.6c0,0.7-0.5,1.2-1.1,1.3
	C1077.6,641,1077.5,641,1077.5,641z M1077.4,636.4c0-1.1-0.8-1.9-1.8-2c0,0-0.1,0-0.1,0h-3.8c-1.1,0-2,0.9-2,2v3.3h7.7L1077.4,636.4
	z"/>
<path class="st3" d="M1092.2,634.5h-4.7c-1.1,0-2,0.9-2,2v9.6h2.4v1.3h-6.2v-1.3h2.4v-11.6h-2.4v-1.3h2.8c0.3,0,0.6,0.1,0.8,0.3
	l0.2,0.2c0.1,0.2,0.3,0.3,0.6,0.3c0.8,0,1.3-0.9,3.9-0.9h2.4c0.3,0,0.6,0.2,0.6,0.5v0.3C1092.7,634.3,1092.5,634.5,1092.2,634.5z"/>
<path class="st3" d="M1101.8,647.4h-4.3c-1.7,0-3-1.3-3-3v-0.7h1.4v0.4c0,1.1,0.9,2,1.9,2h3.5c1.1,0,2-0.9,2-2V643c0-1.1-0.9-2-2-2
	h-3.7c-1.6,0-3-1.3-3-2.9v-1.9c0-1.7,1.3-3,3-3h5.3c0.3,0,0.6,0.2,0.7,0.6v3h-1.4v-2.2h-4.2c-1.1,0-2,0.9-2,2v1.3c0,1.1,0.9,2,2,2
	h3.7c1.7,0,3,1.3,3,3v1.7C1104.6,646.1,1103.3,647.4,1101.8,647.4z"/>
<path class="st3" d="M730.2,437.4c-0.3,0-0.6-0.1-0.8-0.3l-0.3-0.3c-0.1-0.1-0.3-0.2-0.5-0.2c-0.7,0.1-1.3,0.3-1.9,0.6
	c-1,0.3-2.1,0.4-3.2,0.3h-1.3c-1.6,0.2-3.1-1.1-3.3-2.7c0-0.1,0-0.3,0-0.4v-15.9h-2.4v-1.3h5.9v1.3h-2.1v15.6c0,1.1,0.9,2,2,2h4.7
	c1.1,0,2-0.9,2-2v-15.6h-2.1v-1.3h5.9v1.3h-2.4v17.6h2.4v1.3L730.2,437.4z"/>
<path class="st3" d="M743.3,437.4H739c-1.7,0-3-1.3-3-3v-0.7h1.4v0.4c0,1.1,0.9,1.9,2,2h3.5c1.1,0,2-0.9,2-2V433c0-1.1-0.9-2-2-2
	h-3.7c-1.6,0-3-1.3-3-2.9v-1.9c0-1.7,1.3-3,3-3h5.3c0.3,0,0.6,0.2,0.7,0.6v3h-1.4v-2.3h-4.1c-1.1,0-2,0.9-2,2v1.3c0,1.1,0.9,2,2,2
	h3.7c1.7,0,3,1.3,3,3v1.7C746.2,436.1,744.9,437.4,743.3,437.4z"/>
<path class="st3" d="M759.5,431h-7.8v3.1c0,1.1,0.9,2,2,2h4.6c0.3,0,0.6,0.2,0.6,0.5c0,0,0,0,0,0v0.2c0,0.3-0.3,0.5-0.6,0.5
	c0,0,0,0,0,0h-5c-1.7,0-3-1.3-3-3v-8.3c0-1.7,1.3-3,3-3h4.6c1.7,0,3,1.3,3,3v3.6c0,0.7-0.5,1.2-1.1,1.3
	C759.6,431,759.5,431,759.5,431z M759.4,426.4c0-1.1-0.8-1.9-1.9-2c0,0-0.1,0-0.1,0h-3.8c-1.1,0-2,0.9-2,2v3.3h7.7L759.4,426.4z"/>
<path class="st3" d="M774.2,424.5h-4.7c-1.1,0-2,0.9-2,2v9.6h2.4v1.3h-6.2v-1.3h2.4v-11.6h-2.4v-1.3h2.8c0.3,0,0.6,0.1,0.8,0.3
	l0.2,0.2c0.1,0.2,0.3,0.3,0.6,0.3c0.8,0,1.3-0.9,3.9-0.9h2.4c0.3,0,0.6,0.2,0.6,0.5v0.3C774.7,424.3,774.4,424.5,774.2,424.5z"/>
<path class="st3" d="M783.8,437.4h-4.3c-1.7,0-3-1.3-3-3v-0.7h1.4v0.4c0,1.1,0.9,2,2,2h3.5c1.1,0,2-0.9,2-2V433c0-1.1-0.9-1.9-2-2
	h-3.7c-1.6,0-3-1.3-3-2.9v-1.9c0-1.7,1.3-3,3-3h5.3c0.3,0,0.6,0.2,0.7,0.6v3h-1.4v-2.3H780c-1.1,0-2,0.9-2,2v1.3c0,1.1,0.9,2,2,2
	h3.7c1.7,0,3,1.3,3,3v1.7C786.7,436.1,785.4,437.4,783.8,437.4z"/>
<path class="st3" d="M758.2,708.4c-0.3,0-0.6-0.1-0.8-0.3l-0.3-0.3c-0.1-0.1-0.3-0.2-0.5-0.2c-0.7,0.1-1.3,0.3-1.9,0.6
	c-1,0.3-2.1,0.4-3.2,0.3h-1.3c-1.6,0.2-3.1-1.1-3.3-2.7c0-0.1,0-0.3,0-0.4v-15.9h-2.4v-1.3h5.9v1.3h-2.1v15.6c0,1.1,0.9,2,2,2h4.7
	c1.1,0,2-0.9,2-2v-15.6h-2.1v-1.3h5.9v1.3h-2.4v17.6h2.4v1.3H758.2z"/>
<path class="st3" d="M771.3,708.4H767c-1.7,0-3-1.3-3-3v-0.7h1.4v0.4c0,1.1,0.9,2,2,2h3.5c1.1,0,2-0.9,2-2V704c0-1.1-0.9-2-2-2h-3.7
	c-1.6,0-3-1.3-3-2.9v-1.9c0-1.7,1.3-3,3-3h5.3c0.3,0,0.6,0.2,0.7,0.6v3h-1.4v-2.3h-4.1c-1.1,0-2,0.9-2,2v1.3c0,1.1,0.9,2,2,2h3.7
	c1.7,0,3,1.3,3,3v1.7C774.2,707.1,772.9,708.4,771.3,708.4z"/>
<path class="st3" d="M787.5,702h-7.8v3.1c0,1.1,0.9,2,2,2h4.6c0.3,0,0.6,0.2,0.6,0.5c0,0,0,0,0,0v0.2c0,0.3-0.3,0.5-0.6,0.5
	c0,0,0,0,0,0h-5c-1.7,0-3-1.3-3-3v-8.3c0-1.7,1.3-3,3-3h4.6c1.7,0,3,1.3,3,3v3.6c0,0.7-0.5,1.2-1.1,1.3
	C787.6,702,787.5,702,787.5,702z M787.4,697.4c0.1-1.1-0.8-1.9-1.8-2c-0.1,0-0.1,0-0.2,0h-3.8c-1.1,0-2,0.9-2,2v3.3h7.7L787.4,697.4
	z"/>
<path class="st3" d="M802.2,695.5h-4.7c-1.1,0-2,0.9-2,2v9.6h2.4v1.3h-6.2v-1.3h2.4v-11.6h-2.4v-1.3h2.8c0.3,0,0.6,0.1,0.8,0.3
	l0.2,0.2c0.1,0.2,0.3,0.3,0.6,0.3c0.8,0,1.3-0.9,3.9-0.9h2.4c0.3,0,0.6,0.2,0.6,0.5v0.3C802.7,695.3,802.4,695.5,802.2,695.5z"/>
<path class="st3" d="M811.8,708.4h-4.3c-1.7,0-3-1.3-3-3v-0.7h1.4v0.4c0,1.1,0.9,2,2,2h3.5c1.1,0,2-0.9,2-2V704c0-1.1-0.9-2-2-2
	h-3.7c-1.6,0-3-1.3-3-2.9v-1.9c0-1.7,1.3-3,3-3h5.3c0.3,0,0.6,0.2,0.7,0.6v3h-1.4v-2.3H808c-1.1,0-2,0.9-2,2v1.3c0,1.1,0.9,2,2,2
	h3.7c1.7,0,3,1.3,3,3v1.7C814.7,707.1,813.4,708.4,811.8,708.4z"/>
<path class="st3" d="M462.2,647.4c-0.3,0-0.6-0.1-0.8-0.3l-0.3-0.3c-0.1-0.1-0.3-0.2-0.5-0.2c-0.7,0.1-1.3,0.3-1.9,0.6
	c-1,0.3-2.1,0.4-3.2,0.3h-1.3c-1.6,0.2-3.1-1.1-3.3-2.7c0-0.1,0-0.3,0-0.4v-15.9h-2.4v-1.3h5.9v1.3h-2.1v15.6c0,1.1,0.9,2,2,2h4.7
	c1.1,0,2-0.9,2-2v-15.6h-2.1v-1.3h5.9v1.3h-2.4v17.6h2.4v1.3H462.2z"/>
<path class="st3" d="M475.3,647.4H471c-1.7,0-3-1.3-3-3v-0.7h1.4v0.4c0,1.1,0.9,2,2,2h3.5c1.1,0,2-0.9,2-2V643c0-1.1-0.9-2-2-2h-3.7
	c-1.6,0-3-1.3-3-2.9v-1.9c0-1.7,1.3-3,3-3h5.3c0.3,0,0.6,0.2,0.7,0.6v3h-1.4v-2.2h-4.1c-1.1,0-2,0.9-2,2v1.3c0,1.1,0.9,2,2,2h3.7
	c1.7,0,3,1.3,3,3v1.7C478.2,646.1,476.9,647.4,475.3,647.4z"/>
<path class="st3" d="M491.4,641h-7.8v3.1c0,1.1,0.9,2,2,2h4.6c0.3,0,0.6,0.2,0.6,0.5c0,0,0,0,0,0v0.2c0,0.3-0.3,0.5-0.6,0.5
	c0,0,0,0,0,0h-5c-1.7,0-3-1.3-3-3v-8.3c0-1.7,1.3-3,3-3h4.6c1.7,0,3,1.3,3,3v3.6c0,0.7-0.5,1.2-1.1,1.3
	C491.6,641,491.5,641,491.4,641z M491.4,636.4c0.1-1.1-0.8-1.9-1.8-2c-0.1,0-0.1,0-0.2,0h-3.8c-1.1,0-2,0.9-2,2v3.3h7.7L491.4,636.4
	z"/>
<path class="st3" d="M506.1,634.5h-4.7c-1.1,0-2,0.9-2,2v9.6h2.4v1.3h-6.2v-1.3h2.4v-11.6h-2.4v-1.3h2.8c0.3,0,0.6,0.1,0.8,0.3
	l0.2,0.2c0.1,0.2,0.3,0.3,0.6,0.3c0.8,0,1.3-0.9,3.9-0.9h2.4c0.3,0,0.6,0.2,0.6,0.5v0.3C506.7,634.3,506.4,634.5,506.1,634.5z"/>
<path class="st3" d="M515.7,647.4h-4.3c-1.7,0-3-1.3-3-3v-0.7h1.4v0.4c0,1.1,0.9,2,2,2h3.5c1.1,0,2-0.9,2-2V643c0-1.1-0.9-2-2-2
	h-3.7c-1.6,0-3-1.3-3-2.9v-1.9c0-1.7,1.3-3,3-3h5.3c0.3,0,0.6,0.2,0.7,0.6v3h-1.4v-2.2H512c-1.1,0-2,0.9-2,2v1.3c0,1.1,0.9,2,2,2
	h3.7c1.7,0,3,1.3,3,3v1.7C518.6,646.1,517.3,647.4,515.7,647.4z"/>
<path class="st3" d="M350.2,542.4c-0.3,0-0.6-0.1-0.8-0.3l-0.3-0.3c-0.1-0.1-0.3-0.2-0.5-0.2c-0.7,0.1-1.3,0.3-1.9,0.6
	c-1,0.3-2.1,0.4-3.2,0.3h-1.3c-1.6,0.2-3.1-1.1-3.3-2.7c0-0.1,0-0.3,0-0.4v-15.9h-2.4v-1.3h5.9v1.3h-2.1v15.6c0,1.1,0.9,2,2,2h4.7
	c1.1,0,2-0.9,2-2v-15.6h-2.1v-1.3h5.9v1.3h-2.4v17.6h2.4v1.3H350.2z"/>
<path class="st3" d="M363.3,542.4H359c-1.7,0-3-1.3-3-3l0,0v-0.7h1.4v0.4c0,1.1,0.9,2,2,2h3.5c1.1,0,2-0.9,2-2V538
	c0-1.1-0.9-1.9-2-2h-3.7c-1.6,0-3-1.3-3-2.9v-1.9c0-1.7,1.3-3,3-3h5.3c0.3,0,0.6,0.2,0.7,0.6v3h-1.5v-2.3h-4.1c-1.1,0-1.9,0.9-2,2
	v1.3c0,1.1,0.9,2,2,2h3.7c1.7,0,3,1.3,3,3l0,0v1.7C366.2,541.1,364.9,542.4,363.3,542.4z"/>
<path class="st3" d="M379.5,536h-7.8v3.1c0,1.1,0.9,2,2,2h4.6c0.3,0,0.6,0.2,0.6,0.5c0,0,0,0,0,0v0.2c0,0.3-0.3,0.5-0.6,0.5
	c0,0,0,0,0,0h-5c-1.7,0-3-1.3-3-3v-8.3c0-1.7,1.3-3,3-3h4.6c1.7,0,3,1.3,3,3v3.6c0,0.7-0.5,1.2-1.1,1.3
	C379.6,536,379.5,536,379.5,536z M379.4,531.4c0-1.1-0.8-1.9-1.9-2c0,0-0.1,0-0.1,0h-3.8c-1.1,0-2,0.9-2,2v3.3h7.7L379.4,531.4z"/>
<path class="st3" d="M394.1,529.5h-4.7c-1.1,0-2,0.9-2,2v9.6h2.4v1.3h-6.2v-1.3h2.4v-11.6h-2.4v-1.3h2.8c0.3,0,0.6,0.1,0.8,0.3
	l0.2,0.2c0.1,0.2,0.3,0.3,0.6,0.3c0.8,0,1.3-0.9,3.9-0.9h2.4c0.3,0,0.6,0.2,0.6,0.5v0.3C394.7,529.3,394.4,529.5,394.1,529.5z"/>
<path class="st3" d="M403.8,542.4h-4.3c-1.7,0-3-1.3-3-3l0,0v-0.7h1.4v0.4c0,1.1,0.9,2,2,2h3.5c1.1,0,2-0.9,2-2V538
	c0-1.1-0.9-1.9-2-2h-3.7c-1.6,0-3-1.3-3-2.9v-1.9c0-1.7,1.3-3,3-3h5.3c0.3,0,0.6,0.2,0.7,0.6v3h-1.4v-2.3H400c-1.1,0-1.9,0.9-2,2
	v1.3c0,1.1,0.9,2,2,2h3.7c1.7,0,3,1.3,3,3l0,0v1.7C406.7,541.1,405.4,542.4,403.8,542.4z"/>
<path class="st3" d="M197.2,612.7c-0.3,0-0.6-0.1-0.8-0.3l-0.3-0.3c-0.1-0.1-0.3-0.2-0.5-0.2c-0.7,0.1-1.3,0.3-1.9,0.6
	c-1,0.3-2.1,0.4-3.2,0.3h-1.3c-1.6,0.2-3.1-1.1-3.3-2.7c0-0.1,0-0.3,0-0.4v-15.9h-2.4v-1.3h5.9v1.3h-2.1v15.6c0,1.1,0.9,2,2,2h4.7
	c1.1,0,2-0.9,2-2v-15.6h-2.1v-1.3h5.9v1.3h-2.4v17.6h2.4v1.3L197.2,612.7z"/>
<path class="st3" d="M210.3,612.7H206c-1.7,0-3-1.3-3-3V609h1.4v0.4c0,1.1,0.9,2,1.9,2h3.5c1.1,0,2-0.9,2-2v-1.1c0-1.1-0.9-2-2-2
	h-3.7c-1.6,0-3-1.3-3-2.9v-1.9c0-1.7,1.3-3,3-3h5.3c0.3,0,0.6,0.2,0.7,0.6v3h-1.4v-2.3h-4.1c-1.1,0-2,0.9-1.9,2v1.3
	c0,1.1,0.9,2,1.9,2h3.7c1.7,0,3,1.3,3,3v1.7C213.2,611.4,211.9,612.6,210.3,612.7z"/>
<path class="st3" d="M226.4,606.3h-7.8v3.1c0,1.1,0.9,2,2,2h4.6c0.3,0,0.6,0.2,0.6,0.5c0,0,0,0,0,0v0.2c0,0.3-0.3,0.5-0.6,0.5
	c0,0,0,0,0,0h-5c-1.7,0-3-1.3-3-3v-8.3c0-1.7,1.3-3,3-3h4.6c1.7,0,3,1.3,3,3v3.6c0.1,0.7-0.4,1.2-1.1,1.3
	C226.6,606.3,226.5,606.3,226.4,606.3z M226.4,601.7c0.1-1.1-0.8-1.9-1.8-2c-0.1,0-0.1,0-0.2,0h-3.8c-1.1,0-2,0.9-2,2v3.3h7.7
	L226.4,601.7z"/>
<path class="st3" d="M241.1,599.8h-4.7c-1.1,0-2,0.9-2,2v9.6h2.4v1.3h-6.2v-1.3h2.4v-11.6h-2.4v-1.3h2.8c0.3,0,0.6,0.1,0.8,0.3
	l0.2,0.2c0.1,0.2,0.3,0.3,0.6,0.3c0.8,0,1.3-0.9,3.9-0.9h2.4c0.3,0,0.6,0.2,0.6,0.5v0.2C241.7,599.5,241.4,599.8,241.1,599.8z"/>
<path class="st3" d="M250.8,612.7h-4.3c-1.7,0-3-1.3-3-3V609h1.4v0.4c0,1.1,0.9,2,1.9,2h3.5c1.1,0,2-0.9,1.9-2v-1.1
	c0-1.1-0.9-2-1.9-2h-3.7c-1.6,0-3-1.3-3-2.9v-1.9c0-1.7,1.3-3,3-3h5.3c0.3,0,0.6,0.2,0.7,0.6v3h-1.4v-2.3H247c-1.1,0-2,0.9-1.9,2
	v1.3c0,1.1,0.9,2,1.9,2h3.7c1.7,0,3,1.3,3,3v1.7C253.7,611.4,252.4,612.6,250.8,612.7z"/>
<g>
	<defs>
		<rect id="SVGID_3_" x="-387.6" y="64.7" width="1938" height="974.8"/>
	</defs>
	<clipPath id="SVGID_4_">
		<use xlink:href="#SVGID_3_"  style="overflow:visible;"/>
	</clipPath>
	<g class="st4">
		<circle class="st5" cx="63.9" cy="190.4" r="50.5"/>
		<circle class="st5" cx="185.9" cy="335.4" r="50.5"/>
		<circle class="st5" cx="1108.9" cy="155.4" r="50.5"/>
		<circle class="st5" cx="1075.9" cy="364.4" r="50.5"/>
		<circle class="st5" cx="1069.9" cy="567.4" r="50.5"/>
		<circle class="st5" cx="1193.9" cy="469.4" r="50.5"/>
	</g>
</g>
<path class="st0" d="M193.2,228.4h-10.3v-1.3h2.4v-17.6h-2.4v-1.3h2.8c0.3,0,0.5,0.1,0.7,0.3l0.3,0.3c0.1,0.2,0.3,0.3,0.5,0.3
	c0.7-0.2,1.4-0.4,2-0.7c0.9-0.3,1.7-0.4,2.6-0.3h1.2c1.6-0.2,3.1,1.1,3.3,2.7c0,0.1,0,0.3,0,0.4v14.2
	C196.2,227.1,194.8,228.4,193.2,228.4z M194.8,211.5c0-1.1-0.9-2-2-2h-4.1c-1.1,0-2,0.9-2,2v15.6h5.7c1.3,0,2.4-1.1,2.5-2.4
	L194.8,211.5z"/>
<path class="st0" d="M210.4,222h-7.8v3.1c0,1.1,0.9,2,2,2h4.6c0.3,0,0.6,0.2,0.6,0.5c0,0,0,0,0,0v0.2c0,0.3-0.3,0.5-0.6,0.5
	c0,0,0,0,0,0h-5c-1.7,0-3-1.3-3-3v-8.3c0-1.7,1.3-3,3-3h4.6c1.7,0,3,1.3,3,3v3.6c0,0.7-0.5,1.2-1.1,1.3
	C210.6,222,210.5,222,210.4,222z M210.3,217.4c0-1.1-0.8-1.9-1.9-1.9c0,0-0.1,0-0.1,0h-3.8c-1.1,0-2,0.9-2,1.9v3.3h7.7L210.3,217.4z
	"/>
<path class="st0" d="M226.4,215.5l-4.3,12c-0.1,0.5-0.5,0.8-1,0.9h-0.4c-0.5-0.1-0.9-0.4-1-0.9l-4.3-12h-2v-1.3h5.2v1.3h-1.7
	l2.7,7.7c0.5,1.5,1.3,3.8,1.3,3.8h0.1c0,0,0.8-2.3,1.3-3.8l2.7-7.7h-1.7v-1.3h5.2v1.3H226.4z"/>
<path class="st0" d="M239.8,222h-7.8v3.1c0,1.1,0.9,2,2,2h4.6c0.3,0,0.6,0.2,0.6,0.5c0,0,0,0,0,0v0.2c0,0.3-0.3,0.5-0.6,0.5
	c0,0,0,0,0,0h-5c-1.7,0-3-1.3-3-3v-8.3c0-1.7,1.3-3,3-3h4.6c1.7,0,3,1.3,3,3v3.6c0,0.7-0.5,1.2-1.1,1.3
	C239.9,222,239.8,222,239.8,222z M239.7,217.4c0-1.1-0.8-1.9-1.9-1.9c0,0-0.1,0-0.1,0h-3.8c-1.1,0-2,0.9-2,1.9v3.3h7.7L239.7,217.4z
	"/>
<path class="st0" d="M243.9,228.4v-1.3h2.4v-17.6h-2.4v-1.3h3.3c0.3,0,0.6,0.3,0.6,0.6v18.4h2.4v1.3L243.9,228.4z"/>
<path class="st0" d="M261,228.4h-4.5c-1.7,0-3-1.3-3-3v-8.2c0-1.7,1.3-3,3-3h4.5c1.7,0,3,1.3,3,3v8.2
	C264,227.1,262.7,228.4,261,228.4z M262.6,217.5c0-1.1-0.9-1.9-1.9-1.9h-3.7c-1.1,0-2,0.9-2,1.9v7.7c0,1.1,0.9,2,2,1.9h3.7
	c1.1,0,1.9-0.9,2-1.9L262.6,217.5z"/>
<path class="st0" d="M276.4,228.5h-1c-2.6,0-3.3-1-4.1-1c-0.3,0-0.4,0.3-0.4,0.7v6.1c0,0.4-0.3,0.7-0.7,0.7c0,0-0.1,0-0.1,0h-3.1
	v-1.3h2.4v-18.2h-2.4v-1.3h2.8c0.3,0,0.5,0.1,0.7,0.3l0.2,0.3c0.1,0.2,0.3,0.3,0.6,0.3c0.8,0,1.4-1,4.1-1h1c1.7-0.2,3.2,1.1,3.4,2.8
	c0,0.1,0,0.3,0,0.4v8c0.1,1.7-1.3,3.2-3,3.2C276.7,228.5,276.6,228.5,276.4,228.5z M278.4,217.5c0-1.1-0.9-2-2-2h-3.5
	c-1.1,0-2,0.9-2,2v7.6c0,1.1,0.9,2,2,2h3.5c1.1,0,2-0.9,2-2L278.4,217.5z"/>
<path class="st0" d="M293.4,222h-7.8v3.1c0,1.1,0.9,2,2,2h4.6c0.3,0,0.6,0.2,0.6,0.5c0,0,0,0,0,0v0.2c0,0.3-0.3,0.5-0.6,0.5
	c0,0,0,0,0,0h-5c-1.7,0-3-1.3-3-3v-8.3c0-1.7,1.3-3,3-3h4.6c1.7,0,3,1.3,3,3v3.6c0,0.7-0.4,1.2-1.1,1.3
	C293.6,222,293.5,222,293.4,222z M293.3,217.4c0-1.1-0.8-1.9-1.9-1.9c0,0-0.1,0-0.1,0h-3.8c-1.1,0-2,0.9-2,1.9v3.3h7.7L293.3,217.4z
	"/>
<path class="st0" d="M308.1,215.5h-4.7c-1.1,0-2,0.9-2,2v9.6h2.4v1.3h-6.2v-1.3h2.4v-11.6h-2.4v-1.3h2.8c0.3,0,0.6,0.1,0.8,0.3
	l0.2,0.2c0.1,0.2,0.3,0.3,0.6,0.3c0.8,0,1.3-0.9,3.9-0.9h2.4c0.3,0,0.6,0.2,0.6,0.5v0.3C308.7,215.3,308.4,215.5,308.1,215.5
	C308.1,215.5,308.1,215.5,308.1,215.5z"/>
<path class="st0" d="M317.7,228.4h-4.3c-1.7,0-3-1.3-3-3v-0.7h1.4v0.4c0,1.1,0.9,2,2,1.9h3.5c1.1,0,2-0.9,2-2V224c0-1.1-0.9-2-2-1.9
	h-3.7c-1.6,0-3-1.3-3-2.9v-1.9c0-1.7,1.3-3,3-3h5.3c0.3,0,0.6,0.2,0.7,0.6v3h-1.4v-2.3H314c-1.1,0-1.9,0.9-2,1.9v1.3
	c0,1.1,0.9,2,2,2h3.7c1.7,0,3,1.3,3,3v1.7C320.7,227.1,319.3,228.4,317.7,228.4z"/>
<g>
	<defs>
		<rect id="SVGID_5_" x="-387.6" y="64.7" width="1938" height="974.8"/>
	</defs>
	<clipPath id="SVGID_6_">
		<use xlink:href="#SVGID_5_"  style="overflow:visible;"/>
	</clipPath>
	<g class="st6">
		<circle class="st2" cx="251.9" cy="144.4" r="50.5"/>
	</g>
</g>
<path class="st0" d="M289.2,380.2h-10.3v-1.3h2.4v-17.6h-2.4v-1.3h2.8c0.3,0,0.5,0.1,0.7,0.3l0.3,0.3c0.1,0.2,0.3,0.3,0.5,0.3
	c0.7-0.2,1.3-0.4,2-0.7c0.9-0.3,1.7-0.4,2.6-0.3h1.3c1.6-0.2,3.1,1.1,3.3,2.7c0,0.1,0,0.3,0,0.4v14.2
	C292.2,378.8,290.8,380.2,289.2,380.2z M290.8,363.2c0-1.1-0.9-2-2-2h-4.1c-1.1,0-2,0.9-2,2v15.6h5.7c1.3,0,2.4-1.1,2.5-2.4
	L290.8,363.2z"/>
<path class="st0" d="M306.4,373.8h-7.8v3.1c0,1.1,0.9,2,2,2h4.6c0.3,0,0.6,0.2,0.6,0.5c0,0,0,0,0,0v0.2c0,0.3-0.3,0.5-0.6,0.5
	c0,0,0,0,0,0h-5c-1.7,0-3-1.3-3-3v-8.3c0-1.7,1.3-3,3-3h4.6c1.7,0,3,1.3,3,3v3.6c0,0.7-0.5,1.2-1.1,1.3
	C306.6,373.8,306.5,373.8,306.4,373.8z M306.3,369.2c0-1.1-0.8-1.9-1.8-2c0,0-0.1,0-0.1,0h-3.8c-1.1,0-2,0.9-2,2v3.3h7.7
	L306.3,369.2z"/>
<path class="st0" d="M322.4,367.3l-4.3,12c-0.1,0.5-0.5,0.8-1,0.9h-0.4c-0.5-0.1-0.9-0.4-1-0.9l-4.3-12h-2V366h5.2v1.3h-1.7l2.7,7.7
	c0.5,1.5,1.3,3.8,1.3,3.8h0.1c0,0,0.8-2.3,1.3-3.8l2.7-7.7h-1.7V366h5.2v1.3L322.4,367.3z"/>
<path class="st0" d="M335.8,373.8h-7.8v3.1c0,1.1,0.9,2,2,2h4.6c0.3,0,0.6,0.2,0.6,0.5c0,0,0,0,0,0v0.2c0,0.3-0.3,0.5-0.6,0.5
	c0,0,0,0,0,0h-5c-1.7,0-3-1.3-3-3v-8.3c0-1.7,1.3-3,3-3h4.6c1.7,0,3,1.3,3,3v3.6c0,0.7-0.5,1.2-1.1,1.3
	C335.9,373.8,335.8,373.8,335.8,373.8z M335.7,369.2c0.1-1.1-0.8-1.9-1.8-2c-0.1,0-0.1,0-0.2,0h-3.8c-1.1,0-2,0.9-2,2v3.3h7.7
	L335.7,369.2z"/>
<path class="st0" d="M339.9,380.2v-1.3h2.4v-17.6h-2.4v-1.3h3.3c0.3,0,0.6,0.3,0.6,0.6v18.4h2.4v1.3L339.9,380.2z"/>
<path class="st0" d="M357,380.2h-4.5c-1.7,0-3-1.3-3-3V369c0-1.7,1.3-3,3-3h4.5c1.7,0,3,1.3,3,3v8.2
	C360,378.9,358.6,380.2,357,380.2z M358.6,369.2c0-1.1-0.8-2-1.9-2c0,0,0,0,0,0h-3.7c-1.1,0-2,0.9-2,2v7.7c0,1.1,0.9,2,2,2h3.7
	c1.1,0,2-0.9,2-2L358.6,369.2z"/>
<path class="st0" d="M372.4,380.3h-1c-2.6,0-3.3-1-4.1-1c-0.3,0-0.4,0.3-0.4,0.7v6.1c0,0.4-0.3,0.7-0.7,0.7c0,0-0.1,0-0.1,0h-3.1
	v-1.3h2.4v-18.1h-2.4V366h2.8c0.3,0,0.5,0.1,0.7,0.3l0.2,0.3c0.1,0.2,0.3,0.3,0.6,0.3c0.8,0,1.4-1,4.1-1h1c1.7-0.2,3.2,1.1,3.4,2.8
	c0,0.1,0,0.3,0,0.4v8c0,1.7-1.3,3.1-3,3.2C372.7,380.3,372.6,380.3,372.4,380.3z M374.4,369.3c0-1.1-0.9-2-2-2h-3.5
	c-1.1,0-2,0.9-2,2v7.6c0,1.1,0.9,2,2,2h3.5c1.1,0,2-0.9,2-2L374.4,369.3z"/>
<path class="st0" d="M389.4,373.8h-7.8v3.1c0,1.1,0.9,2,2,2h4.6c0.3,0,0.6,0.2,0.6,0.5c0,0,0,0,0,0v0.2c0,0.3-0.3,0.5-0.6,0.5
	c0,0,0,0,0,0h-5c-1.7,0-3-1.3-3-3v-8.3c0-1.7,1.3-3,3-3h4.6c1.7,0,3,1.3,3,3v3.6c0,0.7-0.4,1.2-1.1,1.3
	C389.6,373.8,389.5,373.8,389.4,373.8z M389.3,369.2c0-1.1-0.8-1.9-1.8-2c0,0-0.1,0-0.1,0h-3.8c-1.1,0-2,0.9-2,2v3.3h7.7
	L389.3,369.2z"/>
<path class="st0" d="M404.1,367.3h-4.7c-1.1,0-2,0.9-2,2v9.6h2.4v1.3h-6.2v-1.3h2.4v-11.6h-2.4V366h2.8c0.3,0,0.6,0.1,0.8,0.3
	l0.2,0.2c0.1,0.2,0.3,0.3,0.6,0.3c0.8,0,1.3-0.9,3.9-0.9h2.4c0.3,0,0.6,0.2,0.6,0.5v0.2C404.7,367.1,404.4,367.3,404.1,367.3z"/>
<path class="st0" d="M413.7,380.2h-4.3c-1.7,0-3-1.3-3-3v-0.7h1.4v0.4c0,1.1,0.9,2,2,2h3.5c1.1,0,2-0.9,2-2v-1.1c0-1.1-0.9-2-2-2
	h-3.7c-1.6,0-3-1.3-3-2.9v-1.9c0-1.7,1.3-3,3-3h5.3c0.3,0,0.6,0.2,0.7,0.6v3h-1.4v-2.3H410c-1.1,0-2,0.9-2,2v1.3c0,1.1,0.9,1.9,2,2
	h3.7c1.7,0,3,1.3,3,3v1.7C416.7,378.9,415.3,380.2,413.7,380.2z"/>
<g>
	<defs>
		<rect id="SVGID_7_" x="-387.6" y="64.7" width="1938" height="974.8"/>
	</defs>
	<clipPath id="SVGID_8_">
		<use xlink:href="#SVGID_7_"  style="overflow:visible;"/>
	</clipPath>
	<g class="st7">
		<circle class="st2" cx="347.9" cy="296.2" r="50.5"/>
	</g>
</g>
<path class="st0" d="M486.2,382.4h-10.3v-1.3h2.4v-17.6h-2.4v-1.3h2.8c0.3,0,0.5,0.1,0.7,0.3l0.3,0.3c0.1,0.2,0.3,0.3,0.5,0.3
	c0.7-0.2,1.3-0.4,2-0.7c0.9-0.3,1.7-0.4,2.6-0.3h1.3c1.6-0.2,3.1,1.1,3.3,2.7c0,0.1,0,0.3,0,0.4v14.2
	C489.2,381.1,487.8,382.4,486.2,382.4z M487.8,365.5c0-1.1-0.9-2-2-2h-4.1c-1.1,0-2,0.9-2,2v15.6h5.7c1.3,0,2.4-1.1,2.5-2.4
	L487.8,365.5z"/>
<path class="st0" d="M503.4,376h-7.8v3.1c0,1.1,0.9,2,2,2h4.6c0.3,0,0.6,0.2,0.6,0.5c0,0,0,0,0,0v0.2c0,0.3-0.3,0.5-0.6,0.5
	c0,0,0,0,0,0h-5c-1.7,0-3-1.3-3-3v-8.3c0-1.7,1.3-3,3-3h4.6c1.7,0,3,1.3,3,3v3.6c0,0.7-0.5,1.2-1.1,1.3
	C503.6,376,503.5,376,503.4,376z M503.3,371.4c0-1.1-0.8-1.9-1.8-2c0,0-0.1,0-0.1,0h-3.8c-1.1,0-2,0.9-2,2v3.3h7.7L503.3,371.4z"/>
<path class="st0" d="M519.4,369.5l-4.3,12c-0.1,0.5-0.5,0.8-1,0.9h-0.4c-0.5-0.1-0.9-0.4-1-0.9l-4.3-12h-2v-1.3h5.2v1.3h-1.7
	l2.7,7.7c0.5,1.5,1.3,3.8,1.3,3.8h0.1c0,0,0.8-2.3,1.3-3.8l2.7-7.7h-1.7v-1.3h5.2v1.3L519.4,369.5z"/>
<path class="st0" d="M532.8,376h-7.8v3.1c0,1.1,0.9,2,2,2h4.6c0.3,0,0.6,0.2,0.6,0.5c0,0,0,0,0,0v0.2c0,0.3-0.3,0.5-0.6,0.5
	c0,0,0,0,0,0h-5c-1.7,0-3-1.3-3-3v-8.3c0-1.7,1.3-3,3-3h4.6c1.7,0,3,1.3,3,3v3.6c0,0.7-0.5,1.2-1.1,1.3
	C532.9,376,532.8,376,532.8,376z M532.7,371.4c0-1.1-0.8-1.9-1.8-2c0,0-0.1,0-0.1,0h-3.8c-1.1,0-2,0.9-2,2v3.3h7.7L532.7,371.4z"/>
<path class="st0" d="M536.9,382.4v-1.3h2.4v-17.6h-2.4v-1.3h3.3c0.3,0,0.6,0.3,0.6,0.6v18.4h2.4v1.3H536.9z"/>
<path class="st0" d="M554,382.4h-4.5c-1.7,0-3-1.3-3-3v-8.2c0-1.7,1.3-3,3-3h4.5c1.7,0,3,1.3,3,3v8.2
	C557,381.1,555.7,382.4,554,382.4z M555.6,371.5c0-1.1-0.8-2-1.9-2c0,0,0,0,0,0H550c-1.1,0-2,0.9-2,2v7.7c0,1.1,0.9,2,2,2h3.7
	c1.1,0,2-0.9,2-2L555.6,371.5z"/>
<path class="st0" d="M569.4,382.5h-1c-2.6,0-3.3-1-4.1-1c-0.3,0-0.4,0.3-0.4,0.7v6.1c0,0.4-0.3,0.7-0.7,0.7c0,0-0.1,0-0.1,0h-3.1
	v-1.3h2.4v-18.2h-2.4v-1.3h2.8c0.3,0,0.5,0.1,0.7,0.3l0.2,0.3c0.1,0.2,0.3,0.3,0.6,0.3c0.8,0,1.4-1,4.1-1h1c1.7-0.2,3.2,1.1,3.4,2.8
	c0,0.1,0,0.3,0,0.4v8c0.1,1.7-1.3,3.2-3,3.2C569.7,382.5,569.6,382.5,569.4,382.5z M571.4,371.5c0-1.1-0.9-2-2-2h-3.5
	c-1.1,0-2,0.9-2,2v7.6c0,1.1,0.9,2,2,2h3.5c1.1,0,2-0.9,2-2L571.4,371.5z"/>
<path class="st0" d="M586.4,376h-7.8v3.1c0,1.1,0.9,2,2,2h4.6c0.3,0,0.6,0.2,0.6,0.5c0,0,0,0,0,0v0.2c0,0.3-0.3,0.5-0.6,0.5
	c0,0,0,0,0,0h-5c-1.7,0-3-1.3-3-3v-8.3c0-1.7,1.3-3,3-3h4.6c1.7,0,3,1.3,3,3v3.6c0,0.7-0.4,1.2-1.1,1.3
	C586.6,376,586.5,376,586.4,376z M586.3,371.4c0-1.1-0.8-1.9-1.8-2c0,0-0.1,0-0.1,0h-3.8c-1.1,0-2,0.9-2,2v3.3h7.7L586.3,371.4z"/>
<path class="st0" d="M601.1,369.5h-4.7c-1.1,0-2,0.9-2,2v9.6h2.4v1.3h-6.2v-1.3h2.4v-11.6h-2.4v-1.3h2.8c0.3,0,0.6,0.1,0.8,0.3
	l0.2,0.2c0.1,0.2,0.3,0.3,0.6,0.3c0.8,0,1.3-0.9,3.9-0.9h2.4c0.3,0,0.6,0.2,0.6,0.5v0.3C601.7,369.3,601.4,369.5,601.1,369.5
	C601.1,369.5,601.1,369.5,601.1,369.5z"/>
<path class="st0" d="M610.7,382.4h-4.3c-1.7,0-3-1.3-3-3v-0.7h1.4v0.4c0,1.1,0.9,2,2,2h3.5c1.1,0,2-0.9,2-2V378c0-1.1-0.9-2-2-2
	h-3.7c-1.6,0-3-1.3-3-2.9v-1.9c0-1.7,1.3-3,3-3h5.3c0.3,0,0.6,0.2,0.7,0.6v3h-1.4v-2.3h-4.1c-1.1,0-2,0.9-2,2v1.3c0,1.1,0.9,2,2,2
	h3.7c1.7,0,3,1.3,3,3v1.7C613.6,381.1,612.3,382.4,610.7,382.4z"/>
<g>
	<defs>
		<rect id="SVGID_9_" x="-387.6" y="64.7" width="1938" height="974.8"/>
	</defs>
	<clipPath id="SVGID_10_">
		<use xlink:href="#SVGID_9_"  style="overflow:visible;"/>
	</clipPath>
	<g class="st8">
		<circle class="st2" cx="544.9" cy="298.4" r="50.5"/>
	</g>
</g>
<path class="st0" d="M826.2,546.4h-10.3v-1.3h2.4v-17.6h-2.4v-1.3h2.8c0.3,0,0.5,0.1,0.7,0.3l0.3,0.3c0.1,0.2,0.3,0.3,0.5,0.3
	c0.7-0.2,1.4-0.4,2-0.7c0.9-0.3,1.7-0.4,2.6-0.3h1.2c1.6-0.2,3.1,1.1,3.3,2.7c0,0.1,0,0.3,0,0.4v14.2
	C829.2,545.1,827.8,546.4,826.2,546.4z M827.8,529.5c0-1.1-0.9-2-2-2h-4.1c-1.1,0-2,0.9-2,2v15.6h5.7c1.3,0,2.4-1.1,2.5-2.4
	L827.8,529.5z"/>
<path class="st0" d="M843.4,540h-7.8v3.1c0,1.1,0.9,2,2,2h4.6c0.3,0,0.6,0.2,0.6,0.5c0,0,0,0,0,0v0.2c0,0.3-0.3,0.5-0.6,0.5
	c0,0,0,0,0,0h-5c-1.7,0-3-1.3-3-3v-8.3c0-1.7,1.3-3,3-3l0,0h4.6c1.7,0,3,1.3,3,3l0,0v3.6c0,0.7-0.5,1.2-1.1,1.3
	C843.6,540,843.5,540,843.4,540z M843.3,535.4c0.1-1.1-0.8-1.9-1.8-2c-0.1,0-0.1,0-0.2,0h-3.8c-1.1,0-2,0.9-2,2v3.3h7.7L843.3,535.4
	z"/>
<path class="st0" d="M859.4,533.5l-4.3,12c-0.1,0.5-0.5,0.8-1,0.9h-0.4c-0.5-0.1-0.9-0.4-1-0.9l-4.3-12h-2v-1.3h5.2v1.3h-1.7
	l2.7,7.7c0.5,1.5,1.3,3.8,1.3,3.8h0.1c0,0,0.8-2.3,1.3-3.8l2.7-7.7h-1.7v-1.3h5.2v1.3H859.4z"/>
<path class="st0" d="M872.8,540h-7.8v3.1c0,1.1,0.9,2,2,2h4.6c0.3,0,0.6,0.2,0.6,0.5c0,0,0,0,0,0v0.2c0,0.3-0.3,0.5-0.6,0.5
	c0,0,0,0,0,0h-5c-1.7,0-3-1.3-3-3v-8.3c0-1.7,1.3-3,3-3l0,0h4.6c1.7,0,3,1.3,3,3l0,0v3.6c0,0.7-0.5,1.2-1.1,1.3
	C872.9,540,872.8,540,872.8,540z M872.7,535.4c0-1.1-0.8-1.9-1.8-2c0,0-0.1,0-0.1,0h-3.8c-1.1,0-2,0.9-2,2v3.3h7.7L872.7,535.4z"/>
<path class="st0" d="M876.9,546.4v-1.3h2.4v-17.6h-2.4v-1.3h3.3c0.3,0,0.6,0.3,0.6,0.6v18.4h2.4v1.3H876.9z"/>
<path class="st0" d="M894,546.4h-4.5c-1.7,0-3-1.3-3-3v-8.2c0-1.7,1.3-3,3-3h4.5c1.7,0,3,1.3,3,3v8.2
	C897,545.1,895.7,546.4,894,546.4z M895.6,535.5c0-1.1-0.8-2-1.9-2c0,0,0,0,0,0H890c-1.1,0-2,0.9-2,2v7.7c0,1.1,0.9,2,2,2h3.7
	c1.1,0,2-0.9,2-2L895.6,535.5z"/>
<path class="st0" d="M909.4,546.5h-1c-2.6,0-3.3-1-4.1-1c-0.3,0-0.4,0.3-0.4,0.7v6.1c0,0.4-0.3,0.7-0.7,0.7c0,0-0.1,0-0.1,0h-3.1
	v-1.3h2.4v-18.2h-2.4v-1.3h2.8c0.3,0,0.5,0.1,0.7,0.3l0.2,0.3c0.1,0.2,0.3,0.3,0.6,0.3c0.8,0,1.4-1,4.1-1h1c1.7-0.2,3.2,1.1,3.4,2.8
	c0,0.1,0,0.3,0,0.4v8c0.1,1.7-1.3,3.2-3,3.2C909.7,546.5,909.6,546.5,909.4,546.5z M911.4,535.5c0-1.1-0.9-2-2-2h-3.5
	c-1.1,0-2,0.9-2,2v7.6c0,1.1,0.9,2,2,2h3.5c1.1,0,2-0.9,2-2L911.4,535.5z"/>
<path class="st0" d="M926.4,540h-7.8v3.1c0,1.1,0.9,2,2,2h4.6c0.3,0,0.6,0.2,0.6,0.5c0,0,0,0,0,0v0.2c0,0.3-0.3,0.5-0.6,0.5
	c0,0,0,0,0,0h-5c-1.7,0-3-1.3-3-3v-8.3c0-1.7,1.3-3,3-3l0,0h4.6c1.7,0,3,1.3,3,3l0,0v3.6c0,0.7-0.4,1.2-1.1,1.3
	C926.6,540,926.5,540,926.4,540z M926.3,535.4c0-1.1-0.8-1.9-1.8-2c0,0-0.1,0-0.1,0h-3.8c-1.1,0-2,0.9-2,2v3.3h7.7L926.3,535.4z"/>
<path class="st0" d="M941.1,533.5h-4.7c-1.1,0-2,0.9-2,2v9.6h2.4v1.3h-6.2v-1.3h2.4v-11.6h-2.4v-1.3h2.8c0.3,0,0.6,0.1,0.8,0.3
	l0.2,0.2c0.1,0.2,0.3,0.3,0.6,0.3c0.8,0,1.3-0.9,3.9-0.9h2.4c0.3,0,0.6,0.2,0.6,0.5v0.3C941.7,533.3,941.4,533.5,941.1,533.5
	C941.1,533.5,941.1,533.5,941.1,533.5z"/>
<path class="st0" d="M950.7,546.4h-4.3c-1.7,0-3-1.3-3-3v-0.7h1.4v0.4c0,1.1,0.9,2,2,2h3.5c1.1,0,2-0.9,2-2V542c0-1.1-0.9-2-2-2
	h-3.7c-1.6,0-3-1.3-3-2.9v-1.9c0-1.7,1.3-3,3-3l0,0h5.3c0.3,0,0.6,0.2,0.7,0.6v3h-1.4v-2.3h-4.1c-1.1,0-2,0.9-2,2v1.3
	c0,1.1,0.9,2,2,2h3.7c1.7,0,3,1.3,3,3v1.7C953.6,545.1,952.3,546.4,950.7,546.4z"/>
<g>
	<defs>
		<rect id="SVGID_11_" x="-387.6" y="64.7" width="1938" height="974.8"/>
	</defs>
	<clipPath id="SVGID_12_">
		<use xlink:href="#SVGID_11_"  style="overflow:visible;"/>
	</clipPath>
	<g class="st9">
		<circle class="st2" cx="884.9" cy="462.4" r="50.5"/>
	</g>
</g>
<path class="st0" d="M577.1,590.2v-1.3h2.1v-16.4l-4.8,7.2c-0.1,0.2-0.3,0.3-0.5,0.4h-0.2c-0.2-0.1-0.4-0.2-0.5-0.4l-4.8-7.2v16.4
	h2.1v1.3h-5.9v-1.3h2.4v-17.6h-2.4v-1.3h3.2c0.3,0,0.6,0.1,0.8,0.4l5.3,7.9l5.3-7.9c0.2-0.3,0.5-0.4,0.8-0.4h3.2v1.3h-2.4v17.6h2.4
	v1.3H577.1z"/>
<path class="st0" d="M596.2,590.2c-0.3,0-0.5-0.1-0.8-0.3l-0.2-0.3c-0.1-0.2-0.4-0.3-0.6-0.3c-0.8,0-1.4,0.9-4.1,0.9h-1
	c-1.7,0.2-3.2-1.1-3.4-2.8c0-0.1,0-0.3,0-0.4v-2.4c-0.1-1.7,1.2-3.1,2.9-3.2c0.2,0,0.3,0,0.5,0h1c2.6,0,3.3,1,4.1,1
	c0.2,0,0.5-0.2,0.5-0.6v-2.7c0-1.1-0.9-1.9-2-1.9c0,0,0,0,0,0h-4.8c-0.3,0-0.6-0.2-0.6-0.5v-0.2c0-0.3,0.3-0.5,0.6-0.5h5.2
	c1.7,0,3,1.3,3,3c0,0,0,0,0,0.1v9.8h2.3v1.3L596.2,590.2z M595.1,584.9c0-1.1-0.9-2-2-2h-3.5c-1.1,0-2,0.9-2,2v2c0,1.1,0.9,2,2,2
	h3.5c1.1,0,2-0.9,2-2V584.9z"/>
<path class="st0" d="M610.4,590.2v-1.3h2.1v-9.6c0-1.1-0.9-2-2-2H607c-1.1,0-2,0.9-2,2v9.6h2v1.3h-5.9v-1.3h2.4v-11.6h-2.4V576h2.8
	c0.3,0,0.5,0.1,0.7,0.3l0.2,0.2c0.1,0.2,0.3,0.3,0.6,0.3c0.8,0,1.4-1,4-1h1c1.7-0.2,3.3,1,3.5,2.7c0,0.2,0,0.3,0,0.5v9.8h2.4v1.3
	L610.4,590.2z"/>
<path class="st0" d="M628.9,590.2c-0.3,0-0.5-0.1-0.8-0.3l-0.2-0.3c-0.1-0.2-0.4-0.3-0.6-0.3c-0.8,0-1.4,0.9-4.1,0.9h-1
	c-1.7,0.2-3.2-1.1-3.4-2.8c0-0.1,0-0.3,0-0.4v-2.4c-0.1-1.7,1.2-3.1,2.9-3.2c0.2,0,0.3,0,0.5,0h1c2.6,0,3.3,1,4.1,1
	c0.2,0,0.5-0.2,0.5-0.6v-2.7c0-1.1-0.9-1.9-2-1.9c0,0,0,0,0,0H621c-0.3,0-0.6-0.2-0.6-0.5v-0.2c0-0.3,0.3-0.5,0.6-0.5h5.2
	c1.7,0,3,1.3,3,3c0,0,0,0,0,0.1v9.8h2.3v1.3L628.9,590.2z M627.8,584.9c0-1.1-0.9-2-2-2h-3.5c-1.1,0-2,0.9-2,2v2c0,1.1,0.9,2,2,2
	h3.5c1.1,0,2-0.9,2-2V584.9z"/>
<path class="st0" d="M645.1,577.3v16.5c0,1.7-1.3,3-3,3h-4.7v-1.3h4.3c1.1,0,2-0.9,2-2V590c0-0.4-0.1-0.7-0.4-0.7
	c-0.8,0-1.6,1-4.1,1h-1c-1.7,0.2-3.2-1.1-3.4-2.8c0-0.1,0-0.3,0-0.4v-8c-0.1-1.7,1.3-3.2,3-3.2c0.1,0,0.3,0,0.4,0h1
	c2.6,0,3.3,1,4.1,1c0.2,0,0.4-0.2,0.6-0.3l0.2-0.2c0.2-0.2,0.4-0.3,0.7-0.3h2.8v1.3L645.1,577.3z M643.6,579.3c0-1.1-0.9-2-2-2h-3.5
	c-1.1,0-2,0.9-2,2v7.6c0,1.1,0.9,2,2,2h3.5c1.1,0,2-0.9,2-2V579.3z"/>
<path class="st0" d="M659.8,583.8H652v3.1c0,1.1,0.9,2,2,2h4.6c0.3,0,0.6,0.2,0.6,0.5c0,0,0,0,0,0v0.2c0,0.3-0.3,0.5-0.6,0.5
	c0,0,0,0,0,0h-5c-1.7,0-3-1.3-3-3v-8.3c0-1.7,1.3-3,3-3l0,0h4.6c1.7,0,3,1.3,3,3l0,0v3.6c0,0.7-0.5,1.2-1.1,1.3
	C660,583.8,659.9,583.8,659.8,583.8z M659.7,579.2c0.1-1.1-0.8-1.9-1.8-2c-0.1,0-0.1,0-0.2,0H654c-1.1,0-2,0.9-2,2v3.3h7.7
	L659.7,579.2z"/>
<path class="st0" d="M674.5,577.3h-4.7c-1.1,0-2,0.9-2,2v9.6h2.4v1.3H664v-1.3h2.4v-11.6H664V576h2.8c0.3,0,0.6,0.1,0.8,0.3l0.2,0.2
	c0.1,0.2,0.3,0.3,0.6,0.3c0.8,0,1.3-0.9,3.9-0.9h2.4c0.3,0,0.6,0.2,0.6,0.5v0.2C675.1,577.1,674.8,577.3,674.5,577.3z"/>
<path class="st0" d="M684.1,590.2h-4.3c-1.7,0-3-1.3-3-3v-0.7h1.4v0.4c0,1.1,0.9,2,2,2h3.5c1.1,0,2-0.9,2-2v-1.1c0-1.1-0.9-2-2-2
	H680c-1.6,0-3-1.3-3-2.9v-1.9c0-1.7,1.3-3,3-3h5.3c0.3,0,0.6,0.2,0.7,0.6v3h-1.4v-2.3h-4.1c-1.1,0-2,0.9-2,2v1.3c0,1.1,0.9,2,2,2
	h3.7c1.7,0,3,1.3,3,3v1.7C687.1,588.8,685.7,590.2,684.1,590.2z"/>
<g>
	<defs>
		<rect id="SVGID_13_" x="-387.6" y="64.7" width="1938" height="974.8"/>
	</defs>
	<clipPath id="SVGID_14_">
		<use xlink:href="#SVGID_13_"  style="overflow:visible;"/>
	</clipPath>
	<g class="st10">
		<circle class="st2" cx="625.9" cy="506.2" r="50.5"/>
	</g>
</g>
<path class="st0" d="M15.1,524.4v-1.3h2.1v-16.4l-4.8,7.2c-0.1,0.2-0.3,0.3-0.5,0.4h-0.2c-0.2-0.1-0.4-0.2-0.5-0.4l-4.8-7.2v16.4
	h2.1v1.3H2.4v-1.3h2.4v-17.6H2.4v-1.3h3.2c0.3,0,0.6,0.1,0.8,0.4l5.3,7.9l5.3-7.9c0.2-0.3,0.5-0.4,0.8-0.4H21v1.3h-2.4v17.6H21v1.3
	H15.1z"/>
<path class="st0" d="M34.2,524.4c-0.3,0-0.5-0.1-0.8-0.3l-0.2-0.3c-0.1-0.2-0.4-0.3-0.6-0.3c-0.8,0-1.4,0.9-4.1,0.9h-1
	c-1.7,0.2-3.2-1.1-3.4-2.8c0-0.1,0-0.3,0-0.4v-2.4c-0.1-1.7,1.2-3.1,2.9-3.2c0.2,0,0.3,0,0.5,0h1c2.6,0,3.3,1,4.1,1
	c0.2,0,0.5-0.2,0.5-0.6v-2.7c0-1.1-0.9-1.9-2-1.9c0,0,0,0,0,0h-4.8c-0.3,0-0.6-0.2-0.6-0.5v-0.2c0-0.3,0.3-0.5,0.6-0.5h5.2
	c1.7,0,3,1.3,3,3c0,0,0,0,0,0.1v9.8h2.3v1.3L34.2,524.4z M33.1,519.1c0-1.1-0.9-2-2-2h-3.5c-1.1,0-2,0.9-2,2v2c0,1.1,0.9,2,2,2h3.5
	c1.1,0,2-0.9,2-2l0,0L33.1,519.1z"/>
<path class="st0" d="M48.4,524.4v-1.3h2.1v-9.6c0-1.1-0.9-2-2-2h-3.5c-1.1,0-2,0.9-2,2v9.6H45v1.3h-5.9v-1.3h2.4v-11.6h-2.4v-1.3
	h2.8c0.3,0,0.5,0.1,0.7,0.3l0.2,0.2c0.1,0.2,0.3,0.3,0.6,0.3c0.8,0,1.4-1,4-1h1c1.7-0.2,3.3,1,3.5,2.7c0,0.2,0,0.3,0,0.5v9.8h2.4
	v1.3L48.4,524.4z"/>
<path class="st0" d="M66.9,524.4c-0.3,0-0.5-0.1-0.8-0.3l-0.2-0.3c-0.1-0.2-0.4-0.3-0.6-0.3c-0.8,0-1.4,0.9-4.1,0.9h-1
	c-1.7,0.2-3.2-1.1-3.4-2.8c0-0.1,0-0.3,0-0.4v-2.4c-0.1-1.7,1.2-3.1,2.9-3.2c0.2,0,0.3,0,0.5,0h1c2.6,0,3.3,1,4.1,1
	c0.2,0,0.4-0.2,0.4-0.6v-2.7c0-1.1-0.9-1.9-2-1.9c0,0,0,0,0,0H59c-0.3,0-0.6-0.2-0.6-0.5v-0.2c0-0.3,0.3-0.5,0.6-0.5h5.2
	c1.7,0,3,1.3,3,3c0,0,0,0,0,0.1v9.8h2.3v1.3L66.9,524.4z M65.8,519.1c0-1.1-0.9-2-2-2h-3.5c-1.1,0-2,0.9-2,2v2c0,1.1,0.9,2,2,2h3.5
	c1.1,0,2-0.9,2-2L65.8,519.1z"/>
<path class="st0" d="M83.1,511.5V528c0,1.7-1.3,3-3,3h-4.7v-1.3h4.3c1.1,0,2-0.9,2-2v-3.5c0-0.4-0.1-0.7-0.4-0.7c-0.8,0-1.6,1-4.1,1
	h-1c-1.7,0.2-3.2-1.1-3.4-2.8c0-0.1,0-0.3,0-0.4v-8c-0.1-1.7,1.3-3.2,3-3.2c0.1,0,0.3,0,0.4,0h1c2.6,0,3.3,1,4.1,1
	c0.2,0,0.4-0.2,0.6-0.3l0.2-0.2c0.2-0.2,0.4-0.3,0.7-0.3h2.8v1.3L83.1,511.5z M81.6,513.5c0-1.1-0.9-2-2-2h-3.5c-1.1,0-2,0.9-2,2
	v7.6c0,1.1,0.9,2,2,2h3.5c1.1,0,2-0.9,2-2L81.6,513.5z"/>
<path class="st0" d="M97.8,518H90v3.1c0,1.1,0.9,2,2,2h4.6c0.3,0,0.6,0.2,0.6,0.5c0,0,0,0,0,0v0.2c0,0.3-0.3,0.5-0.6,0.5
	c0,0,0,0,0,0h-5c-1.7,0-3-1.3-3-3v-8.3c0-1.7,1.3-3,3-3h4.6c1.7,0,3,1.3,3,3v3.6c0,0.7-0.5,1.2-1.1,1.3C98,518,97.9,518,97.8,518z
	 M97.7,513.4c0-1.1-0.8-1.9-1.8-2c0,0-0.1,0-0.1,0H92c-1.1,0-2,0.9-2,2v3.3h7.7L97.7,513.4z"/>
<path class="st0" d="M112.5,511.5h-4.7c-1.1,0-2,0.9-2,2v9.6h2.4v1.3H102v-1.3h2.4v-11.6H102v-1.3h2.8c0.3,0,0.6,0.1,0.8,0.3
	l0.2,0.2c0.1,0.2,0.3,0.3,0.6,0.3c0.8,0,1.3-0.9,3.9-0.9h2.4c0.3,0,0.5,0.2,0.6,0.5v0.3C113.1,511.3,112.8,511.5,112.5,511.5z"/>
<path class="st0" d="M122.1,524.4h-4.3c-1.7,0-3-1.3-3-3v-0.7h1.4v0.4c0,1.1,0.9,2,2,2h3.5c1.1,0,2-0.9,1.9-2V520c0-1.1-0.9-2-1.9-2
	H118c-1.6,0-3-1.3-3-2.9v-1.9c0-1.7,1.3-3,3-3h5.3c0.3,0,0.6,0.2,0.7,0.6v3h-1.4v-2.3h-4.1c-1.1,0-2,0.9-1.9,2v1.3
	c0,1.1,0.9,1.9,1.9,2h3.7c1.7,0,3,1.3,3,3l0,0v1.7C125.1,523.1,123.8,524.4,122.1,524.4z"/>
<g>
	<defs>
		<rect id="SVGID_15_" x="-387.6" y="64.7" width="1938" height="974.8"/>
	</defs>
	<clipPath id="SVGID_16_">
		<use xlink:href="#SVGID_15_"  style="overflow:visible;"/>
	</clipPath>
	<g class="st11">
		<circle class="st2" cx="63.9" cy="440.4" r="50.5"/>
		<circle class="st5" cx="751.9" cy="357.4" r="50.5"/>
		<circle class="st5" cx="219.9" cy="535.4" r="50.5"/>
		<circle class="st5" cx="371.9" cy="462.4" r="50.5"/>
		<circle class="st5" cx="884.9" cy="462.4" r="50.5"/>
		<circle class="st5" cx="779.9" cy="628.4" r="50.5"/>
		<circle class="st5" cx="528.9" cy="126.4" r="50.5"/>
		<circle class="st5" cx="483.9" cy="567.4" r="50.5"/>
		<circle class="st5" cx="730.9" cy="144.4" r="50.5"/>
		<circle class="st5" cx="63.9" cy="440.4" r="50.5"/>
	</g>
</g>
<path class="st3" d="M399.1,876.1v30.2c0,0.5-0.4,0.8-0.8,0.9h-0.6c-0.5,0-1-0.4-1.2-0.9l-15-27.7v26.3h3.4v2.2h-9.6v-2.2h3.9v-28.8
	h-3.9v-2.2h5.4c0.5-0.1,1,0.2,1.2,0.7l15,27.6v-26.1h-3.4v-2.2h9.6v2.2H399.1z"/>
<path class="st3" d="M423.6,896.6h-12.8v5c0,1.8,1.4,3.2,3.1,3.2c0,0,0.1,0,0.1,0h7.5c0.5,0,0.9,0.4,0.9,0.8c0,0,0,0,0,0v0.4
	c0,0.5-0.4,0.9-0.9,0.9c0,0,0,0,0,0h-8.2c-2.7,0-4.9-2.2-4.9-4.9v-13.4c0-2.7,2.2-4.9,5-4.8h7.5c2.7,0,4.9,2.2,4.9,4.9c0,0,0,0,0,0
	v5.9c0.1,1.1-0.8,2-1.8,2C423.9,896.6,423.8,896.6,423.6,896.6z M423.5,889.2c0-1.7-1.3-3.1-3-3.2c0,0-0.1,0-0.1,0h-6.2
	c-1.8,0-3.2,1.4-3.2,3.2v5.3h12.6V889.2z"/>
<path class="st3" d="M457,886l-4.4,19.5c-0.1,0.8-0.8,1.4-1.6,1.5h-0.6c-0.8,0-1.2-0.7-1.5-1.5l-4.6-12.5l-4.5,12.5
	c-0.3,0.7-0.7,1.5-1.5,1.5h-0.6c-0.8-0.1-1.5-0.7-1.6-1.5l-4.5-19.5h-3.3v-2.2h8.5v2.2H434l2.9,12.8c0.6,2.6,1.1,6,1.1,6h0.1
	c0,0,0.7-2.5,1.6-5l2.9-7.8c0.2-0.6,0.7-1,1.3-1h0.8c0.6,0,1.1,0.4,1.3,1l2.9,7.8c0.9,2.4,1.6,5,1.6,5h0.1c0,0,0.5-3.4,1.1-6
	l2.9-12.8h-2.9v-2.2h8.5v2.2H457z"/>
<path class="st3" d="M491,907h-16.9v-2.2h3.9v-28.8h-3.9v-2.2h4.5c0.4,0,0.8,0.1,1.1,0.4l0.5,0.5c0.2,0.3,0.5,0.5,0.8,0.5
	c1.1-0.3,2.2-0.6,3.2-1.1c1.4-0.4,2.9-0.6,4.3-0.5h2.1c2.8-0.2,5.1,1.9,5.3,4.6c0,0.1,0,0.3,0,0.4v23.2C496,904.8,493.7,907,491,907
	z M493.8,879.4c0-1.8-1.5-3.3-3.3-3.3h-6.8c-1.8,0-3.3,1.5-3.3,3.3l0,0v25.5h9.3c2.2,0,4-1.7,4.1-3.9V879.4z"/>
<path class="st3" d="M519.1,896.6h-12.8v5c0,1.8,1.4,3.2,3.1,3.2c0,0,0.1,0,0.1,0h7.5c0.5,0,0.9,0.4,0.9,0.8c0,0,0,0,0,0v0.4
	c0,0.5-0.4,0.9-0.9,0.9c0,0,0,0,0,0h-8.2c-2.7,0-4.9-2.2-4.9-4.9v-13.4c0-2.7,2.2-4.9,5-4.8h7.5c2.7,0,4.9,2.2,4.9,4.9c0,0,0,0,0,0
	v5.9c0.1,1.1-0.8,2-1.8,2C519.4,896.6,519.3,896.6,519.1,896.6z M519,889.2c0-1.7-1.3-3.1-3-3.2c0,0-0.1,0-0.1,0h-6.2
	c-1.8,0-3.2,1.4-3.2,3.2v5.3H519L519,889.2z"/>
<path class="st3" d="M540.8,907.2h-1.7c-4.3,0-5.3-1.5-6.7-1.5c-0.4,0-0.7,0.2-0.9,0.5l-0.4,0.4c-0.3,0.3-0.8,0.5-1.2,0.5h-4.5v-2.2
	h3.9v-28.8h-3.9v-2.2h5.2c0.5,0,1,0.5,1,1v9.4c0,0.6,0.4,0.9,0.7,0.9c1.3,0,2.3-1.6,6.7-1.6h1.7c3.8,0,5.6,2.3,5.6,5.2v13
	C546.4,904.8,544.6,907.2,540.8,907.2z M544,889.3c0-1.8-1.5-3.3-3.3-3.3h0H535c-1.8,0-3.3,1.5-3.3,3.3v0v12.3
	c0,1.8,1.5,3.3,3.3,3.3h0h5.7c1.8,0,3.3-1.5,3.3-3.3v0L544,889.3z"/>
<path class="st3" d="M568.9,907c-0.5,0-0.9-0.2-1.2-0.5l-0.4-0.4c-0.2-0.3-0.6-0.4-0.9-0.5c-1.3,0-2.3,1.5-6.7,1.5H558
	c-3.8,0-5.6-2.4-5.6-5.2v-4c0-2.9,1.8-5.2,5.6-5.2h1.7c4.3,0,5.3,1.6,6.7,1.6c0.3,0,0.7-0.3,0.7-0.9v-4.4c0-1.7-1.4-3.1-3.2-3.1H556
	c-0.5,0-0.9-0.4-0.9-0.9v-0.4c0-0.5,0.4-0.9,0.9-0.9h8.5c2.7,0,4.9,2.3,4.9,5c0,0,0,0,0,0v16.1h3.7v2.2L568.9,907z M567.1,898.4
	c0-1.8-1.5-3.3-3.3-3.3h0H558c-1.8,0-3.3,1.5-3.3,3.3v0v3.2c0,1.8,1.5,3.3,3.3,3.3h0h5.7c1.8,0,3.3-1.5,3.3-3.3v0L567.1,898.4z"/>
<path class="st3" d="M577.3,907v-2.2h3.9V886h-3.9v-2.2h5.3c0.6,0,1,0.4,1,1v20.1h3.9v2.2L577.3,907z M582.7,878.4h-0.5
	c-0.5,0-0.9-0.4-0.9-0.9v-2.6c0-0.5,0.4-0.9,0.9-0.9h0.5c0.5,0,0.9,0.4,0.9,0.9v2.6C583.6,878,583.2,878.4,582.7,878.4z"/>
<path class="st3" d="M606.8,907v-2.2h3.4v-15.7c0-1.8-1.5-3.2-3.3-3.2h-5.7c-1.8,0-3.2,1.4-3.3,3.2v15.7h3.4v2.2h-9.7v-2.2h3.9V886
	h-3.9v-2.2h4.5c0.5,0,0.9,0.2,1.2,0.5l0.3,0.4c0.2,0.3,0.6,0.5,0.9,0.5c1.3,0,2.3-1.6,6.6-1.6h1.7c4.2,0,5.7,2.7,5.7,5.2v16h3.9v2.2
	L606.8,907z"/>
<path class="st3" d="M654.6,907c-0.6,0-1.2-0.3-1.5-0.9l-6.8-14.6h-8.2v13.4h3.9v2.2h-10.2v-2.2h3.9v-28.8h-3.9v-2.2h4.5
	c0.4,0,0.9,0.2,1.2,0.5l0.3,0.4c0.3,0.3,0.5,0.6,0.9,0.6c0.7,0,1.4-0.5,3.2-1.1c1.4-0.4,2.9-0.6,4.3-0.5h1.2c3.8,0,5.8,2,5.8,5v7.4
	c0,2.6-1.9,4.9-4.5,5.3l6.2,13.4h3.6v2.2H654.6z M651,879.4c0-1.8-1.4-3.3-3.2-3.3c0,0,0,0,0,0h-6.4c-1.8,0-3.3,1.5-3.3,3.3v0v10
	h9.1c2.1,0,3.9-1.7,3.9-3.9c0,0,0,0,0,0V879.4z"/>
<path class="st3" d="M676.9,896.6h-12.8v5c0,1.8,1.4,3.2,3.1,3.2c0,0,0.1,0,0.1,0h7.5c0.5,0,0.9,0.4,0.9,0.8c0,0,0,0,0,0v0.4
	c0,0.5-0.4,0.9-0.9,0.9c0,0,0,0,0,0h-8.2c-2.7,0-4.9-2.2-4.9-4.9v-13.4c0-2.7,2.2-4.9,4.9-4.8h7.5c2.7,0,4.9,2.2,4.8,4.9v5.9
	c0,1.1-0.8,2-1.8,2C677.1,896.6,677,896.6,676.9,896.6z M676.7,889.2c0-1.7-1.3-3.1-3.1-3.2c0,0-0.1,0-0.1,0h-6.2
	c-1.8,0-3.2,1.4-3.2,3.2v5.3h12.6L676.7,889.2z"/>
<path class="st3" d="M683.7,907v-2.2h3.9v-28.8h-3.9v-2.2h5.3c0.5,0,0.9,0.5,0.9,1v30h3.9v2.2L683.7,907z"/>
<path class="st3" d="M714.5,896.6h-12.8v5c0,1.8,1.4,3.2,3.1,3.2c0,0,0.1,0,0.1,0h7.5c0.5,0,0.9,0.4,0.9,0.8c0,0,0,0,0,0v0.4
	c0,0.5-0.4,0.9-0.9,0.9c0,0,0,0,0,0h-8.2c-2.7,0-4.9-2.2-4.9-4.9v-13.4c0-2.7,2.2-4.9,5-4.8h7.5c2.7,0,4.9,2.2,4.9,4.9c0,0,0,0,0,0
	v5.9c0.1,1.1-0.8,2-1.8,2C714.7,896.6,714.6,896.6,714.5,896.6z M714.3,889.2c0-1.7-1.3-3.1-3.1-3.2c0,0-0.1,0-0.1,0h-6.2
	c-1.8,0-3.2,1.4-3.2,3.2v5.3h12.6L714.3,889.2z"/>
<path class="st3" d="M738.3,907c-0.5,0-0.9-0.2-1.2-0.5l-0.4-0.4c-0.2-0.3-0.6-0.4-0.9-0.5c-1.3,0-2.3,1.5-6.7,1.5h-1.7
	c-3.8,0-5.6-2.4-5.6-5.2v-4c0-2.9,1.8-5.2,5.6-5.2h1.7c4.3,0,5.3,1.6,6.7,1.6c0.3,0,0.7-0.3,0.7-0.9v-4.4c0-1.7-1.4-3.1-3.2-3.1
	h-7.8c-0.5,0-0.9-0.4-0.9-0.9v-0.4c0-0.5,0.4-0.9,0.9-0.9h8.5c2.7,0,4.9,2.3,4.9,5c0,0,0,0,0,0v16.1h3.7v2.2L738.3,907z
	 M736.5,898.4c0-1.8-1.5-3.3-3.3-3.3c0,0,0,0,0,0h-5.7c-1.8,0-3.3,1.5-3.3,3.3v0v3.2c0,1.8,1.5,3.3,3.3,3.3h0h5.7
	c1.8,0,3.3-1.5,3.3-3.3c0,0,0,0,0,0V898.4z"/>
<path class="st3" d="M758.9,907h-7c-2.7,0-4.9-2.2-4.9-4.9V901h2.4v0.7c0,1.8,1.4,3.2,3.2,3.2h5.7c1.8,0,3.2-1.4,3.2-3.2
	c0,0,0,0,0,0v-1.8c0-1.8-1.4-3.2-3.2-3.2c0,0,0,0,0,0h-6.1c-2.7,0-4.8-2.1-4.9-4.8v-3.1c0-2.7,2.2-4.9,4.9-4.8h8.7
	c0.6,0,1,0.4,1.1,0.9c0,0,0,0,0,0v5h-2.3V886h-6.8c-1.8,0-3.2,1.4-3.2,3.2v2.2c0,1.8,1.4,3.2,3.2,3.2h6.1c2.7,0,4.9,2.2,4.9,4.8v2.8
	C763.8,904.9,761.6,907,758.9,907z"/>
<path class="st3" d="M785.3,896.6h-12.8v5c0,1.8,1.4,3.2,3.2,3.2c0,0,0,0,0.1,0h7.5c0.5,0,0.9,0.4,0.9,0.8c0,0,0,0,0,0v0.4
	c0,0.5-0.4,0.9-0.9,0.9c0,0,0,0,0,0h-8.2c-2.7,0-4.9-2.2-4.9-4.9v-13.4c0-2.7,2.3-4.9,5-4.9c0,0,0,0,0,0h7.5c2.7,0,4.9,2.2,4.9,4.9
	c0,0,0,0,0,0v5.9c0.1,1.1-0.8,2-1.8,2C785.6,896.6,785.4,896.6,785.3,896.6z M785.1,889.2c0-1.7-1.3-3.1-3.1-3.2c0,0-0.1,0-0.1,0
	h-6.2c-1.8,0-3.2,1.4-3.2,3.2v5.3h12.6L785.1,889.2z"/>
<line class="st12" x1="581.4" y1="714.7" x2="581.4" y2="811.7"/>
<polyline class="st12" points="599.4,793.7 581.4,811.7 563.3,793.7 "/>
</svg>
