<svg id="Layer_1" data-name="Layer 1" xmlns="http://www.w3.org/2000/svg" viewBox="0 0 515.37 336.5"><defs><style>.cls-1{fill:#262626;}.cls-2{font-size:36px;}.cls-2,.cls-6{fill:lime;}.cls-2,.cls-5{font-family:ChollaSlabOT-Thin, Cholla Slab OT;}.cls-3{letter-spacing:-0.05em;}.cls-4{letter-spacing:-0.04em;}.cls-5,.cls-6{font-size:18px;}.cls-12,.cls-5{fill:#fff;}.cls-12,.cls-6,.cls-7{font-family:ChollaSlabOT-Regular, Cholla Slab OT;}.cls-8{letter-spacing:0.03em;}.cls-10,.cls-11,.cls-13,.cls-9{fill:none;stroke-miterlimit:10;}.cls-11,.cls-9{stroke:lime;}.cls-10,.cls-13{stroke:#fff;}.cls-11,.cls-13{stroke-width:4px;}.cls-12{font-size:22.87px;}</style></defs><title>Artboard 5 copy</title><rect class="cls-1" x="-175.94" y="-431.68" width="868.63" height="1001.99"/><text class="cls-2" transform="translate(-2.26 28.43)">13,594</text><text class="cls-2" transform="translate(-0.59 216.37)">9–10 <tspan class="cls-3" x="81.21" y="0">W</tspan><tspan x="107.14" y="0">eeks</tspan></text><text class="cls-2" transform="translate(-0.59 285.05)">7.8 <tspan class="cls-4" x="50.51" y="0">P</tspan><tspan x="68.15" y="0">atches</tspan></text><text class="cls-2" transform="translate(118.85 28.43)">1,340</text><text class="cls-5" transform="translate(385.33 21.02)">of the top 1M <tspan x="0" y="20">web domains</tspan><tspan x="0" y="40">run on Linux</tspan></text><text class="cls-6" transform="translate(0.53 50.46)">developers </text><text class="cls-5" transform="translate(0.53 79.84)">have contributed to Linux <tspan x="0" y="21.6">kernel since 2005</tspan></text><text class="cls-5" transform="translate(0.53 153.31)">A new major kernel update<tspan x="0" y="21.6">release occurs every</tspan></text><text class="cls-5" transform="translate(0.53 310.74)">are made <tspan class="cls-7" x="75.64" y="0">PER HOUR</tspan><tspan x="157.71" y="0" xml:space="preserve"> by the </tspan><tspan x="0" y="21.6">Linux community</tspan></text><text class="cls-6" transform="translate(122.25 50.46)">companies</text><text class="cls-5" transform="translate(385.33 109.08)">of smartphones<tspan x="0" y="20">run </tspan><tspan class="cls-8" x="32.29" y="20">A</tspan><tspan x="42.84" y="20">ndroid are</tspan><tspan x="0" y="40">based on Linux</tspan></text><text class="cls-5" transform="translate(385.33 197.06)">of top 500 fastest<tspan x="0" y="20">supercomputers</tspan><tspan x="0" y="40">run on Linux</tspan></text><text class="cls-5" transform="translate(385.33 285.06)">Cloud based <tspan x="0" y="20">enterprises use </tspan><tspan x="0" y="40">Linux primarily</tspan></text><line class="cls-9" x1="108.81" y1="4.09" x2="108.81" y2="50.39"/><line class="cls-10" x1="208.88" y1="238.81" x2="1.41" y2="238.81"/><line class="cls-10" x1="208.88" y1="121.21" x2="1.41" y2="121.21"/><line class="cls-10" x1="261.17" y1="332.69" x2="258.9" y2="4.09"/><circle class="cls-11" cx="329.89" cy="299.5" r="33.19"/><circle class="cls-11" cx="329.89" cy="211.49" r="33.19"/><circle class="cls-11" cx="329.89" cy="123.53" r="33.19"/><circle class="cls-11" cx="329.89" cy="35.57" r="33.19"/><text class="cls-12" transform="translate(309.47 43.57)">95%</text><path class="cls-13" d="M340.58,4.14a33.15,33.15,0,0,0-10.69-1.76"/><text class="cls-12" transform="translate(309.47 131.53)">80%</text><path class="cls-13" d="M361.24,112.62a33.2,33.2,0,0,0-31.36-22.28"/><text class="cls-12" transform="translate(309.47 219.49)">99%</text><path class="cls-13" d="M331.9,178.36q-1-.06-2-.06"/><text class="cls-12" transform="translate(309.47 307.5)">75%</text><path class="cls-13" d="M363.08,299.5a33.19,33.19,0,0,0-33.19-33.19"/></svg>