<svg id="Layer_1" data-name="Layer 1" xmlns="http://www.w3.org/2000/svg" viewBox="0 0 514.5 169.04"><defs><style>.cls-1{fill:#262626;}.cls-2{fill:#fff;}.cls-3{fill:lime;}</style></defs><title>Artboard 9</title><rect class="cls-1" x="-176.81" y="-448.98" width="868.63" height="1001.99"/><path class="cls-2" d="M74.91,54.68a.71.71,0,0,1-.49-.18l-.2-.18a.45.45,0,0,0-.31-.14,3.75,3.75,0,0,0-1.15.38,6.19,6.19,0,0,1-1.93.18h-.77a1.83,1.83,0,0,1-2-1.87V43.3H66.67V42.5h3.55v.79H69v9.38a1.21,1.21,0,0,0,1.21,1.21H73a1.21,1.21,0,0,0,1.21-1.21V43.3H73V42.5H76.5v.79H75.06V53.88H76.5v.79Z"/><path class="cls-2" d="M82.8,54.68H80.22a1.81,1.81,0,0,1-1.8-1.8v-.41h.87v.25a1.18,1.18,0,0,0,1.17,1.17h2.09a1.17,1.17,0,0,0,1.17-1.19V52a1.17,1.17,0,0,0-1.17-1.17H80.31a1.81,1.81,0,0,1-1.8-1.76V47.92a1.8,1.8,0,0,1,1.8-1.78H83.5a.38.38,0,0,1,.4.34V48.3H83V46.93H80.54a1.18,1.18,0,0,0-1.17,1.17v.79a1.18,1.18,0,0,0,1.17,1.17h2.23a1.81,1.81,0,0,1,1.8,1.78v1A1.79,1.79,0,0,1,82.8,54.68Z"/><path class="cls-2" d="M92.48,50.84h-4.7v1.85A1.17,1.17,0,0,0,89,53.88h2.75a.33.33,0,0,1,.34.32v.14a.33.33,0,0,1-.34.32h-3a1.8,1.8,0,0,1-1.8-1.8v-5a1.81,1.81,0,0,1,1.82-1.78h2.77a1.79,1.79,0,0,1,1.78,1.8V50.1A.71.71,0,0,1,92.48,50.84Zm-.05-2.74a1.15,1.15,0,0,0-1.17-1.17H89a1.2,1.2,0,0,0-1.19,1.17v2h4.65Z"/><path class="cls-2" d="M101.3,46.93H98.49a1.21,1.21,0,0,0-1.21,1.21v5.74h1.44v.79H95v-.79h1.44v-7H95v-.79h1.66a.53.53,0,0,1,.45.2l.13.14a.6.6,0,0,0,.34.2c.49,0,.77-.54,2.32-.54h1.42a.34.34,0,0,1,.34.32v.14A.34.34,0,0,1,101.3,46.93Z"/><path class="cls-2" d="M102.4,50.14v-.79H107v.79Z"/><path class="cls-2" d="M112.62,43.49a2.41,2.41,0,0,0-.83-.2.84.84,0,0,0-.9,1v1.87h1.8v.79h-1.8v7h1.44v.79h-3.75v-.79H110v-7h-1a.34.34,0,0,1-.34-.32v-.14a.34.34,0,0,1,.34-.32h1V44.07a1.51,1.51,0,0,1,1.57-1.62,2.29,2.29,0,0,1,1,.23l.61.31v.74Z"/><path class="cls-2" d="M120.76,46.93h-2.81a1.21,1.21,0,0,0-1.21,1.21v5.74h1.44v.79h-3.75v-.79h1.44v-7h-1.44v-.79h1.66a.53.53,0,0,1,.45.2l.13.14a.6.6,0,0,0,.34.2c.49,0,.78-.54,2.32-.54h1.42a.34.34,0,0,1,.34.32v.14A.34.34,0,0,1,120.76,46.93Z"/><path class="cls-2" d="M122.05,54.68v-.79h1.44v-7h-1.44v-.79H124a.37.37,0,0,1,.36.36v7.38h1.44v.79Zm2-10.51h-.18a.35.35,0,0,1-.34-.34v-1a.35.35,0,0,1,.34-.34H124a.35.35,0,0,1,.34.34v1A.36.36,0,0,1,124,44.16Z"/><path class="cls-2" d="M133.38,50.84h-4.7v1.85a1.17,1.17,0,0,0,1.19,1.19h2.75a.33.33,0,0,1,.34.32v.14a.33.33,0,0,1-.34.32h-3a1.8,1.8,0,0,1-1.8-1.8v-5a1.81,1.81,0,0,1,1.82-1.78h2.77a1.79,1.79,0,0,1,1.78,1.8V50.1A.71.71,0,0,1,133.38,50.84Zm-.05-2.74a1.15,1.15,0,0,0-1.17-1.17h-2.29a1.2,1.2,0,0,0-1.19,1.17v2h4.65Z"/><path class="cls-2" d="M141.46,54.68v-.79h1.24V48.12a1.21,1.21,0,0,0-1.21-1.19h-2.11a1.21,1.21,0,0,0-1.21,1.19v5.76h1.24v.79h-3.55v-.79h1.44v-7h-1.44v-.79h1.67a.55.55,0,0,1,.43.2l.13.14a.6.6,0,0,0,.34.2c.49,0,.85-.59,2.41-.59h.61A1.87,1.87,0,0,1,143.56,48v5.87H145v.79Z"/><path class="cls-2" d="M152.89,54.68a.73.73,0,0,1-.45-.18l-.14-.16a.51.51,0,0,0-.34-.16c-.49,0-.86.56-2.45.56h-.61a1.86,1.86,0,0,1-2.05-1.93V48a1.85,1.85,0,0,1,2.05-1.93h.61c1.58,0,2,.59,2.45.59.13,0,.27-.11.27-.34v-3h-1.44V42.5h1.93a.39.39,0,0,1,.38.38v11h1.44v.79Zm-.67-6.54A1.21,1.21,0,0,0,151,46.93h-2.11a1.21,1.21,0,0,0-1.21,1.21v4.54a1.21,1.21,0,0,0,1.21,1.21H151a1.21,1.21,0,0,0,1.21-1.21Z"/><path class="cls-2" d="M155.82,54.68v-.79h1.44V43.3h-1.44V42.5h2a.36.36,0,0,1,.34.36v11h1.44v.79Z"/><path class="cls-2" d="M168.84,46.93l-4.39,10.89a1.49,1.49,0,0,1-1.39.86,2.87,2.87,0,0,1-1.57-.52v-.79a3.11,3.11,0,0,0,1.35.47.92.92,0,0,0,1-.61l1-2.56a.71.71,0,0,1-.38-.4l-3-7.35h-1.21v-.79h3.13v.79h-1l2.79,6.9,2.79-6.9h-1v-.79H170v.79Z"/><path class="cls-3" d="M167.7,1.19,163,8.86v8.21h2.16v1.19h-5.61V17.06h2.16V8.86l-4.67-7.67H154.9V0h5.32V1.19h-1.78l3.94,6.48,3.94-6.48h-1.78V0h5.32V1.19Z"/><path class="cls-3" d="M179,18.25h-5.37a2.71,2.71,0,0,1-2.7-2.7V2.7a2.71,2.71,0,0,1,2.7-2.7H179a2.69,2.69,0,0,1,2.7,2.7V15.55A2.69,2.69,0,0,1,179,18.25Zm1.4-15.3a1.75,1.75,0,0,0-1.73-1.75H174a1.77,1.77,0,0,0-1.78,1.75V15.31A1.77,1.77,0,0,0,174,17.06h4.67a1.75,1.75,0,0,0,1.75-1.75Z"/><path class="cls-3" d="M197.61,18.25a1.07,1.07,0,0,1-.73-.27l-.3-.27a.67.67,0,0,0-.46-.22,5.64,5.64,0,0,0-1.73.57,9.31,9.31,0,0,1-2.89.27h-1.16a2.74,2.74,0,0,1-2.94-2.81V1.19h-2.16V0h5.32V1.19H188.7V15.26a1.81,1.81,0,0,0,1.81,1.81h4.21a1.81,1.81,0,0,0,1.81-1.81V1.19h-1.86V0H200V1.19h-2.16V17.06H200v1.19Z"/><path class="cls-3" d="M217.92,18.25h-5.1a2.71,2.71,0,0,1-2.7-2.7V2.7a2.71,2.71,0,0,1,2.7-2.7h6.8a.57.57,0,0,1,.59.51V3.41h-1.3V1.19h-5.72a1.77,1.77,0,0,0-1.78,1.75V15.31a1.77,1.77,0,0,0,1.75,1.75h4.4a1.77,1.77,0,0,0,1.75-1.75V13.8h1.3v1.75A2.71,2.71,0,0,1,217.92,18.25Z"/><path class="cls-3" d="M232.87,18.25V17.06h1.86V9.7H226.8v7.37h1.86v1.19h-5.32V17.06h2.16V1.19h-2.16V0h5.32V1.19H226.8V8.51h7.94V1.19h-1.86V0h5.32V1.19H236V17.06h2.16v1.19Z"/><path class="cls-3" d="M250.1,18.25h-5.37a2.71,2.71,0,0,1-2.7-2.7V2.7a2.71,2.71,0,0,1,2.7-2.7h5.37a2.69,2.69,0,0,1,2.7,2.7V15.55A2.69,2.69,0,0,1,250.1,18.25Zm1.4-15.3a1.75,1.75,0,0,0-1.73-1.75h-4.67a1.77,1.77,0,0,0-1.78,1.75V15.31a1.77,1.77,0,0,0,1.75,1.75h4.67a1.75,1.75,0,0,0,1.75-1.75Z"/><path class="cls-3" d="M265.79,18.25h-5.37a2.71,2.71,0,0,1-2.7-2.7V2.7a2.71,2.71,0,0,1,2.7-2.7h5.37a2.69,2.69,0,0,1,2.7,2.7V15.55A2.69,2.69,0,0,1,265.79,18.25Zm1.4-15.3a1.75,1.75,0,0,0-1.73-1.75h-4.67A1.77,1.77,0,0,0,259,2.95V15.31a1.77,1.77,0,0,0,1.75,1.75h4.67a1.75,1.75,0,0,0,1.75-1.75Z"/><path class="cls-3" d="M280.1,18.25h-4.78a2.71,2.71,0,0,1-2.7-2.7V13.8h1.3v1.51a1.77,1.77,0,0,0,1.75,1.75h4a1.76,1.76,0,0,0,1.75-1.78V11.45a1.75,1.75,0,0,0-1.75-1.75h-4.16A2.74,2.74,0,0,1,272.86,7V2.68A2.7,2.7,0,0,1,275.56,0h5.94a.57.57,0,0,1,.59.51V3.41H280.8V1.19h-4.89a1.77,1.77,0,0,0-1.75,1.75V6.75a1.77,1.77,0,0,0,1.75,1.75h4.16a2.72,2.72,0,0,1,2.7,2.67v4.4A2.68,2.68,0,0,1,280.1,18.25Z"/><path class="cls-3" d="M296.62,18.25h-10.8V17.06H288V1.19h-2.16V0h10.39a.56.56,0,0,1,.62.62V3.41h-1.29V1.19h-6.26V8.51h5.53V9.7h-5.53v7.37h6.64V14.72h1.3v2.94A.58.58,0,0,1,296.62,18.25Z"/><path class="cls-3" d="M315.3,18.25h-5.37a2.71,2.71,0,0,1-2.7-2.7V2.7a2.71,2.71,0,0,1,2.7-2.7h5.37A2.69,2.69,0,0,1,318,2.7V15.55A2.69,2.69,0,0,1,315.3,18.25Zm1.4-15.3A1.75,1.75,0,0,0,315,1.19h-4.67a1.77,1.77,0,0,0-1.78,1.75V15.31a1.77,1.77,0,0,0,1.75,1.75H315a1.75,1.75,0,0,0,1.75-1.75Z"/><path class="cls-3" d="M335,1.19V17.85a.52.52,0,0,1-.46.49h-.32a.81.81,0,0,1-.67-.49L325.29,2.6V17.06h1.86v1.19h-5.32V17.06H324V1.19h-2.16V0h3a.68.68,0,0,1,.68.38l8.26,15.2V1.19h-1.86V0h5.32V1.19Z"/><path class="cls-3" d="M350.48,18.25h-10.8V17.06h2.16V1.19h-2.16V0h10.39a.56.56,0,0,1,.62.62V3.41h-1.3V1.19h-6.26V8.51h5.53V9.7h-5.53v7.37h6.64V14.72h1.3v2.94A.58.58,0,0,1,350.48,18.25Z"/><path class="cls-2" d="M114.69,63.5h.79v6.81h-.79Zm2.67,0h.79v6.81h-.79Z"/><path class="cls-2" d="M114.69,96.75h.79v6.81h-.79Zm2.67,0h.79v6.81h-.79Z"/><path class="cls-2" d="M394.79,63.5h.79v6.81h-.79Zm2.67,0h.79v6.81h-.79Z"/><path class="cls-2" d="M394.79,96.75h.79v6.81h-.79Zm2.67,0h.79v6.81h-.79Z"/><path class="cls-2" d="M7.76,79.25V77.77H4.88V88.36H6.32v.79H2.58v-.79H4V77.77H1.14v1.48H.27V77.32A.39.39,0,0,1,.65,77h7.6a.39.39,0,0,1,.38.34v1.93Z"/><path class="cls-2" d="M15,89.15a.73.73,0,0,1-.45-.18l-.14-.16a.52.52,0,0,0-.34-.16c-.49,0-.86.56-2.45.56H11a1.86,1.86,0,0,1-2.05-1.93V85.84A1.85,1.85,0,0,1,11,83.91h.61c1.58,0,2,.59,2.45.59.13,0,.27-.11.27-.34v-1.6a1.16,1.16,0,0,0-1.17-1.15H10.26a.34.34,0,0,1-.34-.32v-.14a.34.34,0,0,1,.34-.32h3.12a1.81,1.81,0,0,1,1.8,1.84v5.9h1.35v.79ZM14.32,86a1.21,1.21,0,0,0-1.21-1.21H11A1.21,1.21,0,0,0,9.8,86v1.19A1.21,1.21,0,0,0,11,88.36h2.11a1.21,1.21,0,0,0,1.21-1.21Z"/><path class="cls-2" d="M24.74,89.15a.7.7,0,0,1-.59-.32l-3-4.18L20,85.82v2.54h1.24v.79H17.73v-.79h1.44V77.77H17.73V77h2a.35.35,0,0,1,.34.34v7.31l3.69-3.82a.65.65,0,0,1,.49-.2h1.37v.79h-1.3l-2.54,2.65,3.06,4.3h1.3v.79Z"/><path class="cls-2" d="M33.2,85.32H28.5v1.85a1.17,1.17,0,0,0,1.19,1.19h2.75a.33.33,0,0,1,.34.32v.14a.33.33,0,0,1-.34.32h-3a1.8,1.8,0,0,1-1.8-1.8v-5a1.81,1.81,0,0,1,1.82-1.78h2.77A1.79,1.79,0,0,1,34,82.42v2.16A.71.71,0,0,1,33.2,85.32Zm-.05-2.74A1.15,1.15,0,0,0,32,81.41H29.69a1.19,1.19,0,0,0-1.19,1.17v2h4.65Z"/><path class="cls-2" d="M43.1,93.06a.2.2,0,0,1-.25,0L41.35,92a1.18,1.18,0,0,1-.4-1V77.83a1.18,1.18,0,0,1,.4-1l1.49-1.1a.19.19,0,0,1,.25,0l.09.11a.2.2,0,0,1,0,.27l-1.35,1.35V91.33l1.35,1.35a.2.2,0,0,1,0,.27Z"/><path class="cls-2" d="M51.07,89.15a.73.73,0,0,1-.45-.18l-.14-.16a.51.51,0,0,0-.34-.16c-.49,0-.86.56-2.45.56h-.61A1.86,1.86,0,0,1,45,87.28V85.84a1.85,1.85,0,0,1,2.05-1.93h.61c1.58,0,2,.59,2.45.59.13,0,.27-.11.27-.34v-1.6a1.16,1.16,0,0,0-1.17-1.15H46.35a.34.34,0,0,1-.34-.32v-.14a.34.34,0,0,1,.34-.32h3.12a1.81,1.81,0,0,1,1.8,1.84v5.9h1.35v.79ZM50.4,86a1.2,1.2,0,0,0-1.21-1.21H47.09A1.21,1.21,0,0,0,45.89,86v1.19a1.21,1.21,0,0,0,1.21,1.21H49.2a1.2,1.2,0,0,0,1.21-1.21Z"/><path class="cls-2" d="M58.2,89.15v-.79h1.44V77.77H58.2V77h2a.36.36,0,0,1,.34.36v11h1.44v.79Z"/><path class="cls-2" d="M68.44,89.15H65.76a1.81,1.81,0,0,1-1.8-1.8V82.42a1.81,1.81,0,0,1,1.8-1.8h2.68a1.79,1.79,0,0,1,1.8,1.8v4.93A1.79,1.79,0,0,1,68.44,89.15Zm.94-6.57a1.16,1.16,0,0,0-1.15-1.17H66a1.18,1.18,0,0,0-1.19,1.17v4.61A1.18,1.18,0,0,0,66,88.36h2.21a1.17,1.17,0,0,0,1.17-1.17Z"/><path class="cls-2" d="M75.08,89.21a1.51,1.51,0,0,1-1.57-1.62V81.41h-1a.34.34,0,0,1-.34-.32v-.14a.34.34,0,0,1,.34-.32h1V77.32a.35.35,0,0,1,.34-.34H74a.35.35,0,0,1,.34.34v3.29H76.5v.79H74.38v6c0,.77.41,1,.9,1a3.52,3.52,0,0,0,1.42-.45v.76A3.26,3.26,0,0,1,75.08,89.21Z"/><path class="cls-2" d="M87.59,89.15H84.91a1.81,1.81,0,0,1-1.8-1.8V82.42a1.81,1.81,0,0,1,1.8-1.8h2.68a1.8,1.8,0,0,1,1.8,1.8v4.93A1.8,1.8,0,0,1,87.59,89.15Zm.94-6.57a1.16,1.16,0,0,0-1.15-1.17H85.16A1.18,1.18,0,0,0,84,82.58v4.61a1.18,1.18,0,0,0,1.17,1.17h2.21a1.17,1.17,0,0,0,1.17-1.17Z"/><path class="cls-2" d="M95.62,78a2.42,2.42,0,0,0-.83-.2.84.84,0,0,0-.9,1v1.87h1.8v.79h-1.8v6.95h1.44v.79H91.59v-.79H93V81.41H92a.34.34,0,0,1-.34-.32v-.14a.34.34,0,0,1,.34-.32h1V78.55a1.51,1.51,0,0,1,1.57-1.62,2.29,2.29,0,0,1,1,.23l.61.31v.74Z"/><path class="cls-2" d="M99.43,92l-1.5,1.1a.2.2,0,0,1-.25,0L97.6,93a.2.2,0,0,1,0-.27L99,91.33V77.45L97.62,76.1a.2.2,0,0,1,0-.27l.09-.11a.19.19,0,0,1,.25,0l1.5,1.1a1.18,1.18,0,0,1,.4,1V91A1.18,1.18,0,0,1,99.43,92Z"/><path class="cls-2" d="M112.81,89.15a.73.73,0,0,1-.45-.18l-.14-.16a.51.51,0,0,0-.34-.16c-.49,0-.86.56-2.45.56h-.61a1.86,1.86,0,0,1-2.05-1.93V85.84a1.85,1.85,0,0,1,2.05-1.93h.61c1.58,0,2,.59,2.45.59.13,0,.27-.11.27-.34v-1.6A1.16,1.16,0,0,0,111,81.41h-2.88a.34.34,0,0,1-.34-.32v-.14a.34.34,0,0,1,.34-.32h3.12a1.81,1.81,0,0,1,1.8,1.84v5.9h1.35v.79ZM112.14,86a1.2,1.2,0,0,0-1.21-1.21h-2.11A1.21,1.21,0,0,0,107.62,86v1.19a1.21,1.21,0,0,0,1.21,1.21h2.11a1.2,1.2,0,0,0,1.21-1.21Z"/><path class="cls-2" d="M120.87,89.15h-2.79a1.81,1.81,0,0,1-1.8-1.8V82.42a1.81,1.81,0,0,1,1.8-1.8h4.23v2.16h-.86V81.41h-3.12a1.18,1.18,0,0,0-1.19,1.17v4.61a1.18,1.18,0,0,0,1.17,1.17h2.32a1.18,1.18,0,0,0,1.17-1.17v-.25h.87v.41A1.81,1.81,0,0,1,120.87,89.15Z"/><path class="cls-2" d="M127.08,89.21a1.51,1.51,0,0,1-1.57-1.62V81.41h-1a.34.34,0,0,1-.34-.32v-.14a.34.34,0,0,1,.34-.32h1V77.32a.35.35,0,0,1,.34-.34H126a.35.35,0,0,1,.34.34v3.29h2.13v.79h-2.13v6c0,.77.41,1,.9,1a3.52,3.52,0,0,0,1.42-.45v.76A3.26,3.26,0,0,1,127.08,89.21Z"/><path class="cls-2" d="M130.55,89.15v-.79H132V81.41h-1.44v-.79h1.95a.37.37,0,0,1,.36.36v7.38h1.44v.79Zm2-10.52h-.18a.35.35,0,0,1-.34-.34v-1a.35.35,0,0,1,.34-.34h.18a.35.35,0,0,1,.34.34v1A.36.36,0,0,1,132.52,78.64Z"/><path class="cls-2" d="M140.8,89.15h-2.68a1.81,1.81,0,0,1-1.8-1.8V82.42a1.81,1.81,0,0,1,1.8-1.8h2.68a1.79,1.79,0,0,1,1.8,1.8v4.93A1.79,1.79,0,0,1,140.8,89.15Zm.94-6.57a1.16,1.16,0,0,0-1.15-1.17h-2.21a1.18,1.18,0,0,0-1.19,1.17v4.61a1.18,1.18,0,0,0,1.17,1.17h2.21a1.17,1.17,0,0,0,1.17-1.17Z"/><path class="cls-2" d="M150.19,89.15v-.79h1.24V82.6a1.21,1.21,0,0,0-1.21-1.19h-2.11a1.21,1.21,0,0,0-1.21,1.19v5.76h1.24v.79h-3.55v-.79h1.44V81.41h-1.44v-.79h1.67a.54.54,0,0,1,.43.2l.13.14a.6.6,0,0,0,.34.2c.49,0,.85-.59,2.41-.59h.61a1.87,1.87,0,0,1,2.09,1.93v5.87h1.44v.79Z"/><path class="cls-2" d="M159.68,89.15h-2.57a1.81,1.81,0,0,1-1.8-1.8v-.41h.86v.25a1.18,1.18,0,0,0,1.17,1.17h2.09a1.17,1.17,0,0,0,1.17-1.19v-.68a1.17,1.17,0,0,0-1.17-1.17H157.2a1.81,1.81,0,0,1-1.8-1.76V82.4a1.8,1.8,0,0,1,1.8-1.78h3.19a.38.38,0,0,1,.4.34v1.82h-.86V81.41h-2.48a1.18,1.18,0,0,0-1.17,1.17v.79a1.18,1.18,0,0,0,1.17,1.17h2.23a1.81,1.81,0,0,1,1.8,1.78v1A1.79,1.79,0,0,1,159.68,89.15Z"/><path class="cls-2" d="M171.67,78a2.43,2.43,0,0,0-.83-.2.84.84,0,0,0-.9,1v1.87h1.8v.79h-1.8v6.95h1.44v.79h-3.74v-.79h1.44V81.41h-1a.34.34,0,0,1-.34-.32v-.14a.34.34,0,0,1,.34-.32h1V78.55a1.51,1.51,0,0,1,1.57-1.62,2.29,2.29,0,0,1,1,.23l.61.31v.74Z"/><path class="cls-2" d="M178.51,89.15h-2.68a1.81,1.81,0,0,1-1.8-1.8V82.42a1.81,1.81,0,0,1,1.8-1.8h2.68a1.79,1.79,0,0,1,1.8,1.8v4.93A1.79,1.79,0,0,1,178.51,89.15Zm.94-6.57a1.16,1.16,0,0,0-1.15-1.17h-2.21a1.18,1.18,0,0,0-1.19,1.17v4.61a1.18,1.18,0,0,0,1.17,1.17h2.21a1.17,1.17,0,0,0,1.17-1.17Z"/><path class="cls-2" d="M188.64,81.41h-2.81a1.21,1.21,0,0,0-1.21,1.21v5.74h1.44v.79h-3.74v-.79h1.44V81.41h-1.44v-.79H184a.53.53,0,0,1,.45.2l.13.14a.6.6,0,0,0,.34.2c.49,0,.77-.54,2.32-.54h1.42a.34.34,0,0,1,.34.32v.14A.34.34,0,0,1,188.64,81.41Z"/><path class="cls-2" d="M201.31,89.15a.63.63,0,0,1-.49-.18l-.18-.18a.49.49,0,0,0-.32-.14c-.49,0-.9.56-2.45.56h-.61a1.84,1.84,0,0,1-2.05-1.93V81.41h-1.44v-.79h2a.35.35,0,0,1,.31.32v6.23a1.21,1.21,0,0,0,1.21,1.19h2.11a1.21,1.21,0,0,0,1.21-1.19V81.41h-1.44v-.79h2a.35.35,0,0,1,.31.32v7.42h1.44v.79Z"/><path class="cls-2" d="M208.84,89.15h-2.58a1.81,1.81,0,0,1-1.8-1.8v-.41h.87v.25a1.18,1.18,0,0,0,1.17,1.17h2.09a1.17,1.17,0,0,0,1.17-1.19v-.68a1.17,1.17,0,0,0-1.17-1.17h-2.23a1.81,1.81,0,0,1-1.8-1.76V82.4a1.8,1.8,0,0,1,1.8-1.78h3.19a.38.38,0,0,1,.4.34v1.82h-.87V81.41h-2.48a1.18,1.18,0,0,0-1.17,1.17v.79a1.18,1.18,0,0,0,1.17,1.17h2.23a1.81,1.81,0,0,1,1.8,1.78v1A1.79,1.79,0,0,1,208.84,89.15Z"/><path class="cls-2" d="M218.52,85.32h-4.7v1.85A1.17,1.17,0,0,0,215,88.36h2.75a.33.33,0,0,1,.34.32v.14a.33.33,0,0,1-.34.32h-3a1.8,1.8,0,0,1-1.8-1.8v-5a1.81,1.81,0,0,1,1.82-1.78h2.77a1.79,1.79,0,0,1,1.78,1.8v2.16A.71.71,0,0,1,218.52,85.32Zm-.05-2.74a1.15,1.15,0,0,0-1.17-1.17H215a1.19,1.19,0,0,0-1.19,1.17v2h4.65Z"/><path class="cls-2" d="M227.34,81.41h-2.81a1.21,1.21,0,0,0-1.21,1.21v5.74h1.44v.79H221v-.79h1.44V81.41H221v-.79h1.66a.53.53,0,0,1,.45.2l.13.14a.6.6,0,0,0,.34.2c.49,0,.77-.54,2.32-.54h1.42a.34.34,0,0,1,.34.32v.14A.34.34,0,0,1,227.34,81.41Z"/><path class="cls-2" d="M233.1,89.15h-2.58a1.81,1.81,0,0,1-1.8-1.8v-.41h.87v.25a1.18,1.18,0,0,0,1.17,1.17h2.09A1.17,1.17,0,0,0,234,87.17v-.68a1.17,1.17,0,0,0-1.17-1.17h-2.23a1.81,1.81,0,0,1-1.8-1.76V82.4a1.8,1.8,0,0,1,1.8-1.78h3.19a.38.38,0,0,1,.4.34v1.82h-.87V81.41h-2.48a1.18,1.18,0,0,0-1.17,1.17v.79a1.18,1.18,0,0,0,1.17,1.17h2.23a1.81,1.81,0,0,1,1.8,1.78v1A1.79,1.79,0,0,1,233.1,89.15Z"/><path class="cls-2" d="M342.79,54.67a.71.71,0,0,1-.49-.18l-.2-.18a.45.45,0,0,0-.31-.14,3.76,3.76,0,0,0-1.15.38,6.18,6.18,0,0,1-1.93.18h-.77a1.83,1.83,0,0,1-2-1.87V43.3h-1.44V42.5h3.55v.79h-1.24v9.38a1.21,1.21,0,0,0,1.21,1.21h2.81a1.21,1.21,0,0,0,1.21-1.21V43.3h-1.24V42.5h3.55v.79h-1.44V53.88h1.44v.79Z"/><path class="cls-2" d="M350.67,54.67H348.1a1.81,1.81,0,0,1-1.8-1.8v-.41h.86v.25a1.18,1.18,0,0,0,1.17,1.17h2.09a1.17,1.17,0,0,0,1.17-1.19V52a1.17,1.17,0,0,0-1.17-1.17h-2.23a1.81,1.81,0,0,1-1.8-1.76V47.92a1.8,1.8,0,0,1,1.8-1.78h3.19a.38.38,0,0,1,.4.34V48.3h-.86V46.93h-2.49a1.18,1.18,0,0,0-1.17,1.17v.79a1.18,1.18,0,0,0,1.17,1.17h2.23a1.81,1.81,0,0,1,1.8,1.78v1A1.79,1.79,0,0,1,350.67,54.67Z"/><path class="cls-2" d="M360.36,50.84h-4.7v1.85a1.17,1.17,0,0,0,1.19,1.19h2.75a.33.33,0,0,1,.34.32v.14a.33.33,0,0,1-.34.32h-3a1.8,1.8,0,0,1-1.8-1.8v-5a1.81,1.81,0,0,1,1.82-1.78h2.77a1.79,1.79,0,0,1,1.78,1.8V50.1A.71.71,0,0,1,360.36,50.84Zm-.05-2.74a1.15,1.15,0,0,0-1.17-1.17h-2.29a1.2,1.2,0,0,0-1.19,1.17v2h4.65Z"/><path class="cls-2" d="M369.18,46.93h-2.81a1.21,1.21,0,0,0-1.21,1.21v5.74h1.44v.79h-3.75v-.79h1.44v-7h-1.44v-.79h1.66a.53.53,0,0,1,.45.2l.13.14a.6.6,0,0,0,.34.2c.49,0,.77-.54,2.32-.54h1.42a.34.34,0,0,1,.34.32v.14A.34.34,0,0,1,369.18,46.93Z"/><path class="cls-2" d="M370.27,50.14v-.79h4.56v.79Z"/><path class="cls-2" d="M383.65,54.67a.62.62,0,0,1-.49-.18l-.18-.18a.5.5,0,0,0-.32-.14c-.49,0-.9.56-2.45.56h-.61a1.84,1.84,0,0,1-2.05-1.93V46.93H376.1v-.79h2a.35.35,0,0,1,.31.32v6.23a1.21,1.21,0,0,0,1.21,1.19h2.11a1.21,1.21,0,0,0,1.21-1.19V46.93h-1.44v-.79h2a.35.35,0,0,1,.31.32v7.42h1.44v.79Z"/><path class="cls-2" d="M392.11,54.67v-.79h1.24V48.12a1.21,1.21,0,0,0-1.21-1.19H390a1.21,1.21,0,0,0-1.21,1.19v5.76h1.24v.79h-3.55v-.79H388v-7h-1.44v-.79h1.67a.55.55,0,0,1,.43.2l.13.14a.6.6,0,0,0,.34.2c.49,0,.85-.59,2.41-.59h.61A1.87,1.87,0,0,1,394.21,48v5.87h1.44v.79Z"/><path class="cls-2" d="M401.16,43.49a2.4,2.4,0,0,0-.83-.2.84.84,0,0,0-.9,1v1.87h1.8v.79h-1.8v7h1.44v.79h-3.75v-.79h1.44v-7h-1a.34.34,0,0,1-.34-.32v-.14a.34.34,0,0,1,.34-.32h1V44.07a1.51,1.51,0,0,1,1.57-1.62,2.29,2.29,0,0,1,1,.23l.61.31v.74Z"/><path class="cls-2" d="M409.3,46.93h-2.81a1.21,1.21,0,0,0-1.21,1.21v5.74h1.44v.79H403v-.79h1.44v-7H403v-.79h1.66a.53.53,0,0,1,.45.2l.13.14a.6.6,0,0,0,.34.2c.49,0,.77-.54,2.32-.54h1.42a.34.34,0,0,1,.34.32v.14A.34.34,0,0,1,409.3,46.93Z"/><path class="cls-2" d="M410.59,54.67v-.79H412v-7h-1.44v-.79h1.94a.37.37,0,0,1,.36.36v7.38h1.44v.79Zm2-10.51h-.18a.35.35,0,0,1-.34-.34v-1a.35.35,0,0,1,.34-.34h.18a.35.35,0,0,1,.34.34v1A.36.36,0,0,1,412.55,44.16Z"/><path class="cls-2" d="M421.91,50.84h-4.7v1.85a1.18,1.18,0,0,0,1.19,1.19h2.75a.33.33,0,0,1,.34.32v.14a.33.33,0,0,1-.34.32h-3a1.8,1.8,0,0,1-1.8-1.8v-5a1.81,1.81,0,0,1,1.82-1.78h2.77a1.79,1.79,0,0,1,1.78,1.8V50.1A.71.71,0,0,1,421.91,50.84Zm-.05-2.74a1.15,1.15,0,0,0-1.17-1.17H418.4a1.2,1.2,0,0,0-1.19,1.17v2h4.65Z"/><path class="cls-2" d="M430,54.67v-.79h1.24V48.12A1.21,1.21,0,0,0,430,46.93h-2.11a1.21,1.21,0,0,0-1.21,1.19v5.76H428v.79h-3.55v-.79h1.44v-7h-1.44v-.79h1.67a.55.55,0,0,1,.43.2l.13.14a.6.6,0,0,0,.34.2c.49,0,.85-.59,2.41-.59H430A1.87,1.87,0,0,1,432.1,48v5.87h1.44v.79Z"/><path class="cls-2" d="M441.43,54.67a.73.73,0,0,1-.45-.18l-.14-.16a.51.51,0,0,0-.34-.16c-.49,0-.86.56-2.45.56h-.61a1.86,1.86,0,0,1-2.05-1.93V48a1.85,1.85,0,0,1,2.05-1.93H438c1.58,0,2,.59,2.45.59.13,0,.27-.11.27-.34v-3h-1.44V42.5h1.93a.39.39,0,0,1,.38.38v11h1.44v.79Zm-.67-6.54a1.21,1.21,0,0,0-1.21-1.21h-2.11a1.21,1.21,0,0,0-1.21,1.21v4.54a1.21,1.21,0,0,0,1.21,1.21h2.11a1.21,1.21,0,0,0,1.21-1.21Z"/><path class="cls-2" d="M444.36,54.67v-.79h1.44V43.3h-1.44V42.5h2a.36.36,0,0,1,.34.36v11h1.44v.79Z"/><path class="cls-2" d="M457.38,46.93,453,57.83a1.49,1.49,0,0,1-1.39.86,2.87,2.87,0,0,1-1.57-.52v-.79a3.11,3.11,0,0,0,1.35.47.93.93,0,0,0,1-.61l1-2.56a.71.71,0,0,1-.38-.4l-3-7.35h-1.21v-.79H452v.79h-1l2.79,6.9,2.79-6.9h-1v-.79h3.13v.79Z"/><path class="cls-2" d="M300.76,89.15a.71.71,0,0,1-.49-.18l-.2-.18a.45.45,0,0,0-.31-.14,3.78,3.78,0,0,0-1.15.38,6.21,6.21,0,0,1-1.93.18h-.78a1.83,1.83,0,0,1-2-1.87V77.77h-1.44V77h3.55v.79h-1.24v9.38A1.21,1.21,0,0,0,296,88.36h2.81A1.21,1.21,0,0,0,300,87.16V77.77H298.8V77h3.55v.79H300.9V88.36h1.44v.79Z"/><path class="cls-2" d="M308.64,89.15h-2.57a1.81,1.81,0,0,1-1.8-1.8v-.41h.86v.25a1.18,1.18,0,0,0,1.17,1.17h2.09a1.17,1.17,0,0,0,1.17-1.19v-.68a1.17,1.17,0,0,0-1.17-1.17h-2.23a1.81,1.81,0,0,1-1.8-1.76V82.4a1.8,1.8,0,0,1,1.8-1.78h3.19a.38.38,0,0,1,.4.34v1.82h-.86V81.41h-2.48a1.18,1.18,0,0,0-1.17,1.17v.79a1.18,1.18,0,0,0,1.17,1.17h2.23a1.81,1.81,0,0,1,1.8,1.78v1A1.79,1.79,0,0,1,308.64,89.15Z"/><path class="cls-2" d="M318.33,85.32h-4.7v1.85a1.17,1.17,0,0,0,1.19,1.19h2.75a.33.33,0,0,1,.34.32v.14a.33.33,0,0,1-.34.32h-3a1.8,1.8,0,0,1-1.8-1.8v-5a1.81,1.81,0,0,1,1.82-1.78h2.77a1.79,1.79,0,0,1,1.78,1.8v2.16A.71.71,0,0,1,318.33,85.32Zm-.05-2.74a1.15,1.15,0,0,0-1.17-1.17h-2.29a1.19,1.19,0,0,0-1.19,1.17v2h4.65Z"/><path class="cls-2" d="M327.15,81.41h-2.81a1.21,1.21,0,0,0-1.21,1.21v5.74h1.44v.79h-3.75v-.79h1.44V81.41h-1.44v-.79h1.66a.53.53,0,0,1,.45.2l.13.14a.6.6,0,0,0,.34.2c.49,0,.77-.54,2.32-.54h1.42a.34.34,0,0,1,.34.32v.14A.34.34,0,0,1,327.15,81.41Z"/><path class="cls-2" d="M332.91,89.15h-2.57a1.81,1.81,0,0,1-1.8-1.8v-.41h.86v.25a1.18,1.18,0,0,0,1.17,1.17h2.09a1.17,1.17,0,0,0,1.17-1.19v-.68a1.17,1.17,0,0,0-1.17-1.17h-2.23a1.81,1.81,0,0,1-1.8-1.76V82.4a1.8,1.8,0,0,1,1.8-1.78h3.19a.38.38,0,0,1,.4.34v1.82h-.86V81.41h-2.48a1.18,1.18,0,0,0-1.17,1.17v.79a1.18,1.18,0,0,0,1.17,1.17h2.23a1.81,1.81,0,0,1,1.8,1.78v1A1.79,1.79,0,0,1,332.91,89.15Z"/><path class="cls-2" d="M343.51,89.21a1.51,1.51,0,0,1-1.57-1.62V81.41h-1a.34.34,0,0,1-.34-.32v-.14a.34.34,0,0,1,.34-.32h1V77.32a.35.35,0,0,1,.34-.34h.18a.35.35,0,0,1,.34.34v3.29h2.13v.79H342.8v6c0,.77.41,1,.9,1a3.53,3.53,0,0,0,1.42-.45v.76A3.26,3.26,0,0,1,343.51,89.21Z"/><path class="cls-2" d="M353,89.15a.72.72,0,0,1-.45-.18l-.14-.16a.52.52,0,0,0-.34-.16c-.49,0-.86.56-2.45.56h-.61A1.86,1.86,0,0,1,347,87.28V85.84a1.85,1.85,0,0,1,2.05-1.93h.61c1.58,0,2,.59,2.45.59.13,0,.27-.11.27-.34v-1.6a1.16,1.16,0,0,0-1.17-1.15h-2.88a.34.34,0,0,1-.34-.32v-.14a.34.34,0,0,1,.34-.32h3.12a1.81,1.81,0,0,1,1.8,1.84v5.91h1.35v.79ZM352.38,86a1.21,1.21,0,0,0-1.21-1.21h-2.11A1.21,1.21,0,0,0,347.86,86v1.19a1.21,1.21,0,0,0,1.21,1.21h2.11a1.21,1.21,0,0,0,1.21-1.21Z"/><path class="cls-2" d="M362.8,89.15a.7.7,0,0,1-.59-.32l-3-4.18-1.13,1.17v2.54h1.24v.79H355.8v-.79h1.44V77.77H355.8V77h2a.35.35,0,0,1,.34.34v7.31l3.69-3.82a.65.65,0,0,1,.49-.2h1.37v.79h-1.3l-2.54,2.65,3.06,4.3h1.3v.79Z"/><path class="cls-2" d="M371.26,85.32h-4.7v1.85a1.17,1.17,0,0,0,1.19,1.19h2.75a.33.33,0,0,1,.34.32v.14a.33.33,0,0,1-.34.32h-3a1.8,1.8,0,0,1-1.8-1.8v-5a1.81,1.81,0,0,1,1.82-1.78h2.77a1.79,1.79,0,0,1,1.78,1.8v2.16A.71.71,0,0,1,371.26,85.32Zm-.05-2.74A1.14,1.14,0,0,0,370,81.41h-2.29a1.19,1.19,0,0,0-1.19,1.17v2h4.65Z"/><path class="cls-2" d="M381.16,93.06a.2.2,0,0,1-.25,0L379.42,92a1.18,1.18,0,0,1-.4-1V77.83a1.18,1.18,0,0,1,.4-1l1.49-1.1a.2.2,0,0,1,.25,0l.09.11a.2.2,0,0,1,0,.27l-1.35,1.35V91.33l1.35,1.35a.2.2,0,0,1,0,.27Z"/><path class="cls-2" d="M389.14,89.15a.72.72,0,0,1-.45-.18l-.14-.16a.52.52,0,0,0-.34-.16c-.49,0-.86.56-2.45.56h-.61a1.86,1.86,0,0,1-2.05-1.93V85.84a1.85,1.85,0,0,1,2.05-1.93h.61c1.58,0,2,.59,2.45.59.13,0,.27-.11.27-.34v-1.6a1.16,1.16,0,0,0-1.17-1.15h-2.88a.34.34,0,0,1-.34-.32v-.14a.34.34,0,0,1,.34-.32h3.12a1.81,1.81,0,0,1,1.8,1.84v5.91h1.35v.79ZM388.47,86a1.21,1.21,0,0,0-1.21-1.21h-2.11A1.21,1.21,0,0,0,384,86v1.19a1.21,1.21,0,0,0,1.21,1.21h2.11a1.21,1.21,0,0,0,1.21-1.21Z"/><path class="cls-2" d="M396.26,89.15v-.79h1.44V77.77h-1.44V77h2a.36.36,0,0,1,.34.36v11H400v.79Z"/><path class="cls-2" d="M406.51,89.15h-2.68a1.81,1.81,0,0,1-1.8-1.8V82.42a1.81,1.81,0,0,1,1.8-1.8h2.68a1.79,1.79,0,0,1,1.8,1.8v4.93A1.79,1.79,0,0,1,406.51,89.15Zm.94-6.57a1.16,1.16,0,0,0-1.15-1.17h-2.21a1.18,1.18,0,0,0-1.19,1.17v4.61a1.18,1.18,0,0,0,1.17,1.17h2.21a1.17,1.17,0,0,0,1.17-1.17Z"/><path class="cls-2" d="M413.15,89.21a1.51,1.51,0,0,1-1.57-1.62V81.41h-1a.34.34,0,0,1-.34-.32v-.14a.34.34,0,0,1,.34-.32h1V77.32a.35.35,0,0,1,.34-.34h.18a.35.35,0,0,1,.34.34v3.29h2.13v.79h-2.12v6c0,.77.41,1,.9,1a3.53,3.53,0,0,0,1.42-.45v.76A3.26,3.26,0,0,1,413.15,89.21Z"/><path class="cls-2" d="M425.66,89.15H423a1.81,1.81,0,0,1-1.8-1.8V82.42a1.81,1.81,0,0,1,1.8-1.8h2.68a1.8,1.8,0,0,1,1.8,1.8v4.93A1.8,1.8,0,0,1,425.66,89.15Zm.94-6.57a1.16,1.16,0,0,0-1.15-1.17h-2.21A1.18,1.18,0,0,0,422,82.58v4.61a1.18,1.18,0,0,0,1.17,1.17h2.21a1.17,1.17,0,0,0,1.17-1.17Z"/><path class="cls-2" d="M433.69,78a2.4,2.4,0,0,0-.83-.2.85.85,0,0,0-.9,1v1.87h1.8v.79H432v6.95h1.44v.79h-3.75v-.79h1.44V81.41h-1a.34.34,0,0,1-.34-.32v-.14a.34.34,0,0,1,.34-.32h1V78.55a1.51,1.51,0,0,1,1.57-1.62,2.29,2.29,0,0,1,1,.23l.61.31v.74Z"/><path class="cls-2" d="M437.5,92l-1.5,1.1a.19.19,0,0,1-.25,0l-.09-.11a.2.2,0,0,1,0-.27L437,91.33V77.45l-1.35-1.35a.2.2,0,0,1,0-.27l.09-.11a.19.19,0,0,1,.25,0l1.5,1.1a1.18,1.18,0,0,1,.4,1V91A1.18,1.18,0,0,1,437.5,92Z"/><path class="cls-2" d="M450.88,89.15a.72.72,0,0,1-.45-.18l-.14-.16a.52.52,0,0,0-.34-.16c-.49,0-.86.56-2.45.56h-.61a1.86,1.86,0,0,1-2.05-1.93V85.84a1.85,1.85,0,0,1,2.05-1.93h.61c1.58,0,2,.59,2.45.59.13,0,.27-.11.27-.34v-1.6A1.16,1.16,0,0,0,449,81.41h-2.88a.34.34,0,0,1-.34-.32v-.14a.34.34,0,0,1,.34-.32h3.12a1.81,1.81,0,0,1,1.8,1.84v5.91h1.35v.79ZM450.21,86A1.21,1.21,0,0,0,449,84.76H446.9A1.21,1.21,0,0,0,445.69,86v1.19a1.21,1.21,0,0,0,1.21,1.21H449a1.21,1.21,0,0,0,1.21-1.21Z"/><path class="cls-2" d="M458.94,89.15h-2.79a1.81,1.81,0,0,1-1.8-1.8V82.42a1.81,1.81,0,0,1,1.8-1.8h4.23v2.16h-.86V81.41H456.4a1.18,1.18,0,0,0-1.19,1.17v4.61a1.18,1.18,0,0,0,1.17,1.17h2.32a1.18,1.18,0,0,0,1.17-1.17v-.25h.87v.41A1.81,1.81,0,0,1,458.94,89.15Z"/><path class="cls-2" d="M465.15,89.21a1.51,1.51,0,0,1-1.57-1.62V81.41h-1a.34.34,0,0,1-.34-.32v-.14a.34.34,0,0,1,.34-.32h1V77.32a.35.35,0,0,1,.34-.34h.18a.35.35,0,0,1,.34.34v3.29h2.13v.79h-2.12v6c0,.77.41,1,.9,1a3.53,3.53,0,0,0,1.42-.45v.76A3.26,3.26,0,0,1,465.15,89.21Z"/><path class="cls-2" d="M468.62,89.15v-.79h1.44V81.41h-1.44v-.79h1.95a.37.37,0,0,1,.36.36v7.38h1.44v.79Zm2-10.52h-.18a.35.35,0,0,1-.34-.34v-1a.35.35,0,0,1,.34-.34h.18a.35.35,0,0,1,.34.34v1A.36.36,0,0,1,470.58,78.64Z"/><path class="cls-2" d="M478.87,89.15h-2.68a1.81,1.81,0,0,1-1.8-1.8V82.42a1.81,1.81,0,0,1,1.8-1.8h2.68a1.8,1.8,0,0,1,1.8,1.8v4.93A1.8,1.8,0,0,1,478.87,89.15Zm.94-6.57a1.16,1.16,0,0,0-1.15-1.17h-2.21a1.18,1.18,0,0,0-1.19,1.17v4.61a1.18,1.18,0,0,0,1.17,1.17h2.21a1.17,1.17,0,0,0,1.17-1.17Z"/><path class="cls-2" d="M488.26,89.15v-.79h1.24V82.6a1.21,1.21,0,0,0-1.21-1.19h-2.11A1.21,1.21,0,0,0,485,82.6v5.76h1.24v.79h-3.55v-.79h1.44V81.41h-1.44v-.79h1.67a.55.55,0,0,1,.43.2l.13.14a.6.6,0,0,0,.34.2c.49,0,.85-.59,2.41-.59h.61a1.87,1.87,0,0,1,2.09,1.93v5.87h1.44v.79Z"/><path class="cls-2" d="M497.75,89.15h-2.57a1.81,1.81,0,0,1-1.8-1.8v-.41h.86v.25a1.18,1.18,0,0,0,1.17,1.17h2.09a1.17,1.17,0,0,0,1.17-1.19v-.68a1.17,1.17,0,0,0-1.17-1.17h-2.23a1.81,1.81,0,0,1-1.8-1.76V82.4a1.8,1.8,0,0,1,1.8-1.78h3.19a.38.38,0,0,1,.4.34v1.82H498V81.41H495.5a1.18,1.18,0,0,0-1.17,1.17v.79a1.18,1.18,0,0,0,1.17,1.17h2.23a1.81,1.81,0,0,1,1.8,1.78v1A1.79,1.79,0,0,1,497.75,89.15Z"/><path class="cls-2" d="M27.27,110.46v11.11a.35.35,0,0,1-.31.32h-.22a.54.54,0,0,1-.45-.32L20.77,111.4V121H22v.79H18.46V121H19.9V110.46H18.46v-.79h2a.45.45,0,0,1,.45.25l5.51,10.14v-9.6H25.16v-.79h3.55v.79Z"/><path class="cls-2" d="M36.29,118h-4.7v1.86A1.17,1.17,0,0,0,32.77,121h2.76a.33.33,0,0,1,.34.32v.14a.33.33,0,0,1-.34.32h-3a1.8,1.8,0,0,1-1.8-1.8v-5a1.81,1.81,0,0,1,1.82-1.78h2.77a1.79,1.79,0,0,1,1.78,1.8v2.16A.71.71,0,0,1,36.29,118Zm-.05-2.74a1.14,1.14,0,0,0-1.17-1.17H32.77a1.19,1.19,0,0,0-1.19,1.17v2h4.64Z"/><path class="cls-2" d="M45.86,114.1l-2.59,7.2a.73.73,0,0,1-.61.54h-.22a.75.75,0,0,1-.61-.54l-2.59-7.2H38v-.79h3.13v.79h-1l1.62,4.61c.31.88.76,2.29.76,2.29h0s.45-1.4.76-2.29l1.62-4.61h-1v-.79h3.13v.79Z"/><path class="cls-2" d="M53.89,118h-4.7v1.86A1.17,1.17,0,0,0,50.38,121h2.75a.33.33,0,0,1,.34.32v.14a.33.33,0,0,1-.34.32h-3a1.8,1.8,0,0,1-1.8-1.8v-5a1.81,1.81,0,0,1,1.82-1.78h2.77a1.79,1.79,0,0,1,1.78,1.8v2.16A.71.71,0,0,1,53.89,118Zm-.05-2.74a1.14,1.14,0,0,0-1.17-1.17H50.38a1.19,1.19,0,0,0-1.19,1.17v2h4.65Z"/><path class="cls-2" d="M62.71,114.1H59.9a1.21,1.21,0,0,0-1.21,1.21V121h1.44v.79H56.39V121h1.44V114.1H56.39v-.79H58a.53.53,0,0,1,.45.2l.13.14a.6.6,0,0,0,.34.2c.49,0,.77-.54,2.32-.54h1.42a.34.34,0,0,1,.34.32v.14A.34.34,0,0,1,62.71,114.1Z"/><path class="cls-2" d="M68.2,121.84V121h1.44V114.1H68.2v-.79h1.94a.37.37,0,0,1,.36.36V121h1.44v.79Zm2-10.52H70a.35.35,0,0,1-.34-.34v-1a.35.35,0,0,1,.34-.34h.18a.35.35,0,0,1,.34.34v1A.36.36,0,0,1,70.16,111.33Z"/><path class="cls-2" d="M79,121.84V121h1.24v-5.76A1.21,1.21,0,0,0,79,114.1H76.93a1.21,1.21,0,0,0-1.21,1.19V121H77v.79H73.42V121h1.44V114.1H73.42v-.79h1.67a.55.55,0,0,1,.43.2l.13.14a.6.6,0,0,0,.34.2c.49,0,.85-.59,2.41-.59H79a1.88,1.88,0,0,1,2.09,1.93V121h1.44v.79Z"/><path class="cls-2" d="M88.05,110.66a2.41,2.41,0,0,0-.83-.2.84.84,0,0,0-.9,1v1.87h1.8v.79h-1.8V121h1.44v.79H84V121h1.44V114.1h-1a.34.34,0,0,1-.34-.32v-.14a.34.34,0,0,1,.34-.32h1v-2.07A1.51,1.51,0,0,1,87,109.62a2.29,2.29,0,0,1,1,.23l.61.31v.74Z"/><path class="cls-2" d="M94.89,121.84H92.21a1.81,1.81,0,0,1-1.8-1.8v-4.93a1.81,1.81,0,0,1,1.8-1.8h2.68a1.79,1.79,0,0,1,1.8,1.8V120A1.79,1.79,0,0,1,94.89,121.84Zm.94-6.57a1.16,1.16,0,0,0-1.15-1.17H92.46a1.18,1.18,0,0,0-1.19,1.17v4.61A1.18,1.18,0,0,0,92.44,121h2.21a1.17,1.17,0,0,0,1.17-1.17Z"/><path class="cls-2" d="M105,114.1h-2.81a1.2,1.2,0,0,0-1.21,1.21V121h1.44v.79H98.71V121h1.44V114.1H98.71v-.79h1.66a.53.53,0,0,1,.45.2l.13.14a.6.6,0,0,0,.34.2c.49,0,.77-.54,2.32-.54H105a.34.34,0,0,1,.34.32v.14A.34.34,0,0,1,105,114.1Z"/><path class="cls-2" d="M116.24,121.84V121h1v-5.78a1.17,1.17,0,0,0-1.17-1.17h-1.64a1.17,1.17,0,0,0-1.17,1.17V121h1v.79H111.4V121h1v-5.78a1.17,1.17,0,0,0-1.17-1.17h-1.64a1.17,1.17,0,0,0-1.17,1.17V121h1v.79h-3.33V121h1.44V114.1h-1.44v-.79h1.67a.65.65,0,0,1,.43.2l.13.14a.6.6,0,0,0,.34.2c.49,0,.9-.59,2.27-.59h.13c1.22,0,1.42.59,2.3.59s1-.59,2.41-.59H116a2,2,0,0,1,2.18,1.94V121h1.44v.79Z"/><path class="cls-2" d="M132.42,121.84a.63.63,0,0,1-.49-.18l-.18-.18a.49.49,0,0,0-.32-.14c-.49,0-.9.56-2.45.56h-.61a1.84,1.84,0,0,1-2.05-1.93V114.1h-1.44v-.79h2a.35.35,0,0,1,.31.32v6.23a1.21,1.21,0,0,0,1.21,1.19h2.11a1.21,1.21,0,0,0,1.21-1.19V114.1h-1.44v-.79h2a.35.35,0,0,1,.31.32V121H134v.79Z"/><path class="cls-2" d="M139.95,121.84h-2.58a1.81,1.81,0,0,1-1.8-1.8v-.41h.86v.25A1.18,1.18,0,0,0,137.6,121h2.09a1.17,1.17,0,0,0,1.17-1.19v-.69a1.17,1.17,0,0,0-1.17-1.17h-2.23a1.81,1.81,0,0,1-1.8-1.76v-1.15a1.8,1.8,0,0,1,1.8-1.78h3.19a.38.38,0,0,1,.4.34v1.82h-.86V114.1h-2.49a1.18,1.18,0,0,0-1.17,1.17v.79a1.18,1.18,0,0,0,1.17,1.17h2.23a1.81,1.81,0,0,1,1.8,1.78v1A1.79,1.79,0,0,1,139.95,121.84Z"/><path class="cls-2" d="M149.63,118h-4.7v1.86a1.17,1.17,0,0,0,1.19,1.19h2.75a.33.33,0,0,1,.34.32v.14a.33.33,0,0,1-.34.32h-3a1.8,1.8,0,0,1-1.8-1.8v-5a1.81,1.81,0,0,1,1.82-1.78h2.77a1.79,1.79,0,0,1,1.78,1.8v2.16A.71.71,0,0,1,149.63,118Zm-.05-2.74a1.14,1.14,0,0,0-1.17-1.17h-2.29a1.19,1.19,0,0,0-1.19,1.17v2h4.65Z"/><path class="cls-2" d="M158.45,114.1h-2.81a1.21,1.21,0,0,0-1.21,1.21V121h1.44v.79h-3.75V121h1.44V114.1h-1.44v-.79h1.66a.53.53,0,0,1,.45.2l.13.14a.6.6,0,0,0,.34.2c.49,0,.77-.54,2.32-.54h1.42a.34.34,0,0,1,.34.32v.14A.34.34,0,0,1,158.45,114.1Z"/><path class="cls-2" d="M164.21,121.84h-2.58a1.81,1.81,0,0,1-1.8-1.8v-.41h.86v.25a1.18,1.18,0,0,0,1.17,1.17H164a1.17,1.17,0,0,0,1.17-1.19v-.69A1.17,1.17,0,0,0,164,118h-2.23a1.81,1.81,0,0,1-1.8-1.76v-1.15a1.8,1.8,0,0,1,1.8-1.78h3.19a.38.38,0,0,1,.4.34v1.82h-.86V114.1H162a1.18,1.18,0,0,0-1.17,1.17v.79a1.18,1.18,0,0,0,1.17,1.17h2.23A1.81,1.81,0,0,1,166,119v1A1.79,1.79,0,0,1,164.21,121.84Z"/><path class="cls-2" d="M181.72,114.1l-1.62,7.18a.63.63,0,0,1-.58.56h-.22c-.29,0-.45-.27-.56-.54l-1.67-4.57-1.67,4.57c-.11.27-.27.54-.56.54h-.22a.63.63,0,0,1-.58-.56l-1.62-7.18h-1.21v-.79h3.13v.79h-1.08l1.06,4.7c.22,1,.41,2.21.41,2.21h0s.25-.94.59-1.84l1.08-2.86a.49.49,0,0,1,.47-.38h.29a.49.49,0,0,1,.47.38l1.08,2.86c.34.9.59,1.84.59,1.84h0s.2-1.24.42-2.21l1.06-4.7H179.8v-.79h3.13v.79Z"/><path class="cls-2" d="M189,121.84V121h1.24v-5.74a1.21,1.21,0,0,0-1.21-1.21H187a1.21,1.21,0,0,0-1.21,1.21V121H187v.79h-3.55V121h1.44V110.46h-1.44v-.79h1.93a.39.39,0,0,1,.38.38v3.46c0,.23.14.34.27.34.49,0,.87-.59,2.45-.59h.61a1.85,1.85,0,0,1,2.05,1.93V121h1.44v.79Z"/><path class="cls-2" d="M200.14,121.84a.72.72,0,0,1-.45-.18l-.14-.16a.52.52,0,0,0-.34-.16c-.49,0-.86.56-2.45.56h-.61a1.86,1.86,0,0,1-2.05-1.93v-1.44a1.85,1.85,0,0,1,2.05-1.93h.61c1.58,0,2,.59,2.45.59.13,0,.27-.11.27-.34v-1.6a1.16,1.16,0,0,0-1.17-1.15h-2.88a.34.34,0,0,1-.34-.32v-.14a.34.34,0,0,1,.34-.32h3.12a1.81,1.81,0,0,1,1.8,1.84V121h1.35v.79Zm-.67-3.19a1.21,1.21,0,0,0-1.21-1.21h-2.11a1.21,1.21,0,0,0-1.21,1.21v1.19a1.21,1.21,0,0,0,1.21,1.21h2.11a1.21,1.21,0,0,0,1.21-1.21Z"/><path class="cls-2" d="M205.89,121.9a1.51,1.51,0,0,1-1.57-1.62V114.1h-1a.34.34,0,0,1-.34-.32v-.14a.34.34,0,0,1,.34-.32h1V110a.35.35,0,0,1,.34-.34h.18a.35.35,0,0,1,.34.34v3.29h2.12v.79h-2.12v6c0,.78.41,1,.9,1a3.54,3.54,0,0,0,1.42-.45v.76A3.26,3.26,0,0,1,205.89,121.9Z"/><path class="cls-2" d="M210.11,112.28l-.5.68c-.07.09-.13.14-.22.14s-.23-.13-.16-.31l.27-.63a1.48,1.48,0,0,0,.13-.38c0-.32-.45-.14-.45-.67V110a.34.34,0,0,1,.36-.32h.5a.35.35,0,0,1,.32.32v1.22A1.83,1.83,0,0,1,210.11,112.28Z"/><path class="cls-2" d="M215.56,121.84H213a1.81,1.81,0,0,1-1.8-1.8v-.41h.86v.25a1.18,1.18,0,0,0,1.17,1.17h2.09a1.17,1.17,0,0,0,1.17-1.19v-.69a1.17,1.17,0,0,0-1.17-1.17h-2.23a1.81,1.81,0,0,1-1.8-1.76v-1.15a1.8,1.8,0,0,1,1.8-1.78h3.19a.38.38,0,0,1,.4.34v1.82h-.86V114.1h-2.49a1.18,1.18,0,0,0-1.17,1.17v.79a1.18,1.18,0,0,0,1.17,1.17h2.23a1.81,1.81,0,0,1,1.8,1.78v1A1.79,1.79,0,0,1,215.56,121.84Z"/><path class="cls-2" d="M21.07,135.7v9.9a1.81,1.81,0,0,1-1.8,1.8H16.44v-.79H19a1.18,1.18,0,0,0,1.19-1.17v-2.12c0-.22-.05-.4-.23-.4-.49,0-.94.58-2.48.58h-.61a1.86,1.86,0,0,1-2.05-1.93v-4.79a1.86,1.86,0,0,1,2.05-1.93h.61c1.58,0,2,.59,2.45.59a.54.54,0,0,0,.34-.2l.13-.14a.61.61,0,0,1,.43-.2h1.67v.79Zm-.86,1.21A1.21,1.21,0,0,0,19,135.7H16.89a1.21,1.21,0,0,0-1.21,1.21v4.54a1.21,1.21,0,0,0,1.21,1.21H19a1.21,1.21,0,0,0,1.21-1.21Z"/><path class="cls-2" d="M28.82,143.44H26.14a1.81,1.81,0,0,1-1.8-1.8v-4.93a1.81,1.81,0,0,1,1.8-1.8h2.68a1.79,1.79,0,0,1,1.8,1.8v4.93A1.79,1.79,0,0,1,28.82,143.44Zm.94-6.57a1.16,1.16,0,0,0-1.15-1.17H26.39a1.18,1.18,0,0,0-1.19,1.17v4.61a1.18,1.18,0,0,0,1.17,1.17h2.21a1.17,1.17,0,0,0,1.17-1.17Z"/><path class="cls-2" d="M32.82,143.44v-.79h1.44V135.7H32.82v-.79h1.94a.37.37,0,0,1,.36.36v7.38h1.44v.79Zm2-10.52H34.6a.35.35,0,0,1-.34-.34v-1a.35.35,0,0,1,.34-.34h.18a.35.35,0,0,1,.34.34v1A.36.36,0,0,1,34.78,132.93Z"/><path class="cls-2" d="M43.62,143.44v-.79h1.24v-5.76a1.21,1.21,0,0,0-1.21-1.19H41.55a1.21,1.21,0,0,0-1.21,1.19v5.76h1.24v.79H38v-.79h1.44V135.7H38v-.79h1.67a.54.54,0,0,1,.43.2l.13.14a.6.6,0,0,0,.34.2c.49,0,.85-.59,2.41-.59h.61a1.87,1.87,0,0,1,2.09,1.93v5.87h1.44v.79Z"/><path class="cls-2" d="M55.25,135.7v9.9a1.81,1.81,0,0,1-1.8,1.8H50.62v-.79H53.2a1.18,1.18,0,0,0,1.19-1.17v-2.12c0-.22-.05-.4-.23-.4-.49,0-.94.58-2.48.58h-.61A1.86,1.86,0,0,1,49,141.57v-4.79a1.86,1.86,0,0,1,2.05-1.93h.61c1.58,0,2,.59,2.45.59a.54.54,0,0,0,.34-.2l.13-.14a.61.61,0,0,1,.43-.2h1.67v.79Zm-.86,1.21a1.21,1.21,0,0,0-1.21-1.21H51.07a1.21,1.21,0,0,0-1.21,1.21v4.54a1.21,1.21,0,0,0,1.21,1.21h2.11a1.21,1.21,0,0,0,1.21-1.21Z"/><path class="cls-2" d="M67.2,143.44H64.52a1.81,1.81,0,0,1-1.8-1.8v-4.93a1.81,1.81,0,0,1,1.8-1.8H67.2a1.8,1.8,0,0,1,1.8,1.8v4.93A1.8,1.8,0,0,1,67.2,143.44Zm.94-6.57A1.16,1.16,0,0,0,67,135.7H64.77a1.18,1.18,0,0,0-1.19,1.17v4.61a1.18,1.18,0,0,0,1.17,1.17H67a1.17,1.17,0,0,0,1.17-1.17Z"/><path class="cls-2" d="M76.6,143.44v-.79h1.24v-5.76a1.21,1.21,0,0,0-1.21-1.19H74.52a1.21,1.21,0,0,0-1.21,1.19v5.76h1.24v.79H71v-.79h1.44V135.7H71v-.79h1.67a.55.55,0,0,1,.43.2l.13.14a.61.61,0,0,0,.34.2c.49,0,.85-.59,2.41-.59h.61a1.87,1.87,0,0,1,2.09,1.93v5.87h1.44v.79Z"/><path class="cls-2" d="M93,143.44a.63.63,0,0,1-.49-.18l-.18-.18a.49.49,0,0,0-.32-.14c-.49,0-.9.56-2.45.56h-.61a1.84,1.84,0,0,1-2.05-1.93V135.7H85.45v-.79h2a.35.35,0,0,1,.31.32v6.23A1.21,1.21,0,0,0,89,142.65h2.11a1.21,1.21,0,0,0,1.21-1.19V135.7H90.83v-.79h2a.35.35,0,0,1,.31.32v7.42h1.44v.79Z"/><path class="cls-2" d="M101.45,143.44v-.79h1.24v-5.76a1.21,1.21,0,0,0-1.21-1.19H99.38a1.21,1.21,0,0,0-1.21,1.19v5.76h1.24v.79H95.87v-.79h1.44V135.7H95.87v-.79h1.67a.55.55,0,0,1,.43.2l.13.14a.61.61,0,0,0,.34.2c.49,0,.85-.59,2.41-.59h.61a1.87,1.87,0,0,1,2.09,1.93v5.87H105v.79Z"/><path class="cls-2" d="M109.12,143.5a1.51,1.51,0,0,1-1.57-1.62V135.7h-1a.34.34,0,0,1-.34-.32v-.14a.34.34,0,0,1,.34-.32h1v-3.29a.35.35,0,0,1,.34-.34h.18a.35.35,0,0,1,.34.34v3.29h2.12v.79h-2.12v6c0,.77.41,1,.9,1a3.52,3.52,0,0,0,1.42-.45V143A3.26,3.26,0,0,1,109.12,143.5Z"/><path class="cls-2" d="M112.59,143.44v-.79H114V135.7h-1.44v-.79h1.94a.37.37,0,0,1,.36.36v7.38h1.44v.79Zm2-10.52h-.18a.35.35,0,0,1-.34-.34v-1a.35.35,0,0,1,.34-.34h.18a.35.35,0,0,1,.34.34v1A.36.36,0,0,1,114.56,132.93Z"/><path class="cls-2" d="M117.81,143.44v-.79h1.44V132.06h-1.44v-.79h2a.36.36,0,0,1,.34.36v11h1.44v.79Z"/><path class="cls-2" d="M134.3,135.7l-2.59,7.2a.73.73,0,0,1-.61.54h-.22a.75.75,0,0,1-.61-.54l-2.59-7.2h-1.21v-.79h3.13v.79h-1l1.62,4.61c.31.88.76,2.29.76,2.29h0s.45-1.4.76-2.29l1.62-4.61h-1v-.79h3.13v.79Z"/><path class="cls-2" d="M142.33,139.61h-4.7v1.85a1.17,1.17,0,0,0,1.19,1.19h2.75a.33.33,0,0,1,.34.32v.14a.33.33,0,0,1-.34.32h-3a1.8,1.8,0,0,1-1.8-1.8v-5a1.81,1.81,0,0,1,1.82-1.78h2.77a1.79,1.79,0,0,1,1.78,1.8v2.16A.71.71,0,0,1,142.33,139.61Zm-.05-2.74a1.15,1.15,0,0,0-1.17-1.17h-2.29a1.19,1.19,0,0,0-1.19,1.17v2h4.65Z"/><path class="cls-2" d="M151.15,135.7h-2.81a1.21,1.21,0,0,0-1.21,1.21v5.74h1.44v.79h-3.75v-.79h1.44V135.7h-1.44v-.79h1.66a.53.53,0,0,1,.45.2l.13.14a.61.61,0,0,0,.34.2c.49,0,.77-.54,2.32-.54h1.42a.34.34,0,0,1,.34.32v.14A.34.34,0,0,1,151.15,135.7Z"/><path class="cls-2" d="M160.06,135.7l-4.39,10.89a1.49,1.49,0,0,1-1.39.87,2.87,2.87,0,0,1-1.57-.52v-.79a3.12,3.12,0,0,0,1.35.47.93.93,0,0,0,1-.61l1-2.56a.71.71,0,0,1-.38-.4l-3-7.35h-1.21v-.79h3.13v.79h-1l2.79,6.9,2.79-6.9h-1v-.79h3.13v.79Z"/><path class="cls-2" d="M170.82,143.44h-2.58a1.81,1.81,0,0,1-1.8-1.8v-.41h.86v.25a1.18,1.18,0,0,0,1.17,1.17h2.09a1.17,1.17,0,0,0,1.17-1.19v-.68a1.17,1.17,0,0,0-1.17-1.17h-2.23a1.81,1.81,0,0,1-1.8-1.76v-1.15a1.8,1.8,0,0,1,1.8-1.78h3.19a.38.38,0,0,1,.4.34v1.82h-.86V135.7h-2.49a1.18,1.18,0,0,0-1.17,1.17v.79a1.18,1.18,0,0,0,1.17,1.17h2.23a1.81,1.81,0,0,1,1.8,1.78v1A1.79,1.79,0,0,1,170.82,143.44Z"/><path class="cls-2" d="M180.51,139.61h-4.7v1.85a1.17,1.17,0,0,0,1.19,1.19h2.76a.33.33,0,0,1,.34.32v.14a.33.33,0,0,1-.34.32h-3a1.8,1.8,0,0,1-1.8-1.8v-5a1.81,1.81,0,0,1,1.82-1.78h2.77a1.79,1.79,0,0,1,1.78,1.8v2.16A.71.71,0,0,1,180.51,139.61Zm-.05-2.74a1.14,1.14,0,0,0-1.17-1.17H177a1.19,1.19,0,0,0-1.19,1.17v2h4.64Z"/><path class="cls-2" d="M189.33,135.7h-2.81a1.21,1.21,0,0,0-1.21,1.21v5.74h1.44v.79H183v-.79h1.44V135.7H183v-.79h1.66a.53.53,0,0,1,.45.2l.13.14a.61.61,0,0,0,.34.2c.49,0,.78-.54,2.32-.54h1.42a.34.34,0,0,1,.34.32v.14A.34.34,0,0,1,189.33,135.7Z"/><path class="cls-2" d="M190.62,143.44v-.79h1.44V135.7h-1.44v-.79h1.94a.37.37,0,0,1,.36.36v7.38h1.44v.79Zm2-10.52h-.18a.35.35,0,0,1-.34-.34v-1a.35.35,0,0,1,.34-.34h.18a.35.35,0,0,1,.34.34v1A.36.36,0,0,1,192.58,132.93Z"/><path class="cls-2" d="M200.87,143.44h-2.68a1.81,1.81,0,0,1-1.8-1.8v-4.93a1.81,1.81,0,0,1,1.8-1.8h2.68a1.8,1.8,0,0,1,1.8,1.8v4.93A1.8,1.8,0,0,1,200.87,143.44Zm.94-6.57a1.16,1.16,0,0,0-1.15-1.17h-2.21a1.18,1.18,0,0,0-1.19,1.17v4.61a1.18,1.18,0,0,0,1.17,1.17h2.21a1.17,1.17,0,0,0,1.17-1.17Z"/><path class="cls-2" d="M212,143.44a.63.63,0,0,1-.49-.18l-.18-.18a.49.49,0,0,0-.32-.14c-.49,0-.9.56-2.45.56H208a1.84,1.84,0,0,1-2.05-1.93V135.7H204.5v-.79h2a.35.35,0,0,1,.31.32v6.23a1.21,1.21,0,0,0,1.21,1.19h2.11a1.21,1.21,0,0,0,1.21-1.19V135.7h-1.44v-.79h2a.35.35,0,0,1,.31.32v7.42h1.44v.79Z"/><path class="cls-2" d="M219.57,143.44H217a1.81,1.81,0,0,1-1.8-1.8v-.41h.86v.25a1.18,1.18,0,0,0,1.17,1.17h2.09a1.17,1.17,0,0,0,1.17-1.19v-.68a1.17,1.17,0,0,0-1.17-1.17h-2.23a1.81,1.81,0,0,1-1.8-1.76v-1.15a1.8,1.8,0,0,1,1.8-1.78h3.19a.38.38,0,0,1,.4.34v1.82h-.86V135.7h-2.48a1.18,1.18,0,0,0-1.17,1.17v.79a1.18,1.18,0,0,0,1.17,1.17h2.23a1.81,1.81,0,0,1,1.8,1.78v1A1.79,1.79,0,0,1,219.57,143.44Z"/><path class="cls-2" d="M56.67,165.1a1.51,1.51,0,0,1-1.57-1.62V157.3h-1a.34.34,0,0,1-.34-.32v-.14a.34.34,0,0,1,.34-.32h1v-3.29a.35.35,0,0,1,.34-.34h.18a.35.35,0,0,1,.34.34v3.29h2.12v.79H56v6c0,.77.41,1,.9,1a3.52,3.52,0,0,0,1.42-.45v.76A3.26,3.26,0,0,1,56.67,165.1Z"/><path class="cls-2" d="M65.36,165v-.79h1.24v-5.74a1.21,1.21,0,0,0-1.21-1.21H63.29a1.21,1.21,0,0,0-1.21,1.21v5.74h1.24V165H59.78v-.79h1.44V153.66H59.78v-.79h1.93a.39.39,0,0,1,.38.38v3.46c0,.23.14.34.27.34.49,0,.86-.59,2.45-.59h.61a1.85,1.85,0,0,1,2.05,1.93v5.87h1.44V165Z"/><path class="cls-2" d="M70.38,165v-.79h1.44V157.3H70.38v-.79h1.94a.37.37,0,0,1,.36.36v7.38h1.44V165Zm2-10.52h-.18a.35.35,0,0,1-.34-.34v-1a.35.35,0,0,1,.34-.34h.18a.35.35,0,0,1,.34.34v1A.36.36,0,0,1,72.35,154.53Z"/><path class="cls-2" d="M81.19,165v-.79h1.24v-5.76a1.21,1.21,0,0,0-1.21-1.19H79.11a1.21,1.21,0,0,0-1.21,1.19v5.76h1.24V165H75.6v-.79H77V157.3H75.6v-.79h1.67a.55.55,0,0,1,.43.2l.13.14a.61.61,0,0,0,.34.2c.49,0,.85-.59,2.41-.59h.61a1.87,1.87,0,0,1,2.09,1.93v5.87h1.44V165Z"/><path class="cls-2" d="M92.81,157.3v9.9A1.81,1.81,0,0,1,91,169H88.19v-.79h2.58A1.18,1.18,0,0,0,91.95,167v-2.12c0-.22-.05-.4-.23-.4-.49,0-.94.58-2.48.58h-.61a1.86,1.86,0,0,1-2.05-1.93v-4.79a1.86,1.86,0,0,1,2.05-1.93h.61c1.58,0,2,.59,2.45.59a.55.55,0,0,0,.34-.2l.13-.14a.61.61,0,0,1,.43-.2h1.67v.79Zm-.86,1.21a1.21,1.21,0,0,0-1.21-1.21H88.64a1.21,1.21,0,0,0-1.21,1.21V163a1.21,1.21,0,0,0,1.21,1.21h2.11A1.21,1.21,0,0,0,91.95,163Z"/><path class="cls-2" d="M100.19,165H97.62a1.81,1.81,0,0,1-1.8-1.8v-.41h.86v.25a1.18,1.18,0,0,0,1.17,1.17h2.09a1.17,1.17,0,0,0,1.17-1.19v-.68a1.17,1.17,0,0,0-1.17-1.17H97.71a1.81,1.81,0,0,1-1.8-1.76v-1.15a1.8,1.8,0,0,1,1.8-1.78h3.19a.38.38,0,0,1,.4.34v1.82h-.86V157.3H97.94a1.18,1.18,0,0,0-1.17,1.17v.79a1.18,1.18,0,0,0,1.17,1.17h2.23a1.81,1.81,0,0,1,1.8,1.78v1A1.79,1.79,0,0,1,100.19,165Z"/><path class="cls-2" d="M113.37,165v-.79h1.24v-5.74a1.21,1.21,0,0,0-1.21-1.21H111.3a1.21,1.21,0,0,0-1.21,1.21v5.74h1.24V165h-3.55v-.79h1.44V153.66h-1.44v-.79h1.93a.39.39,0,0,1,.38.38v3.46c0,.23.14.34.27.34.49,0,.86-.59,2.45-.59h.61a1.85,1.85,0,0,1,2.05,1.93v5.87h1.44V165Z"/><path class="cls-2" d="M124.46,165a.73.73,0,0,1-.45-.18l-.14-.16a.51.51,0,0,0-.34-.16c-.49,0-.86.56-2.45.56h-.61a1.86,1.86,0,0,1-2.05-1.93v-1.44a1.85,1.85,0,0,1,2.05-1.93h.61c1.58,0,2,.59,2.45.59.13,0,.27-.11.27-.34v-1.6a1.16,1.16,0,0,0-1.17-1.15h-2.88a.34.34,0,0,1-.34-.32v-.14a.34.34,0,0,1,.34-.32h3.12a1.81,1.81,0,0,1,1.8,1.84v5.9H126V165Zm-.67-3.19a1.21,1.21,0,0,0-1.21-1.21h-2.11a1.21,1.21,0,0,0-1.21,1.21V163a1.21,1.21,0,0,0,1.21,1.21h2.11a1.21,1.21,0,0,0,1.21-1.21Z"/><path class="cls-2" d="M132.84,165.1h-.61c-1.55,0-2-.58-2.48-.58-.18,0-.23.18-.23.4v3.66a.42.42,0,0,1-.47.43h-1.84v-.79h1.44V157.3h-1.44v-.79h1.67a.56.56,0,0,1,.43.18l.13.16a.54.54,0,0,0,.34.2c.49,0,.86-.59,2.45-.59h.61a1.86,1.86,0,0,1,2.05,1.93v4.79A1.86,1.86,0,0,1,132.84,165.1Zm1.19-6.59a1.21,1.21,0,0,0-1.21-1.21h-2.11a1.21,1.21,0,0,0-1.21,1.21V163a1.21,1.21,0,0,0,1.21,1.21h2.11A1.21,1.21,0,0,0,134,163Z"/><path class="cls-2" d="M142.37,165.1h-.61c-1.55,0-2-.58-2.49-.58-.18,0-.23.18-.23.4v3.66a.43.43,0,0,1-.47.43h-1.84v-.79h1.44V157.3h-1.44v-.79h1.67a.56.56,0,0,1,.43.18l.13.16a.55.55,0,0,0,.34.2c.49,0,.86-.59,2.45-.59h.61a1.86,1.86,0,0,1,2.05,1.93v4.79A1.86,1.86,0,0,1,142.37,165.1Zm1.19-6.59a1.21,1.21,0,0,0-1.21-1.21h-2.11a1.21,1.21,0,0,0-1.21,1.21V163a1.2,1.2,0,0,0,1.21,1.21h2.11a1.21,1.21,0,0,0,1.21-1.21Z"/><path class="cls-2" d="M152.54,161.21h-4.7v1.85a1.17,1.17,0,0,0,1.19,1.19h2.75a.33.33,0,0,1,.34.32v.14a.33.33,0,0,1-.34.32h-3a1.8,1.8,0,0,1-1.8-1.8v-5a1.81,1.81,0,0,1,1.82-1.78h2.77a1.79,1.79,0,0,1,1.78,1.8v2.16A.71.71,0,0,1,152.54,161.21Zm-.05-2.74a1.15,1.15,0,0,0-1.17-1.17H149a1.19,1.19,0,0,0-1.19,1.17v2h4.65Z"/><path class="cls-2" d="M160.62,165v-.79h1.24v-5.76a1.21,1.21,0,0,0-1.21-1.19h-2.11a1.21,1.21,0,0,0-1.21,1.19v5.76h1.24V165H155v-.79h1.44V157.3H155v-.79h1.67a.54.54,0,0,1,.43.2l.13.14a.6.6,0,0,0,.34.2c.49,0,.85-.59,2.41-.59h.61a1.87,1.87,0,0,1,2.09,1.93v5.87h1.44V165Z"/><path class="cls-2" d="M171.56,161.21h-4.7v1.85a1.17,1.17,0,0,0,1.19,1.19h2.75a.33.33,0,0,1,.34.32v.14a.33.33,0,0,1-.34.32h-3a1.8,1.8,0,0,1-1.8-1.8v-5a1.81,1.81,0,0,1,1.82-1.78h2.77a1.79,1.79,0,0,1,1.78,1.8v2.16A.71.71,0,0,1,171.56,161.21Zm-.05-2.74a1.15,1.15,0,0,0-1.17-1.17h-2.29a1.19,1.19,0,0,0-1.19,1.17v2h4.65Z"/><path class="cls-2" d="M180.65,165a.73.73,0,0,1-.45-.18l-.14-.16a.51.51,0,0,0-.34-.16c-.49,0-.86.56-2.45.56h-.61a1.86,1.86,0,0,1-2.05-1.93v-4.79a1.85,1.85,0,0,1,2.05-1.93h.61c1.58,0,2,.59,2.45.59.13,0,.27-.11.27-.34v-3h-1.44v-.79h1.93a.39.39,0,0,1,.38.38v11h1.44V165Zm-.67-6.54a1.21,1.21,0,0,0-1.21-1.21h-2.11a1.21,1.21,0,0,0-1.21,1.21V163a1.2,1.2,0,0,0,1.21,1.21h2.11A1.21,1.21,0,0,0,180,163Z"/><path class="cls-2" d="M279.59,121.84V121H281V110.46h-1.44v-.79h3.74v.79h-1.44V121h1.44v.79Z"/><path class="cls-2" d="M290.75,121.84V121H292v-5.76a1.21,1.21,0,0,0-1.21-1.19h-2.11a1.21,1.21,0,0,0-1.21,1.19V121h1.24v.79h-3.55V121h1.44V114.1h-1.44v-.79h1.67a.55.55,0,0,1,.43.2l.13.14a.6.6,0,0,0,.34.2c.49,0,.85-.59,2.41-.59h.61a1.87,1.87,0,0,1,2.09,1.93V121h1.44v.79Z"/><path class="cls-2" d="M299.8,110.66a2.4,2.4,0,0,0-.83-.2.84.84,0,0,0-.9,1v1.87h1.8v.79h-1.8V121h1.44v.79h-3.75V121h1.44V114.1h-1a.34.34,0,0,1-.34-.32v-.14a.34.34,0,0,1,.34-.32h1v-2.07a1.51,1.51,0,0,1,1.57-1.62,2.3,2.3,0,0,1,1,.23l.61.31v.74Z"/><path class="cls-2" d="M306.64,121.84H304a1.81,1.81,0,0,1-1.8-1.8v-4.93a1.81,1.81,0,0,1,1.8-1.8h2.68a1.8,1.8,0,0,1,1.8,1.8V120A1.8,1.8,0,0,1,306.64,121.84Zm.94-6.57a1.16,1.16,0,0,0-1.15-1.17h-2.21a1.18,1.18,0,0,0-1.19,1.17v4.61A1.18,1.18,0,0,0,304.2,121h2.21a1.17,1.17,0,0,0,1.17-1.17Z"/><path class="cls-2" d="M316.78,114.1H314a1.21,1.21,0,0,0-1.21,1.21V121h1.44v.79h-3.75V121h1.44V114.1h-1.44v-.79h1.66a.53.53,0,0,1,.45.2l.13.14a.6.6,0,0,0,.34.2c.49,0,.78-.54,2.32-.54h1.42a.34.34,0,0,1,.34.32v.14A.34.34,0,0,1,316.78,114.1Z"/><path class="cls-2" d="M328,121.84V121h1v-5.78a1.17,1.17,0,0,0-1.17-1.17h-1.64a1.17,1.17,0,0,0-1.17,1.17V121h1v.79h-2.92V121h1v-5.78A1.17,1.17,0,0,0,323,114.1h-1.64a1.17,1.17,0,0,0-1.17,1.17V121h1v.79h-3.33V121h1.44V114.1h-1.44v-.79h1.67a.65.65,0,0,1,.43.2l.13.14a.6.6,0,0,0,.34.2c.49,0,.9-.59,2.27-.59h.13c1.22,0,1.42.59,2.3.59s1-.59,2.41-.59h.13a2,2,0,0,1,2.18,1.94V121h1.44v.79Z"/><path class="cls-2" d="M344.17,121.84a.63.63,0,0,1-.49-.18l-.18-.18a.49.49,0,0,0-.32-.14c-.49,0-.9.56-2.45.56h-.61a1.84,1.84,0,0,1-2.05-1.93V114.1h-1.44v-.79h2a.35.35,0,0,1,.31.32v6.23a1.21,1.21,0,0,0,1.21,1.19h2.11a1.21,1.21,0,0,0,1.21-1.19V114.1H342v-.79h2a.35.35,0,0,1,.31.32V121h1.44v.79Z"/><path class="cls-2" d="M351.7,121.84h-2.57a1.81,1.81,0,0,1-1.8-1.8v-.41h.86v.25a1.18,1.18,0,0,0,1.17,1.17h2.09a1.17,1.17,0,0,0,1.17-1.19v-.69a1.17,1.17,0,0,0-1.17-1.17h-2.23a1.81,1.81,0,0,1-1.8-1.76v-1.15a1.8,1.8,0,0,1,1.8-1.78h3.19a.38.38,0,0,1,.4.34v1.82h-.86V114.1h-2.48a1.18,1.18,0,0,0-1.17,1.17v.79a1.18,1.18,0,0,0,1.17,1.17h2.23a1.81,1.81,0,0,1,1.8,1.78v1A1.79,1.79,0,0,1,351.7,121.84Z"/><path class="cls-2" d="M361.38,118h-4.7v1.86a1.17,1.17,0,0,0,1.19,1.19h2.75a.33.33,0,0,1,.34.32v.14a.33.33,0,0,1-.34.32h-3a1.8,1.8,0,0,1-1.8-1.8v-5a1.81,1.81,0,0,1,1.82-1.78h2.77a1.79,1.79,0,0,1,1.78,1.8v2.16A.71.71,0,0,1,361.38,118Zm-.05-2.74a1.15,1.15,0,0,0-1.17-1.17h-2.29a1.19,1.19,0,0,0-1.19,1.17v2h4.65Z"/><path class="cls-2" d="M370.2,114.1h-2.81a1.21,1.21,0,0,0-1.21,1.21V121h1.44v.79h-3.75V121h1.44V114.1h-1.44v-.79h1.66a.53.53,0,0,1,.45.2l.13.14a.6.6,0,0,0,.34.2c.49,0,.77-.54,2.32-.54h1.42a.34.34,0,0,1,.34.32v.14A.34.34,0,0,1,370.2,114.1Z"/><path class="cls-2" d="M376,121.84h-2.57a1.81,1.81,0,0,1-1.8-1.8v-.41h.86v.25a1.18,1.18,0,0,0,1.17,1.17h2.09a1.17,1.17,0,0,0,1.17-1.19v-.69a1.17,1.17,0,0,0-1.17-1.17h-2.23a1.81,1.81,0,0,1-1.8-1.76v-1.15a1.8,1.8,0,0,1,1.8-1.78h3.19a.38.38,0,0,1,.4.34v1.82h-.86V114.1h-2.48a1.18,1.18,0,0,0-1.17,1.17v.79a1.18,1.18,0,0,0,1.17,1.17h2.23a1.81,1.81,0,0,1,1.8,1.78v1A1.79,1.79,0,0,1,376,121.84Z"/><path class="cls-2" d="M389.84,118h-4.7v1.86a1.17,1.17,0,0,0,1.19,1.19h2.75a.33.33,0,0,1,.34.32v.14a.33.33,0,0,1-.34.32h-3a1.8,1.8,0,0,1-1.8-1.8v-5a1.81,1.81,0,0,1,1.82-1.78h2.77a1.79,1.79,0,0,1,1.78,1.8v2.16A.71.71,0,0,1,389.84,118Zm-.05-2.74a1.14,1.14,0,0,0-1.17-1.17h-2.29a1.19,1.19,0,0,0-1.19,1.17v2h4.65Z"/><path class="cls-2" d="M399.42,114.1l-2.59,7.2a.73.73,0,0,1-.61.54H396a.75.75,0,0,1-.61-.54l-2.59-7.2h-1.21v-.79h3.13v.79h-1l1.62,4.61c.31.88.76,2.29.76,2.29h0s.45-1.4.76-2.29l1.62-4.61h-1v-.79h3.13v.79Z"/><path class="cls-2" d="M407.44,118h-4.7v1.86a1.17,1.17,0,0,0,1.19,1.19h2.76a.33.33,0,0,1,.34.32v.14a.33.33,0,0,1-.34.32h-3a1.8,1.8,0,0,1-1.8-1.8v-5a1.81,1.81,0,0,1,1.82-1.78h2.77a1.79,1.79,0,0,1,1.78,1.8v2.16A.71.71,0,0,1,407.44,118Zm-.05-2.74a1.14,1.14,0,0,0-1.17-1.17h-2.29a1.19,1.19,0,0,0-1.19,1.17v2h4.64Z"/><path class="cls-2" d="M416.26,114.1h-2.81a1.21,1.21,0,0,0-1.21,1.21V121h1.44v.79h-3.75V121h1.44V114.1h-1.44v-.79h1.66a.53.53,0,0,1,.45.2l.13.14a.6.6,0,0,0,.34.2c.49,0,.78-.54,2.32-.54h1.42a.34.34,0,0,1,.34.32v.14A.34.34,0,0,1,416.26,114.1Z"/><path class="cls-2" d="M425.17,114.1,420.78,125a1.49,1.49,0,0,1-1.39.86,2.86,2.86,0,0,1-1.57-.52v-.79a3.1,3.1,0,0,0,1.35.47.93.93,0,0,0,1-.61l1-2.56a.71.71,0,0,1-.38-.4l-3-7.35h-1.21v-.79h3.13v.79h-1l2.79,6.9,2.79-6.9h-1v-.79h3.13v.79Z"/><path class="cls-2" d="M429.92,121.9a1.51,1.51,0,0,1-1.57-1.62V114.1h-1a.34.34,0,0,1-.34-.32v-.14a.34.34,0,0,1,.34-.32h1V110a.35.35,0,0,1,.34-.34h.18a.35.35,0,0,1,.34.34v3.29h2.12v.79h-2.12v6c0,.78.41,1,.9,1a3.54,3.54,0,0,0,1.42-.45v.76A3.26,3.26,0,0,1,429.92,121.9Z"/><path class="cls-2" d="M438.62,121.84V121h1.24v-5.74a1.21,1.21,0,0,0-1.21-1.21h-2.11a1.21,1.21,0,0,0-1.21,1.21V121h1.24v.79H433V121h1.44V110.46H433v-.79H435a.39.39,0,0,1,.38.38v3.46c0,.23.14.34.27.34.49,0,.87-.59,2.45-.59h.61a1.85,1.85,0,0,1,2.05,1.93V121h1.44v.79Z"/><path class="cls-2" d="M443.64,121.84V121h1.44V114.1h-1.44v-.79h1.95a.37.37,0,0,1,.36.36V121h1.44v.79Zm2-10.52h-.18a.35.35,0,0,1-.34-.34v-1a.35.35,0,0,1,.34-.34h.18a.35.35,0,0,1,.34.34v1A.36.36,0,0,1,445.6,111.33Z"/><path class="cls-2" d="M454.44,121.84V121h1.24v-5.76a1.21,1.21,0,0,0-1.21-1.19h-2.11a1.21,1.21,0,0,0-1.21,1.19V121h1.24v.79h-3.55V121h1.44V114.1h-1.44v-.79h1.67a.55.55,0,0,1,.43.2l.13.14a.6.6,0,0,0,.34.2c.49,0,.85-.59,2.41-.59h.61a1.87,1.87,0,0,1,2.09,1.93V121H458v.79Z"/><path class="cls-2" d="M466.07,114.1V124a1.81,1.81,0,0,1-1.8,1.8h-2.83V125H464a1.18,1.18,0,0,0,1.19-1.17v-2.12c0-.22-.05-.4-.23-.4-.49,0-.94.58-2.48.58h-.61a1.86,1.86,0,0,1-2.05-1.93v-4.79a1.86,1.86,0,0,1,2.05-1.93h.61c1.58,0,2,.59,2.45.59a.55.55,0,0,0,.34-.2l.13-.14a.61.61,0,0,1,.43-.2h1.68v.79Zm-.86,1.21A1.21,1.21,0,0,0,464,114.1h-2.11a1.2,1.2,0,0,0-1.21,1.21v4.54a1.21,1.21,0,0,0,1.21,1.21H464a1.21,1.21,0,0,0,1.21-1.21Z"/><path class="cls-2" d="M475.82,121.9a1.51,1.51,0,0,1-1.57-1.62V114.1h-1a.34.34,0,0,1-.34-.32v-.14a.34.34,0,0,1,.34-.32h1V110a.35.35,0,0,1,.34-.34h.18a.35.35,0,0,1,.34.34v3.29h2.13v.79h-2.12v6c0,.78.41,1,.9,1a3.53,3.53,0,0,0,1.42-.45v.76A3.26,3.26,0,0,1,475.82,121.9Z"/><path class="cls-2" d="M484.52,121.84V121h1.24v-5.74a1.21,1.21,0,0,0-1.21-1.21h-2.11a1.21,1.21,0,0,0-1.21,1.21V121h1.24v.79h-3.55V121h1.44V110.46h-1.44v-.79h1.93a.39.39,0,0,1,.38.38v3.46c0,.23.14.34.27.34.49,0,.86-.59,2.45-.59h.61a1.85,1.85,0,0,1,2.05,1.93V121h1.44v.79Z"/><path class="cls-2" d="M495.61,121.84a.72.72,0,0,1-.45-.18l-.14-.16a.52.52,0,0,0-.34-.16c-.49,0-.86.56-2.45.56h-.61a1.86,1.86,0,0,1-2.05-1.93v-1.44a1.85,1.85,0,0,1,2.05-1.93h.61c1.58,0,2,.59,2.45.59.13,0,.27-.11.27-.34v-1.6a1.16,1.16,0,0,0-1.17-1.15h-2.88a.34.34,0,0,1-.34-.32v-.14a.34.34,0,0,1,.34-.32H494a1.81,1.81,0,0,1,1.8,1.84V121h1.35v.79Zm-.67-3.19a1.21,1.21,0,0,0-1.21-1.21h-2.11a1.21,1.21,0,0,0-1.21,1.21v1.19a1.21,1.21,0,0,0,1.21,1.21h2.11a1.21,1.21,0,0,0,1.21-1.21Z"/><path class="cls-2" d="M501.37,121.9a1.51,1.51,0,0,1-1.57-1.62V114.1h-1a.34.34,0,0,1-.34-.32v-.14a.34.34,0,0,1,.34-.32h1V110a.35.35,0,0,1,.34-.34h.18a.35.35,0,0,1,.34.34v3.29h2.13v.79h-2.12v6c0,.78.41,1,.9,1a3.53,3.53,0,0,0,1.42-.45v.76A3.26,3.26,0,0,1,501.37,121.9Z"/><path class="cls-2" d="M505.58,112.28l-.5.68c-.07.09-.13.14-.22.14s-.23-.13-.16-.31l.27-.63a1.49,1.49,0,0,0,.13-.38c0-.32-.45-.14-.45-.67V110a.34.34,0,0,1,.36-.32h.5a.35.35,0,0,1,.32.32v1.22A1.82,1.82,0,0,1,505.58,112.28Z"/><path class="cls-2" d="M511,121.84h-2.57a1.81,1.81,0,0,1-1.8-1.8v-.41h.86v.25a1.18,1.18,0,0,0,1.17,1.17h2.09a1.17,1.17,0,0,0,1.17-1.19v-.69a1.17,1.17,0,0,0-1.17-1.17h-2.23a1.81,1.81,0,0,1-1.8-1.76v-1.15a1.8,1.8,0,0,1,1.8-1.78h3.19a.38.38,0,0,1,.4.34v1.82h-.86V114.1h-2.48a1.18,1.18,0,0,0-1.17,1.17v.79a1.18,1.18,0,0,0,1.17,1.17H511a1.81,1.81,0,0,1,1.8,1.78v1A1.79,1.79,0,0,1,511,121.84Z"/><path class="cls-2" d="M331.12,135.7v9.9a1.81,1.81,0,0,1-1.8,1.8h-2.83v-.79h2.57a1.18,1.18,0,0,0,1.19-1.17v-2.12c0-.22-.05-.4-.23-.4-.49,0-.94.58-2.48.58h-.61a1.86,1.86,0,0,1-2.05-1.93v-4.79a1.86,1.86,0,0,1,2.05-1.93h.61c1.58,0,2,.59,2.45.59a.55.55,0,0,0,.34-.2l.13-.14a.61.61,0,0,1,.43-.2h1.68v.79Zm-.86,1.21A1.21,1.21,0,0,0,329,135.7h-2.11a1.21,1.21,0,0,0-1.21,1.21v4.54a1.2,1.2,0,0,0,1.21,1.21H329a1.21,1.21,0,0,0,1.21-1.21Z"/><path class="cls-2" d="M338.87,143.44h-2.68a1.81,1.81,0,0,1-1.8-1.8v-4.93a1.81,1.81,0,0,1,1.8-1.8h2.68a1.8,1.8,0,0,1,1.8,1.8v4.93A1.8,1.8,0,0,1,338.87,143.44Zm.94-6.57a1.16,1.16,0,0,0-1.15-1.17h-2.21a1.18,1.18,0,0,0-1.19,1.17v4.61a1.18,1.18,0,0,0,1.17,1.17h2.21a1.17,1.17,0,0,0,1.17-1.17Z"/><path class="cls-2" d="M342.87,143.44v-.79h1.44V135.7h-1.44v-.79h1.95a.37.37,0,0,1,.36.36v7.38h1.44v.79Zm2-10.52h-.18a.35.35,0,0,1-.34-.34v-1a.35.35,0,0,1,.34-.34h.18a.35.35,0,0,1,.34.34v1A.36.36,0,0,1,344.83,132.93Z"/><path class="cls-2" d="M353.67,143.44v-.79h1.24v-5.76a1.21,1.21,0,0,0-1.21-1.19H351.6a1.21,1.21,0,0,0-1.21,1.19v5.76h1.24v.79h-3.55v-.79h1.44V135.7h-1.44v-.79h1.67a.54.54,0,0,1,.43.2l.13.14a.6.6,0,0,0,.34.2c.49,0,.85-.59,2.41-.59h.61a1.87,1.87,0,0,1,2.09,1.93v5.87h1.44v.79Z"/><path class="cls-2" d="M365.3,135.7v9.9a1.81,1.81,0,0,1-1.8,1.8h-2.83v-.79h2.57a1.18,1.18,0,0,0,1.19-1.17v-2.12c0-.22-.05-.4-.23-.4-.49,0-.94.58-2.48.58h-.61a1.86,1.86,0,0,1-2.05-1.93v-4.79a1.86,1.86,0,0,1,2.05-1.93h.61c1.58,0,2,.59,2.45.59a.55.55,0,0,0,.34-.2l.13-.14a.61.61,0,0,1,.43-.2h1.68v.79Zm-.86,1.21a1.21,1.21,0,0,0-1.21-1.21h-2.11a1.21,1.21,0,0,0-1.21,1.21v4.54a1.2,1.2,0,0,0,1.21,1.21h2.11a1.21,1.21,0,0,0,1.21-1.21Z"/><path class="cls-2" d="M377.25,143.44h-2.68a1.81,1.81,0,0,1-1.8-1.8v-4.93a1.81,1.81,0,0,1,1.8-1.8h2.68a1.79,1.79,0,0,1,1.8,1.8v4.93A1.79,1.79,0,0,1,377.25,143.44Zm.94-6.57A1.16,1.16,0,0,0,377,135.7h-2.21a1.18,1.18,0,0,0-1.19,1.17v4.61a1.18,1.18,0,0,0,1.17,1.17H377a1.17,1.17,0,0,0,1.17-1.17Z"/><path class="cls-2" d="M386.64,143.44v-.79h1.24v-5.76a1.21,1.21,0,0,0-1.21-1.19h-2.11a1.21,1.21,0,0,0-1.21,1.19v5.76h1.24v.79h-3.55v-.79h1.44V135.7h-1.44v-.79h1.67a.55.55,0,0,1,.43.2l.13.14a.61.61,0,0,0,.34.2c.49,0,.85-.59,2.41-.59h.61a1.87,1.87,0,0,1,2.09,1.93v5.87h1.44v.79Z"/><path class="cls-2" d="M402,135.7h-2.81a1.21,1.21,0,0,0-1.21,1.21v5.74h1.44v.79h-3.75v-.79h1.44V135.7h-1.44v-.79h1.66a.53.53,0,0,1,.45.2l.13.14a.6.6,0,0,0,.34.2c.49,0,.77-.54,2.32-.54H402a.34.34,0,0,1,.34.32v.14A.34.34,0,0,1,402,135.7Z"/><path class="cls-2" d="M403.29,143.44v-.79h1.44V135.7h-1.44v-.79h1.94a.37.37,0,0,1,.36.36v7.38H407v.79Zm2-10.52h-.18a.35.35,0,0,1-.34-.34v-1a.35.35,0,0,1,.34-.34h.18a.35.35,0,0,1,.34.34v1A.36.36,0,0,1,405.26,132.93Z"/><path class="cls-2" d="M415.3,135.7v9.9a1.81,1.81,0,0,1-1.8,1.8h-2.83v-.79h2.57a1.18,1.18,0,0,0,1.19-1.17v-2.12c0-.22-.05-.4-.23-.4-.49,0-.94.58-2.48.58h-.61a1.86,1.86,0,0,1-2.05-1.93v-4.79a1.86,1.86,0,0,1,2.05-1.93h.61c1.58,0,2,.59,2.45.59a.54.54,0,0,0,.34-.2l.13-.14a.61.61,0,0,1,.43-.2h1.67v.79Zm-.86,1.21a1.21,1.21,0,0,0-1.21-1.21h-2.11a1.21,1.21,0,0,0-1.21,1.21v4.54a1.21,1.21,0,0,0,1.21,1.21h2.11a1.21,1.21,0,0,0,1.21-1.21Z"/><path class="cls-2" d="M423.44,143.44v-.79h1.24v-5.74a1.21,1.21,0,0,0-1.21-1.21h-2.11a1.21,1.21,0,0,0-1.21,1.21v5.74h1.24v.79h-3.55v-.79h1.44V132.06h-1.44v-.79h1.93a.39.39,0,0,1,.38.38v3.46c0,.23.14.34.27.34.49,0,.86-.59,2.45-.59h.61a1.85,1.85,0,0,1,2.05,1.93v5.87H427v.79Z"/><path class="cls-2" d="M431.1,143.5a1.51,1.51,0,0,1-1.57-1.62V135.7h-1a.34.34,0,0,1-.34-.32v-.14a.34.34,0,0,1,.34-.32h1v-3.29a.35.35,0,0,1,.34-.34h.18a.35.35,0,0,1,.34.34v3.29h2.13v.79H430.4v6c0,.77.41,1,.9,1a3.52,3.52,0,0,0,1.42-.45V143A3.26,3.26,0,0,1,431.1,143.5Z"/><path class="cls-2" d="M444.17,143.44v-.79h1.24v-5.76a1.21,1.21,0,0,0-1.21-1.19H442.1a1.21,1.21,0,0,0-1.21,1.19v5.76h1.24v.79h-3.55v-.79H440V135.7h-1.44v-.79h1.67a.55.55,0,0,1,.43.2l.13.14a.61.61,0,0,0,.34.2c.49,0,.85-.59,2.41-.59h.61a1.87,1.87,0,0,1,2.09,1.93v5.87h1.44v.79Z"/><path class="cls-2" d="M454,143.44h-2.68a1.81,1.81,0,0,1-1.8-1.8v-4.93a1.81,1.81,0,0,1,1.8-1.8H454a1.79,1.79,0,0,1,1.8,1.8v4.93A1.79,1.79,0,0,1,454,143.44Zm.94-6.57a1.16,1.16,0,0,0-1.15-1.17h-2.21a1.18,1.18,0,0,0-1.19,1.17v4.61a1.18,1.18,0,0,0,1.17,1.17h2.21a1.17,1.17,0,0,0,1.17-1.17Z"/><path class="cls-2" d="M467.59,135.7,466,142.88a.63.63,0,0,1-.58.56h-.22c-.29,0-.45-.27-.56-.54l-1.67-4.57-1.67,4.57c-.11.27-.27.54-.56.54h-.22a.63.63,0,0,1-.58-.56l-1.62-7.18h-1.21v-.79h3.13v.79h-1.08l1.06,4.7c.22,1,.41,2.21.41,2.21h0s.25-.94.59-1.84l1.08-2.86a.49.49,0,0,1,.47-.38h.29a.49.49,0,0,1,.47.38l1.08,2.86c.34.9.59,1.84.59,1.84h0s.2-1.24.41-2.21l1.06-4.7h-1.08v-.79h3.13v.79Z"/></svg>