<svg id="Layer_1" data-name="Layer 1" xmlns="http://www.w3.org/2000/svg" xmlns:xlink="http://www.w3.org/1999/xlink" viewBox="0 0 868.63 508.79"><defs><style>.cls-1,.cls-11,.cls-13{fill:none;}.cls-2{fill:#262626;}.cls-3{font-size:36px;}.cls-10,.cls-3,.cls-7,.cls-8,.cls-9{fill:#fff;}.cls-10,.cls-3,.cls-7,.cls-9{font-family:ChollaSlabOT-Bold, Cholla Slab OT;font-weight:700;}.cls-4{letter-spacing:-0.05em;}.cls-5{letter-spacing:0em;}.cls-6{letter-spacing:-0.04em;}.cls-7{font-size:32px;}.cls-8,.cls-9{font-size:18px;}.cls-8{font-family:ChollaSlabOT-Regular, Cholla Slab OT;}.cls-10{font-size:22.87px;}.cls-11,.cls-13{stroke:#fff;stroke-miterlimit:10;}.cls-11{stroke-width:6px;}.cls-12{letter-spacing:0.03em;}.cls-13{stroke-width:2px;}.cls-14{fill:#f49d00;}.cls-14,.cls-15{fill-rule:evenodd;}.cls-15{fill:#040000;}.cls-16{clip-path:url(#clip-path);}.cls-17{fill:#e73031;}.cls-18{fill:#005dac;}.cls-19{fill:#f8b300;}.cls-20{fill:#64b52f;}.cls-21{fill:#231815;}.cls-22{fill:#009bde;}.cls-23{fill:#002f87;}.cls-24{clip-path:url(#clip-path-2);}.cls-25{fill:#022169;}.cls-26{fill:#0071ce;}.cls-27{fill:#ffb819;}</style><clipPath id="clip-path"><rect class="cls-1" x="319.55" y="465.34" width="96.81" height="36.81"/></clipPath><clipPath id="clip-path-2"><rect class="cls-1" x="173.14" y="467.55" width="123.44" height="29.95"/></clipPath></defs><title>Artboard 2</title><rect class="cls-2" width="868.63" height="508.79"/><text class="cls-3" transform="translate(173.68 77.95)">13,594</text><text class="cls-3" transform="translate(175.34 265.9)">9–10 <tspan class="cls-4" x="86.54" y="0">W</tspan><tspan class="cls-5" x="116.06" y="0">eeks</tspan></text><text class="cls-3" transform="translate(175.34 334.57)">7.8 <tspan class="cls-6" x="54.72" y="0">P</tspan><tspan x="74.52" y="0">atches</tspan></text><text class="cls-3" transform="translate(306.78 77.95)">1,340</text><text class="cls-7" transform="translate(174.68 21.63)">COMMUNITY</text><text class="cls-7" transform="translate(175.34 445.09)">MAJOR CLIENTS</text><text class="cls-7" transform="translate(465.25 21.63)">COMMERCIAL</text><text class="cls-8" transform="translate(556.52 70.55)">of the top 1M <tspan x="0" y="20">web domains</tspan><tspan x="0" y="40">run on Linux</tspan></text><text class="cls-9" transform="translate(176.47 99.98)">developers </text><text class="cls-8" transform="translate(176.47 129.36)">have contributed to Linux <tspan x="0" y="21.6">since 2005</tspan></text><text class="cls-8" transform="translate(176.47 202.83)">A new major kernel release <tspan x="0" y="21.6">occurs every</tspan></text><text class="cls-8" transform="translate(176.47 360.26)">are made PER HOUR by the <tspan x="0" y="21.6">Linux community</tspan></text><text class="cls-9" transform="translate(310.11 99.98)">companies</text><text class="cls-10" transform="translate(480.16 93.09)">95%</text><circle class="cls-11" cx="501.07" cy="85.09" r="33.19"/><text class="cls-8" transform="translate(556.52 158.61)">of smartphones<tspan x="0" y="20">run </tspan><tspan class="cls-12" x="34.24" y="20">A</tspan><tspan x="45.32" y="20">ndroid are</tspan><tspan x="0" y="40">based on Linux</tspan></text><text class="cls-10" transform="translate(480.16 181.05)">80%</text><circle class="cls-11" cx="501.07" cy="173.05" r="33.19"/><text class="cls-8" transform="translate(556.52 246.58)">of top 500 fastest<tspan x="0" y="20">supercomputers</tspan><tspan x="0" y="40">run on Linux</tspan></text><text class="cls-10" transform="translate(480.16 269.01)">99%</text><circle class="cls-11" cx="501.07" cy="261.01" r="33.19"/><text class="cls-8" transform="translate(556.52 334.59)">Cloud based <tspan x="0" y="20">enterprises use </tspan><tspan x="0" y="40">Linux primarily</tspan></text><text class="cls-10" transform="translate(480.16 357.02)">75%</text><circle class="cls-11" cx="501.07" cy="349.02" r="33.19"/><line class="cls-13" x1="293.31" y1="53.61" x2="293.31" y2="99.91"/><line class="cls-13" x1="401.65" y1="288.33" x2="177.34" y2="288.33"/><line class="cls-13" x1="401.65" y1="170.73" x2="177.34" y2="170.73"/><path class="cls-14" d="M504.89,501.25c-6.67,4.92-16.35,7.54-24.68,7.54a44.66,44.66,0,0,1-30.14-11.5c-.62-.56-.07-1.33.68-.9a60.67,60.67,0,0,0,30.16,8,60,60,0,0,0,23-4.71c1.13-.48,2.07.74,1,1.56Z"/><path class="cls-14" d="M507.67,498.08c-.85-1.09-5.64-.52-7.79-.26-.65.08-.75-.49-.17-.9,3.82-2.68,10.08-1.91,10.81-1s-.19,7.18-3.77,10.17c-.55.46-1.07.21-.83-.39.81-2,2.61-6.51,1.75-7.61Z"/><path class="cls-15" d="M500,478v-2.61a.64.64,0,0,1,.66-.66h11.68a.65.65,0,0,1,.67.66v2.24a3.67,3.67,0,0,1-.88,1.64l-6.05,8.64a13,13,0,0,1,6.66,1.43,1.19,1.19,0,0,1,.62,1v2.78c0,.38-.42.83-.86.6a13.46,13.46,0,0,0-12.34,0c-.41.22-.83-.22-.83-.6v-2.64a3.14,3.14,0,0,1,.44-1.79l7-10.06h-6.1A.65.65,0,0,1,500,478Z"/><path class="cls-15" d="M457.41,494.24h-3.55a.67.67,0,0,1-.64-.6V475.4a.67.67,0,0,1,.69-.66h3.31a.67.67,0,0,1,.65.61v2.38h.07a4.69,4.69,0,0,1,4.68-3.38c2.22,0,3.62,1.08,4.61,3.38a5.25,5.25,0,0,1,9-1.38c1.13,1.54.9,3.76.9,5.72v11.51a.67.67,0,0,1-.69.66h-3.55a.67.67,0,0,1-.64-.65v-9.67a23.28,23.28,0,0,0-.1-3.42,1.85,1.85,0,0,0-2.09-1.57,2.36,2.36,0,0,0-2.12,1.5,11,11,0,0,0-.33,3.49v9.67a.67.67,0,0,1-.69.66h-3.55a.67.67,0,0,1-.64-.65v-9.67c0-2,.33-5-2.19-5s-2.46,2.92-2.46,5v9.67a.67.67,0,0,1-.69.66Z"/><path class="cls-15" d="M523.14,478.08c-2.62,0-2.79,3.57-2.79,5.8s0,7,2.75,7S526,487,526,484.69a16.86,16.86,0,0,0-.53-4.84,2.22,2.22,0,0,0-2.32-1.77Zm0-3.72c5.28,0,8.13,4.53,8.13,10.29,0,5.57-3.15,10-8.13,10-5.18,0-8-4.53-8-10.17s2.85-10.1,8-10.1Z"/><path class="cls-15" d="M538.07,494.24h-3.54a.67.67,0,0,1-.64-.65V475.34a.67.67,0,0,1,.68-.6h3.3a.68.68,0,0,1,.63.51V478h.07c1-2.5,2.39-3.69,4.84-3.69a4.66,4.66,0,0,1,4.15,2.15c.93,1.46.93,3.91.93,5.68v11.48a.67.67,0,0,1-.68.57h-3.56a.67.67,0,0,1-.63-.57v-9.9c0-2,.23-4.91-2.22-4.91a2.33,2.33,0,0,0-2.06,1.46,8.11,8.11,0,0,0-.56,3.46v9.82a.68.68,0,0,1-.69.66Z"/><path class="cls-15" d="M494.3,494.2a.73.73,0,0,1-.84.08,8.69,8.69,0,0,1-2-2.37,7,7,0,0,1-5.86,2.58c-3,0-5.32-1.85-5.32-5.54a6,6,0,0,1,3.79-5.81c1.93-.85,4.62-1,6.68-1.23v-.46a4.55,4.55,0,0,0-.43-2.58,2.38,2.38,0,0,0-2-.92,2.71,2.71,0,0,0-2.86,2.13.75.75,0,0,1-.62.65l-3.45-.37a.63.63,0,0,1-.53-.74c.79-4.18,4.57-5.44,7.95-5.44a8.06,8.06,0,0,1,5.35,1.77c1.73,1.62,1.56,3.77,1.56,6.12v5.54A4.85,4.85,0,0,0,497,490.9a.67.67,0,0,1,0,.95c-.73.61-2,1.73-2.73,2.36Zm-3.58-8.67a7,7,0,0,1-.67,3.77,2.89,2.89,0,0,1-2.46,1.62c-1.36,0-2.16-1-2.16-2.58,0-3,2.72-3.58,5.29-3.58v.77Z"/><path class="cls-15" d="M447.7,494.2a.73.73,0,0,1-.84.08,8.64,8.64,0,0,1-2-2.37A7,7,0,0,1,439,494.5c-3,0-5.32-1.85-5.32-5.54a6,6,0,0,1,3.79-5.81c1.93-.85,4.62-1,6.68-1.23v-.46a4.55,4.55,0,0,0-.43-2.58,2.38,2.38,0,0,0-2-.92,2.71,2.71,0,0,0-2.86,2.13.75.75,0,0,1-.62.65l-3.44-.37a.63.63,0,0,1-.53-.74c.79-4.18,4.57-5.44,7.95-5.44a8.06,8.06,0,0,1,5.35,1.77c1.73,1.62,1.56,3.77,1.56,6.12v5.54a4.85,4.85,0,0,0,1.34,3.29.67.67,0,0,1,0,.95c-.73.61-2,1.73-2.73,2.36Zm-3.58-8.67a7,7,0,0,1-.66,3.77,2.89,2.89,0,0,1-2.46,1.62c-1.36,0-2.16-1-2.16-2.58,0-3,2.72-3.58,5.29-3.58v.77Z"/><g class="cls-16"><path class="cls-17" d="M324.38,482.38s.33-5.85,6.93-5.85,6.58,5.85,6.58,5.85Zm7-8.91c-11.48,0-11.93,8.94-11.87,11.26,0,0-.56,10.45,11.59,10.45,10.44,0,11-6.56,11-6.56h-4.8s-.94,3.61-6.13,3.52c-6.68-.12-6.94-6.6-6.94-6.6h18.5s1.4-12.08-11.3-12.08Z"/></g><path class="cls-18" d="M354.52,492.05c-7.29.09-7.17-7.73-7.17-7.73s-.27-7.53,7.16-7.72,7.18,7.88,7.18,7.88.12,7.48-7.17,7.57Zm1.06-18.58c-5.77,0-8.26,3.42-8.26,3.42V465.34h-4.63l.08,24.4s0,2.84-.2,4.72h4.49l.19-2.74s2.1,3.45,8.22,3.45,11-3.77,11.09-10.77-5.22-10.9-11-10.93Z"/><path class="cls-19" d="M375.86,492.22s-4.64,0-4.91-3.7c-.29-4,7.14-3.72,7.14-3.72h5.25s.85,7.53-7.47,7.42ZM388,489.65c0-3.16.1-6,0-8-.12-2.31.1-7.87-9.87-8.28,0,0-9.55-.87-10.55,6.24h4.89s.38-3.26,5.34-3.16c4.69.09,5.55,2.39,5.52,5.22l-5.36,0c-2.42,0-10.88.28-11.67,5.44-.94,6.13,4.53,8,8.81,8s6.72-1.31,8.54-3.6l.19,2.85,4.26,0s-.11-1.6-.1-4.75Z"/><polygon class="cls-20" points="385.43 474.24 390.8 474.24 398.65 489.9 406.52 474.24 411.37 474.24 397.16 502.16 391.97 502.16 396.08 494.4 385.43 474.24 385.43 474.24"/><path class="cls-21" d="M413.19,475.36v-.58H413v-.22h.18v-.3h.32v.3h.38v.22h-.38v.54c0,.1.06.14.17.14a.54.54,0,0,0,.2,0v.21a.68.68,0,0,1-.29.06c-.24,0-.41-.08-.41-.32Z"/><path class="cls-21" d="M414.22,474.57h.32v.17a.55.55,0,0,1,.43-.19.47.47,0,0,1,.42.19.63.63,0,0,1,.48-.19c.31,0,.49.15.49.42v.7H416V475a.25.25,0,0,0-.29-.27.27.27,0,0,0-.3.27v.62h-.32V475a.25.25,0,0,0-.29-.27.27.27,0,0,0-.3.27v.62h-.32v-1.1Z"/><path class="cls-22" d="M269,480.6c-.37,2.44-2.23,2.44-4,2.44h-1l.72-4.55a.57.57,0,0,1,.56-.48h.47c1.22,0,2.38,0,3,.7a2.27,2.27,0,0,1,.33,1.89Zm-.78-6.36h-6.79a.94.94,0,0,0-.93.8l-2.74,17.4a.57.57,0,0,0,.56.65h3.48a.66.66,0,0,0,.65-.56l.78-4.93a.94.94,0,0,1,.93-.8h2.15c4.47,0,7.05-2.16,7.73-6.45a5.23,5.23,0,0,0-.87-4.38c-1-1.13-2.68-1.73-4.95-1.73Z"/><path class="cls-23" d="M220.58,480.6c-.37,2.44-2.23,2.44-4,2.44h-1l.72-4.55a.57.57,0,0,1,.56-.48h.47c1.23,0,2.38,0,3,.7a2.26,2.26,0,0,1,.33,1.89Zm-.78-6.36H213a.94.94,0,0,0-.93.8l-2.74,17.4a.57.57,0,0,0,.56.65h3.24a.94.94,0,0,0,.93-.8l.74-4.7a.94.94,0,0,1,.93-.8h2.15c4.47,0,7.05-2.16,7.73-6.45a5.23,5.23,0,0,0-.87-4.38c-1-1.13-2.68-1.73-4.95-1.73Z"/><path class="cls-23" d="M235.55,486.85a3.62,3.62,0,0,1-3.67,3.1,2.52,2.52,0,0,1-2.69-3.16,3.64,3.64,0,0,1,3.64-3.13,2.74,2.74,0,0,1,2.17.89,2.8,2.8,0,0,1,.55,2.3Zm4.53-6.33h-3.25a.57.57,0,0,0-.56.48l-.14.91-.23-.33c-.7-1-2.27-1.36-3.84-1.36a7.47,7.47,0,0,0-7.26,6.54,6.14,6.14,0,0,0,1.21,5,5.09,5.09,0,0,0,4.09,1.65,6.22,6.22,0,0,0,4.5-1.86l-.15.9a.57.57,0,0,0,.56.65H238a.94.94,0,0,0,.93-.8l1.76-11.13a.57.57,0,0,0-.56-.65Z"/><path class="cls-22" d="M284,486.85a3.62,3.62,0,0,1-3.67,3.1,2.52,2.52,0,0,1-2.69-3.16,3.64,3.64,0,0,1,3.64-3.13,2.74,2.74,0,0,1,2.17.89,2.8,2.8,0,0,1,.55,2.3Zm4.53-6.33h-3.25a.57.57,0,0,0-.56.48l-.14.91-.23-.33c-.7-1-2.27-1.36-3.84-1.36a7.47,7.47,0,0,0-7.26,6.54,6.14,6.14,0,0,0,1.21,5,5.09,5.09,0,0,0,4.09,1.65,6.22,6.22,0,0,0,4.5-1.86l-.14.9a.57.57,0,0,0,.56.65h2.93a.94.94,0,0,0,.93-.8l1.76-11.13a.57.57,0,0,0-.56-.65Z"/><g class="cls-24"><path class="cls-23" d="M257.39,480.53h-3.27a.94.94,0,0,0-.78.41l-4.51,6.64-1.91-6.38a.94.94,0,0,0-.9-.67h-3.21a.57.57,0,0,0-.54.75l3.6,10.56-3.38,4.77a.57.57,0,0,0,.46.89h3.26a.94.94,0,0,0,.78-.41l10.86-15.68a.57.57,0,0,0-.47-.89Z"/><path class="cls-22" d="M292.32,474.72l-2.79,17.72a.57.57,0,0,0,.56.65h2.8a.94.94,0,0,0,.93-.8l2.75-17.4a.57.57,0,0,0-.56-.65h-3.14a.57.57,0,0,0-.56.48Z"/><path class="cls-22" d="M196,475.16c.37-2.33,0-3.92-1.26-5.35s-3.89-2.26-7.1-2.26h-9.31a1.33,1.33,0,0,0-1.32,1.12l-3.88,24.58a.8.8,0,0,0,.79.92h5.75l-.4,2.52a.7.7,0,0,0,.69.81h4.84a1.17,1.17,0,0,0,1.15-1l0-.25.91-5.79.06-.32a1.17,1.17,0,0,1,1.15-1h.72c4.69,0,8.37-1.91,9.44-7.42.45-2.3.22-4.23-1-5.58a4.61,4.61,0,0,0-1.33-1h0"/><path class="cls-25" d="M196,475.16c.37-2.33,0-3.92-1.26-5.35s-3.89-2.26-7.1-2.26h-9.31a1.33,1.33,0,0,0-1.32,1.12l-3.88,24.58a.8.8,0,0,0,.79.92h5.75l1.44-9.15,0,.29a1.33,1.33,0,0,1,1.31-1.12h2.73c5.36,0,9.56-2.18,10.79-8.48,0-.19.07-.37.1-.55"/><path class="cls-23" d="M182.68,475.19a1.16,1.16,0,0,1,1.15-1h7.3a15.22,15.22,0,0,1,2.41.18l.61.12.58.15.28.09a6.58,6.58,0,0,1,1,.43c.37-2.33,0-3.92-1.26-5.35s-3.89-2.26-7.1-2.26h-9.31a1.33,1.33,0,0,0-1.32,1.12l-3.88,24.58a.8.8,0,0,0,.79.92h5.75l1.44-9.15,1.55-9.83Z"/></g><path class="cls-26" d="M577.34,496a2.76,2.76,0,0,0,1.2.3c.5,0,.76-.2.76-.52s-.23-.47-.8-.67c-.79-.28-1.31-.71-1.31-1.41s.68-1.44,1.8-1.44a2.91,2.91,0,0,1,1.22.24l-.24.87a2.26,2.26,0,0,0-1-.23c-.47,0-.69.21-.69.46s.27.44.88.67c.84.31,1.24.75,1.24,1.42s-.62,1.49-1.92,1.49a3.1,3.1,0,0,1-1.35-.3l.22-.89Z"/><path class="cls-26" d="M583,495.52c-.57,0-1,.13-1,.54a.39.39,0,0,0,.42.41.59.59,0,0,0,.56-.4.77.77,0,0,0,0-.18v-.38Zm1,.79a5.32,5.32,0,0,0,0,.84h-1l-.06-.35h0a1.24,1.24,0,0,1-1,.42,1.06,1.06,0,0,1-1.12-1.06c0-.9.81-1.33,2-1.32v0c0-.18-.1-.45-.63-.45a1.94,1.94,0,0,0-1,.26l-.2-.69a2.85,2.85,0,0,1,1.34-.3,1.35,1.35,0,0,1,1.52,1.49v1.2Z"/><path class="cls-26" d="M585.59,493.69l.47,1.61a8,8,0,0,1,.2.84h0c.06-.28.11-.54.19-.84l.45-1.61H588l-1.29,3.46h-1.08l-1.26-3.46Z"/><path class="cls-26" d="M590.53,495a.62.62,0,0,0-.61-.7.71.71,0,0,0-.67.7Zm-1.27.74c0,.45.47.66,1,.66a3.08,3.08,0,0,0,1-.14l.14.73a3.43,3.43,0,0,1-1.25.22,1.67,1.67,0,0,1-1.85-1.77,1.73,1.73,0,0,1,1.75-1.85,1.53,1.53,0,0,1,1.54,1.73,2.54,2.54,0,0,1,0,.42Z"/><path class="cls-26" d="M593.6,494.8c0-.43,0-.8,0-1.1h.91l0,.47h0a1.2,1.2,0,0,1,1-.55,1,1,0,0,1,.95.59h0a1.45,1.45,0,0,1,.45-.42,1.25,1.25,0,0,1,.66-.17c.66,0,1.17.47,1.17,1.5v2h-1v-1.88c0-.5-.16-.79-.51-.79a.53.53,0,0,0-.5.38.9.9,0,0,0,0,.28v2h-1v-1.94c0-.44-.16-.74-.49-.74a.55.55,0,0,0-.5.39.71.71,0,0,0,0,.27v2h-1V494.8Z"/><path class="cls-26" d="M600.59,495.42c0,.59.25,1,.71,1s.69-.42.69-1-.2-1-.69-1-.71.53-.71,1Zm2.5,0a1.74,1.74,0,0,1-1.82,1.85,1.69,1.69,0,0,1-1.79-1.78,1.73,1.73,0,0,1,1.85-1.83,1.68,1.68,0,0,1,1.77,1.77Z"/><path class="cls-26" d="M603.76,494.8c0-.43,0-.8,0-1.1h.93l0,.47h0a1.27,1.27,0,0,1,1.07-.55c.71,0,1.24.47,1.24,1.49v2.05H606v-1.92c0-.45-.16-.75-.54-.75a.57.57,0,0,0-.54.4.76.76,0,0,0,0,.27v2h-1.08V494.8Z"/><path class="cls-26" d="M610,495a.62.62,0,0,0-.61-.7.71.71,0,0,0-.66.7Zm-1.27.74c0,.45.47.66,1,.66a3.08,3.08,0,0,0,1-.14l.14.73a3.44,3.44,0,0,1-1.25.22,1.67,1.67,0,0,1-1.85-1.77,1.73,1.73,0,0,1,1.75-1.85,1.53,1.53,0,0,1,1.54,1.73,2.49,2.49,0,0,1,0,.42Z"/><path class="cls-26" d="M612.41,493.69l.52,1.7c.06.2.13.46.17.64h0c0-.18.11-.45.16-.64l.42-1.7h1.15L614,496a5.31,5.31,0,0,1-1.22,2.27,2,2,0,0,1-1,.47l-.23-.91a1.36,1.36,0,0,0,.47-.18,1.24,1.24,0,0,0,.45-.43.27.27,0,0,0,.06-.16.39.39,0,0,0,0-.18l-1.27-3.16Z"/><path class="cls-26" d="M615.84,497.23a.65.65,0,1,1,.64-.65.62.62,0,0,1-.64.65Z"/><polygon class="cls-26" points="618.89 492.38 619.97 492.38 619.97 496.25 621.87 496.25 621.87 497.15 618.89 497.15 618.89 492.38 618.89 492.38"/><path class="cls-26" d="M622.61,497.15v-3.46h1.08v3.46Zm1.11-4.42a.54.54,0,0,1-.58.54.54.54,0,1,1,0-1.08.54.54,0,0,1,.57.54Z"/><path class="cls-26" d="M625.49,493.69l.47,1.61a8.2,8.2,0,0,1,.2.84h0c.06-.28.11-.54.19-.84l.45-1.61h1.13l-1.29,3.46h-1.08l-1.26-3.46Z"/><path class="cls-26" d="M630.43,495a.62.62,0,0,0-.61-.7.7.7,0,0,0-.66.7Zm-1.27.74c0,.45.47.66,1,.66a3.08,3.08,0,0,0,1-.14l.14.73a3.43,3.43,0,0,1-1.25.22,1.67,1.67,0,0,1-1.85-1.77,1.73,1.73,0,0,1,1.75-1.85,1.53,1.53,0,0,1,1.54,1.73,2.39,2.39,0,0,1,0,.42Z"/><path class="cls-26" d="M634.57,495.68a.81.81,0,0,0,0,.19.65.65,0,0,0,.63.51c.46,0,.74-.35.74-1s-.24-1-.74-1a.67.67,0,0,0-.63.53.91.91,0,0,0,0,.2v.51Zm-1.07-3.55h1.07v2h0a1.22,1.22,0,0,1,1-.49c.83,0,1.44.69,1.43,1.75a1.66,1.66,0,0,1-1.58,1.87,1.15,1.15,0,0,1-1-.56h0l0,.48h-.91c0-.23,0-.64,0-1v-4Z"/><path class="cls-26" d="M639.84,495a.62.62,0,0,0-.61-.7.71.71,0,0,0-.67.7Zm-1.26.74c0,.45.47.66,1,.66a3.08,3.08,0,0,0,1-.14l.14.73a3.43,3.43,0,0,1-1.25.22,1.66,1.66,0,0,1-1.85-1.77,1.73,1.73,0,0,1,1.75-1.85,1.53,1.53,0,0,1,1.54,1.73,2.59,2.59,0,0,1,0,.42Z"/><path class="cls-26" d="M642.82,492.75v.94h.77v.79h-.77v1.25c0,.42.1.61.42.61a1.36,1.36,0,0,0,.32,0v.81a2.11,2.11,0,0,1-.7.1,1.12,1.12,0,0,1-.81-.3,1.43,1.43,0,0,1-.3-1v-1.42h-.46v-.79h.46V493l1.05-.29Z"/><path class="cls-26" d="M645.56,492.75v.94h.77v.79h-.77v1.25c0,.42.1.61.42.61a1.36,1.36,0,0,0,.32,0v.81a2.1,2.1,0,0,1-.7.1,1.12,1.12,0,0,1-.81-.3,1.44,1.44,0,0,1-.3-1v-1.42H644v-.79h.46V493l1.05-.29Z"/><path class="cls-26" d="M649.19,495a.62.62,0,0,0-.61-.7.71.71,0,0,0-.67.7Zm-1.27.74c0,.45.47.66,1,.66a3.07,3.07,0,0,0,1-.14l.14.73a3.42,3.42,0,0,1-1.25.22,1.66,1.66,0,0,1-1.85-1.77,1.73,1.73,0,0,1,1.75-1.85,1.53,1.53,0,0,1,1.54,1.73,2.43,2.43,0,0,1,0,.42Z"/><path class="cls-26" d="M651,494.83c0-.51,0-.84,0-1.14h.93l0,.64h0a1,1,0,0,1,.93-.71h.23v1a1,1,0,0,0-.29,0,.69.69,0,0,0-.73.54,1.3,1.3,0,0,0,0,.24v1.75H651v-2.32Z"/><path class="cls-26" d="M654.2,497.23a.65.65,0,1,1,.64-.65.62.62,0,0,1-.64.65Z"/><path class="cls-27" d="M669.4,477.36a1.09,1.09,0,0,0,1.16-.71l.59-6.67c0-.66-.77-1.2-1.74-1.2s-1.74.54-1.74,1.2l.59,6.67a1.09,1.09,0,0,0,1.15.71Z"/><path class="cls-27" d="M665.8,479.45a1.09,1.09,0,0,0,0-1.36l-5.48-3.84c-.57-.33-1.42.07-1.91.91s-.4,1.78.17,2.11l6.07,2.83a1.1,1.1,0,0,0,1.19-.65Z"/><path class="cls-27" d="M673,479.44a1.1,1.1,0,0,0,1.19.65l6.07-2.83c.57-.33.65-1.27.17-2.11s-1.34-1.24-1.91-.91L673,478.09a1.09,1.09,0,0,0,0,1.36Z"/><path class="cls-27" d="M669.4,485.69a1.09,1.09,0,0,1,1.16.71l.59,6.67c0,.66-.77,1.2-1.74,1.2s-1.74-.54-1.74-1.2l.59-6.67a1.09,1.09,0,0,1,1.15-.71Z"/><path class="cls-27" d="M673,483.61a1.09,1.09,0,0,1,1.19-.64l6.07,2.82c.57.33.65,1.27.17,2.11s-1.34,1.24-1.91.91L673,485a1.1,1.1,0,0,1,0-1.36Z"/><path class="cls-27" d="M665.8,483.61a1.09,1.09,0,0,1,0,1.36l-5.48,3.84c-.57.33-1.42-.07-1.91-.91s-.4-1.78.17-2.11l6.07-2.82a1.09,1.09,0,0,1,1.19.64Z"/><path class="cls-26" d="M634.83,485a2,2,0,0,1-2.1,2,1.37,1.37,0,0,1-1.49-1.47c0-1.53,1.68-1.95,3.59-1.94V485Zm3-2.66c0-2.52-1.08-4.73-4.71-4.73a8.61,8.61,0,0,0-4.16,1l.59,2a6.09,6.09,0,0,1,3-.85c1.84,0,2.15,1,2.15,1.72v.16c-4,0-6.56,1.38-6.56,4.22a3.35,3.35,0,0,0,3.54,3.35,4,4,0,0,0,3.23-1.44H635s.46,1.92,3,1.19a16.22,16.22,0,0,1-.18-2.68v-4Z"/><path class="cls-26" d="M575.22,474.13s2.63,10.76,3,12.51c.49,2,1.37,2.79,3.91,2.28l1.64-6.67c.42-1.66.69-2.84,1-4.52h0a44.21,44.21,0,0,0,.8,4.53s.67,3,1,4.62,1.3,2.59,3.79,2l3.91-14.79h-3.15l-1.33,6.39c-.36,1.86-.68,3.32-.93,5h0c-.23-1.69-.52-3.08-.88-4.9l-1.39-6.52H583.3l-1.49,6.35c-.42,1.93-.81,3.49-1.06,5.13h0c-.26-1.55-.6-3.51-1-5.38,0,0-.88-4.54-1.19-6.11Z"/><path class="cls-26" d="M600.29,485a2,2,0,0,1-2.1,2,1.37,1.37,0,0,1-1.49-1.47c0-1.53,1.68-1.95,3.59-1.94V485Zm3-2.66c0-2.52-1.08-4.73-4.71-4.73a8.61,8.61,0,0,0-4.16,1l.59,2a6.09,6.09,0,0,1,3-.85c1.84,0,2.15,1,2.15,1.72v.16c-4,0-6.56,1.38-6.56,4.22a3.35,3.35,0,0,0,3.54,3.35,4,4,0,0,0,3.23-1.44h.07s.46,1.92,3,1.19a16.23,16.23,0,0,1-.18-2.68v-4Z"/><polygon class="cls-26" points="608.29 485.78 608.29 474.13 605.29 474.13 605.29 488.92 608.29 488.92 608.29 485.78 608.29 485.78"/><path class="cls-26" d="M647.59,474.13V485a4.58,4.58,0,0,0,.89,3.2,3.33,3.33,0,0,0,2.44.93,7.14,7.14,0,0,0,2.17-.32l0-2.35a4.57,4.57,0,0,1-1.14.14c-1,0-1.37-.66-1.37-2v-4.17h2.62v-2.83h-2.62v-3.5Z"/><path class="cls-26" d="M639.84,477.81v11.11h3.1v-5.69a4.22,4.22,0,0,1,.07-.82,2.34,2.34,0,0,1,2.45-2,5.66,5.66,0,0,1,.89.08v-2.91a3,3,0,0,0-.68-.07,3.27,3.27,0,0,0-3,2.35h-.08v-2.1Z"/><path class="cls-26" d="M610.4,477.81v11.11h3v-6.52a2.61,2.61,0,0,1,.14-.91,2,2,0,0,1,1.83-1.42c1.22,0,1.79,1,1.79,2.52v6.33h3v-6.59a3.09,3.09,0,0,1,.13-.9,1.9,1.9,0,0,1,1.81-1.35c1.23,0,1.83,1,1.83,2.76v6.09h3v-6.54c0-3.45-1.75-4.82-3.73-4.82a4,4,0,0,0-2.19.6,4.68,4.68,0,0,0-1.41,1.38h0a3.17,3.17,0,0,0-3.06-2,3.5,3.5,0,0,0-3.24,1.76h0v-1.51Z"/><path class="cls-27" d="M681.47,488.74h.06c.07,0,.12,0,.12-.08s0-.08-.11-.08h-.07v.15Zm0,.29h-.12v-.51l.2,0a.29.29,0,0,1,.18,0,.14.14,0,0,1,.05.11.13.13,0,0,1-.11.12h0c.05,0,.08.06.09.13a.35.35,0,0,0,0,.13h-.13a.41.41,0,0,1,0-.12c0-.06,0-.08-.11-.08h-.06v.2Zm.08-.68a.41.41,0,0,0,0,.82.39.39,0,0,0,.39-.41.4.4,0,0,0-.4-.41Zm0-.1a.52.52,0,1,1-.54.52.52.52,0,0,1,.53-.52Z"/></svg>